<?xml version="1.0" standalone="no"?>
<!DOCTYPE svg PUBLIC "-//W3C//DTD SVG 20010904//EN"
 "http://www.w3.org/TR/2001/REC-SVG-20010904/DTD/svg10.dtd">
<svg version="1.0" xmlns="http://www.w3.org/2000/svg"
 width="240.000000pt" height="240.000000pt" viewBox="0 0 240.000000 240.000000"
 preserveAspectRatio="xMidYMid meet">

<g transform="translate(0.000000,240.000000) scale(0.100000,-0.100000)"
fill="#000000" stroke="none">
<path d="M233 2393 l238 -3 9 -26 c6 -14 10 -38 10 -54 0 -16 5 -32 10 -35 6
-4 10 15 10 49 l0 56 61 0 c58 0 60 -1 54 -22 -5 -18 -4 -19 4 -8 8 12 12 9
21 -14 6 -16 8 -32 4 -35 -5 -6 -9 -7 -35 -10 -12 -1 -10 -111 3 -111 5 0 6
-5 3 -11 -5 -7 -15 -5 -31 6 -18 12 -29 13 -43 5 -11 -5 -26 -7 -34 -4 -8 3
-18 1 -22 -5 -3 -6 -1 -11 4 -11 6 0 11 -11 11 -25 0 -27 18 -33 39 -12 11 10
12 8 6 -10 -8 -30 -4 -29 36 7 19 17 46 38 61 47 29 18 39 48 26 83 -6 16 -5
26 4 31 16 10 20 6 24 -32 2 -18 5 -33 7 -35 1 -1 47 17 102 40 55 24 124 51
152 60 44 14 52 21 50 39 -2 21 3 22 71 24 55 2 72 -1 72 -11 0 -9 13 -14 37
-14 35 0 36 1 18 14 -18 13 -17 14 14 14 26 0 32 -3 27 -15 -9 -24 34 -37 57
-17 15 14 17 13 17 -3 0 -11 5 -15 15 -11 8 3 15 1 15 -4 0 -6 9 -10 20 -10
11 0 20 5 20 10 0 6 7 10 15 10 18 0 20 -17 3 -23 -7 -2 7 -10 32 -17 25 -7
49 -17 55 -22 5 -4 19 -8 32 -8 13 0 23 -4 23 -10 0 -5 22 -21 49 -35 34 -17
68 -48 108 -97 33 -40 63 -80 66 -88 18 -38 44 -74 57 -78 13 -3 13 -2 0 7
-11 7 -12 13 -4 21 8 8 15 6 24 -5 11 -13 11 -19 -3 -32 -14 -15 -14 -20 8
-62 33 -66 60 -159 64 -216 1 -21 4 -26 10 -16 9 14 31 7 31 -10 0 -6 -4 -8
-9 -5 -13 9 -22 -41 -17 -94 3 -28 12 -50 24 -60 11 -9 22 -26 26 -38 4 -13
12 -19 22 -15 7 3 14 1 14 -5 0 -12 -55 -26 -69 -18 -16 10 -35 -103 -22 -131
9 -21 7 -27 -15 -48 -39 -36 -54 -32 -54 14 0 53 -25 118 -62 165 -20 25 -27
41 -20 44 7 2 12 8 12 12 0 5 -19 0 -42 -10 -24 -11 -63 -20 -87 -20 -82 0
-133 51 -272 270 -94 149 -144 215 -216 280 -124 114 -312 155 -478 106 -197
-59 -445 -343 -445 -510 0 -33 7 -52 30 -81 29 -37 43 -38 15 -2 -26 35 -28
90 -5 157 30 90 81 163 176 257 65 63 103 91 170 125 78 38 97 43 169 46 185
8 318 -55 438 -208 38 -49 229 -350 222 -350 -2 0 -51 71 -109 158 -57 86
-112 164 -122 173 -37 31 -172 62 -279 63 -98 1 -102 0 -185 -40 -143 -69
-326 -221 -413 -342 -37 -53 -37 -53 -36 -150 l1 -97 16 70 c19 79 38 92 78
54 31 -29 30 -40 -6 -72 -17 -15 -30 -35 -30 -45 0 -10 -4 -22 -9 -27 -18 -18
-62 -272 -64 -365 -2 -79 31 -328 50 -377 3 -9 -4 -13 -21 -13 -34 0 -33 -17
2 -24 18 -5 35 -20 50 -47 13 -23 57 -76 98 -119 42 -44 74 -86 74 -97 0 -11
7 -26 15 -33 8 -7 15 -17 15 -22 0 -6 -7 -4 -17 3 -15 13 -16 10 -9 -31 9 -56
22 -72 34 -40 8 22 9 23 14 3 6 -23 -40 -65 -83 -76 -15 -4 -29 -14 -33 -22
-5 -13 86 -15 799 -15 543 0 805 3 805 10 0 14 -38 28 -102 37 l-53 7 45 8
c41 8 60 9 98 6 8 -1 9 -5 3 -11 -7 -7 0 -18 21 -34 38 -27 55 -29 80 -6 17
15 18 15 18 0 0 -13 9 -17 40 -17 32 0 38 3 33 16 -5 14 -3 15 15 5 17 -9 23
-8 32 6 10 16 11 16 7 -4 -4 -19 -1 -22 24 -20 l28 2 0 492 c1 372 -2 493 -11
493 -9 0 -9 3 0 12 17 17 16 102 -1 92 -9 -6 -9 -4 -1 7 7 8 12 59 13 123 0
89 -2 111 -15 121 -15 10 -15 13 -1 27 13 13 16 58 16 308 1 267 -1 294 -17
306 -16 13 -16 13 1 14 16 0 17 16 17 200 l0 200 -1202 -2 c-662 -2 -1096 -4
-965 -5z m1759 -13 c24 0 27 -4 30 -37 2 -27 8 -39 21 -41 12 -2 17 3 17 17 0
12 6 21 15 21 23 0 18 -16 -12 -44 -20 -19 -24 -29 -16 -37 13 -13 -13 -72
-30 -66 -7 3 -11 10 -10 16 4 15 -20 14 -35 -1 -9 -9 -12 -7 -12 11 0 18 4 22
19 18 30 -8 46 37 24 68 -15 20 -53 45 -69 45 -2 0 -9 -11 -14 -25 -5 -14 -17
-25 -25 -25 -9 0 -13 5 -9 11 4 8 0 9 -15 4 -12 -3 -35 -4 -51 0 -23 5 -30 12
-30 31 0 28 -15 30 -58 8 -36 -18 -67 -8 -52 16 8 12 13 13 28 3 11 -6 23 -8
28 -3 12 12 55 15 149 13 44 -1 92 -2 107 -3z m-1290 -12 c-15 -15 -16 -32 -2
-23 6 3 10 0 10 -7 0 -9 3 -9 10 2 8 12 10 11 10 -7 0 -25 -10 -29 -28 -11 -9
9 -12 8 -12 -5 0 -9 -4 -17 -10 -17 -5 0 -10 9 -10 20 0 24 21 60 34 60 6 0 5
-5 -2 -12z m128 -14 c10 -25 4 -74 -9 -74 -9 0 -32 39 -42 72 -7 25 -5 28 17
28 17 0 27 -8 34 -26z m470 11 c0 -8 -4 -15 -10 -15 -5 0 -10 7 -10 15 0 8 5
15 10 15 6 0 10 -7 10 -15z m908 3 c-3 -7 -11 -13 -18 -13 -7 0 -15 6 -17 13
-3 7 4 12 17 12 13 0 20 -5 18 -12z m146 -4 c4 -10 1 -14 -6 -12 -15 5 -23 28
-10 28 5 0 13 -7 16 -16z m-1384 -8 c0 -11 -19 -15 -25 -6 -3 5 1 10 9 10 9 0
16 -2 16 -4z m520 0 c0 -3 -4 -8 -10 -11 -5 -3 -10 -1 -10 4 0 6 5 11 10 11 6
0 10 -2 10 -4z m-560 -15 c0 -6 -4 -13 -10 -16 -5 -3 -10 1 -10 9 0 9 5 16 10
16 6 0 10 -4 10 -9z m599 -32 c-16 -10 -23 -4 -14 10 3 6 11 8 17 5 6 -4 5 -9
-3 -15z m201 11 c-8 -5 -19 -10 -25 -10 -5 0 -3 5 5 10 8 5 20 10 25 10 6 0 3
-5 -5 -10z m46 -31 c3 -49 -8 -64 -35 -50 -22 12 -20 31 3 31 8 0 16 9 19 20
3 11 1 20 -4 20 -5 0 -9 5 -9 11 0 6 5 9 12 7 7 -3 13 -20 14 -39z m-1016 -26
c0 -13 -4 -23 -9 -23 -10 0 -21 57 -12 65 8 8 21 -18 21 -42z m960 11 c0 -2
-9 -4 -21 -4 -11 0 -18 4 -14 10 5 8 35 3 35 -6z m461 -17 c-1 -4 -1 -11 -1
-17 0 -5 -7 -10 -15 -10 -8 0 -15 -4 -15 -8 0 -4 -9 -8 -20 -9 -18 -2 -19 1
-8 20 7 12 13 25 14 30 1 4 2 9 3 12 2 7 43 -10 42 -18z m179 7 c0 -8 -4 -12
-10 -9 -5 3 -10 10 -10 16 0 5 5 9 10 9 6 0 10 -7 10 -16z m-1706 -64 c-6 -6
-10 2 -11 23 -2 30 -1 31 9 9 7 -14 8 -26 2 -32z m1444 3 c-3 -42 -28 -59 -28
-20 0 32 9 57 22 57 5 0 8 -17 6 -37z m-368 18 c0 -5 -7 -12 -16 -15 -24 -9
-28 -7 -14 9 14 17 30 20 30 6z m35 -10 c3 -5 1 -12 -5 -16 -5 -3 -10 1 -10 9
0 18 6 21 15 7z m250 -54 c-1 -21 3 -26 16 -22 15 5 17 0 14 -30 -2 -23 1 -35
10 -35 7 0 19 -8 26 -17 12 -15 12 -16 -8 -11 -21 6 -22 3 -20 -53 3 -59 -6
-77 -18 -39 -3 11 -3 24 0 30 3 5 2 10 -4 10 -6 0 -9 16 -7 35 1 20 -3 40 -11
46 -7 6 -12 23 -10 37 1 14 -3 27 -9 29 -6 2 -9 15 -6 29 6 32 27 25 27 -9z
m315 8 c0 -8 -7 -15 -15 -15 -16 0 -20 12 -8 23 11 12 23 8 23 -8z m40 -85 c0
-13 -1 -13 -10 0 -7 11 -10 11 -10 2 0 -7 -5 -10 -10 -7 -6 4 -8 11 -5 16 4 5
1 9 -4 9 -6 0 -11 4 -11 9 0 5 11 4 25 -2 14 -7 25 -19 25 -27z m4 -32 c-3 -4
-11 -5 -18 -2 -8 3 -17 1 -21 -5 -3 -6 1 -11 10 -11 9 0 13 -5 10 -10 -9 -14
-35 7 -35 26 0 10 10 14 29 12 16 -1 28 -6 25 -10z m-70 -133 c3 -8 1 -15 -3
-15 -5 0 -11 7 -15 15 -3 8 -1 15 3 15 5 0 11 -7 15 -15z m-254 -5 c0 -5 -4
-10 -10 -10 -5 0 -10 5 -10 10 0 6 5 10 10 10 6 0 10 -4 10 -10z m-100 -36 c0
-8 -4 -12 -10 -9 -5 3 -10 10 -10 16 0 5 5 9 10 9 6 0 10 -7 10 -16z m235 6
c3 -5 2 -10 -4 -10 -5 0 -13 5 -16 10 -3 6 -2 10 4 10 5 0 13 -4 16 -10z
m-143 -47 c2 -10 1 -33 -3 -50 -4 -18 -3 -33 2 -33 14 0 11 -20 -5 -35 -12
-12 -15 -11 -21 12 -4 19 -9 23 -14 14 -6 -9 -10 -7 -14 9 -4 16 -2 20 9 16 9
-3 14 1 14 13 0 11 5 21 11 23 5 2 7 11 4 21 -4 9 -11 15 -15 12 -5 -3 -11 -1
-15 5 -4 6 4 10 19 10 15 0 26 -7 28 -17z m186 -77 c-3 -31 -15 -21 -18 14 -3
38 0 47 10 28 6 -9 9 -28 8 -42z m139 19 c0 -8 -4 -12 -9 -9 -5 3 -6 10 -3 15
9 13 12 11 12 -6z m-77 -90 c-7 -8 -16 -12 -21 -10 -4 3 -1 15 9 26 9 11 18
15 20 9 2 -6 -2 -17 -8 -25z m60 5 c0 -5 -4 -10 -9 -10 -5 0 -17 -3 -25 -6
-12 -5 -15 -2 -10 10 7 17 44 22 44 6z m-300 -15 c0 -8 -4 -15 -10 -15 -5 0
-10 7 -10 15 0 8 5 15 10 15 6 0 10 -7 10 -15z m-53 -17 c-3 -8 -6 -5 -6 6 -1
11 2 17 5 13 3 -3 4 -12 1 -19z m-1000 3 c9 8 13 8 13 0 0 -14 27 -14 32 0 7
20 48 -13 48 -38 0 -22 31 -63 48 -63 15 0 43 -36 35 -44 -5 -4 -3 -6 2 -4 6
1 27 -14 48 -35 21 -20 43 -37 49 -37 6 0 26 -13 45 -30 l34 -30 -26 0 c-49 0
-155 -42 -198 -77 -23 -20 -41 -40 -39 -44 3 -14 -117 -16 -245 -3 -53 5 -66
10 -97 40 -20 19 -36 39 -36 44 0 6 -7 10 -15 10 -8 0 -15 4 -15 9 0 5 -9 13
-20 16 -33 10 -23 28 31 59 36 20 59 27 79 23 25 -5 30 -2 44 28 9 19 21 37
26 40 6 4 8 10 5 15 -3 5 4 12 16 15 12 4 18 12 15 21 -3 9 1 14 14 14 10 0
27 13 37 30 9 17 23 30 31 30 8 0 10 5 6 13 -5 9 -4 9 6 0 10 -9 17 -10 27 -2z
m1254 -11 c14 0 19 -7 19 -26 0 -15 -4 -23 -11 -19 -5 4 -20 -1 -31 -12 -21
-18 -21 -18 -15 9 5 17 3 28 -6 31 -9 3 -9 8 3 21 8 11 16 14 18 7 2 -6 12
-11 23 -11z m79 6 c0 -3 -4 -8 -10 -11 -5 -3 -10 -1 -10 4 0 6 5 11 10 11 6 0
10 -2 10 -4z m18 -36 c-7 -11 -20 -20 -28 -19 -10 0 -11 2 -2 6 6 2 12 11 12
19 0 8 7 14 15 14 13 0 13 -3 3 -20z m-315 -73 c-9 -15 -20 3 -20 35 l-1 33
13 -30 c7 -16 11 -33 8 -38z m232 12 c-5 -15 -3 -17 10 -12 13 4 16 1 13 -13
-2 -11 -11 -18 -20 -16 -12 2 -15 -3 -11 -17 5 -21 -12 -37 -22 -21 -5 8 -11
7 -21 -1 -11 -9 -14 -8 -14 6 0 17 -1 17 -18 2 -41 -37 -54 1 -14 41 l22 22 0
-22 c0 -25 16 -14 22 15 1 10 7 17 11 15 5 -2 13 5 18 15 13 22 32 11 24 -14z
m74 4 c0 -16 -3 -23 -5 -16 -3 7 -12 9 -20 6 -20 -7 -17 14 4 26 9 6 18 11 20
11 1 0 2 -12 1 -27z m-16 -62 c3 -15 -1 -18 -19 -17 -26 1 -31 15 -12 34 14
14 24 8 31 -17z m-302 -8 c13 -16 12 -17 -3 -4 -17 13 -22 21 -14 21 2 0 10
-8 17 -17z m289 -48 c0 -7 -8 -19 -17 -24 -12 -7 -13 -11 -5 -11 18 0 46 -29
37 -38 -4 -4 -10 -1 -12 6 -3 6 -11 12 -18 12 -20 0 -27 15 -19 45 7 26 34 35
34 10z m-141 -36 c-22 -14 -33 -10 -19 6 7 8 17 12 22 9 6 -4 5 -10 -3 -15z
m-170 -57 c6 -12 5 -25 -4 -42 l-13 -25 -11 28 c-6 16 -11 35 -11 43 0 20 27
18 39 -4z m171 8 c-12 -8 -9 -10 12 -10 20 0 26 -4 22 -15 -8 -19 -21 -19 -40
-1 -19 20 -18 36 4 36 14 0 15 -2 2 -10z m176 -5 c-3 -8 0 -15 6 -15 7 0 6 -5
-2 -15 -19 -22 -43 0 -29 26 12 22 34 26 25 4z m-213 -55 c-3 -11 -9 -20 -14
-20 -5 0 -9 9 -9 20 0 11 6 20 14 20 9 0 12 -7 9 -20z m208 -3 c11 -8 14 -18
8 -32 -4 -11 -8 -14 -8 -7 -1 20 -42 11 -71 -16 -14 -12 -29 -21 -35 -19 -14
5 -14 60 -1 69 18 12 29 9 23 -6 -10 -26 6 -26 29 -1 26 28 32 29 55 12z m49
-7 c0 -5 -4 -10 -10 -10 -5 0 -10 5 -10 10 0 6 5 10 10 10 6 0 10 -4 10 -10z
m-60 -40 c0 -5 -4 -10 -10 -10 -5 0 -10 5 -10 10 0 6 5 10 10 10 6 0 10 -4 10
-10z m8 -51 c-1 -14 2 -31 6 -37 8 -14 -30 -36 -50 -28 -7 3 -11 11 -9 18 4 9
-2 14 -15 15 -11 1 -20 -2 -20 -8 0 -5 4 -9 10 -9 5 0 6 -8 3 -17 -4 -11 -8
-12 -11 -5 -2 7 -15 12 -28 12 -15 0 -24 6 -24 15 0 8 0 18 -1 22 0 4 4 9 10
11 6 2 11 -5 11 -15 0 -15 3 -14 20 7 16 20 22 22 29 11 10 -15 41 -8 41 10 0
6 -7 9 -15 6 -14 -6 -29 6 -20 15 3 3 18 5 34 4 25 -1 29 -5 29 -27z m-1370
-28 c11 -6 11 -17 2 -50 -6 -23 -8 -46 -5 -52 15 -23 14 -77 -2 -118 -13 -33
-14 -46 -5 -49 9 -3 6 -12 -8 -32 -22 -31 -25 -52 -10 -80 8 -16 6 -22 -14
-35 -25 -16 -99 -27 -90 -13 3 4 -1 8 -9 8 -8 0 -22 9 -31 19 -16 17 -16 26
-6 78 6 32 14 65 17 73 3 8 6 36 7 62 1 30 8 56 23 76 12 16 25 46 28 66 4 20
15 41 24 46 20 12 62 12 79 1z m-426 -18 c-10 -4 -9 -8 5 -19 17 -13 17 -13 1
-14 -10 0 -18 2 -18 4 0 2 -3 11 -6 20 -4 11 -1 16 12 15 12 0 14 -3 6 -6z
m163 -12 c3 -5 -4 -13 -16 -16 -23 -8 -34 -1 -24 14 8 13 32 14 40 2z m562
-16 c10 -23 9 -25 -17 -25 -37 0 -58 24 -33 39 27 16 37 13 50 -14z m141 3
c-6 -18 -28 -21 -28 -4 0 9 7 16 16 16 9 0 14 -5 12 -12z m522 -13 c0 -30 -32
-50 -58 -36 -16 10 -16 10 0 11 12 0 15 5 11 16 -6 16 12 34 35 34 6 0 12 -11
12 -25z m268 -44 c-15 -5 -21 7 -13 26 7 17 8 17 15 -2 4 -11 3 -22 -2 -24z
m186 -13 c-3 -4 -8 -8 -12 -8 -10 0 -31 48 -24 55 8 8 42 -37 36 -47z m-1721
35 c-7 -2 -19 -2 -25 0 -7 3 -2 5 12 5 14 0 19 -2 13 -5z m1652 -3 c3 -5 -1
-10 -9 -10 -9 0 -16 5 -16 10 0 6 4 10 9 10 6 0 13 -4 16 -10z m-41 -21 c-3
-5 -10 -7 -15 -3 -5 3 -7 10 -3 15 3 5 10 7 15 3 5 -3 7 -10 3 -15z m39 -13
c6 -16 -19 -30 -28 -16 -7 11 2 30 15 30 4 0 10 -6 13 -14z m-436 -41 c13 -23
-6 -68 -36 -85 -28 -15 -28 -15 -23 48 7 86 25 98 59 37z m503 11 c0 -3 -4 -8
-10 -11 -5 -3 -10 -1 -10 4 0 6 5 11 10 11 6 0 10 -2 10 -4z m-30 -38 c0 -5
-6 -8 -14 -8 -9 0 -12 7 -9 21 4 16 8 17 14 7 5 -7 9 -16 9 -20z m-835 -18
c13 0 16 -6 12 -21 -4 -15 -2 -18 7 -10 8 7 11 3 11 -15 -1 -14 -8 -30 -16
-35 -11 -7 -10 -9 5 -9 14 0 16 -3 7 -14 -6 -7 -8 -21 -5 -30 4 -10 -1 -25
-11 -36 -10 -11 -14 -20 -10 -20 5 0 -11 -18 -35 -39 -49 -44 -117 -69 -146
-53 -31 15 -74 -10 -74 -42 0 -9 -6 -16 -14 -16 -8 0 -21 -3 -30 -6 -20 -8
-23 31 -3 40 6 3 2 3 -10 0 -19 -4 -23 -1 -23 20 0 14 -5 28 -11 32 -8 4 -9 0
-4 -15 4 -12 2 -21 -4 -21 -6 0 -11 8 -12 18 -2 41 3 88 12 97 15 15 10 32
-16 56 -13 13 -25 34 -25 46 0 12 -4 33 -9 46 -7 17 -6 30 3 42 11 15 18 16
47 7 19 -6 67 -9 106 -7 41 2 75 -1 79 -6 3 -6 10 -6 17 -1 21 17 67 23 67 10
0 -8 6 -6 18 5 16 17 18 17 34 -3 9 -11 24 -20 33 -20z m-822 -13 c-3 -18 -10
-38 -16 -45 -5 -7 -7 -15 -4 -19 4 -3 1 -15 -5 -27 -7 -11 -13 -27 -14 -34 -5
-29 -14 -43 -24 -37 -5 3 -10 1 -10 -4 0 -6 -9 -11 -20 -11 -11 0 -20 5 -20
11 0 6 -6 9 -14 6 -8 -3 -17 -3 -21 1 -7 7 -12 8 -38 11 -8 0 -19 11 -24 24
-13 28 -5 80 10 70 6 -4 8 0 4 10 -9 24 2 47 23 47 11 0 22 5 25 10 3 6 11 10
16 10 6 0 7 -5 3 -11 -5 -8 -1 -8 13 0 11 6 22 8 25 6 3 -3 22 1 44 9 49 17
55 13 47 -27z m1686 14 c12 -8 12 -12 2 -25 -14 -17 -36 -22 -26 -7 3 5 1 12
-5 16 -6 4 -8 11 -5 16 8 11 16 11 34 0z m-229 -26 c0 -8 -9 -15 -20 -15 -22
0 -27 15 -7 23 21 9 27 7 27 -8z m-150 -90 c0 -24 -4 -46 -9 -49 -10 -7 -25
79 -16 94 13 20 25 -2 25 -45z m262 23 c-15 -15 -26 -4 -18 18 5 13 9 15 18 6
9 -9 9 -15 0 -24z m63 5 c3 -10 1 -19 -5 -21 -6 -2 -17 -10 -24 -18 -8 -8 -19
-14 -24 -14 -5 0 -12 -9 -15 -20 -3 -11 -1 -20 5 -20 15 0 39 -28 29 -35 -5
-3 -13 0 -16 5 -4 6 -19 9 -33 6 -15 -3 -34 -2 -42 4 -13 8 -12 10 3 10 9 0
17 7 17 16 0 15 75 98 91 102 4 1 10 -6 14 -15z m-487 -13 c-7 -11 -21 -20
-30 -20 -25 0 -22 13 5 26 33 17 38 16 25 -6z m535 -17 c-4 -11 -3 -14 5 -9 8
5 10 2 6 -8 -7 -17 -30 -21 -38 -7 -9 14 4 41 20 41 8 0 11 -6 7 -17z m-1285
-85 c-5 -13 -29 -19 -76 -20 -59 0 -57 16 5 37 40 14 78 4 71 -17z m802 -17
c0 -12 -42 -42 -49 -36 -5 6 30 44 42 44 4 1 7 -3 7 -8z m253 -6 c4 -8 1 -17
-5 -21 -7 -4 -6 -9 2 -14 15 -9 5 -30 -15 -30 -19 0 -26 27 -13 55 13 28 23
32 31 10z m191 6 c3 -5 16 -7 29 -4 l22 5 -22 -20 c-13 -11 -23 -25 -23 -32 0
-6 -5 -8 -10 -5 -8 5 -8 11 0 20 6 7 7 16 2 19 -5 3 -15 -7 -22 -22 -13 -26
-14 -26 -18 -5 -5 32 28 67 42 44z m-90 -17 c3 -9 6 -17 6 -18 0 -1 -14 -3
-31 -4 -21 -2 -29 1 -26 10 2 7 10 12 16 11 6 -2 11 2 11 7 0 16 17 12 24 -6z
m-12 -71 c8 -29 -2 -43 -28 -43 -28 0 -30 12 -7 40 21 25 29 25 35 3z m128 8
c0 -5 -7 -14 -15 -21 -8 -7 -15 -10 -15 -7 0 3 -3 12 -6 21 -4 12 0 16 15 16
12 0 21 -4 21 -9z m-246 -51 c-8 -15 -22 -34 -31 -41 -14 -13 -16 -11 -11 13
4 19 1 25 -9 21 -8 -3 -13 3 -13 17 0 16 4 20 19 15 11 -3 22 -1 25 4 4 6 13
8 20 5 12 -4 12 -10 0 -34z m206 20 c0 -5 -4 -10 -10 -10 -5 0 -10 5 -10 10 0
6 5 10 10 10 6 0 10 -4 10 -10z m-40 -17 c0 3 12 -1 28 -8 16 -9 28 -11 30 -5
6 16 22 1 22 -21 0 -10 5 -19 11 -19 6 0 1 -9 -12 -19 -18 -14 -29 -17 -42
-10 -9 6 -21 7 -26 4 -5 -3 -17 2 -25 11 -18 18 -21 11 -6 -16 12 -22 -4 -75
-20 -65 -8 5 -8 11 -1 19 7 8 6 21 -4 40 -12 22 -12 30 -2 39 18 18 47 17 47
-1 0 -11 3 -13 10 -6 15 15 1 44 -20 44 -10 0 -30 -7 -46 -14 -28 -15 -49 -12
-39 5 4 5 14 9 24 9 10 0 24 7 31 15 10 12 16 13 26 4 8 -6 14 -9 14 -6z
m-142 -55 c-6 -17 -38 -19 -38 -2 0 8 9 14 21 14 11 0 19 -5 17 -12z m2 -43
c8 5 11 3 8 -6 -7 -21 -32 -17 -36 6 -2 15 -1 17 6 6 6 -8 15 -10 22 -6z
m-180 -16 c0 -6 -4 -7 -10 -4 -5 3 -10 11 -10 16 0 6 5 7 10 4 6 -3 10 -11 10
-16z m350 11 c0 -5 -5 -10 -11 -10 -5 0 -7 5 -4 10 3 6 8 10 11 10 2 0 4 -4 4
-10z m-400 -10 c0 -5 -2 -10 -4 -10 -3 0 -8 5 -11 10 -3 6 -1 10 4 10 6 0 11
-4 11 -10z m375 -33 c1 -7 -4 -15 -9 -19 -5 -3 -3 -12 5 -20 20 -20 47 -29 54
-18 8 13 25 13 25 -1 0 -6 -9 -13 -20 -16 -11 -3 -20 -8 -20 -12 0 -4 -15 -8
-32 -9 -26 -2 -30 0 -20 10 6 6 12 19 12 27 0 12 -3 12 -12 3 -30 -30 -33 0
-6 55 11 23 23 22 23 0z m-1340 3 c-3 -5 -33 -10 -66 -10 -38 0 -58 4 -54 10
3 6 33 10 66 10 38 0 58 -4 54 -10z m998 -15 c-3 -9 -8 -14 -10 -11 -3 3 -2 9
2 15 9 16 15 13 8 -4z m203 -63 c-11 -10 -14 3 -7 38 l6 35 3 -33 c2 -19 1
-36 -2 -40z m-1156 48 c0 -5 7 -10 15 -10 27 0 16 -16 -21 -29 -55 -20 -94
-24 -94 -10 0 8 -8 5 -20 -6 -11 -10 -20 -13 -20 -7 0 6 -14 15 -32 20 -62 16
-42 30 39 27 43 -1 84 3 91 8 8 6 12 6 12 -2 0 -6 4 -11 10 -11 5 0 7 7 4 15
-4 8 -1 15 5 15 6 0 11 -4 11 -10z m1236 -67 c-10 -10 -19 5 -10 18 6 11 8 11
12 0 2 -7 1 -15 -2 -18z m-130 0 c4 -10 6 -22 5 -27 -1 -4 4 -14 10 -22 8 -10
8 -14 0 -14 -6 0 -11 5 -11 10 0 6 -6 10 -14 10 -20 0 -29 16 -21 40 8 25 20
26 31 3z m210 -29 c-3 -9 -6 -20 -6 -25 0 -4 -7 -6 -15 -3 -11 5 -12 11 -4 25
12 23 34 26 25 3z m-95 -8 c-6 -7 -22 -11 -36 -8 -38 7 -30 22 11 22 30 0 34
-3 25 -14z m179 -52 c0 -21 -3 -22 -25 -14 -14 5 -32 7 -42 3 -11 -4 -14 -3
-9 5 4 7 14 12 22 12 8 0 12 5 9 10 -3 6 -1 10 4 10 6 0 11 -7 11 -15 0 -8 5
-15 10 -15 14 0 -5 37 -22 42 -6 2 -8 10 -4 17 11 17 46 -25 46 -55z m-435 46
c3 -6 -1 -13 -10 -16 -19 -8 -30 0 -20 15 8 14 22 14 30 1z m95 -5 c0 -8 5
-15 10 -15 6 0 10 -7 10 -16 0 -13 -3 -14 -13 -5 -8 6 -17 8 -20 4 -4 -3 -13
0 -21 6 -16 14 -29 0 -20 -22 3 -8 -2 -21 -10 -30 -9 -9 -13 -23 -10 -31 3 -9
1 -16 -5 -16 -15 0 -14 47 0 52 8 3 8 10 -2 27 -13 20 -12 24 10 42 28 23 71
26 71 4z m203 -2 c-7 -2 -19 -2 -25 0 -7 3 -2 5 12 5 14 0 19 -2 13 -5z m-35
-30 c-2 -10 -12 -18 -22 -18 -11 0 -21 -6 -24 -14 -3 -10 0 -12 12 -8 14 6 15
4 5 -16 -7 -12 -23 -32 -36 -45 l-24 -22 3 32 c2 18 8 39 15 46 7 7 10 19 7
27 -6 14 5 19 34 16 6 -1 12 3 12 9 0 5 5 10 11 10 6 0 9 -8 7 -17z m72 -3 c0
-5 -2 -10 -4 -10 -3 0 -8 5 -11 10 -3 6 -1 10 4 10 6 0 11 -4 11 -10z m67 -57
c26 -24 32 -43 21 -73 -7 -20 -11 -22 -18 -10 -13 20 -13 33 0 25 6 -3 10 1
10 9 0 13 -5 14 -26 5 -31 -11 -29 -12 -37 22 -10 42 15 53 50 22z m-1331 -25
c1 -18 -4 -28 -13 -28 -10 0 -12 -6 -8 -21 5 -15 4 -19 -4 -15 -6 4 -11 2 -11
-5 0 -7 -11 -9 -32 -5 -18 4 -46 8 -62 10 -22 2 -30 8 -31 24 -1 13 4 22 12
22 7 0 13 6 13 13 0 20 38 34 90 33 42 -1 45 -3 46 -28z m1044 17 c0 -8 -4
-15 -10 -15 -5 0 -7 7 -4 15 4 8 8 15 10 15 2 0 4 -7 4 -15z m-180 -5 c0 -5 1
-13 3 -17 1 -3 -6 -7 -15 -9 -20 -3 -20 -2 -12 20 7 18 24 22 24 6z m310 -30
c-6 -11 -15 -18 -21 -15 -5 4 -9 1 -9 -4 0 -6 5 -11 11 -11 5 0 7 -4 4 -10 -9
-15 -22 -12 -30 7 -4 12 1 24 15 35 30 24 43 23 30 -2z m-285 -19 c-7 -23 -25
-29 -25 -8 0 14 21 39 28 33 2 -3 1 -14 -3 -25z m115 15 c0 -8 -4 -17 -9 -20
-10 -7 -23 19 -14 28 11 11 23 6 23 -8z m38 -16 c-14 -22 -24 -19 -15 5 4 8
11 15 17 15 6 0 6 -7 -2 -20z m-228 -30 c0 -5 -4 -10 -10 -10 -5 0 -10 5 -10
10 0 6 5 10 10 10 6 0 10 -4 10 -10z m203 -14 c4 -10 1 -13 -8 -9 -8 3 -12 9
-9 14 7 12 11 11 17 -5z m207 4 c0 -5 -2 -10 -4 -10 -3 0 -8 5 -11 10 -3 6 -1
10 4 10 6 0 11 -4 11 -10z m-145 -10 c3 -5 -3 -10 -14 -10 -12 0 -21 5 -21 10
0 6 6 10 14 10 8 0 18 -4 21 -10z m-20 -39 c-3 -6 -11 -11 -17 -11 -6 0 -6 6
2 15 14 17 26 13 15 -4z m265 -13 c0 -11 -12 -10 -30 2 -13 9 -13 11 0 19 14
9 29 -2 30 -21z m-200 -8 c0 -5 -4 -10 -10 -10 -5 0 -10 5 -10 10 0 6 5 10 10
10 6 0 10 -4 10 -10z"/>
<path d="M2232 1530 c0 -14 2 -19 5 -12 2 6 2 18 0 25 -3 6 -5 1 -5 -13z"/>
<path d="M1450 979 c0 -5 5 -7 10 -4 6 3 10 8 10 11 0 2 -4 4 -10 4 -5 0 -10
-5 -10 -11z"/>
<path d="M1050 2355 c0 -8 5 -15 10 -15 6 0 10 7 10 15 0 8 -4 15 -10 15 -5 0
-10 -7 -10 -15z"/>
<path d="M570 2332 c0 -18 12 -42 21 -42 14 0 10 26 -6 40 -9 8 -15 8 -15 2z"/>
<path d="M543 2310 c-7 -11 -13 -29 -13 -39 0 -11 -4 -22 -9 -25 -5 -3 -11
-15 -14 -26 -3 -11 -1 -18 4 -14 5 3 9 0 9 -6 0 -6 4 -9 10 -5 5 3 7 12 3 20
-3 8 -1 15 5 15 5 0 13 -8 17 -17 6 -16 8 -16 26 6 20 25 25 51 10 51 -5 0
-13 -9 -16 -20 -6 -18 -8 -18 -21 -5 -12 11 -12 19 -4 35 16 30 9 57 -7 30z"/>
<path d="M500 2049 c0 -5 5 -7 10 -4 6 3 10 8 10 11 0 2 -4 4 -10 4 -5 0 -10
-5 -10 -11z"/>
<path d="M121 1957 c-19 -19 -13 -22 34 -21 42 1 65 9 54 18 -12 10 -78 13
-88 3z"/>
<path d="M1185 1910 c10 -11 20 -20 23 -20 3 0 -3 9 -13 20 -10 11 -20 20 -23
20 -3 0 3 -9 13 -20z"/>
<path d="M0 1793 c0 -63 4 -113 9 -113 25 0 41 32 35 71 -9 52 7 69 61 69 50
0 54 3 47 36 -7 39 -37 49 -83 28 -38 -17 -40 -17 -54 2 -13 17 -14 7 -15 -93z"/>
<path d="M1555 1870 c-3 -5 -2 -10 4 -10 5 0 13 5 16 10 3 6 2 10 -4 10 -5 0
-13 -4 -16 -10z"/>
<path d="M1625 1850 c3 -5 8 -10 11 -10 2 0 4 5 4 10 0 6 -5 10 -11 10 -5 0
-7 -4 -4 -10z"/>
<path d="M17 1630 c-21 -25 -22 -68 -2 -94 8 -11 15 -18 16 -15 2 10 7 129 6
129 -2 0 -10 -9 -20 -20z"/>
<path d="M30 1472 c0 -11 -7 -25 -15 -32 -17 -14 -21 -105 -5 -115 13 -8 13
-62 0 -70 -12 -8 -13 -95 -1 -114 7 -11 11 -10 20 6 11 22 17 208 6 234 -3 9
-2 34 4 57 5 25 5 44 0 48 -5 3 -9 -4 -9 -14z"/>
<path d="M1950 1469 c0 -8 7 -23 15 -33 15 -19 15 -19 15 1 0 11 -7 26 -15 33
-12 10 -15 10 -15 -1z"/>
<path d="M269 1273 c-1 -5 -1 -11 0 -15 0 -5 -3 -8 -9 -8 -20 0 -9 -56 21
-105 17 -27 28 -42 25 -33 -3 10 1 30 9 45 8 15 15 49 15 76 0 46 -1 47 -30
47 -16 0 -31 -3 -31 -7z"/>
<path d="M6 1063 c-8 -28 -3 -244 6 -249 4 -3 8 56 8 130 0 132 -3 155 -14
119z"/>
<path d="M0 676 c0 -25 5 -46 10 -46 6 0 10 18 10 39 0 22 -4 43 -10 46 -6 4
-10 -12 -10 -39z"/>
<path d="M0 491 c0 -16 5 -33 10 -36 6 -4 10 6 10 24 0 16 -4 33 -10 36 -6 4
-10 -6 -10 -24z"/>
<path d="M0 317 c0 -23 27 -87 36 -87 2 0 4 19 4 43 0 31 -5 45 -20 55 -18 11
-20 10 -20 -11z"/>
<path d="M0 147 c0 -39 26 -67 61 -67 l24 1 -27 15 c-28 15 -38 44 -16 44 6 0
3 9 -7 20 -26 28 -35 25 -35 -13z"/>
<path d="M100 92 c0 -6 9 -12 20 -15 11 -3 20 -3 20 -1 0 2 -9 8 -20 14 -11 6
-20 7 -20 2z"/>
<path d="M0 15 c0 -8 4 -15 10 -15 5 0 7 7 4 15 -8 19 -14 19 -14 0z"/>
</g>
</svg>
