<?xml version="1.0" standalone="no"?>
<!DOCTYPE svg PUBLIC "-//W3C//DTD SVG 20010904//EN"
 "http://www.w3.org/TR/2001/REC-SVG-20010904/DTD/svg10.dtd">
<svg version="1.0" xmlns="http://www.w3.org/2000/svg"
 width="460.000000pt" height="460.000000pt" viewBox="0 0 460.000000 460.000000"
 preserveAspectRatio="xMidYMid meet">
<metadata>
Created by potrace 1.16, written by Peter Selinger 2001-2019
</metadata>
<g transform="translate(0.000000,460.000000) scale(0.100000,-0.100000)"
fill="#000000" stroke="none">
<path d="M0 2300 l0 -2300 2300 0 2300 0 0 2300 0 2300 -2300 0 -2300 0 0
-2300z m329 2283 c-1 -5 0 -10 1 -13 6 -16 7 -39 2 -36 -10 6 -8 -66 2 -84 4
-8 -2 -4 -13 9 -19 21 -26 20 -22 -1 0 -5 -4 -7 -11 -5 -6 1 -21 -16 -33 -38
l-21 -40 28 -23 c26 -22 28 -22 28 -4 0 10 7 19 15 19 8 0 15 -4 15 -9 0 -5 5
-6 10 -3 6 4 7 11 4 17 -4 7 -2 8 5 4 6 -4 9 -12 6 -17 -4 -5 -2 -9 3 -9 12 0
22 25 21 48 0 14 -2 13 -8 -3 -8 -19 -8 -19 -20 3 -6 12 -9 22 -6 22 14 0 21
3 34 13 12 9 13 9 7 0 -4 -7 -2 -14 3 -14 6 -1 17 -2 24 -3 6 0 17 -11 22 -24
7 -17 16 -22 32 -19 12 2 20 1 18 -3 -6 -10 21 -21 29 -12 4 3 14 7 22 8 9 1
13 0 10 -3 -9 -9 24 -63 38 -63 8 0 16 7 20 15 3 8 0 15 -7 15 -7 0 -8 3 -2 8
23 16 7 71 -16 56 -5 -3 -8 -2 -7 3 1 4 -3 17 -9 29 -10 17 -7 27 18 65 21 32
28 52 25 72 l-6 27 85 0 c75 0 84 -2 82 -19 -1 -12 -7 -17 -19 -13 -10 2 -18
0 -18 -6 0 -5 -13 -12 -30 -15 -24 -5 -30 -12 -32 -34 -3 -56 3 -88 22 -106
10 -9 11 -9 6 1 -5 7 -1 12 9 12 10 0 13 -5 9 -12 -4 -7 -3 -8 5 -4 9 6 9 11
1 21 -8 9 -5 12 12 11 18 -1 23 4 22 21 0 12 3 20 7 17 10 -6 20 26 15 51 -4
18 0 20 30 17 22 -3 31 -8 27 -16 -4 -6 2 -4 12 4 10 8 16 10 12 4 -8 -14 13
-24 39 -20 11 2 22 -2 26 -8 6 -8 8 -8 8 1 0 7 11 10 29 8 36 -5 67 16 58 39
-4 10 -12 14 -18 10 -8 -4 -9 -3 -5 4 4 6 14 8 23 5 10 -4 14 -2 10 4 -4 6 3
13 16 17 12 3 221 6 463 6 382 0 443 -2 448 -15 3 -8 0 -14 -7 -12 -7 1 -11
-4 -9 -10 1 -7 -2 -13 -8 -13 -15 0 -12 -26 5 -40 13 -10 15 -9 15 9 0 12 4
20 9 17 5 -4 12 0 15 6 3 7 2 0 -1 -16 -4 -22 -3 -27 8 -24 8 3 13 11 11 18
-2 8 4 11 18 7 11 -3 23 -1 26 4 3 5 1 9 -4 9 -5 0 -9 7 -9 15 0 8 3 13 5 10
3 -3 11 0 19 6 9 9 13 8 13 0 0 -6 3 -10 8 -9 4 2 7 0 7 -4 0 -4 9 -14 20 -23
11 -9 14 -13 6 -9 -10 5 -12 3 -7 -5 5 -7 14 -10 22 -7 8 3 14 2 14 -3 0 -12
39 -21 45 -10 3 4 12 6 20 3 8 -4 13 -10 10 -14 -8 -13 21 -5 41 10 12 10 15
11 10 2 -4 -7 -5 -20 -1 -30 5 -14 7 -14 15 -2 7 10 10 11 10 3 0 -7 5 -13 10
-13 7 0 7 6 0 19 -24 46 -29 68 -14 68 8 0 13 -6 10 -14 -3 -7 -1 -13 5 -13 6
0 8 -4 4 -9 -3 -5 -1 -13 5 -16 6 -4 10 -3 9 2 -4 23 3 41 17 47 9 3 12 2 9
-5 -7 -11 12 -67 30 -85 13 -13 79 18 67 31 -4 5 -1 5 6 0 8 -4 11 -16 8 -29
-5 -20 -4 -20 15 3 15 19 17 26 7 38 -10 12 -9 14 7 11 13 -2 20 4 23 17 2 16
1 17 -7 5 -10 -13 -11 -13 -11 0 0 13 -1 13 -10 0 -5 -8 -10 -10 -10 -4 0 16
25 35 34 27 4 -4 4 0 0 10 -5 13 -2 16 12 10 11 -4 15 -3 11 4 -11 17 18 23
104 23 68 0 78 -2 67 -14 -10 -11 -16 -11 -27 -2 -12 9 -13 8 -6 -3 13 -22 16
-79 5 -86 -13 -8 -13 -62 0 -70 6 -3 10 -22 10 -41 0 -22 4 -33 10 -29 6 4 10
3 9 -2 -3 -12 13 -47 25 -55 14 -10 28 -10 23 0 -8 12 17 29 41 27 13 -1 42 1
66 5 24 3 53 3 64 -1 14 -6 26 -3 36 7 13 12 15 12 13 -6 -1 -11 -5 -20 -10
-20 -5 0 -1 -7 7 -16 9 -8 19 -33 22 -55 4 -22 8 -38 11 -36 6 6 -19 230 -42
370 -4 26 -2 27 35 27 l39 0 12 -55 c14 -63 23 -64 21 -3 -1 31 1 39 8 28 5
-8 10 -28 10 -45 0 -40 19 -105 30 -105 5 0 11 -35 13 -77 3 -43 9 -103 15
-133 10 -53 18 -146 27 -300 2 -41 10 -109 16 -150 11 -67 19 -213 17 -295 -1
-30 1 -153 3 -242 0 -27 0 -66 -1 -88 -2 -61 14 -165 33 -210 24 -57 39 -130
41 -201 0 -34 6 -67 12 -75 6 -8 12 -36 13 -63 1 -26 4 -52 7 -57 5 -8 17
-193 15 -229 -1 -8 -2 -87 -4 -176 -2 -88 -7 -166 -12 -173 -4 -7 -9 -80 -11
-161 -3 -134 0 -168 23 -230 12 -30 11 -39 -3 -33 -8 3 -14 2 -12 -3 3 -10
-10 -13 -34 -6 -14 3 -18 15 -18 56 0 29 -6 58 -12 65 -8 9 -9 12 -1 7 7 -4 9
1 6 13 -12 48 -70 -12 -138 -145 -19 -37 -35 -62 -35 -55 0 7 -4 10 -9 7 -19
-12 -40 29 -35 69 8 64 10 276 2 288 -7 12 -7 13 -29 -58 -7 -22 -20 -53 -29
-70 -9 -16 -27 -70 -40 -120 -28 -110 -43 -131 -59 -85 -6 18 -16 70 -23 116
-9 67 -9 94 0 130 14 50 47 99 74 109 9 3 43 32 76 63 51 50 61 65 77 124 23
87 17 248 -19 468 -25 157 -31 185 -48 207 -6 7 -11 34 -13 61 -2 29 -18 80
-38 124 -19 41 -38 88 -41 104 -12 56 -119 142 -221 178 -91 33 -148 32 -330
-6 -70 -15 -134 -53 -128 -77 6 -24 37 -39 97 -46 26 -3 55 -12 63 -20 8 -8
19 -16 24 -16 5 -1 13 -2 18 -3 16 -2 25 -16 29 -44 2 -15 7 -28 13 -30 5 -2
9 -8 9 -14 0 -6 7 -16 16 -23 17 -12 44 -78 44 -109 0 -10 20 -39 45 -64 45
-45 62 -84 67 -150 1 -19 6 -36 10 -38 4 -3 8 -13 8 -23 0 -11 8 -29 18 -41
l18 -22 24 36 c14 20 30 34 35 33 11 -4 9 -85 -4 -132 -6 -24 -4 -36 9 -53 16
-20 19 -20 26 -4 4 9 6 20 6 25 -2 7 14 11 32 8 5 -1 6 5 3 14 -4 9 -1 15 10
15 12 0 13 3 3 15 -14 17 -5 35 16 35 11 0 13 -6 9 -20 -13 -41 33 -18 60 30
8 13 7 13 -8 1 -20 -16 -20 -9 -2 39 12 32 14 33 15 10 1 -23 2 -23 10 -5 12
28 12 103 0 126 -7 12 -7 19 -1 19 27 0 40 -76 22 -122 -5 -13 -14 -42 -20
-66 -11 -40 -31 -61 -105 -107 -20 -13 -47 -115 -47 -185 0 -69 35 -224 62
-269 23 -39 22 -44 -10 -28 -28 14 -36 28 -48 81 -11 53 -27 55 -47 6 -9 -22
-18 -40 -22 -40 -3 0 -4 55 -2 123 l3 122 -36 -3 c-39 -3 -56 9 -42 31 12 20
15 57 3 57 -5 0 -10 7 -10 15 0 27 -31 16 -43 -15 -6 -17 -16 -29 -21 -27 -6
2 -21 -9 -34 -25 -24 -28 -49 -39 -37 -15 4 6 0 4 -8 -5 -8 -10 -17 -15 -20
-11 -4 3 -7 1 -7 -6 0 -7 -4 -10 -9 -7 -5 4 -14 -6 -19 -21 -6 -16 -11 -21
-11 -13 -1 13 -121 -101 -121 -115 0 -3 11 -5 24 -5 13 0 51 -18 84 -40 60
-40 61 -41 97 -26 62 26 78 6 49 -62 -58 -134 -103 -256 -98 -261 3 -3 51 18
106 47 55 29 102 51 105 49 5 -6 -89 -158 -136 -217 -52 -67 -201 -209 -241
-230 -19 -10 -59 -39 -88 -64 -52 -45 -69 -56 -57 -36 3 5 -15 31 -41 57 -26
26 -43 41 -39 33 4 -8 -6 -2 -23 14 -18 17 -28 32 -23 35 5 3 3 12 -5 18 -8 8
-15 9 -19 3 -3 -6 -2 -10 4 -10 5 0 8 -8 6 -17 -3 -19 -25 -19 -37 0 -5 8 -8
7 -8 -3 0 -13 -1 -13 -10 0 -7 11 -10 11 -10 2 0 -7 -4 -10 -10 -7 -5 3 -10 1
-10 -4 0 -6 -16 -11 -35 -11 l-35 0 0 54 c0 50 4 59 63 139 45 63 75 93 110
112 26 15 47 31 47 37 0 5 -6 8 -12 5 -7 -2 -40 -12 -73 -21 -55 -16 -68 -26
-153 -114 -110 -115 -148 -166 -173 -235 -10 -28 -31 -67 -47 -86 -15 -20 -34
-61 -41 -91 -8 -30 -26 -86 -41 -125 -42 -107 -53 -169 -46 -246 4 -41 2 -69
-3 -69 -32 0 -71 203 -71 366 0 44 -5 106 -11 138 -14 80 -5 108 58 179 31 34
69 86 85 115 17 28 33 52 36 52 3 0 20 -5 37 -11 18 -7 47 -9 68 -5 30 6 41
15 57 46 26 51 26 95 0 113 -13 9 -22 28 -24 53 -2 22 -6 47 -9 57 -4 9 -9 24
-12 33 -4 12 -12 14 -28 9 -12 -3 -32 -8 -45 -10 -13 -2 -29 -8 -37 -15 -10
-8 -14 -8 -17 2 -3 8 -23 13 -56 13 -40 0 -51 -3 -47 -13 3 -8 8 -56 11 -108
6 -108 -3 -134 -45 -134 -33 0 -47 -13 -56 -55 -12 -50 -29 -85 -42 -85 -7 0
-13 -7 -13 -15 0 -9 -6 -12 -15 -9 -12 5 -15 -2 -15 -33 0 -22 -7 -48 -15 -59
-9 -11 -14 -42 -15 -76 0 -32 -4 -58 -10 -58 -5 0 -10 5 -10 10 0 6 -5 10 -11
10 -7 0 -8 -14 -4 -39 5 -29 2 -46 -10 -64 -14 -22 -16 -48 -11 -194 11 -321
28 -481 71 -673 8 -36 15 -82 15 -102 0 -37 -1 -38 -39 -38 -34 0 -40 4 -50
30 -13 39 -22 39 -14 0 5 -29 5 -30 -34 -30 -37 0 -41 3 -47 31 -3 17 -6 44
-6 59 0 15 -7 44 -15 65 -27 64 6 105 51 63 24 -23 33 -45 14 -33 -5 3 -10 -1
-10 -10 0 -9 -4 -13 -10 -10 -5 3 -10 -4 -10 -15 0 -15 5 -20 14 -17 8 3 19
-5 26 -21 17 -37 24 -14 15 54 -6 50 -20 77 -45 86 -6 2 -4 22 4 56 13 46 12
53 -1 61 -9 5 -13 15 -10 24 7 17 -19 57 -37 57 -7 0 -32 18 -56 40 -29 27
-49 38 -59 34 -9 -4 -52 -15 -97 -24 -45 -10 -91 -23 -102 -29 l-22 -12 26
-51 26 -52 -23 15 c-25 17 -41 47 -18 35 8 -4 3 2 -11 14 -14 11 -37 26 -51
31 -18 7 -40 36 -73 94 l-47 85 20 104 c14 73 26 111 40 125 12 12 23 16 27
10 3 -6 12 -8 19 -5 10 3 12 -9 9 -54 -2 -32 -1 -68 4 -79 7 -20 8 -20 42 -3
27 13 37 26 45 56 6 25 26 57 52 84 36 37 43 50 43 85 1 23 7 69 15 102 22 89
20 122 -10 141 -31 20 -42 13 -71 -51 -25 -57 -40 -73 -56 -57 -9 9 -2 29 49
139 25 53 9 61 -26 13 -40 -55 -64 -66 -96 -42 -24 18 -55 72 -55 97 0 26 -24
17 -81 -30 -134 -110 -149 -136 -149 -262 0 -39 -5 -74 -12 -81 -8 -8 -5 -14
16 -21 49 -19 44 -49 -18 -119 -42 -47 -49 -68 -30 -86 10 -11 13 -26 8 -53
-4 -30 1 -58 25 -120 18 -45 40 -92 49 -105 28 -38 22 -59 -26 -77 -23 -9 -40
-20 -36 -23 3 -4 18 -2 32 3 29 11 72 4 72 -12 0 -6 4 -8 8 -5 5 3 16 -8 25
-24 17 -28 17 -30 -4 -49 -12 -11 -44 -25 -71 -30 -27 -6 -70 -20 -95 -32 -37
-17 -61 -20 -120 -17 -66 3 -76 6 -104 34 -37 37 -49 103 -49 280 0 115 -2
124 -29 176 -16 30 -33 71 -36 91 -7 34 -5 37 21 42 16 4 34 8 40 10 22 7 43
92 37 149 -6 55 -6 55 31 77 57 33 63 53 30 100 -16 23 -38 42 -53 45 -14 3
-36 9 -49 14 -23 10 -25 6 -25 -42 0 -10 -4 -18 -9 -18 -5 0 -7 -3 -4 -8 2 -4
-2 -18 -9 -32 -12 -22 -14 31 -14 371 l-1 396 24 11 c19 8 26 8 30 -1 2 -7 5
-2 5 11 1 13 5 20 11 17 6 -3 10 0 10 7 0 16 -15 41 -22 36 -3 -1 -17 11 -32
28 l-26 32 0 696 c0 483 3 696 11 696 5 0 8 4 5 8 -3 5 2 9 10 9 10 0 11 -4 4
-11 -14 -14 -13 -69 2 -84 17 -17 31 -15 24 3 -3 8 -1 15 4 15 5 0 7 9 5 20
-4 21 11 28 17 8 3 -7 12 -9 22 -5 12 5 15 13 11 27 -4 12 -2 19 3 18 6 -2 10
1 10 7 0 5 9 12 19 16 21 7 24 29 5 48 -7 7 -11 20 -8 28 3 7 -1 16 -9 19 -8
3 -11 12 -8 21 4 10 2 14 -4 10 -10 -6 -8 32 4 63 10 27 11 40 3 35 -5 -3 -11
-1 -15 4 -3 5 -14 8 -25 6 -11 -2 -20 1 -20 6 0 6 -16 17 -35 25 l-35 14 0
205 c0 128 4 206 10 210 6 4 9 1 8 -6 -2 -8 7 -14 20 -15 19 -1 20 1 10 14
-10 13 -10 14 0 8 7 -4 12 -2 12 5 0 8 5 8 18 -2 16 -13 16 -13 -1 7 -24 29
-23 64 4 64 11 0 17 5 14 10 -3 6 3 10 14 10 11 0 25 8 30 18 9 15 10 15 11
-4 0 -11 6 -21 13 -21 11 0 11 6 3 24 -6 12 -14 23 -18 23 -5 0 -8 7 -8 15 0
8 -5 15 -11 15 -5 0 -7 5 -4 10 4 6 -7 10 -25 10 -21 0 -29 4 -24 12 5 8 2 9
-9 5 -9 -3 -19 -1 -23 5 -4 6 -3 8 3 5 13 -8 26 20 16 35 -3 7 -1 8 5 4 7 -4
12 -14 12 -21 0 -21 28 -7 68 31 25 24 32 38 27 53 -3 12 0 23 8 28 20 12 67
96 67 121 0 18 6 22 35 22 19 0 34 -3 34 -7z m2931 -32 c0 -22 7 -73 15 -113
25 -118 24 -116 52 -69 19 33 30 41 53 41 23 0 33 -7 47 -32 22 -43 22 -46 -5
-91 -13 -23 -27 -35 -34 -31 -7 5 -8 3 -3 -5 5 -8 11 -9 17 -3 7 7 24 -4 50
-30 32 -32 37 -42 27 -54 -7 -9 -8 -14 -1 -14 6 0 12 -12 14 -27 2 -23 8 -28
33 -28 19 0 29 -5 27 -14 -1 -7 2 -10 7 -6 10 6 34 -29 26 -37 -3 -3 1 -5 8
-5 8 0 14 6 14 13 0 7 -4 11 -9 8 -4 -3 -9 0 -9 5 -1 6 -2 17 -3 24 -1 6 3 18
8 26 8 11 8 13 -1 7 -23 -13 -13 18 13 43 18 17 24 32 21 49 -5 28 17 41 45
23 17 -10 17 -10 6 8 -7 11 -15 18 -19 15 -4 -2 -10 0 -13 5 -7 10 15 21 35
18 8 -2 25 -10 39 -20 l24 -17 -24 -1 -25 -1 25 -7 c17 -5 25 -14 25 -28 0
-12 5 -26 9 -30 5 -4 6 -3 2 4 -4 8 2 11 21 8 16 -2 34 -4 41 -4 8 -1 10 -6 6
-13 -5 -9 -2 -9 9 1 9 7 17 10 17 5 0 -4 5 -3 12 4 7 7 16 8 23 2 6 -5 24 -11
40 -14 35 -7 52 -31 46 -68 0 -4 7 -4 16 -1 11 4 14 3 9 -5 -4 -7 -3 -12 3
-12 5 0 11 6 14 13 3 8 11 5 26 -10 12 -13 17 -23 11 -23 -5 0 -10 -7 -10 -16
0 -9 5 -13 13 -9 6 4 3 -1 -8 -10 -11 -8 -20 -23 -20 -33 0 -9 -6 -18 -12 -18
-7 -1 -15 -3 -18 -4 -3 -1 -9 -4 -15 -5 -5 -1 -13 -4 -17 -5 -5 -1 -12 -2 -16
-1 -5 1 -5 -4 -1 -11 4 -7 -9 1 -29 17 -29 23 -36 36 -34 57 2 16 2 26 -1 24
-2 -2 -18 2 -37 10 -39 16 -72 11 -91 -13 -12 -15 -13 -15 -8 -2 3 10 1 20 -4
23 -10 6 -8 -36 3 -53 3 -6 1 -11 -6 -11 -8 0 -7 -4 3 -12 9 -7 18 -31 19 -53
2 -22 8 -43 14 -47 6 -5 5 -8 -3 -8 -8 0 -10 -5 -6 -12 5 -7 2 -9 -8 -5 -12 4
-15 0 -14 -18 4 -36 30 -55 85 -64 43 -7 50 -5 54 10 3 10 -2 20 -10 23 -11 5
-12 10 -4 20 6 7 8 15 5 18 -3 3 0 9 7 14 8 5 10 3 4 -7 -7 -12 -6 -12 6 0 12
11 12 14 1 18 -9 3 1 14 25 28 26 16 42 20 50 13 7 -5 18 -6 24 -2 8 4 9 3 5
-5 -4 -6 -1 -14 8 -17 8 -3 18 -15 21 -25 10 -30 45 -64 92 -87 23 -12 58 -42
79 -67 46 -56 86 -80 113 -66 10 6 48 13 85 17 65 7 69 9 92 46 24 37 24 40 8
67 -16 27 -90 78 -106 73 -4 -1 -5 8 -3 19 4 21 4 21 -15 4 -11 -10 -20 -15
-20 -10 0 4 -7 2 -15 -5 -12 -10 -15 -10 -15 2 0 23 12 29 29 16 13 -10 14
-10 4 1 -8 10 -6 28 12 78 13 36 25 67 27 68 27 22 96 26 83 5 -3 -5 8 -5 25
0 33 10 63 3 54 -11 -3 -5 3 -6 12 -2 14 5 16 3 11 -11 -4 -10 -3 -15 3 -11 7
4 10 -677 10 -1989 l0 -1996 -371 0 -372 0 9 52 c11 62 11 293 0 360 -5 34
-16 56 -37 75 -16 15 -33 28 -38 28 -11 0 -51 49 -51 63 0 5 -9 17 -19 26 -11
10 -17 25 -14 33 4 11 2 14 -8 11 -10 -3 -15 -30 -19 -100 -5 -94 -17 -128
-45 -128 -19 0 -27 27 -32 120 -5 79 -3 90 22 139 32 64 26 89 -27 114 -76 35
-359 50 -390 19 -22 -22 -28 -125 -16 -278 10 -129 10 -157 -3 -190 -20 -53
-61 -74 -143 -76 -74 -1 -79 -5 -91 -73 -4 -22 -13 -49 -19 -60 -6 -11 -18
-45 -26 -75 -9 -32 -21 -56 -30 -58 -21 -4 -15 98 7 115 13 10 12 13 -7 23
-12 6 -19 14 -16 17 3 3 -2 12 -12 19 -14 11 -14 13 -2 14 11 0 10 4 -5 16
-13 11 -16 18 -8 21 7 2 9 11 6 19 -3 8 1 14 11 14 9 0 16 6 16 14 0 20 18 24
72 18 l47 -5 6 39 c3 22 12 66 20 99 8 33 17 78 21 99 7 41 68 181 83 190 12
8 106 201 124 256 25 74 45 116 61 129 9 7 25 32 35 55 27 55 101 244 101 256
0 5 5 21 12 37 6 15 12 37 14 48 11 105 18 144 25 139 5 -2 6 19 4 48 -2 29
-7 100 -10 158 -3 58 -10 155 -16 215 -5 61 -17 250 -25 420 -8 171 -16 321
-18 335 -8 67 -20 278 -17 304 4 44 -9 116 -21 116 -6 0 -8 -11 -6 -25 3 -14
1 -28 -3 -31 -5 -3 -9 15 -9 40 0 25 -4 46 -8 46 -12 0 -25 253 -27 540 -2
253 -17 402 -65 648 -23 117 -24 132 -10 132 6 0 10 -18 10 -39z m1127 24 c10
-11 9 -13 -7 -12 -11 1 -20 6 -20 12 0 5 -5 2 -11 -8 -6 -9 -14 -15 -20 -12
-5 4 -9 1 -9 -5 0 -6 -4 -9 -8 -6 -5 3 -21 -1 -36 -9 -18 -10 -24 -10 -19 -2
5 8 2 8 -9 -1 -21 -17 -78 -18 -108 -1 -14 7 -27 13 -30 13 -3 0 -16 10 -30
23 l-24 24 159 -2 c119 -1 163 -4 172 -14z m-179 -556 c-7 -4 -6 -9 1 -14 9
-5 9 -11 -1 -23 -10 -12 -10 -14 0 -8 7 4 12 2 12 -7 0 -8 7 -18 16 -21 8 -3
12 -10 9 -16 -3 -5 0 -7 9 -4 8 3 19 -3 26 -15 6 -12 16 -21 23 -21 8 0 7 4
-3 11 -12 9 -11 10 8 6 12 -3 22 0 22 6 0 6 3 7 6 4 12 -11 -18 -38 -40 -36
-35 2 -47 -1 -42 -9 3 -5 -7 -8 -22 -6 -15 1 -34 2 -42 3 -8 1 -21 15 -29 31
-11 26 -11 33 1 47 9 12 9 15 1 9 -8 -4 -13 -1 -13 9 0 9 -4 14 -8 11 -5 -3
-9 1 -9 9 0 8 4 12 9 9 4 -3 8 1 8 9 0 8 10 27 22 42 l21 27 13 -23 c8 -16 9
-26 2 -30z m-2315 -3165 c-2 -12 0 -24 5 -28 6 -3 6 -23 1 -48 -13 -67 -10
-145 7 -210 26 -101 22 -98 155 -98 106 0 300 -27 317 -45 3 -3 -4 -12 -16
-21 -12 -8 -20 -19 -17 -24 3 -5 -6 -12 -20 -16 -29 -7 -34 -21 -20 -56 4 -11
3 -18 -4 -18 -6 0 -11 8 -11 17 0 15 -2 14 -14 -3 -14 -19 -20 -20 -78 -12
-104 14 -268 13 -348 -2 -73 -15 -74 -15 -30 -18 25 -2 49 -7 55 -13 13 -13
39 -11 96 7 87 29 194 5 213 -47 12 -34 -20 -172 -44 -194 -14 -13 -51 -15
-251 -13 l-234 3 -9 95 c-5 52 -12 97 -16 100 -4 3 -13 40 -20 83 -11 66 -11
80 1 92 18 17 162 60 252 76 69 11 78 18 52 39 -8 7 -22 36 -29 64 -18 61 -27
228 -13 219 6 -3 7 -1 3 5 -3 6 -3 37 0 68 5 42 9 53 15 39 4 -11 5 -30 2 -41z"/>
<path d="M544 2135 c-68 -32 -78 -46 -69 -92 4 -21 8 -68 9 -104 1 -55 5 -71
29 -103 28 -36 29 -41 23 -115 -6 -76 -5 -80 25 -117 24 -31 30 -46 27 -79 -4
-47 6 -48 82 -12 44 22 45 23 48 77 4 63 -23 398 -39 477 -7 37 -18 59 -36 73
-32 25 -37 25 -99 -5z"/>
<path d="M1058 1709 c-10 -5 -18 -17 -18 -24 0 -8 -4 -15 -10 -15 -16 0 -38
-53 -46 -107 -7 -60 7 -111 40 -142 19 -18 30 -21 64 -15 23 4 47 13 53 20 15
18 53 18 69 -1 19 -23 36 -18 49 14 7 15 27 39 44 51 18 13 37 31 44 40 7 10
26 23 43 30 23 10 30 19 30 41 0 22 -4 27 -16 22 -15 -5 -15 -3 0 25 14 26 14
31 1 42 -8 7 -15 9 -16 4 -2 -33 -11 -58 -24 -70 -8 -9 -15 -29 -15 -45 0 -16
-4 -29 -10 -29 -9 0 -16 99 -10 139 1 12 0 12 -12 0 -19 -19 -29 -47 -19 -54
13 -8 -9 -85 -25 -85 -7 0 -16 10 -20 23 -4 12 -15 28 -25 35 -11 7 -19 20
-19 28 0 8 -10 14 -24 14 -38 0 -56 10 -72 41 -15 31 -28 35 -56 18z"/>
<path d="M3477 3143 c-2 -5 -12 -36 -22 -71 -18 -61 -18 -63 0 -76 30 -22 55
-9 55 29 0 39 19 49 65 37 46 -13 42 -68 -6 -84 -7 -2 -9 -19 -4 -51 7 -46 8
-47 42 -47 55 0 73 -15 73 -60 0 -22 6 -59 14 -82 8 -24 19 -83 25 -133 6 -49
15 -112 20 -140 14 -67 32 -365 47 -746 6 -146 -4 -229 -28 -229 -6 0 -28 18
-49 41 -32 35 -40 39 -57 30 -54 -29 -90 -143 -76 -236 11 -76 152 -295 190
-295 23 0 53 78 65 172 7 49 23 111 40 151 22 49 28 76 24 100 -4 18 0 62 9
99 12 52 14 113 11 289 -4 210 -6 232 -35 349 -17 69 -40 166 -51 215 -11 50
-26 110 -34 135 -7 25 -19 79 -26 120 -6 41 -15 84 -19 96 -12 31 -15 177 -4
196 5 9 22 18 37 20 39 6 47 22 47 99 0 66 -7 79 -41 79 -15 0 -39 -57 -39
-95 0 -57 -49 -37 -64 27 -5 23 -13 28 -64 37 -31 6 -71 16 -88 21 -36 12 -51
13 -57 3z"/>
<path d="M3500 2508 c0 -133 74 -593 107 -671 15 -36 15 -45 0 -124 -9 -47
-14 -90 -11 -94 3 -5 18 -9 34 -9 59 0 80 90 38 158 -26 42 -28 143 -4 190 30
58 36 113 21 179 -8 33 -19 123 -24 198 -12 167 -12 167 -153 233 -5 2 -8 -25
-8 -60z"/>
</g>
</svg>
