<?xml version="1.0" standalone="no"?>
<!DOCTYPE svg PUBLIC "-//W3C//DTD SVG 20010904//EN"
 "http://www.w3.org/TR/2001/REC-SVG-20010904/DTD/svg10.dtd">
<svg version="1.0" xmlns="http://www.w3.org/2000/svg"
 width="460.000000pt" height="460.000000pt" viewBox="0 0 460.000000 460.000000"
 preserveAspectRatio="xMidYMid meet">

<g transform="translate(0.000000,460.000000) scale(0.100000,-0.100000)"
fill="#000000" stroke="none">
<path d="M0 2300 l0 -2300 2300 0 2300 0 0 2300 0 2300 -2300 0 -2300 0 0
-2300z m233 2270 c3 -11 1 -20 -4 -20 -5 0 -9 2 -9 4 0 2 -3 11 -6 20 -3 9 -2
16 4 16 5 0 12 -9 15 -20z m3746 -13 c-46 -40 -93 -125 -109 -197 -7 -30 -16
-68 -20 -85 -7 -30 2 -57 53 -163 15 -31 23 -39 30 -30 6 9 7 8 3 -5 -8 -24
30 -123 57 -149 12 -11 16 -18 10 -14 -15 9 -16 5 -4 -26 8 -21 14 -23 87 -23
44 0 99 4 124 9 38 6 50 4 69 -11 26 -21 31 -61 49 -366 10 -169 11 -169 122
-178 44 -3 83 -9 87 -12 4 -4 1 -31 -7 -60 -7 -28 -14 -77 -15 -107 -2 -30 -8
-199 -14 -375 -6 -176 -14 -333 -17 -348 -6 -31 -36 -47 -85 -47 -16 0 -32 -6
-35 -14 -8 -20 -30 -27 -57 -17 -16 6 -28 27 -44 77 -22 67 -54 230 -68 344
-4 30 -18 84 -32 120 -13 36 -33 92 -45 125 -12 36 -35 76 -57 98 -90 95 -124
126 -132 121 -5 -3 -9 -1 -9 5 0 14 -70 11 -70 -3 0 -6 -5 -3 -11 7 -5 9 -15
17 -22 17 -8 0 -6 -4 3 -11 13 -9 13 -10 0 -6 -14 3 -16 49 -3 70 7 11 72 8
95 -4 20 -11 20 -9 14 48 -3 32 -8 90 -11 128 -8 90 -35 316 -40 335 -3 8 -12
77 -20 154 -26 234 -42 276 -120 316 -46 23 -48 24 -119 9 -70 -15 -72 -15
-74 4 -2 33 -15 37 -80 24 -47 -10 -70 -21 -95 -45 -22 -22 -26 -31 -13 -26
13 5 17 4 12 -4 -15 -25 6 -31 27 -7 17 19 36 26 82 31 52 5 63 3 84 -15 25
-22 33 -25 105 -36 66 -11 96 -54 134 -191 l19 -69 -61 -2 c-76 -2 -118 -17
-114 -40 1 -10 -1 -23 -4 -29 -12 -19 12 -83 36 -100 22 -14 27 -13 57 5 49
30 64 27 77 -18 19 -61 15 -90 -28 -204 -22 -58 -40 -110 -40 -115 0 -17 -130
-132 -149 -132 -10 0 -21 8 -25 18 -3 9 -11 25 -18 35 -11 15 -10 20 2 27 47
27 55 38 43 58 -14 23 -8 32 22 32 13 0 28 6 34 14 9 11 6 18 -15 35 -15 12
-30 21 -34 21 -12 0 -20 42 -13 68 4 17 10 21 24 17 13 -5 19 -1 19 10 0 10
-5 13 -12 9 -6 -4 -16 0 -23 9 -13 18 -47 23 -82 12 -20 -7 -23 -4 -23 23 0
17 7 38 16 46 8 9 13 16 10 16 -3 0 8 23 24 50 43 73 47 96 20 125 -12 13 -38
26 -58 30 -21 4 -42 11 -47 15 -14 11 -142 -5 -160 -20 -7 -6 -12 -17 -9 -23
6 -17 -36 -43 -45 -28 -4 6 -16 -24 -27 -66 -24 -97 -24 -282 0 -363 9 -30 16
-54 16 -55 0 -1 -11 0 -25 2 -19 4 -25 0 -31 -21 -7 -28 -14 -32 -31 -15 -6 6
-23 9 -39 7 -26 -3 -29 -7 -28 -38 0 -19 4 -53 9 -74 7 -37 7 -39 -14 -33 -11
3 -24 1 -27 -4 -3 -5 -16 -6 -30 -3 -14 4 -24 2 -24 -5 0 -6 -14 -11 -32 -11
-33 0 -100 -38 -205 -117 -42 -32 -66 -43 -92 -43 -20 0 -47 -9 -61 -20 -32
-25 -43 -25 -65 0 -25 28 -42 25 -59 -9 -15 -29 -41 -45 -56 -36 -5 3 -5 -8 0
-24 6 -23 4 -33 -10 -46 -21 -19 -27 -12 -28 33 0 19 -8 44 -16 57 -9 14 -16
33 -16 45 0 11 -4 20 -9 20 -5 0 -6 -29 -4 -64 9 -108 -39 -96 -77 20 -16 46
-25 61 -36 57 -17 -6 -17 -6 1 -49 8 -20 12 -40 9 -45 -3 -5 1 -9 8 -9 7 -1
-3 -14 -22 -30 -19 -17 -39 -30 -45 -30 -5 0 -3 4 5 10 31 19 2 18 -36 -1 -48
-26 -84 -58 -84 -75 0 -21 -71 -30 -85 -11 -8 11 -16 12 -28 6 -10 -6 -23 -6
-35 2 -14 9 -37 5 -112 -21 -155 -53 -237 -105 -319 -202 -60 -70 -66 -82 -75
-153 -6 -43 -4 -55 16 -85 42 -62 75 -77 192 -85 94 -6 113 -4 173 16 37 12
92 35 122 51 29 16 99 46 155 68 55 21 129 52 164 69 34 17 66 31 70 31 4 0
18 6 32 13 14 8 40 18 57 25 30 10 34 9 55 -20 12 -17 22 -38 23 -47 1 -9 9
-30 18 -47 9 -17 18 -47 20 -66 2 -18 6 -38 9 -43 3 -6 11 -55 18 -110 6 -55
18 -129 25 -165 13 -59 45 -271 60 -395 12 -102 8 -179 -15 -253 -19 -61 -22
-89 -18 -169 5 -93 4 -98 -20 -120 -18 -17 -23 -29 -18 -47 3 -14 1 -28 -4
-31 -6 -4 -8 -15 -5 -26 4 -10 0 -31 -8 -46 -43 -83 -64 -160 -49 -184 14 -22
16 -135 3 -143 -4 -3 -4 -23 2 -46 10 -36 9 -42 -13 -65 -13 -14 -30 -25 -38
-25 -20 0 -8 -110 14 -127 13 -10 15 -35 13 -162 -2 -83 -1 -153 2 -155 3 -3
87 -6 186 -6 135 -1 185 -5 193 -14 7 -10 6 -17 -6 -27 -9 -7 -20 -23 -25 -36
l-9 -23 -1395 0 -1395 0 0 125 0 124 73 43 c39 24 83 46 97 49 55 12 219 120
271 177 57 63 110 167 128 252 13 59 13 290 0 386 -4 33 -10 95 -14 139 -3 44
-8 101 -11 127 -2 26 -7 73 -10 105 -3 32 -7 76 -9 98 -2 22 -6 119 -10 215
-10 273 -30 620 -45 785 -17 178 -27 450 -34 900 -3 138 -5 250 -6 250 -5 0
-14 125 -35 515 -4 91 -1 96 10 15 6 -44 8 -47 16 -26 11 29 -8 101 -28 101
-9 0 -13 13 -13 40 0 29 4 40 15 40 19 0 20 36 1 43 -7 3 -16 22 -18 41 l-4
36 1816 0 1815 0 -36 -33z m285 24 c4 -5 11 -116 17 -247 13 -275 19 -258 -89
-268 -37 -4 -89 -9 -117 -13 -115 -14 -117 -11 -119 158 -1 125 1 138 25 189
32 66 81 130 128 165 28 20 47 25 92 25 32 0 60 -4 63 -9z m280 -53 c12 -131
12 -378 0 -378 -7 0 -13 51 -17 158 -4 86 -10 185 -13 220 -6 52 -4 62 9 62
12 0 17 -15 21 -62z m-4284 -28 c0 -13 -1 -13 -10 0 -5 8 -10 22 -10 30 0 13
1 13 10 0 5 -8 10 -22 10 -30z m3560 -595 c0 -29 -16 -32 -48 -9 -28 19 -20
34 19 34 24 0 29 -4 29 -25z m-60 -65 c0 -5 -7 -10 -15 -10 -8 0 -15 5 -15 10
0 6 7 10 15 10 8 0 15 -4 15 -10z m-521 -37 c1 22 12 22 45 -4 22 -18 26 -27
23 -59 -3 -31 -1 -37 11 -32 10 3 13 1 8 -6 -3 -6 -15 -10 -26 -9 -10 1 -16 5
-13 11 4 5 -1 7 -9 3 -10 -3 -19 3 -27 19 -6 14 -15 23 -20 19 -12 -7 -18 22
-12 60 5 30 5 30 12 5 4 -16 7 -19 8 -7z m138 -99 c-3 -3 -12 -4 -19 -1 -8 3
-5 6 6 6 11 1 17 -2 13 -5z m193 -108 c0 -3 -4 -8 -10 -11 -5 -3 -10 -1 -10 4
0 6 5 11 10 11 6 0 10 -2 10 -4z m-34 -315 c-4 -5 -3 -16 0 -25 5 -14 11 -13
46 5 41 21 68 20 68 -4 0 -19 78 -88 84 -73 2 6 2 -7 0 -29 -7 -59 -9 -69 -18
-84 -7 -10 -6 -12 4 -6 7 4 -6 -18 -30 -49 -24 -31 -51 -61 -62 -67 -10 -5
-18 -17 -18 -25 0 -8 5 -12 10 -9 13 8 13 -5 0 -25 -8 -13 -10 -12 -10 3 0 20
-8 21 -46 7 -33 -13 -51 0 -72 50 -7 19 -23 45 -35 57 -32 36 -37 134 -9 186
37 70 58 97 75 97 10 0 16 -4 13 -9z m-136 -274 c0 -10 -7 -31 -15 -47 -8 -16
-14 -42 -13 -57 2 -15 -1 -54 -6 -86 -9 -59 -9 -59 -40 -54 -52 8 -77 16 -92
28 -8 6 -14 8 -14 5 0 -4 -5 -4 -10 -1 -7 4 -1 17 15 32 26 27 52 78 75 149
16 47 25 54 68 52 24 -2 32 -7 32 -21z m-3311 -176 c-6 -2 -15 3 -20 10 -15
24 -10 29 11 11 12 -10 16 -18 9 -21z m3804 -90 c3 -14 11 -18 24 -15 14 4 25
-3 37 -20 15 -23 15 -26 1 -26 -10 0 -13 -5 -9 -12 6 -10 4 -10 -8 0 -10 8
-19 9 -22 3 -3 -5 0 -11 6 -14 7 -3 0 -4 -17 -3 -32 2 -48 32 -24 46 9 6 8 12
-4 25 -21 20 -22 35 -3 35 7 0 16 -9 19 -19z m-3773 -21 c0 -5 -2 -10 -4 -10
-3 0 -8 5 -11 10 -3 6 -1 10 4 10 6 0 11 -4 11 -10z m-26 -25 c3 -8 1 -15 -4
-15 -6 0 -10 7 -10 15 0 8 2 15 4 15 2 0 6 -7 10 -15z m22 -102 c4 -16 11 -34
17 -40 6 -9 6 -13 -1 -13 -6 0 -9 -7 -5 -16 4 -12 2 -15 -8 -12 -8 3 -13 16
-12 31 1 14 -5 28 -12 31 -10 3 -12 0 -8 -11 4 -10 2 -14 -5 -9 -15 9 -11 45
5 39 9 -4 11 0 7 11 -3 9 -1 16 5 16 6 0 14 -12 17 -27z m-26 -67 c0 -8 7 -17
16 -20 11 -4 14 -13 11 -27 -7 -24 2 -51 13 -44 11 7 27 -43 26 -80 -1 -21 -8
-33 -22 -39 -22 -10 -22 -10 -2 -36 16 -22 18 -35 12 -79 -4 -34 -10 -49 -17
-42 -6 6 -6 19 0 38 9 24 7 31 -14 46 -14 11 -22 25 -19 35 6 18 -25 62 -43
62 -6 0 -11 4 -11 10 0 5 8 7 18 3 16 -6 16 -5 -1 14 -21 24 -22 37 -2 53 13
11 14 10 9 -4 -4 -11 1 -24 15 -37 l21 -20 0 41 c0 22 -4 40 -9 40 -13 0 -28
50 -23 78 4 24 22 31 22 8z m4030 -102 c0 -28 -19 -52 -50 -62 -28 -10 -44 1
-17 11 7 3 4 6 -7 6 -15 1 -17 7 -12 39 3 20 6 45 7 54 0 10 5 21 11 24 7 5 9
2 4 -7 -4 -8 -1 -7 5 2 11 15 15 13 36 -18 13 -18 23 -41 23 -49z m144 -64 c8
-39 64 -64 125 -57 61 7 77 -7 85 -78 3 -27 8 -69 12 -91 7 -49 3 -53 -67 -59
-29 -2 -56 -10 -61 -17 -12 -19 28 -48 68 -48 18 0 63 -14 99 -32 l65 -32 0
-88 0 -87 -42 -5 c-24 -3 -81 -8 -128 -11 l-86 -6 -11 33 c-13 36 -37 154 -48
231 -3 26 -9 47 -13 47 -3 0 -27 -21 -53 -46 -29 -28 -49 -42 -53 -35 -4 6 -2
11 4 11 7 0 9 8 5 20 -4 12 -2 20 5 20 6 0 9 4 5 9 -3 5 0 13 6 17 8 4 9 3 5
-4 -15 -24 8 -11 45 27 35 35 39 44 40 92 1 30 -3 65 -9 79 -5 14 -7 40 -4 59
2 19 1 31 -4 28 -5 -3 -9 15 -9 40 -1 44 7 37 19 -17z m-434 -76 c12 -19 20
-37 17 -40 -7 -7 -47 46 -47 62 0 22 7 17 30 -22z m404 24 c-4 -7 -13 -20 -19
-28 -7 -8 -15 -47 -17 -86 -3 -39 -12 -81 -20 -93 -14 -19 -15 -15 -27 57 -11
76 -11 77 11 92 13 8 34 27 48 42 27 30 35 35 24 16z m-4174 -38 c-17 -11 -31
6 -23 27 5 12 8 12 22 -2 14 -14 14 -17 1 -25z m3749 -15 c6 -3 11 -12 11 -18
-1 -7 -10 -1 -20 12 -11 13 -20 31 -19 40 0 11 3 10 9 -5 5 -12 13 -25 19 -29z
m431 -5 c0 -11 -4 -20 -10 -20 -5 0 -10 9 -10 20 0 11 5 20 10 20 6 0 10 -9
10 -20z m-4120 -111 c32 -97 32 -100 14 -114 -19 -14 -18 -14 1 -15 11 -1 14
-4 8 -7 -7 -2 -13 -11 -13 -19 0 -17 -16 -19 -17 -1 -1 6 -4 32 -8 56 -5 28
-4 42 2 38 5 -4 8 6 5 24 -2 16 -8 29 -13 29 -5 0 -6 13 -3 29 6 26 4 29 -14
25 -16 -5 -20 0 -24 30 -2 20 -2 39 1 41 12 13 32 -24 61 -116z m-3 69 c-3 -8
-6 -5 -6 6 -1 11 2 17 5 13 3 -3 4 -12 1 -19z m4140 -20 c-3 -7 -5 -2 -5 12 0
14 2 19 5 13 2 -7 2 -19 0 -25z m-20 -23 c-3 -20 -2 -35 4 -35 6 0 6 -8 -1
-20 -16 -29 -30 -25 -30 9 0 33 16 81 26 81 4 0 4 -16 1 -35z m-4087 -35 c0
-5 -4 -10 -10 -10 -5 0 -10 5 -10 10 0 6 5 10 10 10 6 0 10 -4 10 -10z m-50
-35 c0 -8 -5 -15 -11 -15 -6 0 -8 -13 -3 -37 4 -21 7 -50 7 -65 -1 -16 4 -25
11 -22 18 7 54 -37 59 -71 3 -16 8 -42 12 -56 4 -16 2 -30 -4 -33 -7 -5 -7
-15 -1 -31 6 -16 6 -25 0 -25 -6 0 -10 4 -10 9 0 14 -32 23 -43 12 -5 -5 -1
-11 11 -15 41 -13 48 -104 9 -107 -7 0 -6 -3 3 -6 8 -4 20 -12 27 -19 10 -9 8
-13 -10 -18 -35 -9 -47 -7 -41 8 3 8 1 17 -5 21 -6 3 -11 19 -11 36 0 16 -9
38 -20 49 -21 21 -27 35 -11 26 12 -8 9 47 -4 57 -7 4 -6 10 2 15 15 9 10 91
-6 101 -12 8 -8 27 12 69 8 16 7 28 -3 48 -11 20 -12 29 -2 45 7 11 10 24 7
29 -4 6 1 10 9 10 9 0 16 -7 16 -15z m4085 -185 c-3 -5 -12 -10 -18 -10 -7 0
-6 4 3 10 19 12 23 12 15 0z m-305 -116 c0 -47 -4 -73 -10 -69 -18 11 -12 145
7 145 2 0 3 -34 3 -76z m-3692 -89 c-3 -3 -9 2 -12 12 -6 14 -5 15 5 6 7 -7
10 -15 7 -18z m-112 -9 c3 -8 4 -23 2 -33 -3 -13 -7 -9 -15 15 -12 31 1 48 13
18z m4514 -856 l0 -830 -339 0 -339 0 -11 28 c-16 39 -21 130 -7 141 6 5 38
20 71 32 80 30 134 64 145 94 10 27 4 73 -36 255 -15 69 -27 138 -26 155 1 16
-5 40 -14 53 -8 13 -17 44 -19 70 -6 70 -25 193 -35 226 -6 20 -5 34 4 50 24
38 29 66 11 66 -9 0 -18 12 -21 30 -4 16 -13 35 -20 41 -8 6 -14 20 -14 31 0
23 -26 75 -40 80 -6 2 -6 15 1 41 11 42 7 55 -27 67 -20 8 -23 15 -21 52 1 24
-1 55 -5 69 -7 24 -5 27 21 31 28 4 31 1 62 -70 17 -41 47 -92 66 -114 33 -40
41 -58 24 -58 -5 0 -12 -7 -15 -16 -4 -11 5 -19 32 -31 20 -8 46 -25 57 -38
21 -25 31 -28 76 -26 24 1 27 6 32 52 4 35 18 68 46 110 43 65 44 67 61 152 6
32 18 61 25 63 13 5 157 20 223 23 l32 1 0 -830z m-4440 716 c0 -2 3 -12 7
-21 5 -15 3 -16 -15 -6 -25 13 -29 31 -7 31 8 0 15 -2 15 -4z m1 -46 c6 0 7
-5 3 -11 -3 -6 -8 -29 -10 -51 l-3 -40 35 37 c33 37 34 37 34 12 0 -14 3 -33
7 -43 4 -11 3 -15 -4 -11 -8 5 -8 -2 0 -22 10 -27 8 -33 -16 -55 -32 -30 -33
-30 -6 -57 17 -17 19 -23 8 -30 -9 -6 -18 -3 -25 6 -6 8 -23 15 -37 15 -33 0
-36 12 -36 132 1 80 4 98 17 103 14 5 15 7 2 16 -12 9 -12 10 3 5 10 -3 23 -6
28 -6z m66 -212 c-3 -8 -6 -5 -6 6 -1 11 2 17 5 13 3 -3 4 -12 1 -19z m-53
-64 c20 -20 20 -23 -1 -19 -10 1 -17 7 -16 13 1 5 -7 8 -17 5 -11 -3 -20 0
-20 6 0 16 36 13 54 -5z m3136 -1097 c0 -12 6 -46 14 -75 l13 -52 -197 0 -197
0 -23 25 c-13 14 -20 25 -15 25 4 0 0 9 -11 21 -18 20 -18 21 1 36 31 23 157
13 195 -16 29 -21 41 -24 126 -35 39 -6 42 -4 50 22 4 15 8 32 9 37 1 16 15
35 26 35 5 0 9 -10 9 -23z"/>
<path d="M2725 4419 c-3 -9 -2 -26 4 -40 l9 -24 7 28 c8 31 -10 63 -20 36z"/>
<path d="M2950 4420 c0 -38 13 -89 22 -84 10 6 0 74 -13 89 -6 5 -9 3 -9 -5z"/>
<path d="M3536 4422 c-3 -5 13 -12 35 -15 23 -3 47 -11 53 -17 8 -9 4 -10 -19
-5 -25 5 -27 4 -12 -5 10 -7 25 -9 33 -6 14 5 52 -8 64 -23 3 -3 16 -15 30
-26 14 -11 7 -1 -14 22 -54 57 -153 102 -170 75z"/>
<path d="M3287 4394 c-55 -37 -39 -41 19 -5 26 17 41 31 33 31 -8 0 -32 -12
-52 -26z"/>
<path d="M3390 4370 c-11 -7 -5 -8 20 -4 43 8 51 14 19 14 -13 0 -31 -5 -39
-10z"/>
<path d="M3613 4313 c9 -2 25 -2 35 0 9 3 1 5 -18 5 -19 0 -27 -2 -17 -5z"/>
<path d="M2916 4224 c-11 -28 -6 -39 9 -20 8 11 15 23 15 28 0 14 -18 9 -24
-8z"/>
<path d="M3305 4159 c-4 -6 -5 -12 -2 -15 2 -3 7 2 10 11 7 17 1 20 -8 4z"/>
<path d="M3212 4118 c-14 -45 -26 -104 -19 -98 7 7 37 123 33 128 -2 2 -9 -12
-14 -30z"/>
<path d="M2737 4123 c-4 -3 -7 -30 -7 -59 0 -37 4 -54 15 -58 12 -4 15 4 15
47 0 52 -10 83 -23 70z"/>
<path d="M3409 4108 c-15 -28 -2 -60 24 -56 22 3 57 52 45 63 -16 16 -59 12
-69 -7z"/>
<path d="M3277 4103 c-8 -13 -19 -73 -14 -73 12 0 37 64 28 73 -5 5 -11 5 -14
0z"/>
<path d="M442 4020 c0 -14 2 -19 5 -12 2 6 2 18 0 25 -3 6 -5 1 -5 -13z"/>
<path d="M3141 4025 c-1 -11 -6 -54 -11 -95 -8 -65 -3 -207 6 -197 9 9 21 228
14 267 -4 25 -8 36 -9 25z"/>
<path d="M3936 3960 c3 -14 8 -56 11 -95 3 -38 9 -74 14 -79 5 -6 7 6 6 27 -2
20 0 34 5 31 17 -11 7 43 -17 91 -14 28 -23 39 -19 25z"/>
<path d="M2724 3947 c3 -19 -3 -28 -27 -42 -34 -20 -56 -44 -57 -60 0 -17 64
-54 95 -54 25 0 56 2 121 8 15 1 36 54 38 94 1 30 -1 32 -34 33 -19 0 -47 -5
-63 -12 -15 -7 -25 -9 -22 -4 6 10 -20 32 -28 23 -4 -3 -7 1 -7 10 0 9 -5 19
-10 22 -7 4 -9 -3 -6 -18z"/>
<path d="M3036 3874 c-9 -70 -7 -132 4 -113 10 16 16 146 8 154 -3 3 -8 -15
-12 -41z"/>
<path d="M2951 3844 c0 -11 3 -14 6 -6 3 7 2 16 -1 19 -3 4 -6 -2 -5 -13z"/>
<path d="M3061 3834 c0 -11 3 -14 6 -6 3 7 2 16 -1 19 -3 4 -6 -2 -5 -13z"/>
<path d="M3046 3755 c-18 -28 -19 -37 -8 -163 12 -141 15 -152 38 -152 11 0
14 22 14 116 0 70 -4 113 -10 109 -5 -3 -10 21 -12 57 l-3 62 -19 -29z"/>
<path d="M2935 3730 c-4 -22 -8 -50 -10 -63 -1 -12 -5 -44 -9 -72 l-6 -50 15
32 c8 17 17 68 21 112 7 85 1 109 -11 41z"/>
<path d="M3911 3724 c0 -11 3 -14 6 -6 3 7 2 16 -1 19 -3 4 -6 -2 -5 -13z"/>
<path d="M2767 3723 c-10 -10 -8 -33 2 -33 6 0 9 9 8 20 -1 23 -1 22 -10 13z"/>
<path d="M3923 3585 c0 -33 2 -45 4 -27 2 18 2 45 0 60 -2 15 -4 0 -4 -33z"/>
<path d="M3962 3580 c0 -14 2 -19 5 -12 2 6 2 18 0 25 -3 6 -5 1 -5 -13z"/>
<path d="M2934 3525 c-3 -8 -4 -20 -2 -27 3 -7 7 -1 10 15 6 29 1 36 -8 12z"/>
<path d="M3968 3527 c-5 -10 -8 -31 -8 -45 1 -24 2 -25 11 -9 6 10 9 30 7 45
-2 23 -4 24 -10 9z"/>
<path d="M3010 3469 c0 -5 5 -7 10 -4 6 3 10 8 10 11 0 2 -4 4 -10 4 -5 0 -10
-5 -10 -11z"/>
<path d="M3118 3455 c-3 -14 -1 -25 3 -25 5 0 9 11 9 25 0 14 -2 25 -4 25 -2
0 -6 -11 -8 -25z"/>
<path d="M3974 3388 c-11 -30 -13 -67 -8 -99 5 -24 8 -26 32 -20 29 8 30 16
17 99 -8 46 -29 56 -41 20z"/>
<path d="M2033 2930 c2 -14 8 -23 13 -21 10 4 7 22 -7 36 -6 6 -8 1 -6 -15z"/>
<path d="M620 1016 c0 -20 3 -36 8 -37 4 0 17 -2 29 -5 12 -2 25 1 29 8 4 6 3
8 -4 4 -12 -7 -42 20 -42 39 0 8 -4 17 -10 20 -6 4 -10 -8 -10 -29z"/>
<path d="M698 969 c-10 -5 -28 -8 -41 -5 -16 3 -24 -1 -24 -10 0 -9 8 -12 24
-10 17 4 27 -2 36 -21 11 -21 15 -23 20 -10 4 10 -1 21 -11 27 -14 9 -12 11
11 7 29 -5 35 4 14 21 -8 7 -18 7 -29 1z"/>
<path d="M135 1805 c7 -31 12 -41 19 -34 2 2 -3 18 -11 34 l-14 30 6 -30z"/>
<path d="M120 1340 c0 -13 5 -20 13 -17 6 2 12 10 12 17 0 7 -6 15 -12 18 -8
2 -13 -5 -13 -18z"/>
<path d="M130 1290 c0 -5 5 -10 11 -10 5 0 7 5 4 10 -3 6 -8 10 -11 10 -2 0
-4 -4 -4 -10z"/>
</g>
</svg>
