<?xml version="1.0" standalone="no"?>
<!DOCTYPE svg PUBLIC "-//W3C//DTD SVG 20010904//EN"
 "http://www.w3.org/TR/2001/REC-SVG-20010904/DTD/svg10.dtd">
<svg version="1.0" xmlns="http://www.w3.org/2000/svg"
 width="480.000000pt" height="739.000000pt" viewBox="0 0 480.000000 739.000000"
 preserveAspectRatio="xMidYMid meet">

<g transform="translate(0.000000,739.000000) scale(0.100000,-0.100000)"
fill="#000000" stroke="none">
<path d="M0 3695 l0 -3695 2400 0 2400 0 0 3695 0 3695 -2400 0 -2400 0 0
-3695z m2991 145 c11 -6 19 -21 19 -36 l0 -26 34 30 c40 35 113 49 193 38 104
-15 153 -66 153 -160 0 -97 -52 -153 -154 -169 -58 -9 -168 18 -196 49 -26 27
-45 32 -36 9 12 -33 -4 -45 -65 -45 l-59 0 0 40 c0 47 -5 49 -32 15 -34 -43
-70 -55 -158 -54 -44 1 -83 5 -86 10 -3 5 37 9 90 9 91 0 95 1 124 30 53 52
53 147 1 200 -35 34 -77 42 -204 38 l-90 -3 -3 -132 c-2 -102 0 -133 10 -134
7 -1 0 -4 -17 -8 -38 -9 -55 -3 -48 15 4 11 9 12 16 5 21 -21 27 -10 27 54 0
63 -12 85 -25 45 -3 -11 -10 -20 -15 -20 -5 0 -2 14 7 31 21 42 10 91 -29 124
-30 26 -33 26 -164 23 -74 -2 -134 0 -134 5 0 4 10 7 23 8 12 0 64 3 115 5
117 6 167 -7 192 -48 15 -26 20 -29 25 -15 4 9 4 20 1 26 -3 5 -3 16 0 25 5
14 26 16 136 16 136 0 164 -7 203 -50 l20 -22 5 33 c4 30 10 35 40 40 54 10
60 10 81 -1z m-971 -20 c0 -5 -7 -7 -15 -4 -8 4 -15 8 -15 10 0 2 7 4 15 4 8
0 15 -4 15 -10z m-555 -10 c-27 -12 -43 -12 -25 0 8 5 22 9 30 9 10 0 8 -3 -5
-9z m128 -67 c-13 -2 -33 -2 -45 0 -13 2 -3 4 22 4 25 0 35 -2 23 -4z m347 -3
c0 -5 -4 -10 -10 -10 -5 0 -10 5 -10 10 0 6 5 10 10 10 6 0 10 -4 10 -10z
m408 3 c-16 -2 -40 -2 -55 0 -16 2 -3 4 27 4 30 0 43 -2 28 -4z m415 -25 c17
-23 18 -30 7 -57 -15 -38 -61 -55 -116 -43 -38 8 -39 9 -42 56 -5 74 -1 77 69
74 54 -3 65 -7 82 -30z m-376 -10 c-3 -8 -6 -5 -6 6 -1 11 2 17 5 13 3 -3 4
-12 1 -19z m-627 0 c0 -5 -24 -8 -54 -8 -30 0 -57 3 -59 8 -3 4 21 7 54 7 32
0 59 -3 59 -7z m11 -87 c-28 -54 -27 -71 3 -71 14 0 28 -4 31 -10 4 -6 -9 -10
-30 -10 -28 0 -38 5 -42 20 -6 24 -12 24 -37 5 -11 -8 -27 -15 -35 -15 -9 0 3
10 26 22 45 23 67 59 57 92 -6 18 -5 19 9 7 14 -11 18 -11 24 5 4 10 8 13 10
7 2 -6 -5 -30 -16 -52z m-263 24 c-3 -3 -9 2 -12 12 -6 14 -5 15 5 6 7 -7 10
-15 7 -18z m124 -10 c-17 -14 -38 -25 -48 -24 -13 0 -9 5 13 15 17 7 34 18 38
24 3 5 11 10 16 10 6 0 -3 -11 -19 -25z m825 -25 c1 -11 -2 -18 -8 -15 -11 7
-12 35 -1 35 4 0 8 -9 9 -20z m-1044 -10 c3 -11 1 -18 -4 -14 -5 3 -9 12 -9
20 0 20 7 17 13 -6z m747 10 c0 -5 -2 -10 -4 -10 -3 0 -8 5 -11 10 -3 6 -1 10
4 10 6 0 11 -4 11 -10z m-153 -34 c15 -12 42 -28 58 -34 l30 -10 -33 -1 c-23
-1 -40 7 -56 24 -14 15 -35 25 -52 26 -16 0 -38 4 -49 9 -15 6 -9 9 27 9 35 1
54 -5 75 -23z m253 -11 c0 -14 -4 -25 -9 -25 -4 0 -6 11 -3 25 2 14 6 25 8 25
2 0 4 -11 4 -25z m136 -25 c8 0 12 -5 9 -10 -4 -6 -16 -8 -28 -4 -27 8 -23 4
-32 32 l-7 24 21 -21 c12 -12 28 -21 37 -21z m-236 15 c7 -8 19 -15 28 -15 8
0 13 -3 9 -6 -3 -3 -24 -3 -46 1 -29 5 -38 10 -34 21 7 18 27 18 43 -1z m-306
-10 c-4 -8 -14 -15 -23 -15 -14 1 -13 3 3 15 25 19 27 19 20 0z m-361 -2 c-7
-2 -19 -2 -25 0 -7 3 -2 5 12 5 14 0 19 -2 13 -5z m1097 -3 c0 -5 -2 -10 -4
-10 -3 0 -8 5 -11 10 -3 6 -1 10 4 10 6 0 11 -4 11 -10z m2027 -22 c-3 -8 -6
-5 -6 6 -1 11 2 17 5 13 3 -3 4 -12 1 -19z"/>
<path d="M3125 3811 c-51 -13 -76 -31 -91 -66 -18 -44 -18 -89 1 -129 21 -44
47 -57 131 -63 129 -10 194 33 194 127 0 52 -22 96 -60 115 -35 18 -133 27
-175 16z m125 -62 c25 -12 43 -55 36 -84 -15 -60 -122 -83 -169 -36 -38 38
-18 109 38 131 21 8 69 3 95 -11z"/>
<path d="M3141 3716 c-7 -8 -11 -27 -9 -43 3 -26 6 -28 55 -31 50 -3 53 -2 59
24 4 15 2 34 -3 43 -14 22 -86 27 -102 7z"/>
<path d="M2906 3802 c-4 -7 -9 -187 -7 -240 1 -9 13 -12 39 -10 l37 3 3 55 c2
30 1 88 -3 128 -7 71 -7 72 -35 72 -16 0 -31 -4 -34 -8z"/>
<path d="M2631 3726 c-7 -8 -11 -32 -9 -53 3 -37 4 -38 45 -41 56 -4 83 11 83
47 0 35 -14 47 -66 55 -30 4 -45 2 -53 -8z"/>
</g>
</svg>
