<?xml version="1.0" standalone="no"?>
<!DOCTYPE svg PUBLIC "-//W3C//DTD SVG 20010904//EN"
 "http://www.w3.org/TR/2001/REC-SVG-20010904/DTD/svg10.dtd">
<svg version="1.0" xmlns="http://www.w3.org/2000/svg"
 width="480.000000pt" height="739.000000pt" viewBox="0 0 480.000000 739.000000"
 preserveAspectRatio="xMidYMid meet">

<g transform="translate(0.000000,739.000000) scale(0.100000,-0.100000)"
fill="#000000" stroke="none">
<path d="M0 3695 l0 -3695 2400 0 2400 0 0 3695 0 3695 -2400 0 -2400 0 0
-3695z m1355 3675 c3 -6 -3 -23 -14 -39 -26 -37 -26 -37 5 -66 21 -19 23 -25
10 -25 -17 0 -23 -44 -7 -54 4 -3 6 -17 3 -31 -2 -14 1 -31 6 -38 13 -15 1
-73 -14 -70 -15 4 -51 304 -39 324 8 12 42 12 50 -1z m230 -47 c4 -32 10 -98
14 -148 10 -116 29 -314 42 -435 5 -52 14 -144 19 -205 5 -60 14 -157 20 -215
5 -58 12 -148 16 -200 4 -52 9 -131 13 -175 l6 -80 134 3 c119 3 133 1 122
-12 -7 -8 -18 -13 -25 -10 -12 5 -63 -15 -101 -39 -63 -40 -96 -57 -109 -57
-8 0 -17 -3 -19 -7 -3 -5 2 -57 9 -118 8 -60 16 -148 18 -195 2 -47 10 -128
20 -181 11 -64 13 -110 8 -140 -4 -24 -8 -81 -7 -126 0 -46 -3 -83 -7 -83 -5
0 -8 7 -8 15 0 18 -12 19 -28 3 -18 -18 -16 33 3 58 8 10 15 29 15 42 0 19 -4
22 -21 17 -19 -6 -20 -4 -14 25 4 17 13 43 21 58 8 15 14 35 14 45 0 24 -27
22 -35 -3 -3 -11 -11 -20 -16 -20 -13 0 -11 28 3 32 18 6 37 83 28 120 -6 24
-8 27 -9 11 -1 -13 -7 -23 -16 -23 -8 0 -15 -4 -15 -10 0 -5 -5 -10 -10 -10
-6 0 0 17 13 38 13 20 27 61 31 91 l7 55 -20 -25 c-10 -13 -22 -22 -25 -19 -6
7 16 85 27 96 4 4 7 21 7 38 l0 31 -19 -24 c-23 -30 -47 -20 -27 12 18 29 42
125 33 133 -4 4 -16 -1 -27 -11 -20 -18 -20 -17 -20 7 0 14 7 28 15 32 8 3 15
15 15 26 0 11 5 20 10 20 6 0 10 16 10 36 0 28 -4 35 -17 33 -30 -3 -36 0 -25
14 5 6 13 39 17 72 l8 60 -21 -25 c-31 -38 -37 -17 -13 46 11 31 21 65 21 76
0 20 -1 21 -20 3 -30 -27 -33 -14 -10 44 11 28 20 64 20 79 l-1 27 -22 -27
c-13 -16 -26 -28 -29 -28 -4 0 -3 12 1 28 5 15 14 46 21 70 15 48 10 58 -18
43 -18 -10 -18 -8 -4 42 27 100 27 100 3 92 -26 -8 -26 -3 -2 62 24 65 13 87
-24 47 -18 -20 -25 -23 -21 -11 3 11 9 31 13 45 3 15 12 36 19 47 15 22 19 55
6 55 -5 0 -19 -11 -32 -25 -37 -40 -42 -29 -10 23 38 62 48 102 25 102 -11 0
-15 6 -11 18 22 74 17 109 -12 80 -17 -17 -15 3 3 38 22 42 20 67 -5 59 -19
-6 -19 -5 -5 29 20 48 19 59 -5 53 -24 -6 -24 -7 -5 29 19 37 19 64 0 64 -11
0 -12 5 -5 26 14 35 12 44 -5 38 -13 -5 -14 -2 -5 21 14 38 13 50 -5 35 -23
-19 -29 -5 -9 25 13 20 14 29 5 38 -21 21 -12 37 23 37 33 0 33 0 41 -57z
m890 -228 c85 -7 153 -33 174 -68 10 -15 9 -23 -6 -39 -18 -21 -18 -21 15 -15
45 9 68 -5 92 -55 24 -49 25 -59 6 -52 -17 6 -56 -12 -56 -27 0 -5 10 -7 23
-4 16 4 30 -1 47 -18 40 -38 62 -68 70 -96 4 -14 11 -34 15 -43 5 -13 2 -15
-13 -11 -16 4 -20 -2 -25 -49 -12 -100 -9 -135 13 -141 27 -7 27 -63 0 -143
-25 -73 -100 -164 -135 -164 -20 0 -24 -6 -27 -42 -5 -44 -23 -120 -63 -263
-33 -113 -45 -169 -55 -251 -11 -89 -61 -196 -88 -188 -13 5 -14 4 -3 -4 9 -7
10 -15 3 -28 -15 -27 -61 -69 -68 -61 -4 3 -15 -5 -26 -18 -23 -30 -53 -26
-145 16 -77 36 -168 131 -158 163 7 23 11 42 20 100 8 47 16 39 39 -37 17 -56
38 -87 56 -87 5 0 17 -14 25 -30 17 -34 40 -31 29 3 -3 12 -21 63 -39 112 -45
124 -50 157 -26 179 20 18 24 14 99 -84 13 -16 28 -30 33 -30 18 0 8 25 -18
46 -24 19 -26 24 -16 47 8 17 21 27 40 29 22 2 28 8 28 28 0 19 9 29 44 46
l45 21 -35 6 c-67 11 -87 24 -98 64 -13 47 -5 53 72 53 68 0 76 16 13 25 -43
7 -87 38 -73 52 4 3 40 6 79 5 l73 -1 -60 15 c-96 24 -103 39 -33 75 l40 20
-20 22 c-19 20 -21 33 -18 150 4 158 13 146 -174 213 -13 5 -13 7 1 17 8 7 18
20 22 30 3 9 14 17 23 17 13 0 15 6 10 28 -24 104 -19 152 17 152 40 0 68 12
63 26 -3 9 2 14 13 14 23 0 75 26 91 45 11 13 15 12 35 -9 12 -13 39 -27 62
-31 28 -4 43 -12 46 -25 5 -18 40 -41 85 -54 18 -6 22 -3 22 12 0 11 -6 22
-14 25 -20 8 -17 56 5 70 11 7 19 15 19 19 0 13 -34 41 -76 65 -30 16 -38 27
-36 44 2 22 2 22 -17 5 -28 -25 -47 -11 -27 20 9 13 16 30 16 39 0 28 -30 15
-55 -25 -32 -51 -65 -55 -65 -7 0 38 -18 70 -27 48 -5 -11 -7 -11 -15 0 -6 9
-7 0 -3 -26 10 -70 -17 -80 -49 -17 -15 29 -21 32 -61 32 -54 0 -57 -11 -10
-40 19 -12 35 -26 35 -31 0 -13 -5 -12 -45 15 -20 14 -49 24 -65 24 -17 -1
-30 -2 -30 -4 0 -2 15 -20 33 -40 26 -31 28 -35 9 -25 -12 6 -27 9 -33 6 -5
-4 -21 1 -34 9 -23 15 -29 13 -26 -6 0 -5 -4 -8 -9 -8 -14 0 -12 -27 3 -33 7
-4 6 -6 -4 -6 -9 -1 -22 -8 -29 -16 -10 -12 -10 -15 4 -15 23 0 20 -17 -4 -23
-26 -7 -26 -27 1 -34 19 -5 19 -7 -8 -35 -15 -17 -39 -34 -52 -39 -17 -7 -20
-13 -13 -22 11 -13 -3 -140 -18 -167 -6 -10 -3 -21 8 -33 12 -13 13 -22 6 -34
-14 -22 -36 -29 -28 -9 4 10 -5 22 -28 36 -18 11 -34 15 -36 10 -5 -14 -42
-33 -42 -22 0 5 9 19 20 32 11 13 20 30 20 40 0 9 5 21 12 28 9 9 8 13 -3 17
-21 8 -17 69 8 125 11 25 23 59 27 75 10 40 51 101 100 149 40 38 166 114 166
100 0 -3 6 -1 14 6 18 14 101 29 141 24 17 -2 66 -6 110 -9z m-1104 -84 c-8
-5 -8 -17 0 -42 5 -18 12 -66 14 -105 2 -39 12 -90 21 -113 12 -32 14 -44 5
-55 -13 -15 -6 -61 12 -84 20 -26 -4 -24 -28 2 -27 29 -32 55 -14 73 9 9 9 20
1 40 -11 31 -25 133 -23 173 1 14 -4 38 -10 53 -13 32 3 83 22 71 8 -5 8 -8 0
-13z m1149 -141 c0 -5 -4 -10 -10 -10 -5 0 -10 5 -10 10 0 6 5 10 10 10 6 0
10 -4 10 -10z m-430 -319 c7 -14 15 -46 17 -72 4 -40 1 -49 -18 -62 -20 -15
-21 -21 -16 -85 4 -37 14 -107 22 -154 8 -48 12 -100 9 -117 -9 -46 13 -88 65
-123 47 -31 71 -55 71 -70 0 -19 -25 -4 -78 47 -32 30 -69 63 -82 72 l-23 16
6 -106 c4 -63 3 -107 -2 -107 -5 0 -22 19 -38 43 -28 41 -28 44 -20 132 5 55
4 109 -2 140 -29 141 -20 297 27 456 16 55 17 56 33 35 9 -11 22 -32 29 -45z
m-650 -79 c0 -1 -11 5 -25 14 -18 12 -25 25 -25 48 0 53 13 50 32 -6 10 -29
18 -54 18 -56z m780 -2 c0 -5 -7 -7 -15 -4 -8 4 -15 8 -15 10 0 2 7 4 15 4 8
0 15 -4 15 -10z m-784 -68 c1 -44 -6 -51 -26 -27 -14 17 -4 78 13 72 7 -2 12
-22 13 -45z m854 -5 c12 -28 11 -34 -8 -68 -12 -21 -22 -51 -22 -67 0 -17 -9
-49 -20 -73 -17 -39 -17 -47 -5 -66 12 -18 12 -22 -1 -27 -22 -9 -34 1 -34 29
0 13 -9 40 -21 59 -25 43 -60 138 -54 145 3 3 13 6 22 7 52 8 65 15 60 34 -3
11 1 21 9 24 8 3 14 14 14 24 0 43 37 30 60 -21z m-327 7 c-5 -15 -25 -15 -24
-1 1 4 1 14 1 23 0 13 3 14 14 4 8 -6 12 -18 9 -26z m-59 -68 c3 -16 4 -31 2
-33 -4 -5 -31 53 -41 87 l-6 25 20 -25 c10 -13 22 -38 25 -54z m-464 -52 c0
-32 -4 -44 -12 -42 -14 5 -23 51 -14 74 11 30 26 12 26 -32z m524 -33 c5 -29
4 -32 -10 -21 -27 23 -37 50 -23 66 15 18 23 7 33 -45z m-507 -79 c-3 -16 0
-41 9 -56 19 -38 18 -39 -11 -12 -30 28 -36 96 -9 96 13 0 15 -7 11 -28z m8
-158 c0 -28 -4 -44 -12 -44 -14 0 -19 81 -6 93 12 12 18 -4 18 -49z m747 20
c-5 -26 -10 -30 -23 -17 -14 14 -3 46 14 40 6 -2 10 -13 9 -23z m-739 -147
c-6 -39 -23 -41 -23 -3 0 19 19 50 27 43 1 -2 0 -20 -4 -40z m1672 -28 c60 -6
120 -15 134 -20 33 -13 91 -65 83 -75 -4 -4 -1 -4 6 0 6 4 12 17 12 30 0 42
34 49 192 41 183 -9 222 -23 232 -84 7 -47 46 -115 74 -130 14 -8 25 -4 46 15
24 23 26 30 20 72 -8 57 -11 63 -32 61 -35 -3 -63 1 -58 9 8 13 182 12 200 -1
8 -7 22 -39 31 -71 12 -47 12 -67 3 -98 -8 -29 -8 -47 0 -77 18 -59 15 -105
-9 -127 -26 -23 -46 -12 -77 43 -14 27 -32 43 -50 48 -15 3 -37 16 -49 27 -34
32 -53 17 -53 -40 0 -75 -29 -91 -83 -46 -17 14 -59 39 -94 56 -61 29 -64 31
-58 59 5 22 3 29 -9 29 -8 0 -20 -9 -26 -19 -8 -17 -15 -18 -46 -9 -20 5 -38
7 -41 4 -3 -3 2 -49 12 -103 9 -54 18 -105 18 -113 1 -9 15 -16 32 -18 62 -7
142 -33 187 -61 l47 -30 26 31 c29 35 75 42 101 16 13 -13 13 -21 0 -72 -23
-87 -27 -90 -116 -83 -91 8 -169 27 -207 52 -48 33 -51 25 -21 -54 23 -59 39
-85 76 -117 45 -40 46 -43 50 -108 l4 -66 -32 -11 c-32 -11 -32 -12 -24 -58
10 -53 9 -98 -1 -196 -7 -68 -25 -105 -51 -105 -16 0 -67 107 -60 126 3 9 -2
17 -12 20 -9 3 -27 11 -39 16 -23 11 -53 5 -53 -11 0 -5 11 -16 25 -25 33 -22
33 -46 -1 -46 -16 0 -51 19 -88 46 -33 26 -77 53 -96 61 -19 8 -48 29 -65 46
-16 18 -51 45 -77 60 -46 27 -47 28 -42 71 3 36 1 44 -15 49 -10 2 -26 0 -35
-5 -11 -6 -22 -6 -31 2 -11 9 -18 7 -34 -9 -12 -12 -21 -27 -21 -34 0 -16 -51
-67 -67 -67 -14 0 -27 36 -18 50 4 6 15 8 24 5 20 -6 51 3 51 15 0 4 -12 11
-26 14 -33 9 -26 27 16 41 46 15 22 29 -27 16 -30 -8 -42 -7 -61 5 -13 9 -24
14 -25 12 -15 -30 -27 -44 -41 -46 -24 -5 -20 39 9 94 18 33 25 63 25 99 0 46
-3 54 -22 59 -13 3 -35 17 -50 31 -32 29 -43 31 -52 8 -5 -12 -10 -13 -18 -5
-13 13 6 42 26 42 6 0 28 14 49 31 28 23 44 30 62 25 14 -3 37 -9 53 -12 15
-4 46 -24 69 -45 22 -21 58 -42 80 -48 21 -6 76 -38 123 -71 93 -65 140 -94
146 -88 2 3 -1 18 -6 34 -26 85 -40 159 -43 244 -4 97 -27 170 -53 170 -6 0
-15 7 -18 16 -4 10 -15 14 -33 12 -21 -2 -30 3 -38 20 -13 30 -33 28 -41 -5
-3 -16 -7 -32 -8 -38 -2 -5 3 -29 10 -52 7 -24 9 -43 5 -43 -5 0 -12 15 -17
33 -19 80 -22 82 -23 20 0 -34 4 -74 9 -88 13 -34 -14 -98 -39 -93 -35 7 -121
197 -121 268 0 13 14 26 42 40 37 18 43 18 51 5 24 -44 53 23 39 92 -8 35 -7
50 1 55 8 5 7 17 -6 43 -9 20 -17 38 -17 41 0 4 16 21 35 38 l35 33 -32 -5
c-33 -5 -107 -45 -120 -66 -11 -17 -21 1 -20 36 3 88 -6 81 85 74 45 -4 131
-12 192 -17z m-1695 -35 c0 -9 9 -18 19 -21 15 -4 20 -16 23 -58 3 -49 2 -52
-13 -39 -15 13 -17 12 -21 -13 -2 -15 -2 -36 0 -46 4 -18 4 -18 18 0 14 17 15
17 12 -2 -4 -25 -49 -49 -60 -32 -3 6 -4 23 -2 37 3 14 1 53 -5 87 -5 33 -7
71 -4 82 6 24 33 28 33 5z m-1033 -43 c9 -34 -32 -442 -52 -521 -17 -68 -29
-100 -38 -100 -7 0 -7 51 -1 148 5 81 9 221 9 310 0 159 1 164 23 182 28 23
50 16 59 -19z m1233 20 c0 -6 -4 -13 -10 -16 -5 -3 -10 1 -10 9 0 9 5 16 10
16 6 0 10 -4 10 -9z m-1509 -28 c1 -10 4 -29 6 -43 3 -14 7 -113 10 -220 12
-438 9 -455 -73 -447 -25 3 -50 10 -57 15 -18 15 -21 257 -4 325 10 38 11 74
5 137 -12 110 -12 137 -3 185 11 56 21 65 71 65 35 0 44 -4 45 -17z m4539 -4
c25 -6 56 -12 70 -13 14 -2 28 -4 33 -5 4 0 7 -11 7 -22 0 -21 -3 -22 -75 -16
-84 6 -165 32 -165 53 0 17 63 18 130 3z m-265 -9 c19 -7 19 -8 -5 -18 -37
-14 -58 -42 -78 -102 -26 -77 -44 -84 -88 -38 -34 38 -44 77 -25 107 5 7 30
17 57 22 27 5 52 16 57 24 9 16 49 19 82 5z m186 -117 c13 -16 12 -17 -3 -4
-10 7 -18 15 -18 17 0 8 8 3 21 -13z m-2581 -81 c0 -21 -2 -24 -10 -12 -13 20
-13 53 0 45 6 -3 10 -18 10 -33z m2433 -10 c22 -2 70 3 108 13 38 9 79 15 92
14 12 -1 38 1 59 5 20 5 46 5 57 1 20 -6 21 -13 21 -156 l0 -149 -47 -1 c-53
-1 -129 -5 -154 -7 -9 -1 -21 -13 -27 -26 -20 -44 -78 -9 -66 40 3 12 1 25 -5
28 -6 4 -11 17 -11 30 0 20 -70 96 -89 96 -5 0 -14 -20 -21 -44 -10 -37 -10
-47 4 -68 15 -23 15 -27 1 -38 -8 -7 -15 -20 -14 -29 0 -12 2 -11 9 4 8 17 8
16 7 -7 -2 -31 -10 -26 -36 23 -10 19 -27 35 -39 37 -23 4 -55 42 -66 80 -11
34 10 86 45 106 21 12 29 24 27 39 -5 40 8 46 59 30 27 -9 65 -18 86 -21z
m-2959 -63 c-5 -32 -3 -43 12 -53 17 -13 17 -15 1 -39 -20 -31 -18 -76 4 -90
18 -11 12 -68 -7 -74 -11 -4 -26 86 -24 137 3 41 2 73 -4 114 -6 42 0 60 15
51 5 -4 6 -24 3 -46z m-636 -163 c16 -5 22 -15 22 -37 0 -16 -5 -29 -12 -29
-7 0 -20 -23 -29 -50 -15 -49 -15 -51 8 -82 l23 -32 6 32 c4 18 11 35 17 39
13 8 47 -34 47 -58 0 -19 -8 -23 -47 -19 -13 1 -30 -5 -38 -14 -9 -8 -21 -13
-28 -11 -7 2 -24 6 -40 9 l-27 6 3 88 c4 83 23 152 47 167 6 4 8 12 4 18 -3 7
0 5 8 -4 7 -9 23 -19 36 -23z m675 -173 c5 -28 -14 -69 -26 -56 -9 8 -9 68 0
76 13 13 21 7 26 -20z m137 -27 c0 -3 -4 -8 -10 -11 -5 -3 -10 -1 -10 4 0 6 5
11 10 11 6 0 10 -2 10 -4z m1030 -36 c0 -13 -11 -13 -30 0 -12 8 -11 10 8 10
12 0 22 -4 22 -10z m-90 -14 c0 -8 -7 -16 -15 -20 -13 -4 -14 -2 -5 14 13 23
20 26 20 6z m-1072 -50 c-18 -55 -21 -86 -9 -86 8 0 11 -12 9 -32 -2 -18 -7
-32 -13 -31 -12 3 -22 99 -17 160 4 37 6 41 22 31 15 -9 16 -17 8 -42z m1013
19 c5 -56 3 -83 -7 -102 -17 -34 -24 -17 -24 54 0 49 3 63 15 63 8 0 16 -7 16
-15z m172 1 c3 -7 1 -18 -5 -24 -11 -11 6 -52 22 -52 6 0 10 -7 10 -15 0 -19
-36 -20 -47 0 -10 18 -53 9 -53 -12 0 -8 -8 -13 -18 -11 -11 2 -26 -3 -35 -11
-20 -16 -23 2 -4 21 7 7 30 24 50 38 44 30 48 50 10 50 -32 0 -20 16 17 23 44
8 48 7 53 -7z m1920 -17 c21 -27 22 -47 0 -71 -23 -26 -60 -22 -88 8 -29 32
-31 51 -8 77 22 23 70 16 96 -14z m-2038 -19 c-10 -11 -23 -20 -28 -20 -6 0
-2 9 8 20 10 11 23 20 28 20 6 0 2 -9 -8 -20z m165 -2 c0 -12 -1 -19 -3 -17
-1 2 -9 12 -16 22 -12 14 -11 17 3 17 10 0 16 -8 16 -22z m-388 -30 c-7 -7
-12 -8 -12 -2 0 14 12 26 19 19 2 -3 -1 -11 -7 -17z m1505 10 c35 -55 50 -157
29 -199 -29 -57 -13 -101 39 -111 38 -7 23 -33 -22 -36 -57 -4 -83 11 -83 48
0 18 -13 48 -30 72 -35 48 -54 109 -44 141 11 35 66 97 85 97 10 0 21 -6 26
-12z m403 -2 c6 -8 10 -25 9 -38 -2 -13 7 -56 20 -96 22 -70 22 -74 5 -93 -24
-26 -49 -24 -74 8 -19 25 -21 35 -14 118 8 108 23 137 54 101z m-2022 -61 c2
-34 -1 -55 -8 -55 -5 0 -10 15 -10 34 0 52 -18 53 -40 2 -21 -49 -18 -72 8
-79 11 -3 5 -7 -15 -12 -25 -6 -33 -13 -33 -30 0 -13 -7 -26 -16 -29 -12 -5
-14 -1 -9 17 4 12 11 26 16 32 5 5 9 19 9 31 0 13 4 25 8 28 5 3 14 30 21 61
11 50 15 55 39 55 26 0 27 -3 30 -55z m-158 30 c11 -13 6 -15 -36 -13 -45 3
-49 1 -63 -27 -18 -36 -27 -13 -12 28 9 24 16 27 55 27 27 0 48 -6 56 -15z
m2680 -35 l0 -51 -29 16 c-35 18 -43 28 -35 48 5 13 38 35 57 36 4 1 7 -22 7
-49z m-4641 22 c16 -30 -3 -409 -23 -462 -16 -41 -30 -108 -56 -265 -20 -122
-37 -196 -49 -208 -9 -9 -12 87 -10 428 1 242 5 450 10 462 10 27 65 63 96 63
12 0 27 -8 32 -18z m645 -7 c10 -15 14 -34 10 -49 -4 -16 -1 -25 10 -29 9 -4
16 -13 16 -20 0 -13 31 -32 93 -56 38 -15 50 -53 42 -131 -8 -80 -7 -124 4
-128 5 -2 7 -11 4 -22 -7 -25 15 -91 38 -113 22 -21 23 -40 7 -101 -10 -39 -9
-50 7 -86 17 -38 18 -45 4 -69 -8 -14 -21 -26 -29 -26 -20 0 -24 -37 -9 -82
10 -32 10 -38 -7 -50 -11 -8 -31 -12 -47 -9 -24 5 -31 1 -50 -32 l-22 -37 -5
35 c-3 19 -2 68 2 108 7 66 6 76 -14 103 -24 32 -27 77 -13 166 4 26 2 55 -5
75 -7 19 -14 104 -16 202 -3 93 -8 175 -12 183 -7 11 -16 7 -47 -17 -44 -35
-55 -34 -74 5 -11 23 -11 38 -2 77 6 27 11 60 11 73 0 25 34 54 66 54 12 1 29
-10 38 -24z m1306 -15 c0 -5 -4 -10 -10 -10 -5 0 -10 5 -10 10 0 6 5 10 10 10
6 0 10 -4 10 -10z m620 -12 c0 -6 6 -19 14 -27 23 -26 30 -61 12 -61 -8 0 -19
7 -23 15 -6 10 -12 11 -23 4 -11 -8 -12 -12 -2 -16 6 -2 12 -10 12 -16 0 -6
10 -21 22 -34 24 -26 23 -29 -15 -38 -21 -6 -27 -4 -27 9 0 9 -7 16 -15 16
-21 0 -19 -17 5 -30 41 -22 15 -67 -35 -61 -11 2 -17 0 -13 -4 3 -4 -1 -15
-10 -25 -11 -14 -19 -16 -28 -9 -9 7 -14 4 -19 -10 -3 -12 -15 -26 -26 -31
-10 -6 -19 -17 -19 -25 0 -8 -4 -15 -10 -15 -5 0 -9 19 -9 43 1 23 3 34 6 25
4 -16 8 -15 39 8 19 15 34 30 34 35 0 4 11 20 25 35 30 33 32 54 4 61 -12 4
-18 11 -15 20 3 8 6 22 6 30 0 9 3 14 6 10 12 -12 64 15 64 34 0 10 -4 19 -10
19 -5 0 -10 -5 -10 -11 0 -6 -9 -8 -20 -4 -13 4 -22 1 -26 -9 -3 -9 -11 -16
-16 -16 -5 0 -18 -10 -29 -22 -13 -17 -18 -19 -19 -8 0 23 83 102 121 116 36
12 49 10 49 -8z m-173 -40 c-3 -7 -5 -2 -5 12 0 14 2 19 5 13 2 -7 2 -19 0
-25z m-779 -24 c-2 -10 -11 -20 -21 -22 -12 -2 -15 1 -12 12 3 9 7 24 10 33 8
22 28 2 23 -23z m-214 -53 c-11 -49 -14 -55 -25 -44 -16 16 -1 83 17 76 9 -3
12 -14 8 -32z m986 -7 c0 -8 -4 -14 -10 -14 -5 0 -10 9 -10 21 0 11 5 17 10
14 6 -3 10 -13 10 -21z m-820 2 c0 -3 -4 -8 -10 -11 -5 -3 -10 -1 -10 4 0 6 5
11 10 11 6 0 10 -2 10 -4z m50 -26 c0 -16 -4 -30 -10 -30 -5 0 -10 14 -10 30
0 17 5 30 10 30 6 0 10 -13 10 -30z m2284 9 c-3 -5 -10 -7 -15 -3 -5 3 -7 10
-3 15 3 5 10 7 15 3 5 -3 7 -10 3 -15z m650 -50 c22 -37 15 -59 -19 -59 -42 0
-65 17 -65 50 0 55 54 60 84 9z m-2129 -6 c-12 -17 -20 -23 -23 -15 -4 14 28
56 36 47 3 -2 -3 -17 -13 -32z m-258 11 c-3 -3 -12 -4 -19 -1 -8 3 -5 6 6 6
11 1 17 -2 13 -5z m-1578 -88 c-2 -64 18 -265 32 -323 11 -45 11 -60 -4 -106
-20 -63 -22 -194 -5 -278 9 -44 9 -77 -2 -150 -7 -52 -13 -126 -14 -166 -1
-69 -8 -94 -23 -79 -4 4 -9 42 -10 84 -2 42 -8 100 -15 127 -6 28 -12 135 -13
245 -1 123 -7 218 -15 258 -12 53 -12 68 0 100 12 32 16 76 21 242 1 19 -2 48
-6 64 -6 23 -4 32 11 43 16 12 20 11 31 -4 7 -9 12 -35 12 -57z m1797 29 c-9
-23 -26 -9 -26 23 0 24 1 25 16 10 10 -9 14 -24 10 -33z m-986 15 c0 -11 0
-23 1 -27 0 -4 -4 -9 -10 -11 -6 -2 -11 10 -11 27 0 17 5 31 10 31 6 0 10 -9
10 -20z m230 -30 c0 -30 -4 -40 -16 -40 -11 0 -14 6 -9 23 4 12 9 30 11 40 9
28 14 19 14 -23z m963 -11 c5 -20 5 -20 -14 -3 -23 20 -28 54 -5 35 8 -6 16
-21 19 -32z m957 16 c0 -2 -7 -5 -15 -9 -9 -3 -15 0 -15 9 0 9 6 12 15 9 8 -4
15 -7 15 -9z m-1005 -35 c4 -11 17 -32 31 -45 24 -24 32 -55 14 -55 -5 0 -14
9 -20 20 -6 11 -17 20 -25 20 -17 0 -20 -26 -5 -35 6 -3 10 -14 10 -24 0 -10
7 -24 15 -31 21 -17 19 -34 -2 -25 -10 4 -36 11 -58 14 -32 6 -45 3 -59 -11
-11 -10 -22 -16 -24 -13 -8 8 50 85 64 85 9 0 14 11 14 30 0 21 -4 28 -14 24
-9 -3 -12 -12 -8 -22 5 -15 4 -15 -12 0 -24 25 -12 54 25 62 17 3 28 10 24 16
-3 5 1 10 9 10 8 0 18 -9 21 -20z m-915 -79 c0 -34 -4 -51 -15 -55 -13 -4 -14
2 -9 37 11 83 24 92 24 18z m-215 11 c0 -18 -20 -15 -23 4 -3 10 1 15 10 12 7
-3 13 -10 13 -16z m-956 -142 c-1 -140 -12 -196 -24 -118 -5 36 -3 201 5 268
0 3 4 -2 10 -10 5 -8 9 -71 9 -140z m1978 125 c-4 -8 -11 -15 -17 -15 -6 0 -6
7 2 20 14 22 24 19 15 -5z m-70 -77 c-2 -13 -4 -3 -4 22 0 25 2 35 4 23 2 -13
2 -33 0 -45z m798 -42 c44 -20 87 -41 95 -45 21 -11 24 -74 5 -110 -11 -23
-14 -47 -9 -98 4 -48 0 -105 -16 -193 -37 -215 -60 -371 -60 -407 0 -29 -3
-34 -21 -31 -16 2 -28 19 -46 68 -30 81 -72 270 -73 330 0 25 -7 72 -15 105
-18 74 -20 290 -3 397 l11 77 27 -29 c14 -15 62 -44 105 -64z m-625 -2 c0 -17
-44 -58 -48 -44 -6 17 -17 12 -57 -25 -51 -49 -55 -37 -5 15 22 23 40 48 40
55 0 8 13 13 35 13 23 0 35 -5 35 -14z m-148 -26 c-7 -7 -12 -8 -12 -2 0 14
12 26 19 19 2 -3 -1 -11 -7 -17z m1038 12 c0 -5 -5 -10 -11 -10 -5 0 -7 5 -4
10 3 6 8 10 11 10 2 0 4 -4 4 -10z m-850 -62 c0 -20 -1 -21 -20 -3 -11 10 -20
24 -20 32 0 11 4 11 20 3 11 -6 20 -20 20 -32z m-214 5 c-10 -10 -19 5 -10 18
6 11 8 11 12 0 2 -7 1 -15 -2 -18z m164 -29 c0 -15 -87 -60 -97 -51 -2 3 5 19
17 35 24 32 80 43 80 16z m-919 -47 c-25 -26 -28 -6 -4 23 11 12 19 16 22 9 2
-6 -6 -21 -18 -32z m749 7 c0 -8 -4 -12 -10 -9 -5 3 -10 10 -10 16 0 5 5 9 10
9 6 0 10 -7 10 -16z m195 -6 c28 -13 38 -62 10 -52 -15 6 -45 -12 -45 -27 0
-4 7 -15 16 -23 9 -9 11 -16 4 -16 -6 0 -22 12 -35 26 -20 21 -23 30 -13 41 7
9 15 10 21 4 6 -6 15 -5 25 5 13 13 12 17 -3 34 -21 23 -16 25 20 8z m-2108
-70 c-3 -7 -5 -2 -5 12 0 14 2 19 5 13 2 -7 2 -19 0 -25z m2081 -101 c4 -20
-16 -31 -32 -18 -10 8 -20 6 -39 -9 -14 -11 -28 -20 -32 -20 -11 0 6 44 21 56
21 16 78 10 82 -9z m-2047 -180 c11 -39 11 -53 0 -80 -21 -51 -34 -185 -21
-217 6 -15 10 -52 9 -81 -1 -30 3 -74 10 -98 8 -27 10 -58 5 -80 -4 -20 -6
-64 -5 -99 2 -67 -15 -172 -29 -172 -4 0 -13 30 -20 66 -9 48 -10 119 -5 267
10 246 9 296 -6 369 -6 32 -9 79 -6 105 4 26 9 71 12 98 12 99 17 105 30 35 7
-36 18 -86 26 -113z m2042 71 c-3 -6 -18 -7 -34 -4 -22 4 -32 1 -41 -14 -15
-24 -28 -26 -28 -5 0 8 6 15 14 15 8 0 16 7 20 15 3 8 15 15 26 15 11 0 20 6
20 13 1 7 7 4 15 -7 8 -10 12 -23 8 -28z m-2213 -60 c0 -37 -5 -89 -11 -117
-7 -33 -7 -61 0 -88 11 -41 2 -144 -13 -144 -21 0 -34 72 -25 137 5 35 7 81 4
101 -4 34 9 158 21 193 11 31 24 -15 24 -82z m644 40 c3 -13 6 -32 6 -42 0
-18 -1 -18 -20 -1 -23 21 -27 65 -6 65 7 0 16 -10 20 -22z m1526 -39 c0 -6 -4
-7 -10 -4 -5 3 -10 11 -10 16 0 6 5 7 10 4 6 -3 10 -11 10 -16z m30 -59 c0
-10 7 -20 15 -24 8 -3 15 -13 15 -22 0 -13 -5 -11 -20 9 -11 14 -20 31 -20 37
0 7 -7 10 -15 6 -19 -7 -47 3 -39 15 3 5 9 7 14 4 5 -3 12 -1 15 5 9 15 35 -7
35 -30z m-710 -53 c19 -10 25 -21 27 -47 0 -19 4 -54 8 -77 9 -51 -5 -57 -46
-19 -25 23 -58 111 -46 123 3 3 -2 22 -13 43 -25 48 -13 60 20 20 14 -17 36
-36 50 -43z m-1025 49 c37 -16 49 -34 59 -86 6 -34 42 -79 98 -121 15 -11 27
-23 26 -27 -1 -4 4 -19 10 -35 11 -26 11 -44 -1 -117 -4 -19 -9 -64 -12 -99
-6 -70 -10 -81 -30 -81 -8 0 -62 -21 -120 -46 -58 -26 -108 -44 -111 -42 -2 3
2 26 11 52 16 46 15 63 -6 177 -9 45 -8 62 5 93 21 52 20 68 -10 158 -27 78
-27 78 -9 125 25 67 34 72 90 49z m1708 -44 c-2 -13 5 -26 17 -32 12 -6 18
-15 15 -21 -7 -11 -52 -12 -58 -1 -9 15 6 83 17 79 6 -2 10 -14 9 -25z m71
-118 c9 -23 7 -34 -4 -34 -5 0 -10 9 -10 21 0 11 -4 18 -9 14 -5 -3 -12 -1
-16 5 -3 5 3 10 13 10 11 0 23 -7 26 -16z m-60 -20 c9 -3 16 -13 16 -21 0 -10
-6 -13 -16 -9 -9 3 -20 6 -25 6 -4 0 -6 7 -3 15 7 17 7 17 28 9z m-44 -36 c0
-5 -7 -8 -15 -8 -17 0 -18 2 -9 25 5 13 8 14 15 3 5 -7 9 -16 9 -20z m-783
-14 c23 -23 32 -25 89 -22 63 3 64 3 64 -22 0 -20 -7 -29 -33 -38 -18 -7 -46
-12 -61 -12 -14 0 -37 -7 -51 -16 -22 -14 -24 -14 -36 7 -10 20 -9 25 11 41
13 10 21 20 19 22 -16 13 -50 25 -61 21 -7 -3 -22 1 -33 9 -20 14 -19 15 5 25
40 16 59 13 87 -15z m813 -32 c0 -10 5 -23 11 -29 21 -21 2 -43 -36 -43 -40 0
-48 22 -15 40 11 6 20 20 20 30 0 11 5 20 10 20 6 0 10 -8 10 -18z m65 -22
c-3 -5 -11 -10 -16 -10 -6 0 -7 5 -4 10 3 6 11 10 16 10 6 0 7 -4 4 -10z
m-165 -20 c0 -5 -5 -10 -11 -10 -5 0 -7 5 -4 10 3 6 8 10 11 10 2 0 4 -4 4
-10z m-576 -65 c-4 -8 -8 -15 -10 -15 -2 0 -4 7 -4 15 0 8 4 15 10 15 5 0 7
-7 4 -15z m744 -33 c2 -14 -5 -30 -17 -41 -12 -10 -21 -26 -21 -35 0 -9 -5
-16 -11 -16 -7 0 -9 10 -5 26 6 23 4 25 -16 19 -13 -4 -31 -9 -40 -11 -10 -3
-18 0 -18 6 0 15 50 32 78 27 28 -5 40 12 19 28 -19 13 -11 27 13 23 8 -2 16
-14 18 -26z m-2251 -26 c-4 -38 -15 -58 -28 -51 -12 8 -12 37 1 70 13 35 31
22 27 -19z m307 -30 c10 -41 12 -65 5 -78 -13 -24 -41 -23 -57 2 -12 20 -10
35 24 129 7 20 10 13 28 -53z m1946 -61 c0 -8 -7 -15 -15 -15 -8 0 -15 -7 -15
-15 0 -11 -11 -15 -42 -15 -32 0 -39 3 -28 10 8 5 23 10 32 10 10 0 23 9 30
20 15 23 38 27 38 5z m2087 -47 c-3 -8 -6 -5 -6 6 -1 11 2 17 5 13 3 -3 4 -12
1 -19z m-4031 -26 c18 -12 44 -56 44 -73 0 -10 -23 -36 -52 -58 -60 -48 -68
-44 -68 37 0 45 4 57 26 77 29 27 34 29 50 17z m1944 -56 c0 -13 -10 -26 -27
-33 -29 -14 -103 -18 -103 -5 0 15 41 32 65 26 20 -5 25 -2 25 13 0 11 3 22 6
26 12 12 34 -6 34 -27z m-2260 -18 c0 -16 -20 -48 -30 -48 -11 0 -13 30 -4 54
6 15 34 11 34 -6z m2250 -123 c0 -8 -4 -15 -10 -15 -5 0 -10 7 -10 15 0 8 5
15 10 15 6 0 10 -7 10 -15z m-66 -1 c31 -12 18 -34 -19 -34 -22 0 -38 -6 -41
-15 -10 -24 -24 -17 -24 11 0 20 4 24 19 19 10 -3 24 1 31 10 14 17 13 17 34
9z m-1959 -73 c-20 -57 -44 -100 -45 -79 0 21 42 118 52 118 4 0 1 -18 -7 -39z
m2022 -27 c3 -9 -3 -24 -15 -37 -25 -25 -38 -18 -22 12 6 12 8 26 5 31 -3 6 1
10 10 10 8 0 18 -7 22 -16z m-58 -46 c-35 -22 -71 -39 -75 -35 -10 10 9 37 26
37 11 0 22 5 26 11 4 8 9 8 17 0 6 -6 9 -12 6 -13z m-2114 -45 c18 -17 17 -80
-3 -183 -20 -110 -41 -83 -49 65 -4 77 -3 108 7 120 16 19 25 19 45 -2z m76
-54 c-5 -13 -10 -19 -10 -12 -1 15 10 45 15 40 3 -2 0 -15 -5 -28z m2033 -15
c17 -6 22 -29 9 -37 -5 -3 -23 -8 -40 -12 -38 -8 -43 5 -13 35 22 22 22 22 44
14z m-2063 -70 c-9 -28 -9 -29 -10 -3 -1 14 2 29 6 32 11 12 13 2 4 -29z
m1886 -56 c-3 -7 -5 -2 -5 12 0 14 2 19 5 13 2 -7 2 -19 0 -25z m189 -19 c9
-16 -7 -28 -46 -35 l-35 -6 28 26 c31 28 42 32 53 15z m-2423 -46 c-1 -21 -2
-41 -2 -45 -1 -5 -6 -8 -11 -8 -10 0 -4 63 7 83 7 12 8 8 6 -30z m2402 -103
c-3 -5 -11 -10 -16 -10 -6 0 -7 5 -4 10 3 6 11 10 16 10 6 0 7 -4 4 -10z
m-163 -102 c-7 -7 -12 -8 -12 -2 0 6 3 14 7 17 3 4 9 5 12 2 2 -3 -1 -11 -7
-17z m230 -20 c-15 -15 -24 -6 -16 16 5 12 10 14 17 7 8 -8 8 -14 -1 -23z
m-68 -3 c21 -16 21 -17 -12 -34 -29 -16 -35 -11 -26 23 7 30 12 31 38 11z
m476 -91 c6 -6 1 -61 -13 -150 -32 -195 -71 -257 -117 -182 -18 29 -20 50 -20
185 0 111 3 153 13 157 19 8 126 1 137 -10z m-633 -24 c-7 -17 -13 -26 -15
-21 -3 10 15 51 22 51 3 0 -1 -14 -7 -30z m231 -13 c2 -18 -3 -33 -13 -41 -18
-13 -85 -9 -85 5 0 16 30 22 45 9 13 -11 15 -7 15 25 0 29 3 36 18 33 10 -2
18 -14 20 -31z m131 -61 c13 -16 0 -61 -21 -68 -19 -7 -38 2 -38 18 0 8 -4 14
-10 14 -14 0 -13 23 2 38 16 16 53 15 67 -2z m-129 -87 c0 -17 -5 -29 -11 -27
-6 2 -10 7 -10 11 1 4 1 16 1 27 0 11 5 20 10 20 6 0 10 -14 10 -31z m-243
-16 c-3 -10 -5 -4 -5 12 0 17 2 24 5 18 2 -7 2 -21 0 -30z m157 -2 c3 -5 -1
-14 -8 -20 -16 -13 -32 2 -21 19 8 12 22 13 29 1z m46 -1 c0 -5 -7 -10 -16
-10 -8 0 -12 5 -9 10 3 6 10 10 16 10 5 0 9 -4 9 -10z m-130 -19 c0 -5 -7 -11
-15 -15 -15 -5 -20 5 -8 17 9 10 23 9 23 -2z m300 -61 c26 -26 25 -46 -5 -75
-31 -32 -50 -31 -81 0 -18 19 -23 31 -19 48 15 48 70 62 105 27z m-360 -14 c0
-8 -4 -18 -10 -21 -5 -3 -10 3 -10 14 0 12 5 21 10 21 6 0 10 -6 10 -14z m230
-37 c0 -19 -29 -33 -52 -24 -8 3 -26 1 -40 -4 -34 -13 -39 -6 -21 31 13 26 20
29 44 24 15 -3 31 -1 35 5 8 14 34 -9 34 -32z m2099 -36 c-1 -60 -2 -64 -10
-33 -7 31 -3 100 7 100 2 0 4 -30 3 -67z m-2289 12 c-7 -9 -15 -13 -17 -11 -7
7 7 26 19 26 6 0 6 -6 -2 -15z m-1300 -75 c-9 -5 -9 -13 -2 -25 11 -20 7 -46
-16 -95 l-16 -35 -6 35 c-4 30 -12 38 -58 61 l-53 26 28 11 c15 6 40 14 55 18
15 3 37 16 50 27 22 21 23 21 26 3 2 -10 -2 -22 -8 -26z m1270 18 c0 -7 -7
-22 -15 -32 -13 -17 -15 -18 -21 -2 -6 16 11 46 27 46 5 0 9 -6 9 -12z m530
-12 c0 -31 -12 -38 -46 -30 l-28 7 30 23 c37 30 44 30 44 0z m-322 -18 c17
-17 15 -45 -4 -52 -24 -9 -92 -7 -98 3 -8 12 13 27 46 35 17 4 29 1 32 -7 4
-6 4 -2 2 11 -5 24 4 28 22 10z m-220 -136 c-13 -34 -28 -42 -28 -15 0 16 30
57 36 50 2 -2 -2 -18 -8 -35z m216 2 c9 -3 16 -17 16 -30 0 -18 -7 -24 -32
-29 -75 -14 -93 -11 -96 12 -5 32 41 50 73 29 21 -14 23 -14 18 4 -6 22 -3 23
21 14z m-196 -91 c-15 -36 -28 -53 -39 -53 -17 0 -9 24 18 52 33 35 35 35 21
1z m193 -43 c44 -24 14 -60 -51 -60 -14 0 -35 -7 -46 -15 -25 -17 -34 -11 -34
21 0 34 27 56 60 49 16 -3 31 -2 35 4 8 14 11 14 36 1z m-1525 -74 c2 -6 0
-78 -4 -161 -7 -127 -10 -146 -20 -125 -7 14 -16 32 -21 40 -22 38 -30 69 -29
115 0 28 -2 66 -5 85 -7 44 13 69 49 62 14 -2 27 -10 30 -16z m1354 19 c0 -3
-16 -28 -35 -55 -19 -27 -35 -53 -34 -57 3 -19 -2 -43 -9 -43 -4 0 -6 20 -4
45 3 27 9 45 16 45 7 0 21 16 32 35 16 30 34 46 34 30z m1140 -164 c0 -124 18
-332 30 -352 4 -6 22 -12 39 -13 36 -1 40 -11 10 -26 -11 -7 -18 -17 -16 -25
3 -7 0 -18 -6 -24 -15 -15 -47 -14 -47 2 0 6 -7 89 -15 182 -17 198 -20 408
-5 385 5 -8 10 -66 10 -129z m-950 48 c0 -26 -15 -32 -86 -35 -62 -3 -62 -3
-51 19 26 49 27 49 63 27 33 -21 34 -21 34 -2 0 10 3 22 7 25 10 10 33 -13 33
-34z m-170 -19 c0 -5 -14 -25 -31 -44 -16 -19 -38 -58 -48 -87 -21 -57 -36
-52 -23 8 15 66 102 171 102 123z m1498 -53 c-6 -12 -5 -23 2 -32 9 -11 8 -19
-4 -37 -9 -12 -16 -30 -16 -40 0 -10 -6 -18 -14 -18 -7 0 -16 -9 -19 -19 -3
-14 -1 -18 9 -14 14 5 19 -13 15 -47 -1 -8 -2 -41 -2 -72 l-1 -58 -36 0 c-53
0 -66 12 -40 34 20 17 20 20 5 31 -22 16 -21 31 3 65 11 16 27 45 35 64 9 20
21 36 27 36 7 0 2 7 -10 16 -28 19 -29 65 -2 89 12 11 20 31 20 49 l0 31 19
-30 c13 -21 16 -35 9 -48z m12 69 c0 -3 -4 -8 -10 -11 -5 -3 -10 -1 -10 4 0 6
5 11 10 11 6 0 10 -2 10 -4z m17 -98 c-3 -7 -5 -2 -5 12 0 14 2 19 5 13 2 -7
2 -19 0 -25z m-1373 0 c18 -26 21 -64 6 -73 -6 -4 -22 0 -35 9 -21 14 -27 14
-59 1 -43 -18 -46 -18 -46 -2 1 17 31 49 65 69 41 22 51 22 69 -4z m-1977 -30
c-3 -7 -5 -2 -5 12 0 14 2 19 5 13 2 -7 2 -19 0 -25z m1843 -3 c0 -3 -16 -20
-36 -38 -21 -17 -43 -46 -50 -64 -18 -43 -31 -48 -37 -16 -4 22 4 35 45 75 43
41 78 61 78 43z m135 -112 c16 -16 16 -18 -6 -36 -16 -13 -32 -17 -52 -13 -16
3 -38 6 -49 6 -17 0 -16 3 8 28 33 33 75 39 99 15z m-190 -65 c-15 -24 -33
-58 -41 -75 -18 -41 -34 -42 -34 -3 0 17 4 30 10 30 5 0 16 13 25 29 17 34 42
61 56 61 6 0 -2 -19 -16 -42z m-1506 -45 c6 -13 11 -29 11 -36 0 -7 18 -22 40
-35 44 -25 55 -54 18 -45 l-23 6 23 -22 23 -22 19 23 c19 23 19 23 20 2 0 -34
-45 -40 -86 -12 -24 16 -29 24 -18 26 26 6 10 25 -35 40 -23 8 -40 17 -37 20
3 3 0 12 -7 20 -6 8 -12 32 -13 53 l0 38 27 -16 c15 -9 32 -27 38 -40z m1438
35 c-3 -8 -6 -5 -6 6 -1 11 2 17 5 13 3 -3 4 -12 1 -19z m-1660 -75 c-3 -10
-5 -4 -5 12 0 17 2 24 5 18 2 -7 2 -21 0 -30z m1848 26 c4 -6 15 -13 25 -17
27 -11 8 -52 -24 -52 -31 0 -56 10 -56 22 0 12 33 57 42 58 4 0 10 -5 13 -11z
m-95 -38 c0 -5 -11 -22 -23 -38 -27 -32 -57 -90 -57 -110 0 -16 -23 -16 -225
-3 -156 11 -185 16 -185 30 0 19 52 24 213 21 92 -1 176 1 187 4 11 4 29 28
41 56 12 27 28 49 35 49 8 0 14 -4 14 -9z m-1730 -43 c0 -5 -4 -8 -10 -8 -5 0
-10 10 -10 23 0 18 2 19 10 7 5 -8 10 -18 10 -22z m3136 6 c-3 -9 -6 -20 -6
-25 0 -5 -25 -9 -56 -9 -47 0 -55 3 -52 18 3 12 13 17 40 17 20 0 40 3 44 8
14 14 36 8 30 -9z m-2971 -43 c30 -11 67 -29 82 -41 l28 -22 -25 7 c-14 3 -40
13 -58 22 -19 8 -52 23 -75 34 -55 24 -22 24 48 0z m2803 -3 c-5 -16 -48 -24
-48 -10 0 11 17 20 38 21 8 1 12 -5 10 -11z m-3203 -28 l50 -30 -245 4 c-135
3 -266 5 -292 5 -41 1 -48 4 -48 21 0 19 8 20 233 23 127 1 237 3 242 5 6 1
33 -12 60 -28z m90 10 c3 -5 2 -10 -4 -10 -5 0 -13 5 -16 10 -3 6 -2 10 4 10
5 0 13 -4 16 -10z m843 -5 c19 -18 -33 -28 -182 -32 -164 -6 -166 -6 -166 15
0 18 7 21 53 25 67 5 288 -1 295 -8z m2130 -7 c6 -6 12 -17 12 -24 0 -16 31
-15 -513 -17 -337 -1 -410 1 -417 12 -23 37 -5 41 239 43 355 4 664 -2 679
-14z m-2918 2 c0 -5 -2 -10 -4 -10 -3 0 -8 5 -11 10 -3 6 -1 10 4 10 6 0 11
-4 11 -10z m1940 0 c0 -5 -2 -10 -4 -10 -3 0 -8 5 -11 10 -3 6 -1 10 4 10 6 0
11 -4 11 -10z m1886 0 c268 0 274 0 274 -20 0 -20 -5 -20 -362 -19 -355 2
-427 6 -398 24 14 9 176 24 198 18 8 -1 137 -3 288 -3z m-3581 -25 c30 -8 80
-22 112 -30 70 -19 96 -49 74 -83 -6 -10 -25 -3 -81 29 -40 22 -103 52 -139
66 -36 14 -68 27 -70 29 -10 9 52 3 104 -11z m2735 -34 c0 -17 -12 -41 -21
-41 -10 0 -12 33 -2 43 9 10 23 9 23 -2z m-1222 -58 c-5 -52 -28 -56 -28 -4 0
30 4 41 15 41 11 0 15 -9 13 -37z m239 -5 c-3 -7 -5 -2 -5 12 0 14 2 19 5 13
2 -7 2 -19 0 -25z m667 16 c39 -15 -5 -37 -94 -49 -67 -8 -359 -14 -408 -8
l-43 6 42 18 c23 11 51 19 63 19 11 0 28 5 36 10 16 10 378 14 404 4z m-887
-78 c-28 -36 -40 -93 -19 -88 16 3 15 -8 -4 -46 -15 -32 -11 -77 7 -67 14 9
10 -6 -11 -45 -16 -31 -19 -33 -26 -16 -4 10 -2 27 4 37 7 11 8 19 2 21 -10 3
-13 42 -10 136 1 47 5 58 38 89 43 42 55 28 19 -21z m1264 -149 c-16 -16 -26
0 -10 19 9 11 15 12 17 4 2 -6 -1 -17 -7 -23z m-1383 -9 c-7 -19 -38 -22 -38
-4 0 10 9 16 21 16 12 0 19 -5 17 -12z m492 2 c0 -5 -4 -10 -10 -10 -5 0 -10
5 -10 10 0 6 5 10 10 10 6 0 10 -4 10 -10z m-70 -15 c0 -8 -7 -15 -15 -15 -8
0 -15 7 -15 15 0 8 7 15 15 15 8 0 15 -7 15 -15z m-2420 -19 c0 -18 -17 -29
-30 -21 -8 5 -7 11 1 21 15 18 29 18 29 0z m2670 4 c0 -5 -4 -10 -10 -10 -5 0
-10 5 -10 10 0 6 5 10 10 10 6 0 10 -4 10 -10z m654 -29 c35 -6 41 -10 41 -31
0 -39 13 -50 59 -50 63 0 131 24 173 60 33 29 40 31 81 25 70 -10 88 -20 119
-67 17 -26 40 -46 58 -52 46 -13 60 -22 63 -40 5 -23 -9 -20 -79 20 -56 31
-125 55 -211 71 -23 4 -189 -39 -257 -68 -28 -12 -44 4 -35 34 8 24 -16 22
-80 -10 -29 -14 -61 -23 -70 -20 -18 7 -33 56 -19 66 5 3 17 27 27 53 l17 47
36 -16 c20 -8 55 -18 77 -22z m-3617 -16 c-20 -19 -37 -19 -37 0 0 17 43 38
48 24 2 -5 -3 -16 -11 -24z m2753 25 c0 -5 -4 -10 -10 -10 -5 0 -10 5 -10 10
0 6 5 10 10 10 6 0 10 -4 10 -10z m250 0 c0 -5 -4 -10 -10 -10 -5 0 -10 5 -10
10 0 6 5 10 10 10 6 0 10 -4 10 -10z m-2920 -10 c0 -5 -2 -10 -4 -10 -3 0 -8
5 -11 10 -3 6 -1 10 4 10 6 0 11 -4 11 -10z m1090 -36 c24 -62 28 -104 13
-119 -17 -18 -5 -16 -133 -19 -126 -4 -186 2 -171 17 6 6 8 29 4 52 l-5 41
107 18 c58 9 116 21 128 26 36 14 47 11 57 -16z m-1046 0 c9 -24 7 -27 -9 -10
-17 17 -19 26 -6 26 5 0 12 -7 15 -16z m56 -25 c0 -11 -4 -17 -10 -14 -5 3
-10 13 -10 21 0 8 5 14 10 14 6 0 10 -9 10 -21z m50 14 c-1 -21 -13 -53 -21
-53 -10 0 -12 43 -2 53 9 9 23 9 23 0z m2930 -13 c0 -5 -2 -10 -4 -10 -3 0 -8
5 -11 10 -3 6 -1 10 4 10 6 0 11 -4 11 -10z m-2690 -35 c22 -19 58 -39 78 -45
79 -22 226 -6 275 30 l27 21 0 -40 c0 -60 -23 -72 -135 -67 -85 3 -130 12
-200 42 -16 7 -61 20 -99 29 -38 8 -75 20 -83 26 -7 6 -20 9 -28 5 -10 -3 -13
-2 -9 5 10 17 45 28 91 28 33 1 49 -6 83 -34z m-345 15 c-3 -5 -13 -10 -21
-10 -8 0 -14 5 -14 10 0 6 9 10 21 10 11 0 17 -4 14 -10z m1179 -25 c-24 -18
-34 -19 -34 -2 0 14 43 36 49 24 1 -5 -5 -15 -15 -22z m2132 8 c-10 -10 -19 5
-10 18 6 11 8 11 12 0 2 -7 1 -15 -2 -18z m-3386 13 c0 -3 -4 -8 -10 -11 -5
-3 -10 -1 -10 4 0 6 5 11 10 11 6 0 10 -2 10 -4z m1315 -26 c-20 -22 -49 -27
-43 -7 5 13 50 39 57 32 2 -3 -4 -14 -14 -25z m832 14 c-3 -3 -12 -4 -19 -1
-8 3 -5 6 6 6 11 1 17 -2 13 -5z m191 -25 c-6 -17 -8 -57 -5 -90 3 -41 1 -61
-8 -69 -21 -17 -42 -167 -26 -183 19 -19 12 -27 -21 -26 -18 0 -27 3 -20 6 20
8 13 33 -13 45 -28 13 -29 30 -1 34 27 4 31 13 11 20 -13 5 -25 0 -39 -17 -12
-14 -31 -29 -41 -33 -19 -8 -19 -9 4 -17 14 -6 30 -8 38 -5 24 10 22 -11 -3
-23 -34 -15 -53 -14 -60 4 -4 8 -10 12 -15 9 -17 -10 -9 10 12 33 17 17 19 26
11 36 -14 16 -6 28 14 20 9 -3 14 2 14 16 0 23 16 29 23 9 3 -10 7 -10 20 1
10 7 17 19 17 25 0 6 10 16 23 21 19 9 22 17 19 60 -3 58 -15 76 -31 46 -7
-12 -20 -21 -30 -21 -14 0 -17 6 -13 25 2 15 0 25 -7 25 -6 0 -11 9 -11 20 0
22 -26 28 -33 8 -2 -7 -8 -10 -12 -6 -4 4 -5 15 -1 24 4 12 13 14 29 9 12 -3
29 -7 37 -8 19 -2 33 -24 25 -37 -3 -6 -1 -10 6 -10 8 0 9 11 4 36 l-6 36 35
-6 c20 -4 37 -2 41 4 14 22 23 8 13 -21z m-2391 -1 c-3 -8 -6 -5 -6 6 -1 11 2
17 5 13 3 -3 4 -12 1 -19z m2181 -17 c13 -19 13 -21 -2 -15 -11 4 -16 1 -16
-10 0 -9 -4 -16 -10 -16 -5 0 -7 13 -3 30 4 23 2 30 -11 30 -9 0 -16 4 -16 10
0 16 43 -5 58 -29z m487 29 c3 -5 1 -10 -4 -10 -6 0 -11 5 -11 10 0 6 2 10 4
10 3 0 8 -4 11 -10z m65 -15 c5 3 10 -1 10 -9 0 -9 7 -16 15 -16 8 0 15 5 15
10 0 12 70 13 89 1 8 -5 11 -16 8 -25 -4 -10 -1 -16 7 -16 7 0 25 -11 40 -25
15 -14 31 -25 37 -25 5 0 9 -7 9 -16 0 -11 -6 -15 -20 -11 -11 3 -23 1 -26 -4
-13 -22 -24 -7 -18 25 5 32 4 34 -15 29 -12 -3 -21 -9 -21 -14 0 -5 -11 -9
-25 -9 -14 0 -25 -4 -25 -10 0 -5 -7 -10 -15 -10 -8 0 -15 7 -15 15 0 9 -11
28 -24 42 -21 22 -27 24 -40 14 -9 -8 -16 -20 -16 -27 0 -8 -6 -14 -14 -14 -8
0 -16 -5 -18 -12 -3 -7 -10 -8 -17 -3 -11 6 -9 12 8 24 19 15 21 21 11 45 -9
24 -7 31 7 41 12 9 22 10 30 3 7 -5 17 -7 23 -3z m265 -26 c9 -29 -6 -41 -29
-24 -16 12 -17 17 -6 30 17 21 27 19 35 -6z m-2735 -4 c-14 -17 -30 -20 -30
-6 0 5 8 12 18 14 9 3 19 5 21 6 2 0 -2 -6 -9 -14z m1125 4 c10 -14 1 -21 -19
-13 -9 3 -13 10 -10 15 7 12 21 11 29 -2z m1545 -10 c0 -18 -2 -19 -15 -9 -8
7 -15 16 -15 21 0 5 7 9 15 9 9 0 15 -9 15 -21z m160 11 c0 -5 -4 -10 -9 -10
-5 0 -7 -9 -4 -20 4 -14 0 -20 -10 -20 -10 0 -17 -11 -19 -27 -4 -24 -5 -25
-12 -10 -6 12 -3 24 9 37 10 11 15 23 12 27 -8 7 11 33 24 33 5 0 9 -4 9 -10z
m240 -49 c-13 -24 -30 -28 -30 -6 0 8 7 15 15 15 8 0 15 8 16 18 0 9 3 12 5 5
3 -7 0 -21 -6 -32z m-189 16 c-1 -12 -15 -9 -19 4 -3 6 1 10 8 8 6 -3 11 -8
11 -12z m319 4 c0 -10 -24 -21 -46 -21 -8 0 -14 7 -14 15 0 10 10 15 30 15 17
0 30 -4 30 -9z m-1220 -22 c0 -5 -12 -9 -27 -9 -27 1 -27 1 -9 15 19 14 36 12
36 -6z m1032 -7 c3 -9 2 -26 -2 -37 -7 -19 -7 -19 -12 1 -3 10 -9 27 -13 37
-5 12 -3 17 8 17 8 0 17 -8 19 -18z m-3302 -8 c0 -8 -5 -12 -10 -9 -6 4 -8 11
-5 16 9 14 15 11 15 -7z m2775 -5 c4 -12 2 -26 -4 -32 -8 -8 -11 -7 -11 3 0
13 -2 13 -9 1 -5 -8 -16 -11 -26 -7 -16 6 -16 9 5 31 29 30 37 31 45 4z m483
0 c-2 -6 -8 -10 -13 -10 -5 0 -11 4 -13 10 -2 6 4 11 13 11 9 0 15 -5 13 -11z
m159 5 c-3 -3 -12 -4 -19 -1 -8 3 -5 6 6 6 11 1 17 -2 13 -5z m83 -12 c-13 -2
-32 -13 -42 -25 -10 -11 -21 -18 -24 -14 -8 8 31 44 53 49 10 3 23 2 28 -1 6
-3 -1 -8 -15 -9z m-318 -15 c6 -8 22 -11 35 -9 13 2 23 -1 23 -7 0 -6 -16 -11
-35 -11 -19 0 -35 4 -35 10 0 5 -7 7 -15 4 -9 -4 -15 0 -15 10 0 19 25 21 42
3z m-3092 -7 c0 -5 -7 -10 -16 -10 -8 0 -12 5 -9 10 3 6 10 10 16 10 5 0 9 -4
9 -10z m2950 -6 c0 -8 -4 -12 -10 -9 -5 3 -10 10 -10 16 0 5 5 9 10 9 6 0 10
-7 10 -16z m295 6 c3 -5 1 -10 -4 -10 -6 0 -11 5 -11 10 0 6 2 10 4 10 3 0 8
-4 11 -10z m327 -22 c-13 -13 -32 -2 -32 18 0 12 4 13 21 3 14 -7 18 -14 11
-21z m-762 12 c0 -5 -9 -10 -20 -10 -11 0 -20 5 -20 10 0 6 9 10 20 10 11 0
20 -4 20 -10z m498 -2 c16 -16 15 -28 -3 -28 -8 0 -19 9 -25 20 -8 15 -8 20 3
20 7 0 18 -5 25 -12z m-2723 -8 c3 -5 1 -10 -4 -10 -6 0 -11 5 -11 10 0 6 2
10 4 10 3 0 8 -4 11 -10z m-475 -20 c0 -5 -4 -10 -10 -10 -5 0 -10 5 -10 10 0
6 5 10 10 10 6 0 10 -4 10 -10z m730 0 c0 -5 -2 -10 -4 -10 -3 0 -8 5 -11 10
-3 6 -1 10 4 10 6 0 11 -4 11 -10z m420 0 c0 -5 -4 -10 -10 -10 -5 0 -10 5
-10 10 0 6 5 10 10 10 6 0 10 -4 10 -10z m2695 0 c3 -5 1 -10 -4 -10 -6 0 -11
5 -11 10 0 6 2 10 4 10 3 0 8 -4 11 -10z m419 2 c6 -9 -29 -42 -44 -42 -15 0
-12 37 3 43 19 8 35 8 41 -1z m-2241 -22 c-3 -11 -9 -17 -15 -14 -5 3 -4 12 3
20 16 19 18 18 12 -6z m1467 5 c-7 -8 -19 -15 -26 -15 -8 0 -11 6 -8 15 4 8
15 15 26 15 17 0 18 -3 8 -15z m1050 6 c0 -5 -7 -11 -15 -15 -9 -3 -15 0 -15
9 0 8 7 15 15 15 8 0 15 -4 15 -9z m-3625 -31 c-6 -9 -9 -9 -16 1 -10 17 0 34
13 21 6 -6 7 -16 3 -22z m3175 20 c0 -5 -2 -10 -4 -10 -3 0 -8 5 -11 10 -3 6
-1 10 4 10 6 0 11 -4 11 -10z m-3625 -10 c3 -5 1 -10 -4 -10 -6 0 -11 5 -11
10 0 6 2 10 4 10 3 0 8 -4 11 -10z m2126 -17 c1 -10 1 -29 1 -43 0 -22 0 -22
4 -3 7 28 34 39 34 14 0 -11 6 -21 13 -24 9 -3 9 -7 -1 -20 -8 -9 -20 -13 -28
-10 -7 3 -17 -2 -20 -11 -7 -18 -54 -22 -54 -4 0 6 -3 8 -6 5 -4 -3 -16 -1
-27 4 -18 10 -19 9 -13 -15 7 -30 -10 -36 -19 -6 -8 26 4 108 18 117 5 3 15
-1 22 -10 17 -24 45 -21 45 3 0 25 30 27 31 3z m-2043 -4 c-2 -6 -8 -10 -13
-10 -5 0 -11 4 -13 10 -2 6 4 11 13 11 9 0 15 -5 13 -11z m2230 -18 c-11 -18
-11 -23 2 -31 8 -5 11 -12 8 -15 -12 -12 -28 5 -28 29 0 12 5 27 12 34 17 17
21 7 6 -17z m1752 8 c0 -5 -7 -9 -15 -9 -15 0 -20 12 -9 23 8 8 24 -1 24 -14z
m-3679 -22 c-8 -8 -11 -7 -11 4 0 20 13 34 18 19 3 -7 -1 -17 -7 -23z m399 29
c0 -3 -4 -8 -10 -11 -5 -3 -10 -1 -10 4 0 6 5 11 10 11 6 0 10 -2 10 -4z
m-489 -16 c5 0 9 -12 9 -27 l0 -28 -25 27 c-29 31 -32 43 -9 34 9 -3 20 -6 25
-6z m1984 0 c3 -5 -1 -10 -10 -10 -9 0 -13 5 -10 10 3 6 8 10 10 10 2 0 7 -4
10 -10z m188 -30 c3 -11 2 -20 -3 -20 -4 0 -10 -9 -13 -20 -3 -12 -14 -20 -26
-20 -14 0 -21 -6 -21 -20 0 -18 -7 -20 -57 -20 -44 0 -54 3 -45 12 7 7 12 20
12 30 0 10 7 18 16 18 8 0 13 4 10 9 -10 16 19 61 39 60 17 -1 17 -2 3 -6 -24
-6 -23 -15 7 -41 18 -16 25 -18 25 -8 0 8 6 16 13 19 9 3 9 7 0 19 -7 8 -10
18 -7 21 11 10 41 -11 47 -33z m-2883 15 c0 -8 -2 -15 -4 -15 -2 0 -12 -3 -21
-7 -15 -5 -16 -3 -6 15 13 25 31 29 31 7z m54 1 c-3 -9 5 -15 26 -20 32 -6 33
-26 1 -26 -9 0 -22 -5 -28 -11 -7 -7 -9 -3 -5 17 3 17 1 25 -6 20 -6 -4 -8 2
-5 14 3 11 9 20 14 20 5 0 6 -6 3 -14z m234 -3 c-4 -22 -22 -20 -26 1 -2 10 3
16 13 16 10 0 15 -7 13 -17z m872 -2 c-13 -26 -23 -31 -39 -21 -10 6 -6 12 15
23 16 8 30 15 32 16 1 1 -2 -8 -8 -18z m1532 -21 c4 0 12 -9 18 -20 9 -17 8
-20 -10 -20 -12 0 -20 7 -20 17 0 9 -3 14 -6 11 -3 -4 -1 -22 4 -42 9 -30 8
-36 -5 -36 -9 0 -13 6 -9 15 4 13 -4 15 -49 12 -30 -2 -55 -2 -55 1 0 10 30
32 44 32 9 0 16 7 16 16 0 8 5 24 10 35 11 19 11 19 32 -1 12 -11 25 -20 30
-20z m294 -12 c-13 -21 -26 -23 -26 -5 0 7 -13 18 -30 24 -51 19 -34 32 19 15
42 -15 47 -19 37 -34z m91 30 c-3 -8 -6 -5 -6 6 -1 11 2 17 5 13 3 -3 4 -12 1
-19z m-3277 2 c0 -5 -2 -10 -4 -10 -3 0 -8 5 -11 10 -3 6 -1 10 4 10 6 0 11
-4 11 -10z m115 -18 c-8 -8 -25 10 -19 20 4 6 9 5 15 -3 4 -7 6 -15 4 -17z
m680 4 c13 5 16 4 11 -4 -9 -15 -39 -15 -54 0 -20 20 -14 33 7 14 11 -10 25
-14 36 -10z m245 -1 c0 -8 -4 -15 -10 -15 -5 0 -10 7 -10 15 0 8 5 15 10 15 6
0 10 -7 10 -15z m87 -15 c-4 -16 -4 -30 -1 -30 12 0 50 24 61 39 7 9 13 11 13
5 0 -6 -6 -17 -14 -23 -8 -7 -18 -26 -21 -42 -6 -25 -11 -29 -39 -29 -30 0
-33 3 -31 28 1 15 3 39 3 55 1 18 8 27 18 27 13 0 15 -7 11 -30z m268 20 c3
-5 -1 -10 -10 -10 -9 0 -13 5 -10 10 3 6 8 10 10 10 2 0 7 -4 10 -10z m769
-16 c4 -9 4 -19 1 -22 -6 -6 -35 18 -35 29 0 16 28 10 34 -7z m-1451 -6 c4
-10 8 -9 16 2 10 13 12 13 20 0 15 -23 -22 -44 -49 -28 -11 7 -20 18 -20 25 0
17 27 17 33 1z m2677 -9 c0 -5 -7 -9 -15 -9 -15 0 -20 12 -9 23 8 8 24 -1 24
-14z m-3185 1 c-3 -5 -10 -10 -16 -10 -5 0 -9 5 -9 10 0 6 7 10 16 10 8 0 12
-4 9 -10z m456 -7 c13 -15 11 -16 -23 -9 -23 4 -39 3 -43 -5 -6 -8 -10 -7 -16
2 -18 30 59 41 82 12z m2489 -4 c0 -5 -7 -9 -15 -9 -15 0 -20 12 -9 23 8 8 24
-1 24 -14z m150 -21 c0 -4 -11 -8 -25 -8 -27 0 -33 18 -13 38 10 10 15 9 25
-5 7 -9 13 -20 13 -25z m17 0 c-3 -7 -5 -2 -5 12 0 14 2 19 5 13 2 -7 2 -19 0
-25z m-3287 12 c0 -5 -4 -10 -10 -10 -5 0 -10 5 -10 10 0 6 5 10 10 10 6 0 10
-4 10 -10z m800 -5 c0 -8 -4 -15 -10 -15 -5 0 -10 7 -10 15 0 8 5 15 10 15 6
0 10 -7 10 -15z m130 2 c0 -14 -19 -37 -31 -37 -4 0 -2 11 4 25 13 27 27 33
27 12z m50 3 c0 -5 -4 -10 -10 -10 -5 0 -10 5 -10 10 0 6 5 10 10 10 6 0 10
-4 10 -10z m2550 -5 c0 -8 -5 -15 -11 -15 -8 0 -8 -5 1 -15 17 -21 -9 -21 -36
0 -19 14 -19 15 4 21 12 3 22 10 22 15 0 5 5 9 10 9 6 0 10 -7 10 -15z m-3160
-10 c0 -9 -9 -15 -22 -15 -22 1 -23 1 -4 15 25 19 26 19 26 0z m80 5 c0 -5 -7
-10 -15 -10 -8 0 -15 -7 -15 -16 0 -8 -4 -12 -10 -9 -6 4 -5 13 3 25 12 21 37
27 37 10z m408 -8 c2 -7 -7 -12 -23 -12 -24 0 -26 2 -15 15 14 17 31 16 38 -3z
m2298 2 c-3 -9 -6 -19 -6 -24 0 -4 -32 -8 -70 -8 -39 -1 -68 3 -65 8 3 5 13 9
23 10 9 0 35 2 56 3 22 1 41 8 43 15 3 6 9 12 15 12 6 0 7 -7 4 -16z m474 -2
c0 -14 -11 -21 -26 -15 -8 3 -11 9 -8 14 7 11 34 12 34 1z m255 -2 c3 -5 -1
-10 -9 -10 -9 0 -16 5 -16 10 0 6 4 10 9 10 6 0 13 -4 16 -10z m-3755 -4 c0
-11 -19 -15 -25 -6 -3 5 1 10 9 10 9 0 16 -2 16 -4z m102 -18 c-7 -7 -12 -8
-12 -2 0 14 12 26 19 19 2 -3 -1 -11 -7 -17z m78 7 c0 -8 -4 -15 -10 -15 -5 0
-10 7 -10 15 0 8 5 15 10 15 6 0 10 -7 10 -15z m276 -12 c-10 -10 -19 5 -10
18 6 11 8 11 12 0 2 -7 1 -15 -2 -18z m71 5 c-3 -8 -6 -5 -6 6 -1 11 2 17 5
13 3 -3 4 -12 1 -19z m96 9 c4 3 7 1 7 -5 0 -7 -15 -12 -35 -12 -19 0 -35 4
-35 9 0 13 32 19 46 9 6 -4 14 -5 17 -1z m271 -2 c-4 -8 -16 -15 -28 -15 -21
1 -21 1 -2 15 25 19 37 19 30 0z m2396 0 c0 -8 -4 -15 -10 -15 -5 0 -10 7 -10
15 0 8 5 15 10 15 6 0 10 -7 10 -15z m280 -6 c0 -5 -7 -9 -15 -9 -9 0 -12 6
-9 15 6 15 24 11 24 -6z m60 11 c0 -5 -2 -10 -4 -10 -3 0 -8 5 -11 10 -3 6 -1
10 4 10 6 0 11 -4 11 -10z m570 6 c0 -3 -4 -8 -10 -11 -5 -3 -10 -1 -10 4 0 6
5 11 10 11 6 0 10 -2 10 -4z m-3085 -16 c3 -5 -1 -10 -9 -10 -9 0 -16 5 -16
10 0 6 4 10 9 10 6 0 13 -4 16 -10z m2025 0 c0 -5 -7 -10 -15 -10 -8 0 -15 5
-15 10 0 6 7 10 15 10 8 0 15 -4 15 -10z m60 0 c12 -8 9 -10 -13 -10 -16 0
-26 4 -22 10 8 12 16 12 35 0z m-2163 -6 c-3 -3 -12 -4 -19 -1 -8 3 -5 6 6 6
11 1 17 -2 13 -5z m2750 0 c-3 -3 -12 -4 -19 -1 -8 3 -5 6 6 6 11 1 17 -2 13
-5z"/>
<path d="M2715 6781 c7 -22 10 -41 5 -43 -5 -2 -4 -23 2 -48 6 -25 9 -65 8
-90 -4 -75 7 -250 16 -250 14 0 54 25 54 34 -1 6 -7 38 -15 70 -10 43 -11 72
-5 109 6 27 8 53 5 57 -3 5 -1 11 5 15 21 13 -18 127 -50 147 -11 7 -20 18
-20 25 0 7 -4 13 -10 13 -5 0 -3 -17 5 -39z"/>
<path d="M2497 6483 c-12 -12 -7 -23 11 -24 14 0 13 -3 -5 -16 -22 -15 -30
-43 -16 -56 3 -4 12 -2 18 3 9 7 16 6 25 -5 16 -19 39 -19 46 0 8 20 31 19 42
-1 11 -21 32 -10 32 16 0 15 -13 23 -56 36 -66 19 -61 34 14 45 42 6 40 6 -29
8 -42 0 -79 -2 -82 -6z"/>
<path d="M2545 5934 c-31 -27 -33 -31 -9 -15 28 18 62 51 53 51 -2 0 -22 -16
-44 -36z"/>
<path d="M2383 5637 c-26 -27 -33 -47 -47 -127 -9 -52 -19 -106 -22 -120 -3
-14 1 -33 9 -44 13 -18 14 -18 42 0 15 10 23 20 16 22 -18 6 -13 36 22 124 25
62 32 94 29 126 -2 23 -7 44 -11 47 -5 2 -22 -10 -38 -28z"/>
<path d="M2411 5434 c0 -11 3 -14 6 -6 3 7 2 16 -1 19 -3 4 -6 -2 -5 -13z"/>
<path d="M3382 4962 c-32 -9 -29 -26 6 -33 16 -3 34 -9 41 -13 9 -6 12 0 9 20
-3 30 -17 37 -56 26z"/>
<path d="M4540 5334 c0 -8 5 -12 10 -9 6 4 8 11 5 16 -9 14 -15 11 -15 -7z"/>
<path d="M2850 304 c0 -8 5 -12 10 -9 6 3 10 10 10 16 0 5 -4 9 -10 9 -5 0
-10 -7 -10 -16z"/>
<path d="M2766 122 c-3 -5 1 -18 9 -28 14 -18 14 -18 15 3 0 23 -15 39 -24 25z"/>
<path d="M3052 43 c2 -9 9 -18 16 -21 18 -6 15 25 -4 32 -11 4 -14 1 -12 -11z"/>
</g>
</svg>
