<?xml version="1.0" standalone="no"?>
<!DOCTYPE svg PUBLIC "-//W3C//DTD SVG 20010904//EN"
 "http://www.w3.org/TR/2001/REC-SVG-20010904/DTD/svg10.dtd">
<svg version="1.0" xmlns="http://www.w3.org/2000/svg"
 width="460.000000pt" height="460.000000pt" viewBox="0 0 460.000000 460.000000"
 preserveAspectRatio="xMidYMid meet">

<g transform="translate(0.000000,460.000000) scale(0.100000,-0.100000)"
fill="#000000" stroke="none">
<path d="M0 2300 l0 -2300 2300 0 2300 0 0 2300 0 2300 -2300 0 -2300 0 0
-2300z m2153 1943 c23 -14 44 -27 45 -29 5 -3 21 -70 27 -114 3 -19 11 -54 17
-77 10 -36 16 -42 42 -45 22 -2 33 -10 42 -34 17 -42 -13 -111 -56 -127 -26
-10 -30 -17 -30 -47 0 -20 7 -61 16 -90 16 -56 20 -135 8 -172 -6 -20 -7 -21
-19 -4 -12 16 -14 15 -34 -10 -18 -23 -21 -24 -21 -8 0 17 -3 16 -19 -5 -37
-48 -94 18 -88 102 3 44 1 50 -20 58 -13 5 -23 13 -23 18 0 5 -3 18 -7 28 -3
10 -3 15 2 11 9 -9 35 9 35 23 0 5 -7 9 -15 9 -8 0 -15 5 -15 11 0 5 -4 7 -10
4 -5 -3 -10 -1 -10 5 0 7 12 9 35 4 23 -4 35 -2 35 5 0 6 -4 12 -10 12 -31 4
-76 28 -78 42 -1 7 -6 35 -11 62 -12 62 -14 155 -3 155 5 0 16 -16 25 -35 9
-19 20 -35 25 -35 4 0 22 -13 40 -29 21 -20 32 -25 32 -15 0 8 4 14 10 14 5 0
7 13 4 29 -4 16 -1 32 5 35 14 9 14 26 0 26 -5 0 -7 -4 -4 -10 3 -5 2 -10 -4
-10 -5 0 -9 9 -8 19 1 16 5 18 20 9 29 -15 35 1 9 23 -13 10 -21 23 -17 29 3
5 -2 11 -12 12 -10 0 -24 2 -30 2 -14 1 -49 46 -36 46 4 0 8 26 7 58 0 31 1
62 4 69 5 17 47 6 95 -24z m-357 -168 c-13 -147 -12 -221 1 -268 8 -27 12 -54
10 -60 -2 -7 -8 5 -12 26 -5 25 -10 34 -15 27 -5 -8 -15 -10 -26 -6 -15 6 -16
9 -4 16 8 5 18 6 22 4 11 -7 10 -1 -6 65 -8 31 -17 92 -19 136 -3 44 -8 90
-12 103 -5 14 -3 22 4 22 7 0 10 -3 8 -7 -3 -5 -1 -17 3 -28 6 -16 8 -14 7 11
0 43 10 59 30 42 12 -10 14 -26 9 -83z m2742 65 c13 -16 29 -30 37 -30 9 0 15
-9 15 -23 0 -19 -11 -28 -53 -45 -29 -12 -60 -22 -68 -22 -9 0 -22 -7 -29 -15
-7 -8 -18 -15 -24 -15 -6 0 -28 -15 -48 -33 -20 -17 -52 -44 -70 -59 -18 -15
-48 -39 -65 -53 l-33 -27 1 44 c0 23 4 65 7 92 6 43 12 52 41 68 l34 19 31
-30 c18 -17 37 -31 43 -31 20 0 63 42 63 62 0 27 71 128 90 128 3 0 16 -13 28
-30z m-2218 -127 c-11 -17 -11 -17 -6 0 3 10 6 24 7 30 0 9 2 9 5 0 3 -7 0
-20 -6 -30z m-575 -173 c3 -5 1 -10 -4 -10 -6 0 -11 5 -11 10 0 6 2 10 4 10 3
0 8 -4 11 -10z m2388 -34 l28 -23 -27 -41 c-15 -23 -31 -42 -35 -42 -5 0 -16
-16 -25 -35 -20 -42 -44 -46 -44 -7 0 15 -4 33 -9 41 -12 18 47 131 69 131 8
-1 28 -11 43 -24z m-3835 -112 c22 -40 -18 -72 -73 -58 -29 7 -42 39 -25 59
17 21 87 19 98 -1z m2196 -19 c91 -24 220 -88 243 -121 44 -63 64 -119 84
-236 22 -127 22 -252 1 -423 -9 -66 -34 -145 -47 -145 -3 0 -3 5 0 11 4 6 -2
13 -13 16 -13 3 -23 17 -27 34 -15 69 -69 128 -142 158 -18 8 -33 17 -33 22 0
5 -5 9 -11 9 -6 0 -26 12 -45 27 -35 26 -60 33 -116 34 -16 0 -28 4 -28 9 0 5
6 7 14 4 11 -4 13 0 9 16 -3 11 -11 19 -17 17 -6 -2 -19 5 -30 14 -10 10 -23
16 -29 12 -5 -3 -4 4 2 15 6 11 8 34 5 50 -4 17 -1 32 5 36 6 4 11 11 11 17 0
15 -36 10 -50 -6 -7 -9 -21 -13 -30 -10 -9 3 -23 -1 -30 -10 -14 -17 -35 -21
-25 -5 5 9 -7 14 -26 12 -10 -2 -20 63 -11 66 11 3 3 52 -9 52 -4 0 -11 -4
-14 -10 -3 -5 -11 -10 -18 -10 -6 0 -2 7 9 15 10 8 15 15 11 15 -5 0 -1 7 8
16 14 14 22 15 60 4 24 -7 52 -21 61 -31 16 -18 16 -19 -4 -19 -13 0 -22 -6
-22 -15 0 -8 5 -15 10 -15 6 0 10 4 10 9 0 16 32 22 48 9 8 -7 26 -31 40 -53
13 -22 38 -51 55 -65 61 -49 172 -120 188 -120 8 0 37 -7 63 -16 50 -17 65
-15 43 7 -18 19 -42 64 -62 118 -15 41 -15 55 1 121 14 55 10 115 -8 142 -15
21 -17 37 -12 82 6 53 5 56 -19 65 -14 5 -28 15 -32 20 -3 6 -26 11 -50 11
-24 0 -46 4 -49 9 -8 13 -76 19 -84 7 -3 -6 -5 -24 -4 -40 2 -27 -21 -66 -40
-66 -11 0 -10 37 1 45 14 8 3 56 -21 89 l-21 29 69 -6 c38 -4 96 -14 128 -22z
m-645 -48 c-1 -89 -18 -102 -18 -14 -1 50 3 76 9 72 6 -3 10 -30 9 -58z m2155
-22 c-4 -8 -10 -12 -15 -9 -11 6 -2 24 11 24 5 0 7 -7 4 -15z m-21 -64 c10
-10 -65 -152 -78 -148 -18 6 -17 89 1 130 15 34 21 37 43 32 14 -4 30 -10 34
-14z m-1892 -244 c-10 -9 -11 -8 -5 6 3 10 9 15 12 12 3 -3 0 -11 -7 -18z
m-645 -9 c-53 -191 -63 -247 -62 -345 1 -56 -2 -99 -6 -97 -4 3 -7 67 -7 143
0 145 17 241 53 295 20 32 30 33 22 4z m-876 -38 c0 -5 -14 -10 -31 -10 -17 0
-28 4 -24 10 3 6 17 10 31 10 13 0 24 -4 24 -10z m1490 -26 c-11 -12 -11 -17
-1 -23 10 -7 8 -18 -7 -52 -16 -33 -22 -40 -27 -27 -4 9 -1 27 6 40 7 13 12
31 10 41 -3 19 18 51 27 42 3 -2 -1 -12 -8 -21z m-1570 8 c0 -4 -15 -15 -33
-25 -40 -22 -117 -89 -117 -102 0 -6 -9 -16 -20 -23 -11 -7 -20 -18 -20 -26 0
-7 -7 -19 -14 -26 -8 -6 -25 -33 -37 -58 -12 -26 -32 -60 -43 -77 -17 -25 -49
-98 -54 -128 -1 -4 -8 -17 -16 -30 -8 -12 -27 -56 -41 -97 -14 -41 -30 -84
-35 -95 -5 -11 -11 -37 -15 -57 -3 -21 -12 -52 -20 -70 -13 -31 -14 -23 -15
107 0 138 0 140 37 230 102 249 228 416 358 475 25 11 85 13 85 2z m3360 -2
c0 -5 -7 -10 -15 -10 -8 0 -15 5 -15 10 0 6 7 10 15 10 8 0 15 -4 15 -10z
m-2127 -20 c-4 -17 -8 -18 -20 -8 -13 10 -13 13 4 19 10 4 19 8 20 8 0 1 -1
-8 -4 -19z m464 -51 c-3 -27 -1 -39 9 -43 16 -6 19 -52 3 -61 -6 -4 -7 -19 -4
-36 9 -38 -10 -65 -33 -47 -8 7 -17 12 -19 11 -1 -2 -2 0 0 5 1 4 5 6 10 5 4
-2 7 2 7 7 0 6 -7 10 -15 10 -8 0 -15 9 -15 21 0 11 4 18 9 14 11 -6 24 12 28
38 2 11 -4 17 -17 17 -17 0 -18 3 -9 28 12 30 11 32 -3 49 -11 13 -1 36 12 28
4 -3 11 3 15 13 6 16 7 16 17 -2 6 -10 8 -36 5 -57z m-443 15 c3 -8 2 -12 -4
-9 -6 3 -10 10 -10 16 0 14 7 11 14 -7z m327 -97 c-10 -9 -11 -8 -5 6 3 10 9
15 12 12 3 -3 0 -11 -7 -18z m-1484 -29 c18 -23 24 -86 17 -174 l-7 -85 -31 3
c-29 3 -31 6 -38 53 -11 85 -9 190 4 203 16 16 43 15 55 0z m1582 -132 c1 -24
-3 -47 -8 -50 -6 -4 -3 -18 7 -36 14 -25 15 -33 4 -50 -10 -16 -10 -25 -1 -43
14 -26 15 -22 -4 -51 -8 -12 -15 -39 -15 -58 0 -20 -3 -42 -7 -48 -4 -6 -1
-25 5 -41 10 -22 10 -36 2 -54 -8 -17 -8 -32 1 -54 10 -26 9 -34 -6 -48 -16
-16 -17 -16 -17 0 0 9 -4 17 -9 17 -17 0 -20 30 -6 64 14 33 14 36 -8 51 -14
10 -18 18 -11 23 6 4 17 17 23 30 11 20 10 27 -6 44 -17 19 -17 20 5 38 21 18
32 68 12 55 -14 -9 -24 22 -13 38 18 22 21 53 7 72 -11 15 -11 22 2 46 9 18
11 29 4 29 -6 0 -9 4 -5 9 3 5 1 12 -4 15 -5 4 0 17 12 30 12 14 24 23 27 21
4 -2 7 -24 9 -49z m-116 19 c-3 -9 -8 -14 -10 -11 -3 3 -2 9 2 15 9 16 15 13
8 -4z m-1198 -85 c3 -5 1 -10 -4 -10 -6 0 -11 5 -11 10 0 6 2 10 4 10 3 0 8
-4 11 -10z m537 -55 c3 -13 1 -22 -3 -19 -9 5 -13 44 -5 44 2 0 6 -11 8 -25z
m-502 0 c0 -8 -4 -15 -9 -15 -5 0 -11 7 -15 15 -3 9 0 15 9 15 8 0 15 -7 15
-15z m1596 -6 c10 -12 43 -32 72 -45 28 -12 52 -28 52 -34 0 -21 -27 -76 -54
-107 -40 -47 -106 -44 -71 3 34 44 11 76 -50 69 -14 -1 -25 3 -26 9 -2 26 -7
52 -13 66 -4 10 5 22 27 37 40 27 40 27 63 2z m-721 -41 c19 -64 19 -72 0 -88
-8 -7 -12 -17 -8 -23 3 -5 1 -7 -5 -3 -30 18 -40 166 -12 166 5 0 16 -23 25
-52z m-840 -7 c3 -5 1 -12 -4 -15 -5 -3 -11 1 -15 9 -6 16 9 21 19 6z m31 -78
c-10 -10 -19 5 -10 18 6 11 8 11 12 0 2 -7 1 -15 -2 -18z m1082 -13 c-7 -10
-14 -17 -17 -15 -4 4 18 35 25 35 2 0 -1 -9 -8 -20z m-1043 -40 c3 -5 1 -10
-4 -10 -6 0 -11 5 -11 10 0 6 2 10 4 10 3 0 8 -4 11 -10z m425 -104 c-1 -28
-2 -70 -3 -93 -1 -24 -5 -43 -9 -43 -10 0 -13 45 -10 140 3 65 6 80 14 66 6
-10 9 -41 8 -70z m-390 34 c0 -5 -4 -10 -10 -10 -5 0 -10 5 -10 10 0 6 5 10
10 10 6 0 10 -4 10 -10z m642 -120 c-3 -93 0 -131 13 -168 9 -26 19 -82 22
-125 6 -81 11 -91 19 -35 6 38 34 100 51 111 7 4 18 13 25 20 32 32 144 49
178 27 11 -7 15 -26 14 -75 -2 -56 1 -65 14 -60 11 4 12 2 4 -7 -16 -20 -28
-93 -13 -84 7 4 3 -9 -8 -30 -12 -21 -21 -49 -21 -61 0 -29 -16 -58 -52 -96
-16 -16 -28 -33 -28 -38 0 -5 -6 -9 -12 -9 -7 0 -20 -24 -29 -52 -17 -52 -17
-53 8 -101 14 -26 23 -50 20 -53 -5 -5 -52 62 -63 90 -2 6 -20 20 -40 31 -19
10 -48 35 -63 54 -36 47 -78 190 -91 313 -6 54 -22 135 -36 180 -14 46 -28 94
-31 108 -5 25 -5 25 11 5 16 -19 17 -19 11 15 -7 34 -6 34 9 13 27 -36 46 -19
46 41 0 40 5 59 23 79 12 14 22 26 22 26 0 1 -2 -53 -3 -119z m1061 54 c100
-51 117 -108 133 -449 6 -111 4 -125 -19 -193 -24 -67 -25 -78 -17 -161 5 -49
23 -145 40 -214 29 -119 38 -220 22 -242 -4 -6 -17 -12 -29 -12 -28 -2 -48 55
-64 176 -14 109 -17 120 -28 102 -14 -22 -19 1 -14 57 5 44 9 53 29 58 27 7
38 29 24 52 -8 14 -11 12 -22 -15 -7 -18 -16 -33 -21 -33 -11 0 -37 64 -37 90
0 22 -66 151 -82 161 -6 4 -8 35 -4 80 10 123 10 164 2 177 -4 7 -2 12 4 12
14 0 6 43 -20 115 -33 93 -40 121 -40 172 0 32 -5 53 -12 56 -21 8 33 26 80
26 24 1 57 -6 75 -15z m-1663 -4 c0 -5 -7 -10 -15 -10 -8 0 -15 5 -15 10 0 6
7 10 15 10 8 0 15 -4 15 -10z m21 -73 c-1 -12 -15 -9 -19 4 -3 6 1 10 8 8 6
-3 11 -8 11 -12z m338 -82 l0 -20 -9 20 c-5 11 -9 27 -9 35 -1 13 0 13 9 0 5
-8 9 -24 9 -35z m711 -1 c0 -11 -7 -29 -16 -40 -10 -12 -14 -14 -11 -4 2 8 -2
23 -11 33 -14 15 -13 19 3 37 21 23 35 12 35 -26z m-1015 16 c3 -5 1 -10 -4
-10 -6 0 -11 5 -11 10 0 6 2 10 4 10 3 0 8 -4 11 -10z m33 -71 c-2 -6 -8 -10
-13 -10 -5 0 -11 4 -13 10 -2 6 4 11 13 11 9 0 15 -5 13 -11z m970 -37 c6 -16
6 -37 0 -52 -6 -16 -5 -32 3 -46 7 -14 9 -33 3 -51 -7 -27 -8 -27 -12 -4 -2
13 -12 26 -23 28 -19 5 -19 7 -3 31 14 21 14 31 5 64 -17 57 8 85 27 30z
m-938 -31 c0 -6 -4 -13 -10 -16 -5 -3 -10 1 -10 9 0 9 5 16 10 16 6 0 10 -4
10 -9z m20 -71 c0 -5 -4 -10 -10 -10 -5 0 -10 5 -10 10 0 6 5 10 10 10 6 0 10
-4 10 -10z m30 -70 c0 -5 -4 -10 -10 -10 -5 0 -10 5 -10 10 0 6 5 10 10 10 6
0 10 -4 10 -10z m888 -44 c6 -27 -11 -38 -33 -22 -17 12 -17 16 -6 30 17 20
35 16 39 -8z m-638 -23 c16 -53 25 -233 12 -233 -27 0 -53 182 -36 248 8 30
11 28 24 -15z m-225 8 c3 -5 1 -12 -5 -16 -5 -3 -10 1 -10 9 0 18 6 21 15 7z
m25 -71 c0 -5 -4 -10 -10 -10 -5 0 -10 5 -10 10 0 6 5 10 10 10 6 0 10 -4 10
-10z m820 -44 c0 -18 -3 -36 -7 -40 -11 -11 -31 57 -20 71 14 20 27 5 27 -31z
m-790 -15 c0 -6 -4 -13 -10 -16 -5 -3 -10 1 -10 9 0 9 5 16 10 16 6 0 10 -4
10 -9z m800 -98 c0 -7 -4 -13 -10 -13 -5 0 -10 7 -10 16 0 8 -4 12 -10 9 -11
-7 -14 28 -3 39 8 7 32 -31 33 -51z m-780 27 c0 -5 -2 -10 -4 -10 -3 0 -8 5
-11 10 -3 6 -1 10 4 10 6 0 11 -4 11 -10z m320 -89 c0 -11 5 -23 10 -26 12 -8
6 -88 -10 -130 -9 -23 -13 -26 -20 -15 -6 8 -9 24 -9 35 l0 20 9 -20 c7 -17 9
-16 9 10 0 17 -4 50 -10 74 -5 24 -8 50 -5 58 8 20 26 16 26 -6z m448 -47 c-3
-13 -5 -13 -23 -1 -17 13 -17 17 -5 32 12 15 14 15 22 0 5 -8 8 -22 6 -31z
m-479 -29 c0 -18 -1 -17 -14 5 -20 34 -20 60 0 34 8 -10 14 -28 14 -39z m-224
5 c3 -5 1 -10 -4 -10 -6 0 -11 5 -11 10 0 6 2 10 4 10 3 0 8 -4 11 -10z m505
-65 c5 -21 5 -47 0 -59 -8 -20 -9 -20 -10 4 -1 23 -2 23 -10 5 -7 -19 -8 -19
-15 -1 -5 10 -4 21 1 25 5 3 9 23 9 43 0 44 13 35 25 -17z m180 -16 c0 -26 -3
-29 -14 -20 -8 7 -12 21 -9 31 8 31 23 23 23 -11z m-250 -28 c30 -17 41 -32
32 -45 -3 -6 -5 -25 -3 -42 1 -20 -3 -33 -12 -37 -8 -3 -14 -18 -14 -32 0 -15
-7 -31 -14 -36 -7 -4 -10 -11 -7 -15 4 -3 1 -12 -5 -19 -9 -10 -15 -10 -26 -1
-12 8 -13 8 -7 -1 4 -8 2 -13 -8 -13 -8 0 -18 5 -21 10 -4 6 -11 8 -16 5 -5
-4 -9 0 -9 7 0 7 -8 18 -17 24 -22 14 -66 100 -58 114 8 14 47 -12 41 -27 -3
-7 -1 -15 3 -17 10 -6 31 38 31 64 0 13 6 18 20 15 11 -2 19 -1 18 3 -1 4 3
17 10 28 6 12 9 24 6 26 -10 11 32 2 56 -11z m2409 -5 c6 -7 27 -16 47 -19 20
-3 50 -17 67 -30 18 -13 55 -36 82 -51 28 -16 59 -37 70 -46 11 -10 32 -20 48
-24 19 -4 27 -13 27 -27 0 -17 -4 -20 -22 -14 -13 3 -40 10 -60 16 -54 13
-120 51 -186 106 -63 52 -109 103 -94 103 5 0 15 -6 21 -14z m-2793 -74 c-2
-38 -11 -73 -29 -107 -27 -51 -37 -39 -18 21 5 16 15 57 21 91 15 76 29 74 26
-5z m634 -15 c0 -20 -1 -20 -16 -5 -9 9 -13 21 -9 27 10 16 25 3 25 -22z m467
-131 c-4 -39 -15 -98 -27 -131 l-20 -60 5 60 c10 112 28 214 38 208 6 -3 7
-35 4 -77z m-467 23 c0 -20 -24 -26 -35 -9 -8 13 14 42 26 34 5 -3 9 -14 9
-25z m-20 -112 c0 -8 -6 -14 -14 -14 -8 0 -12 6 -9 14 3 7 9 13 14 13 5 0 9
-6 9 -13z m0 -119 c0 -5 -7 -8 -15 -8 -15 0 -20 21 -8 33 7 7 23 -11 23 -25z
m0 -114 c0 -8 -4 -12 -10 -9 -5 3 -10 13 -10 21 0 8 5 12 10 9 6 -3 10 -13 10
-21z m-20 -225 c0 -5 -4 -9 -10 -9 -5 0 -10 7 -10 16 0 8 5 12 10 9 6 -3 10
-10 10 -16z m597 -149 c1 -11 -2 -20 -5 -20 -4 0 -8 9 -9 20 -1 11 2 20 5 20
4 0 8 -9 9 -20z m-8 -42 c0 -7 -4 -22 -9 -33 -7 -17 -9 -15 -9 13 -1 17 4 32
9 32 6 0 10 -6 9 -12z m81 -88 c-13 -8 -12 -10 4 -10 21 0 56 -27 56 -43 0 -6
-8 -3 -17 5 -25 22 -85 46 -103 41 -13 -4 -13 -3 0 6 8 6 29 11 45 11 23 0 27
-3 15 -10z m-1190 -65 c-7 -9 -15 -13 -18 -10 -3 2 1 11 8 20 7 9 15 13 18 10
3 -2 -1 -11 -8 -20z m1207 14 c15 -6 23 -13 17 -15 -6 -3 -26 2 -45 10 -39 18
-14 22 28 5z m24 -43 c10 0 14 -7 11 -18 -5 -20 -8 -21 -37 -8 -14 6 -15 9 -5
10 12 0 10 4 -5 17 l-20 16 20 -8 c11 -4 27 -8 36 -9z m-1271 -46 c-8 -5 -17
-7 -19 -4 -3 3 1 9 9 14 8 5 17 7 19 4 3 -3 -1 -9 -9 -14z m1297 -22 c18 -14
16 -28 -3 -28 -10 0 -14 6 -10 15 3 10 -1 15 -12 15 -9 0 -24 5 -32 11 -11 8
-8 9 15 4 16 -4 36 -11 42 -17z m-115 -40 c-5 -21 -4 -22 12 -9 12 10 35 12
89 8 94 -7 138 -32 172 -98 13 -28 20 -47 15 -44 -6 3 -10 2 -10 -3 0 -11
-136 20 -169 38 -27 14 -78 10 -108 -8 -11 -7 -23 -9 -26 -5 -10 16 -1 112 12
127 18 21 20 20 13 -6z m-1107 0 c11 0 14 -2 7 -5 -10 -4 -10 -8 0 -21 12 -15
11 -16 -5 -3 -27 21 -30 7 -6 -33 l21 -36 -23 -8 -22 -9 21 -21 22 -22 -22 -1
-23 0 23 -9 c12 -5 22 -12 22 -15 0 -4 -10 -3 -22 1 -13 4 -30 9 -38 11 -8 3
-1 -5 15 -17 28 -20 28 -21 5 -14 -14 4 -37 17 -52 30 -16 12 -38 26 -50 30
-12 3 -31 15 -42 25 -23 22 -49 24 -68 6 -7 -7 -30 -23 -51 -36 l-39 -24 15
29 c32 61 123 112 230 129 24 4 35 10 31 17 -5 8 -1 9 12 3 10 -4 28 -8 39 -7z
m1081 -173 c1 -8 -1 -17 -5 -19 -4 -3 -8 7 -9 21 -2 27 10 25 14 -2z"/>
<path d="M2296 3953 c7 -4 14 -17 17 -28 5 -16 5 -15 4 4 -1 14 -9 26 -17 28
-10 3 -11 2 -4 -4z"/>
<path d="M2242 3910 c0 -14 2 -19 5 -12 2 6 2 18 0 25 -3 6 -5 1 -5 -13z"/>
<path d="M2258 3904 c-3 -23 0 -30 14 -31 26 -2 30 12 9 38 l-18 23 -5 -30z"/>
<path d="M2057 3883 c-13 -12 -7 -41 9 -47 20 -8 19 -8 28 27 5 22 3 27 -12
27 -10 0 -22 -3 -25 -7z"/>
<path d="M2000 3856 c0 -2 7 -6 15 -10 8 -3 15 -1 15 4 0 6 -7 10 -15 10 -8 0
-15 -2 -15 -4z"/>
<path d="M2216 3345 c4 -8 10 -12 15 -9 11 6 2 24 -11 24 -5 0 -7 -7 -4 -15z"/>
<path d="M2187 3320 c3 -11 9 -20 15 -20 5 0 4 9 -2 20 -6 11 -12 20 -14 20
-2 0 -2 -9 1 -20z"/>
<path d="M2660 225 c-10 -12 -10 -15 3 -15 19 0 31 16 18 24 -5 3 -14 -1 -21
-9z"/>
<path d="M2920 140 c0 -5 5 -10 11 -10 5 0 7 5 4 10 -3 6 -8 10 -11 10 -2 0
-4 -4 -4 -10z"/>
<path d="M1510 120 c-23 -7 -23 -8 -3 -9 12 -1 25 4 28 9 3 6 5 10 3 9 -2 -1
-14 -5 -28 -9z"/>
</g>
</svg>
