<?xml version="1.0" standalone="no"?>
<!DOCTYPE svg PUBLIC "-//W3C//DTD SVG 20010904//EN"
 "http://www.w3.org/TR/2001/REC-SVG-20010904/DTD/svg10.dtd">
<svg version="1.0" xmlns="http://www.w3.org/2000/svg"
 width="480.000000pt" height="739.000000pt" viewBox="0 0 480.000000 739.000000"
 preserveAspectRatio="xMidYMid meet">

<g transform="translate(0.000000,739.000000) scale(0.100000,-0.100000)"
fill="#000000" stroke="none">
<path d="M0 3695 l0 -3695 2400 0 2400 0 0 3695 0 3695 -2400 0 -2400 0 0
-3695z m2678 3659 c85 -7 92 -9 112 -36 25 -34 19 -49 -9 -24 -16 15 -40 17
-177 16 -88 -1 -172 1 -189 4 -16 4 -43 9 -60 12 -16 3 -39 8 -50 12 -17 5
-16 7 10 13 40 9 250 11 363 3z m311 -51 c0 -32 -4 -76 -8 -98 -6 -31 -8 -17
-8 58 -1 53 3 97 8 97 5 0 9 -26 8 -57z m-258 -53 c24 -14 25 -30 0 -30 -21 0
-45 23 -34 33 8 9 11 9 34 -3z m-291 -25 c8 -10 11 -42 9 -92 -1 -43 -1 -103
0 -133 1 -50 3 -53 16 -36 8 10 17 38 21 62 7 52 14 58 40 39 18 -13 18 -14 2
-20 -28 -11 -22 -22 25 -50 50 -28 77 -34 58 -11 -18 22 2 28 56 16 57 -13
104 -6 156 23 53 30 64 16 47 -63 -7 -34 -19 -64 -27 -67 -7 -3 -13 -9 -13
-14 0 -12 -67 -109 -92 -132 -16 -16 -17 -21 -6 -35 10 -12 10 -14 1 -8 -7 4
-13 3 -13 -2 0 -6 -13 -15 -30 -21 -21 -7 -30 -7 -30 1 0 6 -7 5 -17 -3 -15
-12 -16 -12 -8 1 6 11 5 12 -4 4 -7 -6 -20 -26 -29 -44 -9 -19 -24 -37 -32
-40 -8 -4 -25 -12 -38 -19 -17 -9 -30 -8 -59 4 -21 9 -51 15 -68 14 -51 -3
-65 0 -65 17 0 13 7 15 35 11 33 -5 36 -3 50 29 11 26 20 34 39 34 16 0 32 9
42 25 9 14 21 25 28 25 6 0 23 -11 38 -25 45 -42 45 -36 2 47 -40 78 -78 138
-86 138 -12 0 -10 -68 3 -76 7 -4 0 -14 -18 -25 -36 -24 -48 -24 -73 1 -19 19
-19 22 -4 45 9 13 13 29 9 35 -4 6 -8 35 -10 63 -1 29 -6 107 -10 175 l-8 122
25 0 c14 0 31 -7 38 -15z m-260 -120 c0 -8 -7 -15 -15 -15 -16 0 -20 12 -8 23
11 12 23 8 23 -8z m-14 -190 c15 -15 10 -60 -7 -71 -5 -3 -9 -16 -9 -30 0 -13
-3 -24 -8 -24 -15 0 -37 35 -36 58 1 21 0 22 -17 6 -15 -14 -19 -14 -23 -3 -6
19 -4 48 3 47 17 -2 71 16 71 23 0 13 9 11 26 -6z m909 -295 c3 -6 -1 -7 -9
-4 -18 7 -21 14 -7 14 6 0 13 -4 16 -10z m-646 -119 c-22 -17 -49 -18 -49 -2
0 14 14 21 43 21 l29 0 -23 -19z m141 -30 c0 -5 -7 -11 -15 -15 -15 -5 -20 5
-8 17 9 10 23 9 23 -2z m-16 -121 c9 0 14 -5 11 -10 -4 -6 -11 -8 -16 -5 -5 4
-9 0 -9 -7 0 -7 -12 -26 -26 -42 -22 -23 -32 -27 -58 -22 -17 4 -48 7 -68 9
-37 2 -88 38 -88 63 0 18 25 24 103 24 40 0 79 5 87 10 10 6 20 4 31 -6 8 -7
23 -14 33 -14z m-1273 -153 c-8 -8 -11 -4 -11 14 0 33 14 47 18 19 2 -12 -1
-27 -7 -33z m1352 -54 c-8 -3 -13 -22 -13 -44 0 -42 14 -52 25 -18 4 11 9 18
12 16 7 -7 -19 -130 -31 -145 -6 -8 -9 -33 -8 -55 2 -30 0 -38 -7 -27 -16 24
-25 3 -12 -27 10 -22 14 -24 22 -12 8 10 9 3 4 -25 -5 -29 -3 -37 7 -34 8 3
18 -9 25 -31 16 -46 8 -51 -83 -51 -52 0 -75 -4 -84 -15 -24 -29 -33 -1 -19
61 7 33 12 68 11 79 -1 10 4 25 10 32 7 9 7 14 -3 18 -61 21 -65 24 -63 46 1
29 31 84 62 116 12 13 22 28 22 33 0 6 4 10 8 10 5 0 14 11 20 25 6 14 16 25
22 25 6 0 23 11 38 25 19 18 29 22 37 14 7 -8 6 -13 -2 -16z m454 -310 c2 -6
-10 -21 -27 -33 -33 -24 -39 -13 -14 26 17 25 34 28 41 7z m-830 -87 c35 -18
103 -86 103 -102 0 -9 -18 -33 -40 -54 -34 -33 -40 -43 -34 -66 11 -44 -43
-63 -61 -21 -9 20 -16 22 -82 21 -70 -1 -73 0 -73 22 0 39 18 72 47 86 23 11
29 22 35 62 10 75 13 79 50 71 18 -4 43 -12 55 -19z m433 -196 c0 -28 4 -40
14 -40 8 0 18 5 21 11 5 7 14 4 29 -8 11 -10 35 -25 51 -33 17 -8 32 -18 35
-21 3 -3 27 -9 54 -15 71 -13 93 -57 29 -56 -34 0 -70 -23 -53 -33 6 -4 14 -4
17 -1 9 9 63 -34 63 -49 0 -14 30 -22 100 -27 28 -2 36 -8 38 -25 3 -21 13
-28 35 -24 14 2 7 -26 -12 -43 -15 -13 -20 -14 -25 -4 -3 7 -3 3 0 -9 6 -25
-13 -53 -110 -168 -32 -38 -74 -79 -92 -89 -19 -11 -34 -26 -34 -33 0 -19 -45
-44 -65 -36 -14 5 -17 3 -12 -10 9 -24 -20 -22 -35 3 -15 24 -44 26 -56 3 -6
-10 -16 -14 -26 -10 -12 5 -16 1 -16 -14 0 -14 -5 -19 -14 -16 -7 3 -24 0 -37
-7 -31 -16 -86 -19 -94 -6 -4 6 -1 17 5 25 7 8 10 16 6 16 -3 1 -9 2 -13 3 -5
1 -14 5 -21 10 -8 5 -20 1 -32 -9 -13 -12 -29 -16 -48 -12 l-29 6 -7 -72 c-4
-39 -11 -76 -16 -81 -12 -12 -92 -13 -132 -3 -19 5 -28 14 -28 27 0 11 -6 20
-13 20 -19 0 -91 87 -98 118 -3 15 -2 40 3 56 4 16 5 39 2 52 -4 16 4 31 30
58 20 19 36 43 36 51 0 9 4 25 10 35 12 23 3 51 -15 44 -27 -11 -27 19 0 40
26 21 26 23 11 39 -10 9 -24 17 -33 17 -12 0 -13 3 -4 14 13 15 96 40 124 37
10 -1 17 4 17 13 0 9 7 16 15 16 8 0 16 5 16 10 1 6 2 15 3 20 0 6 7 15 15 19
8 5 12 18 9 29 -5 20 -3 19 33 -5 35 -23 41 -24 57 -11 9 7 29 20 44 28 16 7
35 24 43 37 9 12 24 23 35 23 11 0 20 4 20 9 0 5 17 15 38 21 20 7 42 18 47
24 6 7 18 15 28 19 10 4 17 17 17 32 0 14 5 25 10 25 6 0 10 -18 10 -40z m979
-153 c2 -39 -9 -56 -35 -57 -7 0 -14 6 -17 14 -4 10 0 14 13 11 11 -2 23 1 26
7 4 6 2 8 -4 4 -6 -3 -13 -2 -16 3 -4 5 -14 8 -23 7 -10 -2 -26 6 -38 16 -17
16 -18 20 -5 28 8 6 33 9 56 8 40 -2 40 -2 43 -41z m-1449 8 c0 -8 -7 -15 -15
-15 -16 0 -20 12 -8 23 11 12 23 8 23 -8z m1297 -62 c-6 -9 -6 -13 2 -13 7 0
9 -5 6 -11 -8 -13 37 12 47 26 4 5 6 0 6 -12 -2 -15 -8 -20 -21 -17 -15 2 -18
-1 -14 -17 5 -17 3 -18 -9 -8 -12 10 -15 10 -12 -1 2 -9 -10 -16 -33 -20 -32
-6 -36 -4 -31 12 2 10 8 18 12 18 4 0 11 20 14 44 7 43 8 44 25 28 12 -12 15
-21 8 -29z m94 -10 c13 -16 12 -17 -3 -4 -10 7 -18 15 -18 17 0 8 8 3 21 -13z
m-873 -522 c3 -10 -1 -12 -17 -8 -11 3 -19 1 -16 -3 6 -10 -33 -40 -53 -40 -7
0 2 16 20 34 34 36 58 42 66 17z m-253 -1130 c-3 -2 -19 -6 -36 -8 -29 -3 -69
-35 -69 -55 0 -14 -37 -9 -50 7 -8 9 -18 12 -29 6 -18 -9 -63 -1 -62 12 1 4 1
14 1 21 0 11 15 16 53 18 82 5 197 5 192 -1z m-135 -126 c0 -8 -9 -15 -20 -15
-20 0 -26 11 -13 23 12 13 33 7 33 -8z m80 -906 c0 -11 -4 -17 -10 -14 -5 3
-10 13 -10 21 0 8 5 14 10 14 6 0 10 -9 10 -21z m1640 -1148 c0 -5 3 -18 6
-28 6 -16 5 -16 -9 2 -19 23 -21 35 -7 35 6 0 10 -4 10 -9z m-7 -208 c-4 -18
1 -25 21 -33 14 -5 26 -11 26 -13 0 -2 -49 -1 -57 2 -9 3 -18 -6 -15 -14 1 -5
-16 10 -38 34 -22 24 -40 49 -40 55 0 6 10 -1 21 -16 25 -34 39 -36 39 -4 0
13 3 32 7 41 5 15 8 15 24 -6 11 -15 16 -33 12 -46z m-3263 -68 c-7 -9 -15
-13 -18 -10 -3 2 1 11 8 20 7 9 15 13 18 10 3 -2 -1 -11 -8 -20z"/>
<path d="M2558 5867 c7 -8 7 -18 2 -27 -8 -12 -13 -13 -29 -3 -16 10 -20 9
-25 -3 -10 -25 -7 -34 9 -34 9 0 18 -7 21 -15 10 -24 23 -17 39 21 11 28 12
39 2 55 -6 10 -16 19 -21 19 -4 0 -4 -6 2 -13z"/>
<path d="M2535 5430 c4 -6 11 -8 16 -5 14 9 11 15 -7 15 -8 0 -12 -5 -9 -10z"/>
<path d="M2806 5411 c-4 -7 -5 -15 -2 -18 9 -9 19 4 14 18 -4 11 -6 11 -12 0z"/>
<path d="M2760 5394 c0 -8 5 -12 10 -9 6 4 8 11 5 16 -9 14 -15 11 -15 -7z"/>
<path d="M2417 5363 c-10 -10 -8 -43 2 -43 5 0 16 3 25 6 12 5 13 9 3 25 -13
20 -20 23 -30 12z"/>
<path d="M2304 5335 c-4 -8 -3 -23 1 -32 6 -16 8 -15 20 7 7 14 11 28 9 32 -8
13 -24 9 -30 -7z"/>
<path d="M2880 5296 c0 -9 5 -16 10 -16 6 0 10 4 10 9 0 6 -4 13 -10 16 -5 3
-10 -1 -10 -9z"/>
<path d="M2176 5245 c4 -8 10 -15 15 -15 5 0 9 7 9 15 0 8 -7 15 -15 15 -9 0
-12 -6 -9 -15z"/>
<path d="M2880 5100 c0 -5 5 -10 10 -10 6 0 10 5 10 10 0 6 -4 10 -10 10 -5 0
-10 -4 -10 -10z"/>
<path d="M2821 5014 c0 -11 3 -14 6 -6 3 7 2 16 -1 19 -3 4 -6 -2 -5 -13z"/>
<path d="M2695 4970 c4 -6 11 -8 16 -5 14 9 11 15 -7 15 -8 0 -12 -5 -9 -10z"/>
<path d="M2698 4929 c-10 -7 -9 -9 5 -9 9 0 17 -4 17 -10 0 -12 27 -14 34 -2
7 12 -41 30 -56 21z"/>
<path d="M2773 4925 c-3 -9 -3 -18 -1 -21 3 -3 8 4 11 16 6 23 -1 27 -10 5z"/>
</g>
</svg>
