<?xml version="1.0" standalone="no"?>
<!DOCTYPE svg PUBLIC "-//W3C//DTD SVG 20010904//EN"
 "http://www.w3.org/TR/2001/REC-SVG-20010904/DTD/svg10.dtd">
<svg version="1.0" xmlns="http://www.w3.org/2000/svg"
 width="480.000000pt" height="739.000000pt" viewBox="0 0 480.000000 739.000000"
 preserveAspectRatio="xMidYMid meet">

<g transform="translate(0.000000,739.000000) scale(0.100000,-0.100000)"
fill="#000000" stroke="none">
<path d="M0 3695 l0 -3695 2400 0 2400 0 0 3695 0 3695 -2400 0 -2400 0 0
-3695z m2408 3183 c20 -20 15 -41 -8 -35 -11 3 -23 1 -26 -4 -3 -5 -10 -9 -16
-9 -6 0 -4 8 5 18 10 10 17 24 17 30 0 15 13 15 28 0z m67 -38 c3 -5 -3 -10
-14 -10 -12 0 -21 5 -21 10 0 6 6 10 14 10 8 0 18 -4 21 -10z m100 -50 c3 -5
15 -10 26 -10 10 0 20 -6 21 -12 0 -7 2 -18 2 -25 1 -11 47 -52 63 -56 4 -1 7
-6 5 -10 -1 -4 6 -7 15 -5 12 2 17 -3 15 -15 -3 -19 27 -77 40 -77 4 0 8 -8 8
-18 0 -10 6 -26 13 -37 19 -29 14 -75 -11 -115 -24 -38 -27 -57 -12 -80 5 -9
5 -19 -1 -26 -7 -9 5 -24 45 -56 46 -36 55 -48 55 -75 1 -25 -3 -31 -14 -27
-18 7 -20 21 -3 26 6 2 8 10 4 16 -11 19 -24 14 -28 -10 -4 -33 -46 -34 -104
-2 -27 14 -60 33 -74 40 -14 8 -35 14 -48 14 -14 0 -21 4 -16 11 4 8 -13 9
-59 4 -36 -4 -98 -8 -139 -10 -88 -3 -85 -2 -70 -17 18 -18 14 -38 -8 -38 -26
0 -25 -8 5 -32 15 -11 25 -30 25 -44 0 -14 7 -27 15 -30 8 -4 35 -32 59 -64
38 -50 44 -63 43 -107 l-1 -49 -95 -3 c-53 -2 -108 -4 -123 -5 -34 -1 -46 -41
-26 -83 26 -54 140 -39 206 27 17 16 38 30 46 30 9 0 28 13 43 29 16 15 55 42
88 59 38 19 66 42 77 61 18 33 52 40 102 22 32 -13 84 21 108 70 20 43 48 70
48 46 0 -19 -38 -85 -62 -109 -20 -20 -20 -24 -25 -148 -4 -109 -8 -159 -16
-166 -3 -3 -2 -16 3 -28 7 -20 6 -22 -22 -18 -23 4 -30 0 -35 -17 -7 -29 -17
-26 -47 11 -22 29 -33 33 -83 38 -51 4 -58 8 -57 26 0 16 -4 20 -19 16 -15 -4
-18 -11 -13 -35 9 -43 25 -59 55 -53 14 3 41 2 60 -2 40 -9 56 -32 17 -25 -17
4 -33 -4 -57 -26 -31 -30 -69 -41 -69 -21 0 6 -13 10 -30 10 -17 0 -30 5 -30
13 0 9 -2 9 -8 0 -5 -7 -38 -13 -86 -14 -64 -3 -81 -6 -95 -23 -9 -12 -23 -22
-31 -24 -8 -2 -16 -7 -18 -12 -6 -17 -53 -62 -59 -56 -3 3 2 17 11 31 18 28
32 135 17 135 -5 0 -11 10 -13 23 -2 12 -13 26 -25 32 -13 5 -23 13 -23 17 0
5 -5 8 -11 8 -17 0 -34 21 -54 68 -18 39 -20 41 -27 21 -7 -18 -11 -20 -21
-10 -9 9 -9 14 1 20 9 5 10 20 2 60 -5 29 -12 57 -16 62 -3 6 -8 47 -10 92 -3
45 -7 103 -9 130 -2 26 1 47 6 47 5 0 19 20 31 45 l22 45 18 -32 c9 -18 17
-43 18 -56 0 -30 17 -24 38 13 9 17 21 33 25 36 4 3 5 14 1 24 -5 11 -4 16 3
12 5 -3 10 1 10 10 0 9 -9 18 -19 21 -22 5 -24 40 -3 48 8 4 15 13 15 21 0 9
-6 13 -15 10 -19 -8 -31 11 -16 26 17 17 14 47 -4 41 -23 -9 -19 28 5 54 12
12 32 22 45 22 16 0 25 6 25 15 0 8 -4 15 -10 15 -18 0 -11 15 13 26 16 7 28
6 43 -3 20 -13 22 -11 26 12 3 14 1 28 -3 31 -15 9 -10 24 7 24 12 0 15 6 10
24 -7 30 15 50 49 44 17 -4 25 -1 25 8 0 8 -6 11 -15 8 -9 -4 -15 0 -15 9 0 8
10 17 23 20 12 3 33 9 46 13 22 7 23 5 17 -20 -5 -21 -3 -27 6 -24 7 3 14 17
16 31 2 15 5 27 8 27 14 0 44 -38 44 -57 0 -23 17 -40 28 -28 3 3 0 10 -8 16
-14 9 18 5 57 -6 6 -2 14 3 17 11 9 24 7 34 -7 34 -8 0 -24 11 -37 25 -19 20
-20 25 -7 25 9 0 19 -4 22 -10z m5 -61 c0 -11 -11 -11 -29 0 -7 5 -10 14 -6
20 5 9 10 9 21 0 8 -6 14 -15 14 -20z m160 -6 c22 6 50 -10 50 -28 0 -8 8 -15
18 -15 28 -1 66 -35 59 -54 -6 -14 -11 -15 -28 -6 -31 17 -59 43 -59 56 0 6
-20 19 -44 28 -25 9 -50 25 -58 34 -11 14 -9 14 16 -2 15 -10 36 -16 46 -13z
m213 -103 c8 -11 13 -31 12 -43 -1 -12 -3 -29 -4 -37 -1 -8 -10 4 -21 26 -11
23 -27 45 -37 49 -17 7 -17 8 2 15 30 13 33 12 48 -10z m-1167 -173 c21 -18
51 -40 65 -49 29 -18 71 -120 61 -147 -8 -23 -25 -32 -35 -18 -4 7 -5 -24 -2
-68 7 -84 -4 -179 -26 -230 l-14 -30 -3 52 c-3 49 -5 52 -35 58 -18 4 -46 22
-63 39 -25 27 -32 30 -43 18 -16 -17 6 -43 66 -79 31 -18 43 -31 43 -48 0 -40
-15 -36 -73 18 -35 33 -66 75 -86 116 -34 71 -37 81 -19 63 20 -20 28 -14 18
14 -15 38 -2 91 36 154 19 31 34 64 34 75 0 13 -12 -1 -32 -35 -59 -104 -68
-124 -68 -149 0 -13 -3 -21 -7 -18 -3 4 2 52 12 107 11 61 22 96 27 88 6 -10
8 -8 8 5 0 9 5 17 10 17 6 0 10 7 10 15 0 17 16 20 25 5 3 -5 15 -10 26 -10
12 0 28 -14 40 -35 12 -19 25 -35 30 -35 11 0 12 -49 2 -51 -5 -1 -32 -2 -61
-4 -29 -1 -55 -5 -58 -8 -4 -3 -9 -25 -11 -49 -4 -34 -1 -48 16 -68 l22 -25
-6 40 c-5 37 -3 41 26 58 58 33 100 17 63 -24 -9 -10 -16 -34 -17 -53 -1 -22
-6 -36 -14 -36 -16 0 -16 -3 -2 -34 11 -24 37 -42 47 -32 2 3 -1 19 -7 37 -17
49 -13 75 14 107 21 25 24 34 15 57 -5 14 -10 44 -10 65 0 31 -8 48 -41 87
-23 26 -50 51 -60 55 -27 11 -23 18 9 18 17 0 44 -13 68 -33z m1193 -43 c-12
-27 -24 -43 -26 -36 -9 23 31 101 44 88 2 -2 -6 -25 -18 -52z m112 -27 c-17
-17 -22 -3 -8 26 11 25 12 25 15 6 2 -12 -1 -26 -7 -32z m44 13 c3 -5 1 -10
-4 -10 -6 0 -11 5 -11 10 0 6 2 10 4 10 3 0 8 -4 11 -10z m-185 -50 c0 -5 -5
-10 -11 -10 -5 0 -7 5 -4 10 3 6 8 10 11 10 2 0 4 -4 4 -10z m147 4 c-3 -3
-12 -4 -19 -1 -8 3 -5 6 6 6 11 1 17 -2 13 -5z m-229 -79 c-8 -8 -48 8 -42 16
3 5 14 4 25 -2 12 -6 19 -12 17 -14z m192 15 c0 -5 -2 -10 -4 -10 -3 0 -8 5
-11 10 -3 6 -1 10 4 10 6 0 11 -4 11 -10z m-64 -35 c-4 -10 1 -15 15 -15 16 0
19 -4 14 -21 -4 -13 -2 -25 5 -29 8 -5 9 -13 4 -21 -5 -8 -7 -22 -6 -31 3 -16
-53 -77 -70 -78 -12 0 -9 114 4 151 11 31 27 58 37 59 2 0 1 -7 -3 -15z m84
-86 c0 -5 -4 -9 -10 -9 -5 0 -10 7 -10 16 0 8 5 12 10 9 6 -3 10 -10 10 -16z
m-510 -123 c0 -8 -5 -18 -11 -22 -14 -8 -33 11 -25 25 10 16 36 13 36 -3z
m-896 -108 c9 15 52 -5 80 -37 18 -20 18 -24 3 -83 -28 -110 -30 -194 -7 -273
23 -82 26 -105 8 -87 -12 12 -31 59 -50 122 -10 36 -28 63 -28 44 0 -23 83
-240 114 -299 19 -36 19 -36 5 -72 -8 -22 -12 -24 -19 -13 -6 8 -10 11 -10 6
0 -5 -7 -2 -17 5 -15 13 -16 11 -8 -16 9 -31 10 -63 2 -105 -2 -14 -5 -35 -6
-47 -1 -18 -7 -23 -28 -23 -25 0 -26 0 -8 -20 10 -11 24 -20 31 -20 17 0 34
-32 34 -62 0 -13 9 -40 20 -61 20 -37 20 -38 1 -27 -29 15 -35 -5 -9 -30 18
-16 20 -23 10 -29 -10 -6 -4 -10 16 -14 18 -4 33 -14 37 -25 3 -11 17 -33 31
-48 44 -51 64 -87 64 -113 0 -11 4 -22 9 -26 5 -3 8 -17 5 -31 -4 -20 0 -27
16 -31 11 -3 20 -11 20 -18 0 -23 61 -59 104 -61 23 -1 44 -2 48 -3 3 -1 17
-18 29 -38 13 -21 28 -41 33 -45 7 -5 0 -29 -22 -67 l-32 -60 27 -45 c23 -37
35 -47 63 -52 19 -3 45 -10 57 -16 31 -15 143 -126 143 -142 0 -4 9 -20 21
-34 13 -17 18 -34 14 -50 -3 -13 0 -39 7 -58 9 -26 9 -37 0 -46 -7 -7 -12 -20
-12 -30 0 -11 -15 -28 -34 -39 -19 -11 -37 -26 -40 -34 -3 -8 -12 -12 -19 -9
-8 3 -21 -1 -28 -9 -20 -19 -66 -30 -74 -16 -4 6 -13 8 -21 5 -7 -3 -16 -1
-20 5 -3 5 -14 7 -24 4 -10 -3 -37 1 -61 10 -24 8 -52 15 -61 15 -10 0 -18 6
-18 13 0 6 -9 23 -20 37 -29 36 -24 81 15 166 38 81 42 109 20 138 -17 23 -25
17 -42 -27 l-11 -32 -1 41 c-1 24 -7 47 -16 54 -8 6 -14 15 -13 18 1 8 -10 40
-22 63 -8 14 -15 44 -24 99 -3 20 -25 89 -36 115 -5 11 -18 41 -29 68 -11 26
-42 71 -69 100 -26 28 -63 75 -80 102 -37 58 -62 87 -115 133 l-38 32 62 0 61
0 -17 27 c-10 15 -41 49 -70 77 -53 53 -98 144 -93 189 3 26 -19 151 -34 190
-13 34 -28 35 -28 3 0 -14 -5 -28 -11 -32 -7 -4 -10 -26 -6 -59 3 -29 1 -57
-5 -63 -5 -5 -11 -44 -13 -87 -2 -43 -9 -83 -14 -88 -6 -6 -11 -18 -11 -27 0
-8 -11 -20 -25 -26 -19 -9 -27 -9 -36 3 -19 22 -52 12 -56 -17 -6 -41 -8 -44
-67 -75 -31 -16 -80 -49 -109 -72 -30 -25 -63 -43 -77 -43 -14 0 -58 -2 -97
-3 -61 -2 -73 0 -73 13 0 9 5 21 11 27 11 11 2 63 -12 63 -5 0 -9 -4 -9 -10 0
-5 -6 -10 -14 -10 -27 0 -27 20 -2 44 19 17 26 33 26 60 0 21 4 35 9 31 5 -3
25 4 44 15 24 14 43 19 61 14 17 -4 35 0 51 10 13 9 31 16 40 16 8 0 15 5 15
11 0 6 12 25 26 42 17 20 24 39 21 54 -3 17 0 23 14 23 16 0 17 4 9 26 -9 22
-7 27 9 31 19 5 19 7 4 29 -8 13 -22 24 -29 24 -8 0 -14 5 -14 11 0 6 8 8 18
5 12 -4 25 6 45 33 15 22 27 43 27 48 0 4 18 19 40 32 21 14 41 35 45 49 4 18
11 23 25 19 26 -7 15 12 -14 23 -18 8 -17 9 12 9 17 1 32 -3 32 -8 0 -18 43
-20 57 -3 11 13 16 14 19 4 3 -6 10 -10 15 -7 5 4 -3 18 -17 33 -19 20 -24 34
-20 57 3 17 8 59 12 94 4 41 13 70 25 82 10 10 21 41 25 69 20 149 46 -56 34
-265 -4 -59 -2 -79 7 -78 7 2 20 -14 30 -34 20 -42 29 -30 15 20 -5 19 -6 40
-2 47 5 7 14 -9 23 -41 9 -30 24 -80 33 -112 26 -88 45 -89 24 -2 -35 141 -48
241 -30 230 6 -4 10 42 10 122 0 192 4 246 18 251 10 3 10 7 2 18 -7 7 -9 18
-5 24 5 8 11 6 19 -6 9 -12 15 -14 20 -6z m1292 -78 c0 -20 -7 -25 -19 -13 -4
3 -2 12 4 20 15 17 15 17 15 -7z m-1407 -352 c1 -5 -3 -8 -9 -8 -5 0 -10 12
-9 28 0 24 1 25 9 7 5 -11 9 -23 9 -27z m1044 -40 c9 -5 17 -13 17 -19 0 -11
-11 -9 -100 22 l-55 19 60 -6 c33 -4 68 -11 78 -16z m-199 -17 c3 -4 16 -6 28
-4 26 5 68 -28 68 -53 0 -11 -6 -14 -22 -9 -20 5 -21 4 -5 -5 9 -6 17 -15 17
-20 0 -15 -36 -12 -50 5 -21 25 -64 -13 -74 -65 -1 -3 -5 -11 -9 -18 -6 -8 1
-16 20 -23 15 -6 28 -9 28 -8 0 1 10 -3 23 -10 25 -13 29 -33 9 -49 -9 -7 -28
-5 -67 10 -30 11 -64 22 -75 26 -11 3 -26 14 -33 24 -7 10 -19 18 -26 18 -12
0 -25 28 -26 51 0 4 13 9 29 12 20 4 34 17 48 44 28 55 101 101 117 74z m-224
-26 c-7 -8 -17 -15 -23 -15 -6 0 -2 7 9 15 25 19 30 19 14 0z m-1320 -555 c0
-5 -5 -10 -11 -10 -5 0 -7 5 -4 10 3 6 8 10 11 10 2 0 4 -4 4 -10z m682 -12
c4 -19 -1 -23 -24 -25 -15 -1 -28 2 -28 6 0 6 33 35 46 40 1 1 4 -9 6 -21z
m552 16 c19 -7 21 -45 4 -62 -6 -6 -11 -32 -12 -57 -1 -25 -3 -45 -6 -45 -11
1 -37 26 -53 51 -17 25 -16 28 9 72 26 48 31 51 58 41z m-763 -94 c13 0 24
-10 30 -30 6 -16 15 -30 20 -30 5 0 9 -4 9 -10 0 -5 -7 -10 -15 -10 -7 0 -18
-7 -23 -16 -8 -15 -13 -15 -56 0 -26 9 -57 16 -69 16 -13 0 -17 3 -11 8 7 4
14 18 15 32 4 26 45 53 67 45 8 -3 23 -5 33 -5z m209 -10 c29 -1 96 -84 92
-113 -2 -10 14 -41 34 -69 33 -45 39 -60 41 -112 1 -34 5 -104 8 -156 3 -52 6
-113 5 -136 -1 -39 1 -41 39 -53 22 -6 42 -19 44 -29 3 -9 5 0 6 20 0 20 6 40
11 43 16 10 40 74 49 130 l8 50 12 -30 c21 -51 9 -126 -37 -218 -23 -46 -50
-104 -61 -129 -32 -75 -110 -119 -103 -58 1 14 7 26 12 28 5 2 20 21 32 43 12
21 25 39 30 39 4 0 8 7 8 16 0 12 -6 15 -24 10 -16 -4 -26 -1 -30 10 -4 10
-13 13 -25 9 -12 -4 -21 0 -25 12 -4 10 -2 19 3 21 17 6 13 32 -4 32 -10 0
-15 10 -15 33 -1 28 -30 130 -41 141 -2 3 -2 -38 -1 -90 4 -101 -2 -144 -19
-144 -19 0 -91 -89 -116 -143 -25 -54 -19 -77 21 -77 11 0 29 -7 39 -14 18
-14 17 -14 -2 -21 -12 -3 -26 -3 -32 0 -5 4 -19 -1 -29 -10 -13 -12 -29 -15
-56 -11 -121 18 -126 18 -119 -3 4 -13 0 -20 -16 -24 -27 -7 -39 -1 -39 19 0
8 -3 13 -7 11 -13 -8 -55 12 -48 23 3 5 23 10 43 10 36 1 37 1 16 18 -11 10
-64 25 -120 35 -127 24 -149 34 -148 73 0 16 -5 33 -13 37 -8 5 -11 17 -7 31
3 13 1 27 -5 30 -6 4 -11 20 -11 37 0 20 -5 29 -16 29 -10 0 -14 7 -12 20 2
10 -1 19 -5 19 -18 -1 -36 35 -25 49 8 9 8 16 0 24 -20 20 -14 44 14 56 14 7
22 17 19 22 -8 12 -46 3 -58 -14 -5 -7 -7 -3 -5 9 6 41 -26 19 -44 -30 -21
-59 -22 -75 -5 -75 10 0 11 -15 6 -62 -3 -37 -2 -68 4 -76 14 -17 1 -28 -17
-13 -8 6 -20 10 -27 9 -19 -4 -23 31 -5 50 9 11 12 23 7 31 -7 10 -9 9 -14 -3
-10 -27 -30 -19 -23 9 4 14 2 25 -3 25 -4 0 -11 18 -15 40 -3 22 -11 40 -18
40 -12 0 -4 131 10 156 19 35 115 122 138 127 26 5 26 4 22 -50 -5 -53 -4 -54
18 -49 18 5 22 3 18 -9 -4 -10 0 -15 10 -15 9 0 16 -7 16 -15 0 -13 4 -14 21
-5 11 6 34 12 50 12 16 1 32 5 35 9 2 4 29 11 59 14 30 4 55 11 55 15 0 13 45
55 73 67 15 7 27 19 27 26 0 18 48 41 81 38 19 -2 28 3 32 18 7 30 19 26 65
-19 32 -30 46 -56 62 -109 12 -38 30 -77 41 -87 18 -16 19 -16 13 -1 -3 10 -1
17 5 17 21 0 11 57 -23 131 -39 87 -50 125 -36 134 12 8 1 35 -15 35 -8 0 -11
8 -8 19 3 13 -2 21 -16 26 -12 3 -21 15 -21 25 0 16 6 18 43 15 23 -2 53 -4
67 -5z m647 -145 c9 -24 -1 -27 -15 -5 -8 13 -8 20 -2 20 6 0 13 -7 17 -15z
m-1197 -7 c0 -7 -9 -24 -20 -38 -11 -14 -19 -18 -18 -10 2 8 -5 14 -14 15 -18
0 -21 20 -3 20 6 1 19 6 30 13 25 14 25 14 25 0z m136 -43 c-3 -9 -9 -14 -13
-13 -4 1 -18 -1 -31 -6 -15 -5 -27 -2 -38 9 -21 20 -10 33 12 14 14 -11 18
-11 28 2 24 33 55 28 42 -6z m-593 -95 c-3 -11 -9 -17 -15 -14 -5 3 -4 12 3
20 16 19 18 18 12 -6z m-40 -102 c-14 -35 -29 -72 -34 -83 -4 -11 -13 -55 -20
-98 -9 -61 -9 -93 1 -152 7 -40 9 -82 5 -92 -4 -10 -10 -56 -14 -103 -6 -78
-8 -85 -28 -88 -18 -3 -23 2 -24 20 -3 40 -5 53 -11 68 -23 55 -18 140 8 140
20 0 17 11 -16 49 -23 27 -28 40 -23 65 3 17 12 39 20 48 8 9 12 21 8 27 -8
15 5 82 16 76 5 -3 11 7 15 22 4 15 12 35 19 43 7 8 18 32 25 53 8 26 17 37
31 37 11 0 22 7 25 15 4 8 10 15 14 15 5 0 -3 -28 -17 -62z m1727 10 c0 -19
-2 -20 -10 -8 -13 19 -13 30 0 30 6 0 10 -10 10 -22z m-267 -243 c4 -8 2 -17
-3 -20 -6 -4 -10 3 -10 14 0 25 6 27 13 6z m-355 -218 c-1 -35 -20 -67 -40
-67 -18 0 -18 1 -1 33 9 17 16 37 14 42 -2 6 -5 28 -7 50 l-4 40 19 -38 c11
-21 19 -48 19 -60z m2532 83 c15 -5 -23 -8 -100 -9 -69 0 -143 -5 -165 -10
-22 -6 -47 -11 -55 -11 -13 0 -13 1 0 10 8 5 29 10 45 10 17 0 37 5 45 10 18
11 194 12 230 0z m145 -36 c36 -15 64 -28 62 -31 -2 -2 -17 2 -33 8 -16 6 -56
19 -89 29 -42 13 -52 19 -33 19 15 1 57 -11 93 -25z m-2424 -47 c-16 -16 -20
-5 -8 23 9 22 11 23 14 6 3 -10 0 -23 -6 -29z m1904 33 c-27 -12 -43 -12 -25
0 8 5 22 9 30 9 10 0 8 -3 -5 -9z m-1241 -105 c-6 -16 -24 -21 -24 -7 0 11 11
22 21 22 5 0 6 -7 3 -15z m-781 -93 l-6 -68 50 -56 c91 -104 133 -220 114
-309 l-8 -34 -18 38 c-30 59 -48 49 -96 -49 -32 -65 -48 -88 -68 -95 -15 -5
-35 -23 -44 -39 l-17 -29 -28 27 -27 27 -4 -25 c-1 -14 -8 -28 -13 -31 -7 -4
-6 -13 1 -27 9 -17 7 -20 -20 -26 -17 -3 -35 -3 -40 0 -5 3 -9 0 -9 -5 0 -26
-84 -8 -141 31 -24 16 -26 23 -22 65 3 27 13 69 24 95 10 26 18 57 16 70 -2
21 2 23 58 28 33 3 65 8 71 12 7 5 11 33 10 73 -2 72 -1 74 117 184 35 32 67
105 67 153 0 20 21 58 32 58 4 0 4 -31 1 -68z m-1033 47 c0 -7 9 -9 21 -6 12
3 29 2 38 -2 9 -5 38 -19 65 -31 30 -14 74 -49 109 -86 33 -35 79 -72 103 -83
23 -11 45 -25 49 -31 3 -5 16 -10 27 -10 11 0 33 -12 47 -27 15 -16 47 -41 71
-58 25 -16 49 -36 53 -43 5 -7 21 -18 35 -24 l27 -10 -27 -12 c-14 -6 -36 -20
-48 -31 -30 -27 -60 -96 -50 -115 11 -22 19 -120 9 -120 -5 0 -8 -12 -8 -27 1
-36 -8 -103 -14 -109 -3 -3 -14 -6 -26 -7 -12 -1 -19 -7 -17 -13 8 -20 -32
-23 -48 -5 -9 10 -19 33 -22 52 -4 19 -12 40 -18 48 -6 7 -11 19 -12 25 0 6
-2 20 -3 31 -1 11 -19 39 -41 63 -22 24 -40 49 -40 56 0 8 -10 20 -22 28 -16
11 -24 27 -26 52 -1 28 -11 45 -40 71 -24 22 -43 33 -54 29 -13 -4 -16 -1 -12
9 3 9 -10 29 -31 50 -20 20 -34 40 -31 46 4 5 -2 16 -11 23 -24 18 -43 53 -43
78 0 12 -4 19 -9 16 -5 -3 -12 16 -16 42 -4 26 -13 61 -20 78 -11 27 -11 34 3
48 19 19 32 21 32 5z m-170 -50 c0 -10 -4 -19 -10 -19 -5 0 -10 12 -10 26 0
14 4 23 10 19 6 -3 10 -15 10 -26z m875 -30 c5 -5 0 -9 -14 -9 -19 0 -21 -3
-12 -14 9 -11 5 -15 -20 -20 -37 -7 -80 -7 -61 1 6 2 12 11 12 19 0 8 9 14 20
14 11 0 20 7 20 16 0 11 6 14 23 9 12 -4 26 -11 32 -16z m139 -4 c-21 -32 -36
-32 -21 0 7 14 18 25 25 25 9 0 8 -7 -4 -25z m-1109 -22 c3 -13 2 -23 -3 -23
-17 0 -34 29 -28 47 8 19 21 9 31 -24z m969 -42 c3 -5 -1 -14 -9 -21 -12 -10
-18 -10 -30 0 -18 15 -11 30 15 30 10 0 21 -4 24 -9z m91 -10 c-8 -13 -45 -15
-45 -2 0 5 10 11 23 13 27 5 31 3 22 -11z m-55 -26 c0 -9 -9 -15 -22 -15 -22
1 -23 1 -4 15 25 19 26 19 26 0z m2225 -15 c-7 -12 -45 -14 -45 -2 0 4 11 9
26 10 14 1 23 -2 19 -8z m68 3 c-7 -2 -21 -2 -30 0 -10 3 -4 5 12 5 17 0 24
-2 18 -5z m-133 -13 c0 -5 -7 -10 -16 -10 -8 0 -12 5 -9 10 3 6 10 10 16 10 5
0 9 -4 9 -10z m-45 -10 c-3 -5 -19 -10 -34 -10 -15 0 -36 -7 -47 -15 -10 -8
-28 -14 -39 -14 -27 0 73 47 103 48 13 1 20 -3 17 -9z m171 -79 c-3 -5 -32
-12 -63 -15 -66 -8 -98 -17 -200 -56 -74 -28 -95 -27 -45 2 77 44 327 101 308
69z m107 2 c-18 -2 -48 -2 -65 0 -18 2 -4 4 32 4 36 0 50 -2 33 -4z m-453 -99
c0 -11 -27 -32 -50 -39 -24 -6 -23 -5 5 19 29 25 45 32 45 20z m-2015 -44 c3
-5 -1 -10 -9 -10 -9 0 -16 5 -16 10 0 6 4 10 9 10 6 0 13 -4 16 -10z m734 -31
c40 -14 39 -25 -5 -46 -39 -19 -66 -11 -72 22 -7 32 25 42 77 24z m503 -1492
c34 6 44 -13 16 -29 -13 -7 -27 -12 -32 -13 -17 0 -18 -25 -2 -31 9 -3 13 -10
10 -15 -7 -12 -44 -11 -44 1 0 5 -6 7 -14 4 -10 -4 -16 6 -21 35 -9 52 -2 62
34 51 15 -4 39 -6 53 -3z m226 -91 c2 -9 1 -25 -3 -34 -6 -15 -8 -15 -15 3
-13 31 -12 57 3 53 6 -3 14 -12 15 -22z"/>
<path d="M2514 5767 c-27 -15 -129 -137 -116 -137 6 0 25 12 44 28 18 15 41
34 51 42 32 26 52 44 66 63 12 15 11 17 -5 17 -11 -1 -29 -6 -40 -13z"/>
<path d="M1495 5350 c-8 -12 2 -30 17 -30 6 0 8 3 5 7 -4 3 -2 12 4 20 9 10 8
13 -4 13 -9 0 -19 -4 -22 -10z"/>
<path d="M1535 5250 c-8 -12 2 -30 17 -30 6 0 8 3 5 7 -4 3 -2 12 4 20 9 10 8
13 -4 13 -9 0 -19 -4 -22 -10z"/>
<path d="M1591 5218 c-8 -13 -9 -24 -3 -30 6 -6 12 0 16 17 9 35 4 40 -13 13z"/>
<path d="M1572 5143 c5 -25 28 -28 28 -4 0 12 -6 21 -16 21 -9 0 -14 -7 -12
-17z"/>
<path d="M1604 5070 c15 -36 32 -60 45 -60 14 0 14 -2 2 -9 -24 -16 12 -81 59
-109 52 -30 56 -28 26 11 -15 19 -26 42 -26 51 0 9 -9 35 -20 56 -11 22 -19
45 -18 52 2 9 -9 13 -34 13 -20 0 -35 -2 -34 -5z"/>
<path d="M840 4500 c-13 -8 -12 -10 3 -10 9 0 17 5 17 10 0 12 -1 12 -20 0z"/>
<path d="M1101 3024 c0 -11 3 -14 6 -6 3 7 2 16 -1 19 -3 4 -6 -2 -5 -13z"/>
</g>
</svg>
