<?xml version="1.0" standalone="no"?>
<!DOCTYPE svg PUBLIC "-//W3C//DTD SVG 20010904//EN"
 "http://www.w3.org/TR/2001/REC-SVG-20010904/DTD/svg10.dtd">
<svg version="1.0" xmlns="http://www.w3.org/2000/svg"
 width="460.000000pt" height="460.000000pt" viewBox="0 0 460.000000 460.000000"
 preserveAspectRatio="xMidYMid meet">

<g transform="translate(0.000000,460.000000) scale(0.100000,-0.100000)"
fill="#000000" stroke="none">
<path d="M0 2300 l0 -2300 2300 0 2300 0 0 2300 0 2300 -2300 0 -2300 0 0
-2300z m838 2169 c186 -66 364 -131 397 -143 45 -16 59 -26 57 -39 -4 -22 20
-31 54 -20 22 7 71 -7 271 -79 134 -48 248 -90 253 -93 6 -4 10 8 10 25 0 44
21 121 31 114 5 -3 6 2 3 10 -4 11 0 16 10 16 9 0 16 -4 16 -10 0 -5 11 -10
25 -10 14 0 25 -4 25 -10 0 -5 9 -14 20 -20 25 -13 26 -7 3 16 -17 17 -16 17
12 10 16 -4 33 -13 37 -19 4 -6 29 -19 55 -28 58 -19 67 -49 18 -60 -16 -4
-65 -17 -109 -29 -44 -12 -92 -19 -110 -16 -17 3 -24 3 -16 0 108 -44 164 -64
168 -60 2 3 -8 8 -23 12 -32 8 -15 23 21 19 13 -1 21 1 19 5 -5 8 366 101 401
100 11 0 24 4 30 9 9 9 74 26 74 19 0 -2 3 -298 6 -658 l5 -655 -21 40 c-32
61 -88 113 -147 135 -65 24 -104 25 -165 4 -48 -16 -132 -80 -123 -94 3 -5 -3
-7 -12 -6 -10 2 -19 11 -21 22 -7 48 -13 64 -22 59 -6 -3 -10 0 -10 8 0 8 -11
17 -24 19 -20 4 -35 -6 -73 -45 -26 -27 -42 -46 -34 -42 10 6 12 4 6 -4 -5 -9
-13 -7 -30 9 -13 12 -31 20 -41 18 -9 -1 -31 9 -47 25 -16 15 -38 27 -48 27
-17 0 -19 9 -19 110 0 61 -2 110 -5 110 -2 0 -27 -5 -56 -11 l-51 -11 -57 53
c-32 30 -11 9 45 -46 89 -88 102 -106 109 -144 9 -52 -3 -211 -16 -211 -5 0
-9 5 -9 11 0 8 -12 10 -35 6 -26 -4 -33 -3 -28 6 9 15 11 97 2 97 -4 0 -9 19
-13 43 -6 36 -18 53 -95 127 -49 47 -91 92 -94 100 -4 10 -6 7 -6 -7 -1 -12 9
-29 21 -37 27 -19 24 -22 -32 -30 -31 -4 -40 -3 -29 4 9 5 22 36 29 70 11 52
11 63 -1 75 -12 12 -14 8 -11 -31 4 -49 -14 -88 -47 -99 -18 -5 -18 -8 -4 -37
15 -28 15 -32 -1 -43 -17 -13 -23 -30 -6 -20 5 3 7 0 4 -9 -4 -11 10 -15 73
-21 107 -8 153 -16 153 -23 0 -4 -8 -17 -18 -28 -13 -17 -36 -24 -102 -33
-165 -23 -150 -15 -150 -80 l0 -57 -35 4 c-19 2 -35 0 -35 -6 0 -10 138 -27
148 -18 3 3 -3 6 -14 6 -13 0 -15 3 -7 8 16 10 83 3 83 -9 0 -18 67 -9 85 11
26 29 53 26 53 -5 0 -18 -6 -25 -22 -26 -11 -1 2 -7 29 -14 l50 -13 -50 -2
c-67 -2 -107 -18 -47 -19 44 -1 54 -15 30 -40 -10 -11 -10 -14 0 -18 18 -7 15
-64 -5 -79 -17 -13 -17 -13 0 -14 21 0 23 -18 2 -26 -8 -4 -12 -11 -9 -16 4
-6 10 -5 15 3 7 11 9 9 9 -7 0 -16 -7 -21 -39 -22 -43 -3 -66 16 -31 25 16 4
18 8 8 14 -27 18 -45 10 -40 -16 2 -15 0 -25 -7 -25 -6 0 -11 -5 -11 -11 0 -6
6 -9 13 -6 6 2 17 -3 23 -12 10 -12 16 -13 35 -3 23 12 23 12 -6 7 -22 -4 -26
-3 -15 5 8 5 27 10 43 10 23 0 27 -4 27 -30 0 -25 -4 -30 -25 -30 -14 0 -25 5
-25 10 0 6 -14 10 -31 10 -16 0 -28 -4 -25 -9 3 -5 16 -7 29 -4 12 3 19 3 16
0 -3 -4 -16 -8 -29 -10 -13 -2 -26 -10 -28 -18 -3 -11 -1 -11 7 1 6 9 11 10
11 3 0 -6 3 -19 6 -27 5 -12 2 -15 -12 -10 -18 5 -18 5 0 -7 16 -10 21 -9 32
6 8 11 19 15 31 11 13 -5 15 -4 7 4 -6 6 -20 12 -32 13 -11 0 -18 5 -16 9 3 5
10 6 15 3 5 -4 9 -2 9 4 0 5 14 3 30 -5 38 -20 44 -64 7 -60 -13 1 -28 5 -34
9 -6 4 -15 2 -18 -3 -4 -6 -19 -10 -33 -9 -15 2 -32 0 -38 -4 -14 -8 -104 -5
-104 5 0 3 -3 13 -6 22 -4 11 0 16 14 16 12 0 24 5 28 11 5 9 -1 10 -20 5 -24
-6 -26 -4 -26 26 1 23 25 72 79 163 44 71 77 133 75 137 -3 5 -18 8 -34 8 -26
0 -35 -9 -81 -90 -29 -49 -55 -88 -57 -85 -8 8 -13 101 -7 140 l5 40 46 -2
c74 -2 33 23 -48 30 -63 6 -68 5 -68 -13 0 -15 -7 -20 -25 -20 -14 0 -24 -5
-23 -11 5 -20 -18 -20 -42 1 -22 19 -21 35 3 35 6 0 14 12 18 28 4 16 3 25 -2
21 -5 -3 -9 -15 -10 -27 0 -21 -1 -21 -12 -3 -7 11 -24 33 -39 51 -32 37 -28
45 19 45 l34 0 -24 26 c-29 31 -51 27 -91 -14 -30 -33 -27 -62 9 -62 25 0 50
-24 58 -57 3 -15 1 -23 -8 -23 -19 0 -28 17 -13 23 7 3 -13 6 -44 6 -34 1 -58
-3 -58 -9 0 -26 45 -95 104 -160 35 -39 78 -97 94 -128 34 -63 90 -203 98
-242 3 -13 9 -29 13 -35 4 -5 20 -41 35 -80 37 -94 63 -135 87 -135 18 0 18 2
4 24 -16 23 -15 24 22 28 22 3 41 0 45 -6 4 -6 28 -11 53 -11 47 0 52 -6 36
-47 -7 -20 -23 -27 -86 -42 -76 -18 -78 -18 -88 0 -10 18 -11 17 -17 -6 -7
-31 -43 -50 -95 -50 -45 0 -62 8 -78 37 -7 11 -20 32 -31 47 -10 14 -19 37
-20 51 0 14 -4 25 -8 25 -5 0 -8 6 -8 13 0 6 -6 24 -14 39 -12 23 -12 26 0 21
22 -8 17 11 -7 25 -17 11 -20 11 -14 0 4 -7 -6 3 -23 22 -35 39 -57 93 -46
111 4 8 3 9 -4 5 -8 -5 -12 1 -12 16 0 28 -16 78 -73 236 -47 129 -89 202
-116 202 -9 0 -29 7 -45 15 -35 19 -36 19 -36 -1 0 -12 -6 -15 -22 -10 -13 3
-42 6 -65 6 -33 0 -41 3 -37 14 3 8 14 13 25 11 11 -2 17 0 14 4 -2 5 -21 12
-40 15 -40 8 -47 26 -9 26 15 0 23 -4 19 -10 -4 -6 -3 -10 2 -8 10 2 86 -34
94 -45 3 -4 5 9 5 28 l-1 37 -42 -4 c-24 -2 -43 0 -43 4 0 5 -13 8 -29 8 -16
0 -36 3 -45 6 -19 7 -21 40 -4 50 14 9 71 6 134 -5 29 -6 47 -4 60 6 10 7 24
11 30 9 7 -3 32 20 55 51 l42 56 -28 25 c-27 23 -29 23 -36 6 -6 -16 -8 -14
-8 7 -1 23 -30 51 -32 31 -3 -29 -9 -46 -19 -52 -7 -4 -10 -11 -8 -16 1 -5
-35 -16 -82 -24 -47 -8 -90 -18 -97 -23 -8 -5 -14 7 -18 40 -24 187 -114 328
-236 368 -47 16 -145 23 -156 11 -4 -3 15 -6 41 -6 60 0 134 -37 173 -87 34
-43 54 -79 51 -90 -1 -4 6 -31 14 -59 9 -29 19 -77 23 -108 5 -38 12 -56 21
-56 15 0 18 -29 8 -67 -8 -31 -24 -19 -24 18 0 32 -19 39 -44 14 -13 -14 -16
-13 -30 7 -13 18 -26 22 -81 23 -52 1 -68 5 -80 20 -8 11 -15 23 -15 26 0 4
-8 10 -17 13 -15 6 -15 4 2 -14 22 -25 14 -36 -14 -18 -16 9 -23 10 -32 1 -9
-9 -6 -11 12 -7 19 4 21 3 8 -5 -8 -5 -26 -7 -39 -4 -22 6 -22 7 -5 20 11 7
14 13 9 13 -20 0 -34 -23 -23 -37 9 -10 7 -13 -8 -13 -11 0 -23 3 -26 6 -9 9
17 44 50 65 15 11 22 19 14 19 -8 0 -31 -18 -52 -40 -36 -38 -39 -39 -88 -33
l-51 6 0 109 0 108 28 -5 27 -5 -27 11 -28 11 0 133 0 132 43 12 c23 6 181 45
352 86 171 41 324 79 340 85 17 6 62 13 100 16 106 8 135 14 135 28 0 11 98
42 106 33 2 -2 -3 -25 -12 -51 -12 -34 -24 -50 -43 -57 -23 -9 -24 -11 -9 -20
24 -13 68 -112 68 -150 0 -17 -14 -58 -32 -91 -24 -46 -45 -69 -85 -96 -44
-29 -52 -39 -47 -56 6 -19 33 -66 38 -66 2 0 2 21 1 48 -1 52 5 75 14 49 6
-15 8 -14 19 4 10 15 10 19 1 14 -8 -5 -10 -4 -5 4 9 15 25 5 36 -23 9 -21 9
-21 9 2 1 12 7 24 14 26 71 22 106 41 118 63 12 22 11 26 -5 35 -15 8 -16 12
-5 19 10 6 8 9 -9 9 -20 0 -22 4 -17 32 3 17 8 35 11 39 9 15 69 -59 105 -129
18 -35 19 -35 14 -8 -2 16 -1 26 2 22 4 -4 8 -17 10 -29 2 -12 8 -23 13 -25
15 -6 12 -22 -5 -22 -7 0 -18 -7 -23 -16 -5 -8 -17 -16 -27 -18 -11 -2 -19
-13 -21 -30 -2 -20 0 -25 9 -18 7 5 21 12 32 15 14 5 11 0 -10 -18 -32 -27
-45 -31 -45 -14 0 6 -5 7 -12 2 -13 -8 -18 -9 -38 -12 -7 -1 -6 -7 2 -15 10
-11 16 -11 27 -2 11 8 13 8 8 0 -4 -7 0 -14 8 -18 8 -3 14 -1 12 3 -1 5 16 23
38 41 22 17 45 44 52 58 12 25 13 24 8 -18 -4 -25 -13 -55 -21 -67 -13 -20
-13 -23 0 -23 10 0 14 -9 13 -27 -2 -25 1 -28 33 -30 19 -1 29 0 23 3 -7 3
-13 12 -13 19 0 7 -6 16 -12 19 -7 3 -1 4 15 1 15 -3 27 -2 27 3 0 16 -23 30
-38 25 -10 -4 -13 -2 -8 6 4 6 15 10 24 9 10 -2 21 7 27 20 5 12 13 22 17 22
5 0 8 24 8 54 0 45 -4 58 -22 72 -13 9 -16 14 -8 11 19 -6 25 30 8 50 -8 10
-7 12 5 7 8 -3 23 -21 32 -40 9 -19 20 -34 26 -34 24 0 -50 97 -76 100 -5 0
-9 9 -7 20 2 10 -2 21 -8 25 -5 3 -10 15 -10 26 0 12 -4 17 -11 13 -8 -4 -9 0
-4 15 4 13 2 20 -3 19 -6 -2 -31 14 -56 35 l-46 38 0 -30 c0 -32 15 -50 23
-29 8 19 28 -12 23 -34 -2 -9 9 -29 25 -44 27 -26 79 -104 79 -118 0 -13 -33
-5 -78 18 -57 29 -121 96 -181 189 l-44 69 31 25 c37 28 66 78 56 95 -4 7 -3
8 4 4 8 -5 12 5 12 31 0 41 27 89 36 66 3 -7 14 -23 24 -35 21 -26 25 -13 10
28 -9 24 -9 25 5 14 8 -7 16 -10 16 -6 1 3 2 10 3 15 0 5 5 13 10 18 5 5 6 3
2 -4 -8 -14 3 -17 28 -7 12 5 13 10 5 25 -5 10 -8 19 -7 20 43 11 76 0 116
-38 7 -7 19 -14 25 -15 54 -6 67 -17 67 -54 0 -37 -17 -81 -34 -87 -6 -2 -4
-3 5 -2 15 2 17 -17 18 -193 0 -145 4 -199 13 -208 11 -11 12 37 10 255 l-3
269 33 11 c70 22 275 70 313 72 22 2 66 -5 99 -14 108 -33 67 -11 -52 27 -130
43 -362 123 -897 311 -198 70 -445 156 -550 192 -104 35 -192 66 -194 69 -2 2
49 4 113 4 l118 0 336 -121z m2412 84 c0 -21 2 -62 6 -90 6 -51 5 -53 -21 -63
-15 -6 -48 -15 -74 -21 -25 -5 -54 -12 -64 -15 -17 -5 -18 1 -13 83 2 48 5
100 5 116 l1 27 80 0 81 0 -1 -37z m585 -5 c-82 -21 -168 -43 -190 -48 -22 -5
-111 -27 -198 -50 -87 -22 -160 -40 -163 -40 -2 0 -4 24 -4 54 0 30 -4 58 -10
61 -5 3 -10 19 -10 36 l0 29 363 -1 362 -1 -150 -40z m755 -107 l0 -149 -42
-7 c-24 -4 -80 -16 -125 -27 -71 -18 -83 -24 -91 -47 -5 -14 -5 -37 -1 -51 13
-47 9 -91 -18 -173 -26 -80 -27 -81 -35 -49 -5 17 -12 32 -17 32 -5 0 -17 23
-27 50 -18 51 -18 51 -31 25 -13 -23 -43 -35 -43 -17 0 49 69 160 91 146 5 -3
9 1 9 8 0 10 2 10 8 1 6 -10 12 -10 28 2 18 13 17 14 -19 15 -49 0 -84 -21
-119 -70 -26 -35 -30 -37 -53 -27 -31 15 -33 31 -3 21 20 -6 21 -5 10 9 -19
23 -67 30 -108 17 -35 -12 -99 -84 -89 -100 3 -4 -13 -15 -35 -24 -28 -11 -44
-25 -54 -49 -19 -46 -43 -158 -51 -239 -6 -62 -8 -67 -33 -72 -15 -3 -124 -21
-242 -41 -194 -32 -217 -38 -237 -61 -47 -52 -20 -204 38 -213 13 -1 126 12
251 30 125 18 230 30 234 27 3 -4 8 -25 11 -47 6 -46 22 -55 80 -46 32 4 34 4
14 -5 -20 -9 -23 -15 -17 -43 11 -55 65 -160 103 -199 23 -23 33 -42 30 -52
-4 -9 -2 -16 3 -16 6 0 10 7 10 16 0 14 3 14 15 4 20 -16 100 -8 123 13 16 15
17 13 17 -22 0 -54 19 -74 65 -66 l36 6 -2 -40 c-3 -62 -34 -141 -56 -141 -11
0 -27 -13 -36 -30 -18 -32 -68 -46 -128 -37 -19 2 -11 5 22 6 l51 1 9 139 9
139 -78 -1 c-43 -1 -73 -3 -68 -5 6 -2 13 -19 17 -38 3 -19 9 -36 13 -39 10
-6 1 -75 -10 -75 -5 0 -9 10 -9 22 0 12 -3 18 -7 14 -9 -9 -4 -86 8 -108 5
-10 7 -28 3 -42 -5 -22 -11 -24 -107 -31 -347 -24 -530 -43 -544 -57 -23 -24
-28 -90 -9 -126 19 -37 14 -37 246 -22 85 5 199 12 253 15 54 2 114 7 134 11
31 6 35 5 30 -12 -3 -11 -9 -69 -13 -131 -6 -111 -7 -112 -33 -115 -32 -4 -37
-41 -6 -46 19 -3 20 -10 19 -240 -1 -184 -5 -251 -18 -298 -15 -59 -21 -113
-11 -103 2 3 6 14 8 25 11 59 61 139 80 127 6 -4 7 -1 2 8 -5 7 -10 20 -11 29
-1 8 -5 24 -9 34 -7 16 -5 18 8 13 15 -5 16 -3 7 12 -7 15 -5 22 13 35 12 9
16 14 10 11 -8 -4 -13 0 -13 10 0 10 5 13 12 9 8 -5 9 -2 5 9 -4 12 3 24 23
39 23 17 28 27 23 46 -4 18 -2 23 8 20 8 -3 13 -13 11 -23 -2 -9 1 -14 6 -11
17 10 20 -18 4 -30 -13 -9 -12 -12 4 -16 15 -4 19 1 21 20 0 13 10 33 21 44
19 20 19 21 1 39 -30 30 -22 40 15 19 36 -20 38 -18 25 25 -2 6 2 20 8 31 10
17 9 25 -2 40 -13 18 -13 17 -11 -8 2 -16 -1 -28 -7 -28 -6 0 -7 -3 -4 -7 8
-7 -11 -33 -25 -33 -5 0 -4 8 1 19 6 10 7 21 4 25 -3 3 -1 6 6 6 7 0 9 5 6 10
-10 16 -25 1 -25 -25 0 -30 -38 -55 -51 -34 -13 21 -10 36 4 18 12 -16 37 -15
37 2 0 6 -4 8 -9 5 -5 -3 -15 2 -22 11 -12 14 -12 16 0 9 10 -7 12 -3 7 15 -3
13 -3 18 0 12 3 -7 13 -13 22 -13 14 0 14 2 3 9 -10 7 -11 13 -2 27 11 19 11
19 9 0 -2 -11 4 -20 15 -21 9 -2 17 1 17 6 0 18 2 24 10 34 11 14 10 74 -1 80
-5 4 -9 11 -9 16 0 6 5 7 10 4 6 -3 10 -2 10 4 0 6 7 7 17 4 10 -4 14 -2 10 4
-4 6 3 23 14 37 24 31 36 28 19 -3 -8 -17 -8 -21 2 -19 7 2 16 8 20 13 4 6 7
-24 7 -65 -2 -81 7 -158 21 -196 5 -13 7 -24 4 -24 -4 0 -1 -7 6 -15 7 -8 17
-12 23 -8 6 3 7 1 3 -6 -4 -6 -12 -9 -17 -6 -5 4 -9 2 -9 -3 0 -6 7 -13 15
-16 9 -3 15 -13 13 -22 -2 -9 3 -19 11 -22 8 -3 11 0 7 7 -4 6 0 21 8 33 12
16 16 18 16 7 0 -9 -3 -19 -6 -22 -4 -4 -8 -19 -9 -34 -1 -16 -6 -47 -10 -70
-6 -38 -4 -43 12 -44 11 0 13 -3 5 -6 -9 -4 -10 -8 -2 -18 9 -11 7 -12 -8 -9
-16 5 -21 -8 -41 -128 -13 -73 -26 -138 -28 -144 -3 -7 17 -14 54 -19 32 -4
65 -11 74 -15 8 -5 41 -5 72 -1 l57 8 0 -89 c0 -75 -4 -96 -26 -140 -40 -79
-89 -239 -125 -406 -11 -53 -18 -65 -42 -77 -16 -8 -33 -12 -38 -10 -4 3 -11
0 -15 -6 -5 -9 8 -10 48 -7 53 4 54 4 44 -18 -6 -12 -13 -21 -16 -19 -4 2 -7
-16 -9 -40 -1 -24 -4 -54 -6 -67 -3 -13 -8 -53 -11 -90 -6 -57 -9 -66 -25 -63
-10 2 -22 -1 -25 -7 -4 -6 -2 -8 4 -4 6 3 13 2 16 -3 4 -5 -6 -7 -21 -5 -16 3
-34 5 -41 6 -9 1 -9 5 -2 12 17 17 11 27 -9 16 -11 -5 -27 -7 -35 -4 -9 3 -16
1 -16 -5 0 -6 -7 -8 -17 -4 -10 4 -14 2 -10 -4 4 -6 0 -13 -8 -17 -13 -5 -15
12 -15 117 0 167 8 226 29 220 12 -3 16 3 15 29 -3 89 62 356 94 388 8 8 12 9
8 3 -4 -7 -9 -22 -11 -34 -2 -11 -7 -29 -10 -39 -5 -15 0 -21 19 -26 16 -4 23
-11 19 -20 -8 -21 7 -17 27 8 10 13 16 32 14 43 -3 20 -3 20 11 1 8 -11 15
-26 15 -33 0 -7 6 -13 13 -13 19 0 40 71 25 85 -7 6 -9 6 -6 0 3 -5 -4 -19
-15 -29 -16 -15 -19 -16 -14 -3 3 8 -1 21 -8 27 -11 9 -12 17 -5 30 6 10 10
27 10 38 0 10 18 52 40 94 31 58 37 78 27 87 -9 10 -8 11 7 5 12 -5 17 -4 13
3 -3 5 5 16 18 23 47 25 23 40 -31 20 -18 -7 -30 -7 -39 0 -9 7 -16 6 -25 -5
-17 -21 -41 -19 -47 4 -8 32 -121 42 -175 16 -50 -25 -124 -111 -167 -195 -58
-112 -129 -350 -121 -405 5 -36 3 -88 -9 -205 -6 -63 -11 -168 -11 -232 0
-115 -32 -318 -50 -318 -5 0 -6 -9 -3 -20 3 -12 0 -20 -6 -20 -7 0 -9 5 -5 12
4 6 -1 17 -11 25 -11 7 -14 13 -8 13 6 0 13 7 17 15 4 13 2 14 -14 5 -11 -6
-20 -15 -20 -21 0 -5 -6 -4 -14 3 -9 8 -10 15 -4 19 6 4 7 12 4 18 -10 15 7
14 23 -2 11 -10 12 -9 6 3 -15 28 -38 50 -46 44 -15 -9 -10 13 6 26 14 11 19
7 16 -13 0 -4 4 -7 9 -7 15 0 12 16 -6 31 -14 11 -19 10 -35 -10 -18 -22 -24
-17 -20 15 1 6 -5 11 -14 11 -8 0 -12 -4 -9 -9 3 -4 0 -8 -5 -8 -6 0 -11 -4
-11 -10 0 -5 6 -7 14 -4 7 3 16 -2 19 -10 7 -19 3 -20 -23 -6 -22 12 -39 -5
-42 -43 -1 -14 -5 -24 -9 -21 -10 6 8 68 21 72 6 2 10 8 10 13 0 6 -5 7 -10 4
-5 -3 -10 -1 -10 5 0 7 7 10 15 6 8 -3 15 -1 15 4 0 6 15 24 33 42 17 17 26
28 20 24 -10 -5 -11 -1 -4 16 5 13 15 22 21 20 9 -2 11 7 7 30 -3 18 -3 27 0
20 4 -10 8 -9 18 5 9 12 10 22 4 30 -7 7 -6 14 1 18 6 3 8 11 5 16 -4 5 2 6
12 2 15 -6 16 -4 6 8 -7 9 -8 20 -3 29 5 8 7 17 4 21 -2 4 1 31 7 60 5 30 12
65 14 79 7 44 14 73 19 78 3 2 0 14 -6 25 -8 16 -8 19 5 14 9 -3 18 1 21 9 3
8 1 14 -4 14 -6 0 -10 7 -10 15 0 10 6 12 18 8 14 -6 15 -4 5 8 -14 17 -14 30
-2 45 5 6 10 32 10 57 1 26 5 47 8 47 4 0 6 27 6 60 0 35 4 61 11 64 11 4 12
41 1 52 -4 4 -2 13 5 21 6 7 8 16 5 20 -4 3 -2 15 4 26 7 12 7 17 1 13 -10 -6
-11 19 0 29 3 3 1 29 -5 58 -13 75 -10 169 7 208 6 13 -1 14 -51 8 -32 -4
-104 -8 -159 -8 -95 -1 -102 -2 -107 -22 -4 -16 -10 -20 -24 -14 -10 4 -60 10
-110 12 l-93 6 -57 -39 c-32 -21 -70 -49 -85 -63 -16 -14 -28 -20 -28 -14 0
14 52 58 91 79 16 8 38 33 50 57 12 23 44 67 70 98 27 31 49 59 49 62 0 4 -17
11 -37 17 -33 10 -44 8 -83 -10 -25 -12 -34 -19 -20 -15 14 3 40 8 58 12 l32
6 -26 -47 c-14 -25 -28 -46 -30 -46 -3 0 -20 15 -39 34 -33 33 -37 35 -135 41
-55 4 -103 11 -106 16 -3 5 -8 32 -11 61 -3 29 -15 65 -26 80 l-19 26 35 74
c31 67 33 73 16 76 -18 3 -19 21 -19 405 0 221 0 463 1 537 1 74 1 146 1 160
-1 14 0 72 0 130 1 58 1 317 2 577 1 259 4 474 8 478 7 7 93 30 143 39 17 2
55 12 85 20 30 9 204 53 385 97 182 45 331 85 333 90 2 4 9 6 16 3 6 -2 48 4
91 15 64 16 117 20 263 20 l182 1 0 -149z m-1995 89 c3 -5 -1 -10 -10 -10 -9
0 -13 5 -10 10 3 6 8 10 10 10 2 0 7 -4 10 -10z m-17 -20 c22 0 22 -2 22 -134
l0 -134 -42 -10 c-23 -6 -43 -10 -45 -9 -1 2 -6 65 -10 142 -9 147 -7 160 32
150 11 -2 30 -5 43 -5z m-101 -178 c-4 -2 -3 -10 4 -18 16 -20 -8 -53 -60 -82
l-42 -24 1 129 c2 112 0 128 -14 127 -9 -1 -16 1 -16 5 0 4 28 14 63 22 l62
14 5 -85 c3 -47 1 -87 -3 -88z m-2430 56 c-3 -7 -5 -2 -5 12 0 14 2 19 5 13 2
-7 2 -19 0 -25z m2440 -149 c-1 -22 -18 -31 -77 -43 -33 -6 -32 -5 20 28 30
19 56 34 57 35 1 1 1 -8 0 -20z m2078 12 c-17 -4 -29 -13 -27 -20 1 -7 -2 -10
-7 -7 -5 3 -12 -2 -15 -11 -4 -9 -1 -20 6 -25 11 -7 5 -12 -13 -10 -3 1 -4
-18 -2 -41 5 -61 13 -246 13 -287 0 -43 -3 -61 -14 -78 -4 -7 -5 -16 -2 -19 3
-4 -4 -11 -16 -17 -12 -6 -23 -17 -26 -25 -3 -9 0 -11 9 -7 8 4 4 -1 -9 -12
-15 -14 -18 -22 -10 -26 7 -3 4 -4 -6 -3 -14 1 -19 -5 -20 -25 -1 -14 2 -24 6
-22 19 12 6 -26 -14 -40 -28 -20 -38 -12 -38 31 0 27 3 34 15 30 8 -4 17 -1
21 5 5 7 2 8 -7 3 -11 -7 -12 -6 -2 7 7 8 9 19 5 23 -4 5 -1 5 7 0 10 -5 12
-3 8 11 -3 11 -9 43 -12 73 -4 30 -9 63 -11 75 -3 12 -5 38 -5 58 0 25 -8 45
-25 63 -13 14 -25 33 -25 41 -1 7 -2 20 -3 27 -4 23 6 28 20 10 12 -16 13 -15
10 14 -2 18 2 34 8 37 6 2 3 5 -6 5 -19 1 -26 19 -30 80 -3 52 2 55 107 65 38
4 74 11 79 16 6 6 21 9 36 9 23 -1 23 -2 -5 -8z m-515 -121 c0 -7 -28 -45 -52
-71 -17 -18 -48 -17 -48 2 0 19 62 78 80 76 11 -1 20 -4 20 -7z m-2719 -37
c11 -15 11 -16 -1 -5 -8 6 -18 12 -23 12 -4 0 -5 -6 -1 -12 4 -7 4 -10 -1 -6
-4 4 -24 -2 -45 -12 l-38 -19 5 22 c8 39 -62 -47 -76 -93 -6 -22 -21 -59 -31
-82 l-20 -43 1 35 c1 19 1 40 0 46 -1 17 -28 25 -53 15 -18 -6 -19 -9 -5 -14
12 -4 17 -18 17 -45 l0 -39 -66 -18 c-49 -13 -86 -16 -146 -12 -72 5 -83 8
-104 33 -18 20 -24 23 -24 11 0 -21 -8 -21 -95 2 -70 18 -70 18 -40 30 19 8
50 10 81 6 45 -5 52 -4 50 11 -1 17 34 34 103 49 29 6 33 5 28 -9 -4 -10 -3
-15 3 -11 6 4 23 8 38 11 15 2 38 9 52 14 14 5 50 11 80 14 76 7 130 28 154
62 33 47 57 61 101 62 30 2 46 -3 56 -15z m2693 -49 c15 -6 14 -10 -3 -38 -10
-17 -22 -42 -26 -56 -4 -14 -14 -32 -21 -41 -23 -26 -37 -181 -31 -348 3 -94
2 -149 -4 -140 -5 8 -9 10 -9 6 0 -5 -7 -1 -16 7 -8 9 -19 14 -24 11 -12 -8
-20 21 -21 78 -1 89 -18 102 -18 14 -1 -59 -5 -79 -16 -83 -17 -7 -45 18 -45
40 0 8 -5 18 -10 21 -6 4 -9 1 -8 -6 3 -15 -96 -34 -217 -42 -73 -5 -77 -4
-45 7 19 7 41 11 48 8 6 -2 12 1 12 8 0 9 -11 11 -37 6 -21 -3 -46 -6 -57 -6
-13 0 -17 -5 -13 -20 3 -13 0 -20 -10 -20 -9 0 -12 6 -9 18 6 17 2 18 -54 9
-33 -5 -60 -13 -60 -16 0 -4 -18 -5 -41 -3 -34 4 -40 7 -37 25 2 14 12 21 33
24 17 2 46 6 65 10 19 3 44 7 55 8 11 1 47 8 80 14 33 6 85 14 115 17 30 4 57
10 58 15 2 5 8 7 12 4 5 -3 25 1 45 9 20 9 33 11 30 7 -3 -5 4 -7 15 -4 14 4
20 13 18 27 -6 51 14 141 37 161 12 11 26 28 31 37 6 10 8 -15 7 -70 -2 -75 0
-81 8 -47 5 22 9 56 9 75 0 29 6 40 30 58 16 13 30 29 30 38 0 8 11 37 25 64
14 27 25 56 25 65 0 13 20 55 27 55 1 0 9 -3 17 -6z m112 -59 c-7 -20 -17
-253 -10 -237 12 26 34 12 35 -23 1 -19 1 -46 2 -59 1 -28 -19 -56 -39 -56 -8
0 -14 -5 -14 -10 0 -6 16 -10 37 -8 39 3 85 39 78 61 -3 6 5 23 16 37 11 14
18 20 15 13 -4 -6 -10 -34 -16 -61 -7 -39 -5 -62 9 -110 11 -34 16 -63 13 -66
-3 -3 6 -6 20 -6 29 0 45 -35 26 -57 -8 -10 -7 -13 5 -13 8 0 18 6 20 13 3 6
5 -6 4 -28 -1 -22 -5 -42 -9 -45 -4 -3 -3 -12 1 -19 7 -11 10 -9 16 8 3 11 10
21 15 21 5 0 17 3 27 6 16 6 16 5 -2 -10 -16 -13 -17 -15 -2 -10 12 5 17 1 17
-14 0 -25 16 -37 24 -20 3 7 4 -17 1 -54 -4 -48 -2 -68 6 -68 6 0 9 -9 6 -19
-4 -15 -1 -18 12 -13 24 9 41 28 33 37 -4 4 4 2 17 -5 16 -8 21 -9 16 -1 -4 7
-2 17 3 24 5 7 13 36 17 65 4 28 10 52 14 52 15 0 31 -42 25 -67 -5 -20 -4
-24 6 -18 9 5 11 4 6 -4 -4 -6 -12 -9 -17 -6 -5 4 -9 -4 -9 -15 0 -16 5 -20
15 -16 13 5 15 -18 15 -164 0 -94 -3 -170 -7 -170 -4 0 -18 12 -30 27 -13 14
-23 21 -23 15 0 -7 -8 -12 -17 -13 -28 0 -64 -54 -100 -148 -29 -73 -33 -79
-27 -41 7 49 65 222 95 284 10 22 19 46 19 53 0 7 5 13 10 13 6 0 10 7 10 15
0 8 -4 15 -10 15 -5 0 -10 7 -10 17 0 14 -2 14 -21 -3 -12 -10 -23 -18 -26
-17 -15 4 -21 29 -10 43 11 13 10 13 -8 1 -11 -8 -32 -26 -47 -39 -25 -23 -26
-23 -22 -4 6 22 -10 36 -41 37 -41 0 -113 205 -130 370 -6 53 -10 64 -16 47
-5 -12 -15 -22 -23 -22 -7 0 -24 -13 -37 -30 -13 -16 -28 -30 -32 -30 -5 0
-18 -10 -29 -22 -11 -13 -17 -17 -13 -10 3 6 1 12 -4 12 -6 0 -10 3 -9 8 2 11
-13 104 -22 133 -7 23 -6 25 16 21 36 -7 59 5 45 22 -22 26 -6 278 24 388 6
24 10 26 27 17 11 -6 17 -17 14 -24z m-3256 -9 c0 -3 -4 -8 -10 -11 -5 -3 -10
-1 -10 4 0 6 5 11 10 11 6 0 10 -2 10 -4z m197 -103 c-2 -16 -4 -5 -4 22 0 28
2 40 4 28 2 -13 2 -35 0 -50z m2806 12 c-3 -9 -8 -14 -10 -11 -3 3 -2 9 2 15
9 16 15 13 8 -4z m-3301 -46 c111 -27 127 -33 130 -52 3 -21 -15 -26 -322
-103 l-325 -82 -3 39 c-2 22 -7 39 -13 39 -5 0 -9 16 -9 35 0 38 27 61 61 52
10 -3 19 -2 19 2 0 4 30 15 67 25 54 14 68 15 74 4 7 -10 9 -9 9 5 0 18 34 24
45 8 3 -6 33 -2 71 9 65 19 89 30 66 30 -7 0 -12 5 -12 10 0 14 -2 14 142 -21z
m-182 1 c0 -5 -4 -10 -10 -10 -5 0 -10 5 -10 10 0 6 5 10 10 10 6 0 10 -4 10
-10z m337 -55 c0 -8 -4 -12 -9 -9 -4 3 -8 9 -8 15 0 5 4 9 8 9 5 0 9 -7 9 -15z
m54 -3 c-7 -2 -18 1 -23 6 -8 8 -4 9 13 5 13 -4 18 -8 10 -11z m-763 -117 c0
-41 -4 -75 -9 -75 -5 0 -9 34 -9 75 0 41 4 75 9 75 5 0 9 -34 9 -75z m19 -47
c-2 -13 -4 -5 -4 17 -1 22 1 32 4 23 2 -10 2 -28 0 -40z m1053 12 c16 -22 18
-30 8 -30 -8 0 -22 16 -31 36 -20 40 -8 37 23 -6z m2285 -190 c-3 -5 -12 -7
-20 -3 -21 7 -19 13 6 13 11 0 18 -4 14 -10z m-52 -7 c-7 -2 -19 -2 -25 0 -7
3 -2 5 12 5 14 0 19 -2 13 -5z m1257 -50 c0 -21 -3 -24 -9 -14 -5 8 -7 20 -4
28 8 21 13 15 13 -14z m-3310 -72 c0 -5 -10 -11 -22 -14 -22 -6 -22 -6 -4 8
23 17 26 18 26 6z m3170 -246 c5 3 12 0 16 -6 4 -7 3 -9 -3 -6 -5 4 -16 -5
-23 -18 -7 -14 -17 -25 -22 -25 -5 0 -6 -5 -3 -10 3 -6 -1 -13 -9 -16 -9 -3
-13 -11 -9 -17 3 -6 1 -7 -6 -3 -6 4 -25 -2 -41 -14 -22 -16 -28 -17 -24 -6 3
9 13 16 21 16 8 0 11 5 8 10 -3 6 3 10 14 10 22 0 29 26 10 32 -6 2 -3 13 9
28 17 21 22 22 36 11 10 -8 16 -9 16 -3 0 6 -4 14 -10 17 -5 3 -10 12 -10 18
0 7 5 4 11 -6 6 -9 14 -15 19 -12z m55 -13 c-3 -3 -11 0 -18 7 -9 10 -8 11 6
5 10 -3 15 -9 12 -12z m-2451 -151 c8 -40 11 -82 9 -92 -4 -16 0 -19 25 -19
33 0 99 -25 86 -32 -5 -3 -29 -6 -54 -7 -32 -1 -41 1 -30 8 12 9 12 11 -3 17
-10 3 -19 5 -21 3 -2 -2 13 -51 32 -109 29 -88 36 -123 40 -217 3 -96 1 -119
-17 -167 -12 -31 -21 -75 -21 -97 0 -22 -5 -42 -12 -44 -11 -5 -198 -12 -198
-9 0 1 9 31 20 66 13 42 34 81 58 109 38 44 77 144 46 118 -8 -6 -14 -23 -14
-38 0 -14 -5 -33 -11 -41 -8 -11 -9 10 -5 74 3 49 10 92 15 96 17 10 -3 185
-22 197 -7 4 -36 8 -64 8 -29 0 -53 3 -53 8 0 4 0 12 0 18 0 5 5 7 10 4 6 -3
10 -2 10 4 0 6 -12 13 -27 16 -65 14 -62 16 -51 -23 12 -43 15 -143 4 -160
-18 -30 -26 -5 -26 89 0 80 -3 99 -12 91 -9 -7 -24 -6 -48 2 -28 9 -34 16 -32
34 2 13 -2 30 -8 38 -9 10 -9 14 -1 14 6 0 10 6 8 13 -1 7 10 13 26 15 35 4
98 -33 90 -54 -4 -11 4 -14 31 -14 29 0 36 4 36 19 0 26 18 37 26 17 3 -9 17
-16 30 -16 13 0 39 -9 59 -20 40 -23 69 -26 62 -7 -2 6 -10 11 -16 10 -6 -2
-10 3 -8 10 1 7 -11 13 -31 15 -18 2 -36 10 -39 18 -3 7 -10 11 -16 7 -7 -4
-8 5 -4 26 5 24 4 30 -6 25 -8 -5 -8 -3 1 7 7 8 16 14 20 14 17 0 72 66 73 87
1 27 15 -25 33 -131z m2229 120 c-6 -25 -89 -35 -98 -12 -8 20 13 31 62 31 36
0 40 -3 36 -19z m57 -1 c0 -15 -6 -19 -22 -16 -33 5 -23 23 20 35 1 1 2 -8 2
-19z m-4126 -25 c20 1 36 -2 36 -7 0 -4 -4 -8 -10 -8 -5 0 -7 -7 -3 -16 5 -13
7 -13 14 -2 5 7 9 9 9 3 0 -5 -4 -16 -9 -23 -7 -11 -9 -11 -14 2 -8 19 -33 21
-40 4 -3 -8 -6 -6 -6 5 -1 9 -8 17 -17 17 -8 0 -13 -4 -10 -8 3 -5 -9 -6 -27
-3 -31 4 -32 5 -7 12 14 5 -1 5 -34 2 -42 -4 -57 -3 -52 6 5 7 -1 11 -13 11
-12 0 -21 6 -21 13 0 11 15 12 84 2 46 -6 100 -10 120 -10z m1786 22 c0 -2
-10 -12 -22 -23 l-23 -19 19 23 c18 21 26 27 26 19z m-1383 -29 c-3 -8 -6 -5
-6 6 -1 11 2 17 5 13 3 -3 4 -12 1 -19z m1904 -51 c29 -62 15 -55 -19 8 -17
31 -24 51 -16 44 8 -7 24 -30 35 -52z m-717 12 c-3 -5 0 -17 8 -26 9 -12 9
-15 1 -9 -8 4 -13 2 -14 -6 -1 -15 -28 41 -29 60 0 10 5 10 20 2 11 -6 18 -15
14 -21z m96 -9 c-13 -24 -16 -25 -24 -4 -3 8 -2 12 3 9 5 -3 12 -1 16 5 11 19
16 10 5 -10z m-1436 1 c3 -4 21 -7 41 -6 40 2 39 4 24 -50 -10 -34 -13 -37
-20 -20 -4 11 -8 15 -8 9 -1 -6 -12 -9 -26 -6 -20 3 -25 0 -25 -17 0 -11 4
-21 10 -21 5 0 12 -11 16 -24 6 -27 -49 -146 -69 -146 -8 0 -7 -4 3 -10 12 -8
9 -15 -20 -46 -57 -59 -126 -94 -188 -94 -55 0 -112 19 -146 48 -20 16 -20 16
-7 -1 16 -20 62 -46 98 -56 20 -6 19 -9 -27 -57 -47 -50 -50 -51 -66 -33 -9
11 -23 19 -31 19 -16 0 -18 92 -2 122 8 14 8 23 0 31 -14 14 -15 127 -1 127 6
0 10 -12 10 -26 0 -30 48 -80 97 -100 71 -30 185 -2 188 46 1 14 4 31 6 39 2
7 -1 15 -7 18 -6 2 -15 -11 -20 -29 -10 -36 -44 -47 -65 -22 -16 20 -1 54 24
55 53 2 -44 20 -141 26 l-102 6 0 106 0 106 50 -3 c40 -3 50 -7 50 -22 0 -10
12 -32 26 -49 26 -31 48 -39 58 -22 4 5 -2 7 -11 5 -19 -4 -49 29 -55 62 -3
20 -1 20 46 8 21 -5 27 -4 22 5 -4 6 -3 11 2 11 6 0 13 -7 16 -16 3 -8 11 -12
17 -8 7 4 9 3 6 -4 -4 -5 -16 -8 -27 -5 -25 7 -25 2 0 -39 11 -18 20 -40 20
-49 0 -20 48 -35 63 -20 7 7 5 23 -7 49 -15 32 -16 44 -6 62 9 16 17 20 33 15
12 -4 30 -7 40 -8 9 -1 17 -5 17 -10 0 -5 7 -4 15 3 12 10 15 10 15 0 0 -7 7
-10 15 -6 8 3 15 0 16 -7 0 -7 4 -3 8 8 5 11 4 23 -2 26 -11 7 -1 29 13 29 5
0 11 -4 14 -9z m1987 -75 c35 -73 36 -79 4 -64 -14 6 -25 17 -25 25 0 8 -6 26
-14 41 -7 15 -16 40 -20 56 -7 27 -6 28 9 16 10 -8 30 -41 46 -74z m-295 49
c-4 -10 1 -15 14 -15 16 0 19 -6 17 -30 -5 -38 -15 -48 -24 -24 -3 10 -12 23
-20 27 -16 10 -17 29 -1 45 16 16 21 15 14 -3z m-1536 -41 c0 -8 6 -14 14 -14
18 0 29 -17 21 -30 -5 -8 -11 -8 -20 0 -7 6 -20 8 -29 4 -11 -4 -16 -1 -16 10
0 9 4 16 9 16 5 0 7 10 3 22 -3 14 -2 19 6 14 7 -4 12 -14 12 -22z m1961 -132
c-8 -12 -10 0 -10 48 l1 65 9 -48 c6 -31 6 -54 0 -65z m1775 47 c0 -18 -5 -26
-15 -25 -9 1 -15 -4 -14 -10 3 -17 -37 -5 -44 13 -8 20 26 53 52 51 16 -2 21
-9 21 -29z m-2166 6 c0 -8 -2 -15 -4 -15 -2 0 -6 7 -10 15 -3 8 -1 15 4 15 6
0 10 -7 10 -15z m27 -7 c-3 -8 -6 -5 -6 6 -1 11 2 17 5 13 3 -3 4 -12 1 -19z
m28 -8 c-3 -16 0 -18 13 -11 23 11 42 3 42 -18 0 -12 -7 -17 -22 -15 -13 1
-28 3 -34 3 -7 1 -12 17 -12 36 0 19 4 33 8 30 5 -3 7 -14 5 -25z m-545 -19
c0 -4 -11 -8 -24 -9 -24 -2 -42 21 -31 39 6 9 55 -18 55 -30z m2793 16 c7 3 5
-2 -4 -13 -9 -10 -20 -29 -23 -41 -11 -35 -25 -27 -19 10 5 36 25 66 31 48 2
-6 9 -8 15 -4z m-2023 -65 c-5 -22 -16 -42 -24 -45 -10 -4 -12 0 -9 14 3 10 9
19 14 19 5 0 9 15 9 33 0 19 3 37 8 41 12 13 14 -20 2 -62z m-1677 43 c-3 -9
-8 -14 -10 -11 -3 3 -2 9 2 15 9 16 15 13 8 -4z m-221 -8 c-6 -7 -7 -18 -2
-26 9 -16 -7 -71 -21 -71 -19 0 -20 30 -3 70 10 22 22 40 27 40 5 0 5 -6 -1
-13z m1638 -19 c0 -7 -4 -19 -9 -26 -7 -11 -10 -10 -15 3 -10 26 -7 35 9 35 8
0 15 -6 15 -12z m438 -11 c2 -12 -3 -17 -17 -17 -15 0 -21 6 -21 21 0 25 33
22 38 -4z m-1858 9 c0 -3 -4 -8 -10 -11 -5 -3 -10 -1 -10 4 0 6 5 11 10 11 6
0 10 -2 10 -4z m1070 -61 c0 -62 -16 -75 -22 -17 -4 46 0 72 13 72 5 0 9 -25
9 -55z m717 18 c-3 -10 -5 -4 -5 12 0 17 2 24 5 18 2 -7 2 -21 0 -30z m-1980
-35 c-2 -13 -4 -3 -4 22 0 25 2 35 4 23 2 -13 2 -33 0 -45z m1370 30 c-3 -8
-6 -5 -6 6 -1 11 2 17 5 13 3 -3 4 -12 1 -19z m2623 -25 l0 -43 -38 0 c-47 0
-82 24 -82 55 0 27 15 33 78 32 l42 0 0 -44z m-2384 0 c-10 -10 -19 5 -10 18
6 11 8 11 12 0 2 -7 1 -15 -2 -18z m-2030 -4 c10 -12 37 -30 59 -40 36 -16 37
-18 15 -19 -45 -4 -65 1 -103 26 -31 21 -36 28 -26 40 16 20 33 18 55 -7z
m3864 17 c0 -11 -19 -15 -25 -6 -3 5 1 10 9 10 9 0 16 -2 16 -4z m-1554 -70
c-28 -48 -63 -78 -121 -102 -59 -24 -62 -4 -4 25 39 19 66 42 98 85 50 66 67
60 27 -8z m112 -511 c-2 -2 -12 -5 -23 -9 -19 -5 -20 -1 -18 54 1 46 -2 60
-13 60 -14 0 -20 -34 -16 -94 2 -26 0 -28 -23 -22 -14 4 -46 9 -72 12 -26 3
-78 20 -115 37 -65 31 -68 33 -68 69 0 20 9 52 19 70 11 18 20 42 21 53 6 59
-9 74 -27 28 -10 -26 -11 -24 -12 23 l-1 51 59 0 c112 0 230 85 269 195 17 49
17 48 20 -238 1 -158 1 -288 0 -289z m1602 564 c0 -22 -22 -50 -36 -45 -8 3
-14 -1 -14 -8 0 -19 -14 -23 -104 -25 -54 -2 -76 1 -71 9 10 16 -18 7 -32 -10
-11 -13 -12 -13 -13 3 0 9 -5 17 -11 17 -5 0 -7 -4 -4 -10 3 -5 -1 -10 -10
-10 -9 0 -13 4 -10 10 7 11 -23 2 -42 -13 -9 -6 -13 -6 -13 2 0 7 -21 11 -56
11 -30 0 -53 -4 -50 -9 3 -4 -20 -6 -50 -4 -31 3 -62 2 -70 -1 -9 -3 -69 -8
-135 -10 -98 -4 -119 -2 -119 10 0 10 14 14 53 15 28 0 61 2 72 3 29 4 157 15
250 21 44 3 99 8 123 11 23 3 71 7 105 9 140 10 192 16 195 25 5 14 42 13 42
-1z m-3671 -26 c28 7 28 -17 -1 -37 -12 -9 -17 -16 -11 -16 6 0 21 12 32 27
43 54 40 -7 -4 -71 -26 -38 -30 -69 -19 -150 4 -29 13 -50 22 -54 19 -7 62 41
62 69 0 10 6 19 13 19 11 0 12 -11 5 -56 -14 -88 -45 -135 -104 -154 -44 -15
-45 -35 -2 -26 18 3 35 11 39 17 3 6 7 -2 8 -18 5 -91 7 -109 14 -121 5 -7 7
-22 6 -35 -1 -12 0 -35 4 -52 8 -36 18 -162 21 -260 3 -124 -21 -264 -94 -549
-40 -154 -73 -286 -75 -295 -2 -9 -14 -51 -28 -93 -13 -42 -22 -80 -19 -83 3
-3 0 -5 -7 -5 -9 0 -8 -4 3 -15 8 -8 27 -15 43 -15 19 0 24 -3 15 -9 -7 -4
-31 -5 -53 -1 -22 4 -61 6 -87 4 -36 -3 -43 -2 -27 6 15 7 9 8 -24 4 -34 -5
-42 -3 -36 6 6 10 2 12 -13 8 -12 -4 -20 -2 -16 3 3 5 -3 9 -12 9 -10 0 -15 3
-11 6 3 4 20 2 36 -4 24 -9 34 -8 46 4 10 10 15 11 15 3 0 -8 5 -8 17 2 14 12
16 12 8 0 -5 -10 -4 -12 4 -7 6 4 18 3 25 -4 11 -9 14 -5 12 20 -1 17 -9 36
-17 41 -12 8 -12 9 0 9 11 0 9 4 -5 15 -11 9 -13 14 -5 13 8 -2 14 6 16 19 1
12 -2 20 -7 17 -4 -3 -8 0 -8 5 0 6 4 11 10 11 5 0 7 7 4 15 -4 8 -11 12 -18
8 -7 -4 -7 -1 1 9 7 8 10 18 7 21 -4 3 -2 20 4 36 8 24 8 31 -1 31 -11 0 -53
-96 -49 -111 1 -4 -9 -5 -21 -2 -18 4 -19 3 -7 -6 9 -7 10 -11 3 -11 -18 0
-27 21 -13 30 9 5 8 9 -3 13 -9 3 -28 27 -44 54 -22 38 -28 61 -29 110 -1 35
-5 69 -10 76 -5 7 -1 4 9 -6 9 -11 17 -26 17 -34 0 -8 11 -29 25 -47 14 -18
25 -38 25 -44 0 -28 20 -8 30 29 12 42 12 42 -38 93 -47 49 -63 78 -77 140
l-6 29 28 -18 c57 -37 109 -87 147 -140 22 -30 42 -53 44 -50 2 2 25 87 51
190 26 102 49 183 53 180 3 -3 3 6 0 21 -3 17 -1 25 5 21 6 -4 8 4 5 20 -3 16
-1 24 5 20 18 -11 24 39 16 121 -5 42 -8 102 -8 134 0 31 -3 54 -7 51 -5 -2
-8 1 -8 6 0 6 5 11 10 11 6 0 10 8 10 18 0 14 -2 15 -10 2 -8 -13 -10 -13 -10
1 0 9 7 20 15 23 13 4 14 10 5 26 -6 11 -8 20 -5 20 4 0 3 6 -1 12 -6 9 -10 5
-15 -12 -6 -23 -7 -22 -8 8 -1 18 3 31 8 28 5 -4 7 3 4 14 -3 11 -8 18 -12 16
-4 -3 -15 61 -24 142 -10 81 -25 202 -34 269 l-16 121 59 60 c34 35 62 56 65
50 4 -6 16 -8 28 -5z m1711 -13 c0 -18 -19 -11 -30 11 -11 19 -10 20 9 9 12
-6 21 -15 21 -20z m-289 8 c1 -7 1 -30 1 -50 0 -26 4 -38 14 -38 8 0 14 -8 14
-18 0 -14 -13 -22 -52 -31 -85 -21 -153 -58 -198 -107 -42 -45 -90 -134 -90
-166 0 -21 -16 -24 -23 -4 -3 7 -18 16 -33 19 -26 5 -27 4 -10 -8 15 -12 4
-14 -82 -17 l-100 -3 -20 32 c-17 26 -20 41 -15 82 l6 51 107 0 c103 0 108 -1
103 -20 -4 -14 -14 -20 -37 -21 l-31 -1 30 -7 c29 -6 31 -4 63 61 18 37 43 75
57 86 13 11 22 22 19 24 -10 11 103 85 130 86 5 0 12 5 15 10 5 8 106 50 124
51 4 1 7 -5 8 -11z m294 -94 c-7 -38 -25 -46 -25 -11 0 31 24 82 28 61 2 -9 1
-31 -3 -50z m-1636 -59 c0 -39 0 -40 -13 -15 -11 18 -11 30 -4 44 9 16 7 22
-5 30 -12 8 -13 14 -4 35 12 24 12 24 19 -15 4 -21 7 -57 7 -79z m1558 93 c-3
-8 -6 -5 -6 6 -1 11 2 17 5 13 3 -3 4 -12 1 -19z m1640 6 c-3 -3 -12 -4 -19
-1 -8 3 -5 6 6 6 11 1 17 -2 13 -5z m-3465 -67 c-16 -19 -8 -49 14 -58 15 -6
12 -8 -13 -8 -31 -1 -33 1 -33 33 0 24 5 36 18 39 9 3 19 5 21 6 2 0 -1 -5 -7
-12z m3768 4 c0 -16 -18 -22 -23 -9 -3 7 -6 2 -7 -12 -1 -23 -2 -23 -11 -6 -9
14 -8 20 2 27 18 12 39 11 39 0z m50 0 c0 -10 -28 -41 -36 -41 -3 0 0 10 7 21
8 15 8 19 0 15 -6 -4 -11 -2 -11 3 0 6 9 11 20 11 11 0 20 -4 20 -9z m430 -75
c0 -77 -3 -88 -37 -150 -36 -66 -46 -73 -71 -57 -11 6 -9 28 8 112 35 175 36
179 70 179 l30 0 0 -84z m-2423 12 c-3 -8 -6 -5 -6 6 -1 11 2 17 5 13 3 -3 4
-12 1 -19z m-1440 -80 c-2 -18 -4 -4 -4 32 0 36 2 50 4 33 2 -18 2 -48 0 -65z
m3398 53 c0 -23 -22 -24 -28 -1 -4 16 -1 20 11 18 9 -2 17 -10 17 -17z m135
-25 c0 -2 -8 -10 -17 -17 -16 -13 -17 -12 -4 4 13 16 21 21 21 13z m-3213
-113 c-2 -21 -4 -4 -4 37 0 41 2 58 4 38 2 -21 2 -55 0 -75z m795 37 c22 0 24
-4 22 -42 -2 -24 -3 -49 -3 -56 -1 -9 -13 -12 -38 -10 l-38 3 -3 75 c-3 74 -3
74 16 52 11 -12 30 -22 44 -22z m2408 -4 c0 -2 -9 -2 -20 1 -11 3 -20 9 -20
15 0 5 9 4 20 -2 11 -6 20 -12 20 -14z m-3614 -73 c-2 -3 -9 -2 -15 1 -7 5 -6
16 2 34 l12 27 3 -29 c2 -15 1 -30 -2 -33z m1521 -10 c-3 -10 -5 -4 -5 12 0
17 2 24 5 18 2 -7 2 -21 0 -30z m-2123 -14 c10 -49 7 -139 -4 -139 -6 0 -10
30 -10 69 0 38 -3 76 -6 85 -3 9 -2 16 4 16 5 0 12 -14 16 -31z m3959 14 c-7
-2 -21 -2 -30 0 -10 3 -4 5 12 5 17 0 24 -2 18 -5z m-2113 -40 c0 -10 -26 -13
-95 -13 -78 0 -95 3 -95 15 0 12 16 14 95 12 68 -1 95 -6 95 -14z m-460 -7 c0
-8 -4 -17 -9 -20 -10 -7 -23 19 -14 28 11 11 23 6 23 -8z m775 -9 c15 -4 14
-5 -7 -6 -21 -1 -28 4 -28 17 0 11 3 13 8 6 4 -7 16 -14 27 -17z m-660 3 c-16
-4 -48 -8 -70 -8 l-40 1 35 7 c19 4 51 7 70 8 l35 0 -30 -8z m-1388 -6 c-3 -3
-12 -4 -19 -1 -8 3 -5 6 6 6 11 1 17 -2 13 -5z m4370 0 c-3 -3 -12 -4 -19 -1
-8 3 -5 6 6 6 11 1 17 -2 13 -5z m-4197 -25 c0 -5 -49 -9 -115 -9 -63 0 -115
3 -115 8 0 4 52 8 115 9 67 1 115 -2 115 -8z m1506 -8 c-8 -12 -46 -21 -46
-11 0 5 10 11 23 13 12 2 23 5 25 6 2 0 1 -3 -2 -8z m-251 -11 c8 -13 -15 -13
-35 0 -12 8 -11 10 7 10 12 0 25 -4 28 -10z m-1318 -17 c-31 -2 -83 -2 -115 0
-31 2 -5 3 58 3 63 0 89 -1 57 -3z m403 -33 c0 -5 -2 -10 -4 -10 -3 0 -8 5
-11 10 -3 6 -1 10 4 10 6 0 11 -4 11 -10z m1760 6 c0 -2 -7 -7 -16 -10 -8 -3
-12 -2 -9 4 6 10 25 14 25 6z m-65 -16 c-11 -5 -27 -9 -35 -9 -13 -1 -13 0 0
9 8 5 24 9 35 9 l20 0 -20 -9z m1868 -14 c4 -10 1 -13 -8 -9 -8 3 -12 9 -9 14
7 12 11 11 17 -5z m-3550 -93 c3 -35 1 -63 -4 -63 -5 0 -9 6 -10 13 0 6 -3 21
-5 32 -9 34 -12 99 -6 109 8 14 19 -23 25 -91z m3458 69 c-7 -2 -18 1 -23 6
-8 8 -4 9 13 5 13 -4 18 -8 10 -11z m28 -3 c-13 -8 -12 -10 10 -13 5 0 13 -5
18 -9 6 -7 -46 -5 -64 2 -2 1 5 9 15 19 9 11 21 17 26 14 4 -2 2 -8 -5 -13z
m-3776 -26 c-7 -2 -19 -2 -25 0 -7 3 -2 5 12 5 14 0 19 -2 13 -5z m857 -5 c0
-7 -3 -24 -7 -37 -6 -23 -7 -23 -14 -5 -7 16 -8 17 -8 2 -1 -19 -16 -24 -25
-9 -7 10 31 61 45 61 5 0 9 -6 9 -12z m1576 -64 c244 -75 264 -92 264 -237 0
-85 -1 -91 -49 -185 -28 -57 -51 -117 -55 -146 -4 -29 -18 -69 -36 -96 -17
-26 -30 -54 -30 -63 0 -9 -4 -19 -10 -22 -6 -4 -5 -13 3 -25 18 -30 29 -24 22
11 -12 53 12 25 62 -74 29 -58 48 -85 51 -74 2 9 8 15 13 12 5 -3 6 0 3 8 -3
9 3 17 18 21 18 5 20 8 9 15 -8 5 -9 11 -3 15 17 10 22 -23 6 -39 -9 -8 -12
-15 -7 -15 5 0 14 5 20 11 8 8 13 8 17 0 4 -6 2 -11 -3 -11 -6 0 -11 -5 -11
-10 0 -6 10 -4 23 5 13 8 26 13 29 10 8 -8 45 54 54 90 4 17 18 51 31 78 14
26 25 56 26 67 1 10 3 17 6 15 2 -3 19 16 37 43 80 117 164 178 233 167 44 -7
55 -16 14 -13 -49 5 -138 -64 -200 -153 -47 -70 -124 -231 -139 -291 -3 -16
-10 -28 -16 -28 -5 0 -8 -6 -7 -12 3 -24 -1 -34 -18 -54 -10 -10 -19 -26 -20
-34 -1 -8 -7 -37 -12 -65 -6 -27 -13 -71 -16 -96 l-6 -46 -52 4 c-82 7 -80 6
-73 71 9 79 10 85 20 100 7 11 -61 158 -114 245 l-17 27 -31 -78 c-17 -44 -35
-108 -39 -143 l-8 -64 -78 -9 c-42 -5 -80 -7 -83 -3 -3 3 1 41 9 84 9 43 18
148 22 233 3 85 10 172 14 193 5 21 35 79 67 129 43 69 55 94 47 106 -15 24
-30 25 -36 3 -7 -26 -50 -43 -79 -32 -13 5 -33 20 -46 34 l-23 24 49 7 c53 7
106 35 66 36 -11 0 -42 -7 -67 -16 -59 -20 -71 -15 -97 35 -38 75 -22 200 31
245 41 35 72 33 215 -10z m1294 26 c0 -3 -12 -10 -26 -17 -15 -7 -24 -10 -20
-6 3 3 2 11 -4 17 -6 9 0 12 21 11 16 0 29 -2 29 -5z m433 3 c-7 -2 -21 -2
-30 0 -10 3 -4 5 12 5 17 0 24 -2 18 -5z m24 -15 c-3 -8 -6 -5 -6 6 -1 11 2
17 5 13 3 -3 4 -12 1 -19z m-70 -45 c-3 -10 -5 -4 -5 12 0 17 2 24 5 18 2 -7
2 -21 0 -30z m70 5 c-3 -8 -6 -5 -6 6 -1 11 2 17 5 13 3 -3 4 -12 1 -19z m-85
-50 c-7 -7 -12 -8 -12 -2 0 14 12 26 19 19 2 -3 -1 -11 -7 -17z m-3702 -23 c3
-2 3 -39 -2 -81 -5 -43 -6 -83 -4 -89 2 -5 5 1 6 15 1 14 6 34 11 45 6 14 7 1
3 -40 -7 -75 -24 -146 -33 -140 -4 2 -7 -6 -7 -17 1 -16 -7 -23 -29 -28 l-30
-6 -1 181 -1 182 40 -9 c22 -5 43 -11 47 -13z m470 -7 c0 -5 -4 -8 -10 -8 -5
0 -10 10 -10 23 0 18 2 19 10 7 5 -8 10 -18 10 -22z m322 8 c9 0 14 -4 12 -8
-3 -4 1 -8 8 -8 9 -1 7 -5 -4 -14 -10 -7 -14 -17 -10 -21 4 -5 0 -6 -9 -2 -9
3 -22 0 -28 -6 -8 -8 -11 -8 -11 1 0 7 -6 11 -12 10 -8 -2 -14 10 -16 29 -3
30 -2 32 25 26 15 -3 36 -6 45 -7z m2988 -96 l0 -89 -28 5 c-23 5 -37 -2 -77
-36 -26 -22 -50 -39 -52 -36 -9 9 8 26 19 20 7 -5 8 -2 3 5 -4 8 2 25 15 43
l23 31 -27 -5 c-14 -3 -26 -1 -26 3 0 12 83 11 114 -1 l26 -10 0 80 c0 44 2
80 5 80 3 0 5 -40 5 -90z m-4183 8 c-3 -7 -5 -2 -5 12 0 14 2 19 5 13 2 -7 2
-19 0 -25z m3644 -1 c-10 -9 -11 -8 -5 6 3 10 9 15 12 12 3 -3 0 -11 -7 -18z
m-3704 -34 c-3 -10 -5 -4 -5 12 0 17 2 24 5 18 2 -7 2 -21 0 -30z m80 15 c-3
-8 -6 -5 -6 6 -1 11 2 17 5 13 3 -3 4 -12 1 -19z m20 -10 c-3 -8 -6 -5 -6 6
-1 11 2 17 5 13 3 -3 4 -12 1 -19z m1221 -15 c-10 -2 -26 -2 -35 0 -10 3 -2 5
17 5 19 0 27 -2 18 -5z m1522 -19 c0 -2 -13 -4 -30 -4 -16 0 -30 4 -30 8 0 5
14 7 30 4 17 -2 30 -6 30 -8z m-2920 -17 c0 -1 -24 -25 -52 -52 l-53 -50 50
53 c46 48 55 57 55 49z m1155 -7 c4 -6 -35 -10 -109 -9 -64 0 -116 5 -116 10
0 12 217 12 225 -1z m1747 -78 c7 -83 -11 -96 -34 -23 -17 52 -16 53 23 60 4
0 9 -16 11 -37z m215 16 c-3 -8 -6 -5 -6 6 -1 11 2 17 5 13 3 -3 4 -12 1 -19z
m-2880 -45 c-3 -10 -5 -4 -5 12 0 17 2 24 5 18 2 -7 2 -21 0 -30z m-337 3 c0
-2 -8 -10 -17 -17 -16 -13 -17 -12 -4 4 13 16 21 21 21 13z m3581 -55 c7 11
14 10 41 -5 28 -17 31 -17 19 -3 -11 14 -11 17 0 16 28 -1 53 -15 41 -23 -7
-4 -12 -15 -11 -24 0 -11 3 -12 6 -4 2 6 9 12 15 12 6 0 6 -6 -2 -15 -7 -8
-16 -12 -21 -9 -5 3 -12 -2 -15 -10 -3 -9 -13 -16 -22 -16 -12 0 -13 3 -5 11
6 6 9 17 6 25 -4 10 -9 11 -24 1 -18 -11 -28 -50 -11 -44 4 1 18 -8 30 -19 19
-18 21 -22 8 -27 -10 -4 -16 -1 -16 8 0 21 -40 19 -56 -2 -13 -17 -14 -17 -9
2 3 11 -2 5 -10 -12 -8 -18 -17 -33 -19 -33 -6 0 2 48 10 62 6 9 3 9 -10 -1
-9 -8 -15 -20 -12 -27 3 -7 1 -25 -4 -41 l-8 -28 -2 35 c-2 23 -4 28 -7 15 -3
-11 -10 -26 -15 -32 -7 -9 -6 -13 3 -13 9 0 10 -3 4 -8 -10 -7 -17 -27 -18
-49 0 -7 -4 -13 -9 -13 -5 0 -6 -4 -3 -10 3 -5 -4 -20 -15 -32 l-21 -23 10 27
c13 34 -6 50 -26 23 -15 -21 -17 -45 -4 -45 5 0 12 -7 15 -16 3 -8 2 -12 -4
-9 -6 3 -10 0 -10 -9 0 -8 -3 -16 -7 -18 -8 -3 -41 -87 -48 -121 -2 -9 -7 -22
-10 -27 -3 -5 -8 -18 -10 -27 -17 -70 -26 -108 -40 -183 -9 -47 -18 -92 -20
-100 -2 -8 -4 -19 -4 -23 -1 -4 -11 -12 -23 -17 -20 -8 -18 -9 12 -8 20 1 46
11 59 22 l24 21 -12 -22 c-6 -12 -20 -25 -31 -28 -11 -4 -17 -11 -14 -17 5 -7
2 -9 -8 -5 -12 4 -15 -2 -15 -31 1 -105 -3 -133 -16 -121 -15 14 -17 50 -2 42
5 -4 2 3 -8 14 -9 11 -15 22 -12 24 2 3 -5 11 -17 18 -16 10 -19 10 -13 -1 3
-7 -1 -4 -9 6 -15 19 -16 19 -16 2 0 -15 -3 -16 -15 -6 -12 10 -15 9 -16 -6 0
-18 -1 -18 -8 1 -5 11 -7 23 -4 28 2 4 -3 7 -12 7 -9 0 -13 5 -10 10 3 6 2 10
-2 10 -5 0 -10 11 -11 23 -1 23 0 24 55 15 77 -12 91 -4 20 11 l-59 13 6 66
c5 61 9 96 20 172 10 73 49 194 59 183 4 -3 7 -1 7 6 0 7 4 9 10 6 6 -3 7 1 4
9 -8 20 3 20 22 2 8 -8 12 -23 9 -33 -3 -11 -1 -9 6 5 7 12 16 22 21 22 5 0 6
4 3 10 -9 14 13 50 31 50 9 0 12 5 8 12 -4 7 -3 8 5 4 15 -10 4 -26 -17 -26
-14 0 -15 -2 -2 -9 10 -7 18 -3 29 12 8 12 17 24 20 27 14 12 41 77 43 102 1
15 8 30 15 32 7 3 23 22 36 43 14 21 34 49 46 62 11 13 21 28 21 32 0 5 15 16
33 25 21 12 27 19 17 21 -41 12 -44 16 -15 22 17 4 32 3 34 -2 2 -5 7 -3 12 4z
m-2301 -15 c0 -11 -19 -15 -25 -6 -3 5 1 10 9 10 9 0 16 -2 16 -4z m1259 -62
c12 -11 11 -12 -7 -7 -12 3 -22 10 -22 15 0 5 -4 7 -9 4 -4 -3 -19 7 -32 21
l-24 26 40 -23 c22 -13 46 -29 54 -36z m1709 -13 c-24 -50 -66 -110 -74 -107
-7 3 -12 -5 -12 -17 0 -12 -25 -87 -56 -166 -31 -80 -61 -168 -68 -198 -9 -39
-16 -52 -28 -49 -33 10 -115 10 -117 1 -3 -9 13 -12 79 -15 10 -1 20 -5 23
-10 7 -12 -21 -61 -30 -52 -5 4 -5 1 0 -7 4 -7 3 -16 -3 -20 -10 -6 -33 -158
-36 -238 0 -22 -4 -39 -8 -36 -5 2 -8 11 -8 19 0 8 -4 12 -10 9 -5 -3 -7 0 -4
8 3 8 -2 17 -12 21 -12 4 -15 2 -10 -9 3 -8 1 -15 -4 -15 -13 0 -13 27 0 35 7
4 7 12 0 24 -5 10 -7 21 -4 24 3 3 1 8 -5 12 -10 5 -14 -12 -14 -50 0 -6 -8
-11 -18 -11 -10 0 -15 4 -13 8 3 4 -1 8 -8 9 -10 0 -10 2 -1 6 10 3 10 8 -1
19 -14 13 -11 48 4 69 9 11 6 58 -5 75 -4 6 -4 36 0 66 5 44 11 57 28 63 20 7
20 8 -6 15 -23 5 -25 9 -17 30 5 13 6 27 3 30 -4 3 1 6 9 6 9 0 21 -7 28 -15
15 -18 50 -20 51 -2 0 10 2 10 6 0 2 -7 16 -13 29 -13 17 0 23 4 19 13 -4 6 1
3 9 -7 10 -13 16 -15 16 -7 0 10 3 11 14 2 11 -9 15 -4 20 27 30 190 171 485
222 465 8 -3 14 -8 12 -12z m72 4 c-7 -8 -9 -15 -4 -15 5 0 1 -7 -9 -14 -10
-8 -19 -23 -20 -35 -1 -12 -6 -21 -13 -21 -6 0 -17 -7 -24 -15 -10 -12 -10
-15 1 -15 10 -1 8 -5 -5 -15 -10 -7 -16 -17 -13 -22 3 -4 -6 -22 -19 -38 -33
-41 -30 -21 7 56 33 68 88 148 103 149 5 0 3 -7 -4 -15z m-2500 -51 c0 -8 -19
-13 -24 -6 -3 5 1 9 9 9 8 0 15 -2 15 -3z m540 -21 c19 -9 43 -22 53 -31 9 -8
17 -12 17 -8 0 8 20 -12 65 -64 22 -25 16 -22 -25 14 -55 49 -140 96 -172 96
-10 0 -18 4 -18 9 0 11 33 4 80 -16z m1020 12 c-10 -12 -16 -13 -26 -4 -18 15
-18 14 12 17 23 2 25 0 14 -13z m-357 -54 c-15 -28 -29 -48 -31 -46 -5 5 47
95 54 95 3 0 -7 -22 -23 -49z m-1504 -12 c-28 -18 -125 -31 -174 -24 -27 3
-56 7 -62 7 -15 1 -16 8 -5 25 6 10 19 9 59 -1 64 -17 134 -14 165 6 13 9 25
12 27 6 2 -6 -3 -14 -10 -19z m-1479 -5 c0 -17 -19 -18 -57 -2 l-28 11 35 7
c41 7 50 4 50 -16z m3990 18 c0 -5 -7 -17 -15 -28 -14 -18 -14 -17 -4 9 12 27
19 34 19 19z m-923 -8 c-3 -3 -12 -4 -19 -1 -8 3 -5 6 6 6 11 1 17 -2 13 -5z
m-1760 -80 c-3 -3 -12 -4 -19 -1 -8 3 -5 6 6 6 11 1 17 -2 13 -5z m-806 -53
c13 -10 46 -21 73 -23 40 -5 57 -1 93 19 41 22 83 24 83 4 0 -7 -60 -23 -97
-25 -6 -1 -15 -5 -19 -8 -4 -4 -25 -5 -47 -1 -29 4 -38 3 -33 -5 10 -17 -26
-15 -50 3 -10 8 -27 15 -36 15 -11 0 -18 8 -18 20 0 25 20 26 51 1z m2480 -64
c-13 -13 -26 -3 -16 12 3 6 11 8 17 5 6 -4 6 -10 -1 -17z m-3105 -29 c-9 -5
-13 -15 -10 -21 5 -9 4 -9 -5 -1 -16 15 -3 44 16 37 13 -5 13 -7 -1 -15z
m3112 2 c-8 -12 -15 -15 -19 -8 -4 7 -8 6 -12 -3 -4 -9 -6 -8 -6 5 -1 12 4 16
14 13 8 -4 17 -2 20 3 4 6 8 10 11 10 2 0 -1 -9 -8 -20z m903 -41 c-5 -13 -10
-19 -10 -12 -1 15 10 45 15 40 3 -2 0 -15 -5 -28z m-2883 -104 c23 -4 42 -12
42 -17 0 -6 -8 -7 -17 -3 -10 3 -39 9 -65 12 -26 3 -45 10 -42 14 3 5 13 7 22
5 9 -2 36 -7 60 -11z m3390 -47 c-10 -6 -10 -8 0 -8 9 0 12 -58 12 -255 0
-163 -4 -255 -10 -255 -5 0 -10 4 -10 10 0 5 -7 6 -17 3 -12 -5 -14 -3 -8 8 5
8 -1 6 -13 -4 -20 -18 -20 -18 -15 1 3 11 -1 21 -10 25 -10 3 -15 24 -16 64
-1 58 15 307 23 350 3 11 8 42 11 67 l7 45 29 -21 c21 -16 26 -24 17 -30z
m-3421 16 c-3 -3 -12 -4 -19 -1 -8 3 -5 6 6 6 11 1 17 -2 13 -5z m-867 -75
c-7 -11 -14 -18 -17 -15 -3 3 0 12 7 21 18 21 23 19 10 -6z m-16 -32 c4 4 4 0
1 -10 -6 -14 -9 -14 -21 -2 -18 17 -18 31 -1 16 8 -6 17 -8 21 -4z m56 -74 c0
-19 -13 -9 -16 12 -1 8 2 13 7 9 5 -3 9 -12 9 -21z m2750 -13 c52 0 58 -8 53
-66 -5 -45 -8 -51 -27 -49 -11 1 -29 3 -38 4 -13 1 -18 10 -18 31 0 36 -27 52
-45 27 -21 -29 -34 -19 -33 24 l0 41 37 -6 c20 -3 52 -6 71 -6z m-2170 -96 c0
-2 -11 -3 -24 -2 -14 1 -23 5 -20 9 4 7 44 0 44 -7z m47 -10 c-3 -3 -12 -4
-19 -1 -8 3 -5 6 6 6 11 1 17 -2 13 -5z m1993 -33 c0 -16 -18 -22 -47 -15 -25
7 -25 8 -8 15 28 11 55 11 55 0z m-2609 -26 c11 6 12 5 2 -5 -10 -11 -15 -11
-28 0 -8 7 -15 17 -15 23 0 6 6 3 13 -8 9 -11 19 -15 28 -10z m-276 -3 c-3 -3
-11 0 -18 7 -9 10 -8 11 6 5 10 -3 15 -9 12 -12z m182 12 c-3 -4 -2 -14 3 -23
5 -10 5 -23 1 -30 -6 -9 -10 -3 -13 18 -4 29 -1 41 10 41 3 0 2 -3 -1 -6z
m204 -17 c-10 -9 -11 -8 -5 6 3 10 9 15 12 12 3 -3 0 -11 -7 -18z m2265 14 c5
-5 25 -11 44 -14 l35 -4 -36 -1 c-19 -1 -44 5 -55 13 -10 8 -14 15 -8 15 5 0
14 -4 20 -9z m-2599 -15 c-3 -7 0 -20 6 -27 10 -11 9 -11 -5 0 -15 11 -15 41
-1 41 3 0 3 -6 0 -14z m168 6 c16 -11 15 -41 -2 -35 -7 3 -11 8 -9 11 3 3 1
11 -5 19 -12 14 -1 18 16 5z m2595 4 c0 -11 -19 -15 -25 -6 -3 5 1 10 9 10 9
0 16 -2 16 -4z m78 -91 c-3 -3 -9 2 -12 12 -6 14 -5 15 5 6 7 -7 10 -15 7 -18z
m-2720 -10 c-3 -3 -9 2 -12 12 -6 14 -5 15 5 6 7 -7 10 -15 7 -18z m2737 -51
c3 -26 9 -54 12 -63 4 -9 -3 -5 -14 8 -15 19 -22 21 -28 11 -6 -9 -4 -11 5 -5
9 5 11 4 6 -4 -4 -6 -11 -9 -16 -6 -10 6 -3 32 14 54 9 12 8 13 -3 6 -11 -6
-13 -3 -8 14 6 22 5 23 -16 4 -14 -12 -18 -13 -9 -2 6 9 9 19 5 22 -3 4 5 7
19 7 23 0 26 -5 33 -46z m-45 -24 c-12 -22 -21 -26 -17 -7 2 10 17 26 25 27 1
0 -2 -9 -8 -20z m-2749 -123 c-10 -9 -11 -8 -5 6 3 10 9 15 12 12 3 -3 0 -11
-7 -18z m172 -44 c-7 -2 -19 -2 -25 0 -7 3 -2 5 12 5 14 0 19 -2 13 -5z m3424
-6 c3 -4 -1 -7 -10 -7 -11 0 -18 -9 -18 -22 -2 -23 -2 -23 -6 0 -3 17 -10 23
-23 19 -12 -3 -17 0 -14 7 5 13 59 15 71 3z m808 -57 c7 -12 -12 -12 -40 0
-18 8 -17 9 7 9 15 1 30 -3 33 -9z m-928 -15 c-4 -8 -2 -17 4 -20 5 -4 3 -12
-5 -20 -8 -8 -12 -24 -9 -35 3 -11 0 -20 -6 -20 -6 0 -11 8 -11 18 0 24 20 92
27 92 3 0 3 -7 0 -15z m68 5 c-3 -5 -1 -10 4 -10 6 0 11 5 11 11 0 8 4 9 13 0
8 -6 17 -8 20 -4 4 3 7 1 7 -6 0 -8 -6 -11 -16 -7 -8 3 -24 2 -34 -4 -15 -8
-18 -6 -15 8 5 23 4 22 11 22 3 0 2 -4 -1 -10z m5 -60 c0 -5 -2 -10 -4 -10 -3
0 -8 5 -11 10 -3 6 -1 10 4 10 6 0 11 -4 11 -10z m40 6 c0 -2 -7 -6 -15 -10
-8 -3 -15 -1 -15 4 0 6 7 10 15 10 8 0 15 -2 15 -4z"/>
<path d="M1380 3820 c33 -26 52 -25 21 0 -13 11 -28 20 -35 20 -6 0 0 -9 14
-20z"/>
<path d="M1320 3799 c0 -8 32 -29 44 -29 15 0 3 16 -19 27 -14 6 -25 7 -25 2z"/>
<path d="M1435 3770 c-4 -6 -2 -17 4 -23 15 -15 25 -2 13 19 -7 12 -11 13 -17
4z"/>
<path d="M1370 3706 c0 -2 8 -10 18 -17 15 -13 16 -12 3 4 -13 16 -21 21 -21
13z"/>
<path d="M1328 3668 c13 -13 62 -20 62 -9 0 5 -16 11 -35 13 -19 2 -31 0 -27
-4z"/>
<path d="M1330 3630 c20 -13 33 -13 25 0 -3 6 -14 10 -23 10 -15 0 -15 -2 -2
-10z"/>
<path d="M936 3492 c-2 -4 2 -15 9 -25 11 -15 14 -15 25 -3 6 9 9 20 5 26 -7
12 -32 13 -39 2z"/>
<path d="M239 3366 c-2 -2 -21 -6 -43 -9 -21 -3 -42 -10 -46 -17 -4 -6 -10
-11 -14 -11 -23 2 -35 -13 -29 -37 4 -16 2 -23 -4 -19 -6 4 -13 0 -17 -8 -3
-10 1 -15 12 -15 9 0 27 -3 40 -6 19 -6 22 -3 22 24 0 35 40 66 103 77 21 4
36 9 34 12 -7 6 -53 13 -58 9z"/>
<path d="M287 3316 c-20 -8 -54 -27 -75 -42 l-37 -29 30 -6 c48 -11 123 -10
130 1 4 6 -6 10 -24 10 -27 0 -29 2 -22 28 8 31 45 41 83 21 23 -12 23 -12 4
10 -22 24 -36 25 -89 7z"/>
<path d="M1136 3291 c-16 -17 -15 -18 9 -13 30 5 40 18 21 25 -8 3 -21 -2 -30
-12z"/>
<path d="M1075 3281 c-11 -5 -22 -7 -26 -5 -3 1 -10 -10 -16 -27 -11 -29 -11
-29 24 -29 26 0 36 5 40 20 3 11 9 18 13 15 5 -3 6 4 3 15 -6 22 -8 22 -38 11z"/>
<path d="M1053 3190 c-23 -18 -23 -18 31 -22 30 -1 52 0 49 5 -2 4 -11 7 -19
7 -9 0 -12 5 -8 13 4 6 4 9 -1 5 -4 -4 -13 -4 -19 1 -7 6 -19 2 -33 -9z"/>
<path d="M1343 3073 c-20 -27 -38 -83 -28 -83 7 0 57 101 52 107 -3 2 -14 -8
-24 -24z"/>
<path d="M1235 2970 c-3 -6 1 -7 9 -4 18 7 21 14 7 14 -6 0 -13 -4 -16 -10z"/>
<path d="M948 2940 c12 -11 24 -20 28 -20 4 0 -1 9 -11 20 -10 11 -23 20 -28
20 -6 0 -1 -9 11 -20z"/>
<path d="M1206 2923 c-6 -14 -5 -15 5 -6 7 7 10 15 7 18 -3 3 -9 -2 -12 -12z"/>
<path d="M880 2920 c0 -11 48 -25 56 -17 3 2 -9 9 -25 15 -18 7 -31 7 -31 2z"/>
<path d="M1068 2883 c12 -2 30 -2 40 0 9 3 -1 5 -23 4 -22 0 -30 -2 -17 -4z"/>
<path d="M1220 2860 c-6 -11 -8 -20 -6 -20 3 0 10 9 16 20 6 11 8 20 6 20 -3
0 -10 -9 -16 -20z"/>
<path d="M1246 2865 c-3 -8 -1 -15 4 -15 6 0 10 7 10 15 0 8 -2 15 -4 15 -2 0
-6 -7 -10 -15z"/>
<path d="M850 2836 c0 -2 7 -7 16 -10 8 -3 12 -2 9 4 -6 10 -25 14 -25 6z"/>
<path d="M1190 2820 c0 -5 5 -10 11 -10 5 0 7 5 4 10 -3 6 -8 10 -11 10 -2 0
-4 -4 -4 -10z"/>
<path d="M1490 2740 c0 -5 5 -10 11 -10 5 0 7 5 4 10 -3 6 -8 10 -11 10 -2 0
-4 -4 -4 -10z"/>
<path d="M1518 2658 c6 -6 18 -8 28 -6 14 3 12 5 -9 10 -19 3 -25 2 -19 -4z"/>
<path d="M1510 2080 c0 -5 5 -10 11 -10 5 0 7 5 4 10 -3 6 -8 10 -11 10 -2 0
-4 -4 -4 -10z"/>
<path d="M3925 3015 c-22 -7 -110 -20 -195 -30 -200 -21 -230 -26 -230 -35 0
-4 21 -4 48 0 132 22 313 39 405 39 38 0 47 10 25 29 -9 7 -25 6 -53 -3z"/>
<path d="M3827 2965 c-42 -7 -133 -19 -202 -26 -69 -7 -125 -16 -125 -21 0
-11 -7 -11 203 13 100 11 198 20 217 20 43 0 70 7 70 20 0 12 -68 10 -163 -6z"/>
<path d="M4230 2250 c0 -5 9 -14 21 -20 19 -11 20 -10 9 9 -11 22 -30 29 -30
11z"/>
<path d="M4276 2247 c3 -10 9 -15 12 -12 3 3 0 11 -7 18 -10 9 -11 8 -5 -6z"/>
<path d="M4237 2214 c-3 -3 -3 -12 0 -20 3 -8 0 -20 -5 -27 -8 -10 -5 -13 16
-14 15 0 20 1 11 3 -10 3 -14 15 -13 34 2 31 1 34 -9 24z"/>
<path d="M4194 1951 c4 -5 0 -11 -6 -14 -7 -3 -3 -4 8 -4 21 1 23 27 2 27 -5
0 -7 -4 -4 -9z"/>
<path d="M4079 1903 c-6 -7 -10 -13 -8 -14 31 -6 40 -7 35 -2 -3 4 -1 11 4 18
7 8 5 12 -5 12 -9 0 -20 -6 -26 -14z"/>
<path d="M4175 1870 c-3 -6 1 -7 9 -4 18 7 21 14 7 14 -6 0 -13 -4 -16 -10z"/>
<path d="M4085 1861 c-3 -5 0 -13 6 -17 7 -4 9 -3 5 4 -3 5 0 13 6 15 9 4 10
6 1 6 -6 1 -14 -3 -18 -8z"/>
<path d="M4135 1849 c-4 -6 -5 -12 -2 -15 2 -3 7 2 10 11 7 17 1 20 -8 4z"/>
<path d="M4155 1841 c-3 -5 -2 -12 3 -15 5 -3 9 1 9 9 0 17 -3 19 -12 6z"/>
<path d="M4050 1820 c8 -5 24 -9 35 -9 l20 0 -20 9 c-11 5 -27 9 -35 9 -13 1
-13 0 0 -9z"/>
<path d="M4016 1691 c-4 -5 3 -7 14 -4 23 6 26 13 6 13 -8 0 -17 -4 -20 -9z"/>
<path d="M3683 1623 c9 -2 23 -2 30 0 6 3 -1 5 -18 5 -16 0 -22 -2 -12 -5z"/>
<path d="M4453 1230 c3 -11 1 -23 -5 -26 -6 -4 -5 -10 3 -15 11 -7 10 -9 -4
-9 -10 0 -15 -4 -12 -10 11 -18 35 -11 44 13 6 16 4 28 -8 42 -14 17 -14 18 0
7 9 -6 19 -9 22 -5 14 13 6 23 -19 23 -21 0 -25 -4 -21 -20z"/>
<path d="M4388 1051 c-20 -28 -14 -44 13 -36 20 7 25 -5 9 -21 -5 -5 -5 -15
-1 -23 6 -9 11 -10 15 -2 4 6 2 11 -4 11 -7 0 -5 7 4 16 19 18 21 35 4 32 -6
-2 -14 8 -17 22 l-7 24 -16 -23z"/>
<path d="M4330 1052 c0 -7 -8 -12 -19 -12 -22 0 -34 -33 -18 -49 8 -8 8 -11
-1 -11 -7 0 -12 -4 -12 -10 0 -5 9 -10 21 -10 13 0 18 4 13 12 -4 7 -3 8 4 4
7 -4 12 -20 12 -36 0 -24 3 -28 17 -23 9 4 12 8 6 10 -12 4 6 53 19 53 4 0 -2
17 -13 38 -25 45 -29 49 -29 34z"/>
<path d="M4268 763 c6 -2 18 -2 25 0 6 3 1 5 -13 5 -14 0 -19 -2 -12 -5z"/>
<path d="M4280 750 l-35 -7 37 -2 c20 0 40 4 43 9 7 11 7 11 -45 0z"/>
<path d="M4283 495 c0 -22 2 -30 4 -17 2 12 2 30 0 40 -3 9 -5 -1 -4 -23z"/>
<path d="M3770 285 c-7 -8 -15 -13 -19 -11 -3 2 -6 -9 -6 -25 0 -23 2 -26 13
-15 7 7 14 19 15 27 2 8 6 20 10 27 11 17 2 15 -13 -3z"/>
<path d="M3645 3510 c-3 -5 -20 -7 -38 -4 -25 4 -29 3 -17 -5 21 -15 79 -11
73 6 -6 16 -10 16 -18 3z"/>
<path d="M165 3770 c-3 -6 1 -7 9 -4 18 7 21 14 7 14 -6 0 -13 -4 -16 -10z"/>
<path d="M1717 2820 c-3 -11 -1 -20 4 -20 5 0 9 9 9 20 0 11 -2 20 -4 20 -2 0
-6 -9 -9 -20z"/>
<path d="M1766 2815 c-9 -26 -7 -32 5 -12 6 10 9 21 6 23 -2 3 -7 -2 -11 -11z"/>
<path d="M2002 2480 c0 -19 2 -27 5 -17 2 9 2 25 0 35 -3 9 -5 1 -5 -18z"/>
<path d="M142 2898 c2 -6 15 -18 29 -27 20 -13 22 -13 12 -1 -6 8 -11 19 -10
24 1 5 -6 10 -16 12 -10 1 -17 -2 -15 -8z"/>
<path d="M402 2460 c0 -14 2 -19 5 -12 2 6 2 18 0 25 -3 6 -5 1 -5 -13z"/>
<path d="M401 2413 c1 -10 5 -31 9 -48 7 -28 8 -28 9 12 0 23 -3 45 -9 48 -5
3 -9 -2 -9 -12z"/>
<path d="M421 2263 c5 -38 9 -77 9 -88 1 -11 4 -15 6 -9 3 7 13 11 22 9 9 -1
12 0 5 2 -16 6 -23 27 -30 95 -3 32 -9 58 -12 58 -4 0 -4 -30 0 -67z"/>
<path d="M489 2272 c11 -8 10 -12 -5 -21 -18 -10 -17 -10 4 -11 17 0 23 5 20
17 -2 9 -10 18 -18 20 -12 4 -12 3 -1 -5z"/>
<path d="M446 1393 c-6 -14 -5 -15 5 -6 7 7 10 15 7 18 -3 3 -9 -2 -12 -12z"/>
<path d="M355 720 c-3 -5 -1 -10 4 -10 6 0 11 5 11 10 0 6 -2 10 -4 10 -3 0
-8 -4 -11 -10z"/>
<path d="M350 686 c0 -9 5 -16 10 -16 6 0 10 4 10 9 0 6 -4 13 -10 16 -5 3
-10 -1 -10 -9z"/>
<path d="M1370 2275 c-8 -9 -8 -15 -2 -15 12 0 26 19 19 26 -2 2 -10 -2 -17
-11z"/>
<path d="M1551 2274 c0 -11 3 -14 6 -6 3 7 2 16 -1 19 -3 4 -6 -2 -5 -13z"/>
<path d="M3017 946 c-4 -10 -5 -21 -2 -24 9 -9 17 6 13 25 -3 17 -4 17 -11 -1z"/>
<path d="M762 1610 c0 -19 2 -27 5 -17 2 9 2 25 0 35 -3 9 -5 1 -5 -18z"/>
<path d="M3699 1413 c-13 -16 -12 -17 4 -4 16 13 21 21 13 21 -2 0 -10 -8 -17
-17z"/>
<path d="M3434 1015 c-3 -8 -4 -20 -2 -27 3 -7 7 -1 10 15 6 29 1 36 -8 12z"/>
<path d="M3374 719 c-3 -6 -1 -16 5 -22 8 -8 11 -5 11 11 0 24 -5 28 -16 11z"/>
<path d="M4101 814 c0 -11 3 -14 6 -6 3 7 2 16 -1 19 -3 4 -6 -2 -5 -13z"/>
<path d="M4001 674 c0 -11 3 -14 6 -6 3 7 2 16 -1 19 -3 4 -6 -2 -5 -13z"/>
</g>
</svg>
