<?xml version="1.0" standalone="no"?>
<!DOCTYPE svg PUBLIC "-//W3C//DTD SVG 20010904//EN"
 "http://www.w3.org/TR/2001/REC-SVG-20010904/DTD/svg10.dtd">
<svg version="1.0" xmlns="http://www.w3.org/2000/svg"
 width="460.000000pt" height="460.000000pt" viewBox="0 0 460.000000 460.000000"
 preserveAspectRatio="xMidYMid meet">

<g transform="translate(0.000000,460.000000) scale(0.100000,-0.100000)"
fill="#000000" stroke="none">
<path d="M0 2300 l0 -2300 2300 0 2300 0 0 2300 0 2300 -2300 0 -2300 0 0
-2300z m4590 2111 l0 -99 -62 -6 c-62 -5 -203 -11 -533 -21 -93 -3 -201 -7
-240 -10 -38 -2 -170 -7 -292 -11 l-222 -7 22 -39 c37 -64 109 -129 148 -132
19 -2 43 -8 54 -14 11 -7 46 -21 79 -33 37 -14 82 -42 126 -80 77 -66 85 -76
65 -76 -8 0 -13 5 -12 10 1 5 -4 12 -12 15 -10 3 -13 -1 -9 -16 5 -19 2 -17
-24 8 -16 17 -34 27 -40 24 -7 -4 -8 -2 -4 4 4 7 3 12 -1 12 -5 0 -18 7 -29
16 -10 8 -13 13 -6 9 19 -10 14 0 -10 21 -16 13 -19 14 -10 2 8 -9 9 -19 4
-22 -11 -7 -29 12 -34 34 -4 21 -19 30 -47 30 -14 0 -21 -5 -18 -13 3 -8 -6
-13 -27 -14 -17 0 -52 -3 -78 -6 -27 -3 -48 -4 -48 -1 0 2 27 17 60 34 90 46
71 54 -25 10 -43 -19 -117 -74 -110 -82 2 -2 -5 -4 -16 -4 -18 0 -16 5 14 31
19 16 47 39 62 49 24 17 26 20 11 28 -10 5 -35 8 -56 6 -23 -2 -39 1 -37 7 1
6 8 9 17 7 8 -1 0 6 -18 16 -18 10 -30 21 -27 24 4 3 2 8 -3 12 -5 3 -9 0 -10
-7 -3 -41 -7 -55 -13 -51 -7 4 -19 57 -20 87 0 9 -4 17 -7 17 -4 0 -8 9 -9 20
-2 24 -33 71 -33 50 0 -9 -4 -8 -14 5 -23 32 -116 25 -194 -15 -35 -17 -66
-38 -69 -45 -2 -8 -11 -11 -20 -8 -11 5 -7 12 19 34 18 16 38 29 45 29 6 0 19
7 27 16 9 8 16 13 16 10 0 -9 149 46 161 60 9 11 8 14 -10 14 -11 0 -21 4 -21
8 0 5 -6 9 -12 9 -7 0 -26 3 -43 7 -73 14 -152 18 -159 7 -5 -7 -13 -8 -24 -2
-16 8 -91 5 -100 -4 -2 -2 -15 0 -28 5 -13 5 -24 6 -24 1 0 -4 -13 -6 -28 -3
-17 2 -33 -2 -41 -12 -10 -12 -7 -17 21 -32 18 -9 59 -41 91 -70 32 -30 63
-54 69 -54 6 0 9 -3 5 -6 -3 -4 11 -29 32 -58 44 -61 54 -76 47 -76 -3 0 -26
27 -52 61 -35 45 -49 57 -55 47 -6 -9 -8 -6 -7 11 2 17 -4 28 -20 37 -13 6
-24 15 -25 20 -1 5 -17 19 -35 32 -25 16 -38 20 -51 12 -10 -5 -21 -7 -24 -3
-3 3 -23 2 -43 -2 l-37 -6 49 -24 c27 -12 58 -31 69 -42 45 -43 176 -134 185
-128 6 4 9 3 8 -2 -2 -4 0 -9 4 -11 11 -4 108 -100 108 -107 0 -3 -4 -3 -10 0
-5 3 -10 1 -10 -4 0 -6 5 -11 12 -11 6 0 8 -3 5 -6 -4 -4 -13 -1 -22 6 -8 7
-15 9 -15 4 0 -5 -4 -2 -10 6 -5 8 -13 11 -17 6 -4 -5 -2 -11 5 -13 6 -3 9
-10 5 -16 -4 -8 -1 -7 9 1 13 10 17 10 22 -3 3 -9 2 -14 -3 -11 -5 3 -12 -1
-15 -10 -4 -10 -2 -13 6 -8 8 5 9 2 5 -10 -5 -13 -3 -17 7 -13 10 4 12 0 9
-14 -3 -10 -1 -25 4 -32 6 -6 22 -32 35 -57 55 -98 71 -126 82 -140 6 -9 0 -5
-13 10 -13 14 -27 25 -30 25 -3 0 -5 4 -3 9 6 18 -19 32 -55 29 -27 -2 -34 0
-23 7 11 7 11 10 2 10 -7 0 -10 5 -6 12 4 7 3 8 -5 4 -6 -4 -18 -2 -26 4 -8 6
-19 9 -25 5 -8 -5 -10 1 -8 16 2 16 -2 24 -12 24 -8 0 -16 9 -18 20 -2 11 -8
25 -14 30 -6 6 -7 4 -3 -6 4 -10 3 -19 -2 -22 -4 -3 -9 6 -9 20 -2 32 -7 36
-55 42 -3 1 -6 8 -6 17 0 15 1 15 12 1 10 -14 13 -13 25 6 12 21 12 21 -5 7
-17 -14 -18 -13 -12 3 4 11 3 16 -3 12 -6 -3 -10 1 -10 10 0 20 -25 46 -35 37
-5 -4 -6 1 -2 10 6 18 -11 29 -57 35 -16 3 -25 0 -22 -5 3 -5 17 -8 31 -7 23
3 24 1 13 -18 -16 -29 -21 -60 -8 -52 6 3 7 -1 4 -10 -7 -17 -30 -14 -27 3 2
8 -8 9 -29 5 -22 -4 -29 -3 -24 6 4 6 13 8 19 5 7 -4 8 -3 4 2 -5 5 -12 9 -15
9 -4 1 -22 9 -39 18 -24 13 -33 14 -33 5 0 -9 -3 -9 -9 2 -6 8 -7 18 -5 22 3
4 -1 5 -9 2 -8 -3 -17 2 -20 10 -4 9 -13 16 -22 16 -8 0 -15 4 -15 8 0 5 -12
14 -26 20 -14 7 -23 8 -20 3 3 -5 -1 -12 -10 -15 -11 -4 -15 -2 -11 8 4 10 0
14 -13 11 -11 -2 -19 -1 -17 3 1 4 -2 9 -8 11 -5 2 -20 7 -33 12 -14 5 -21 5
-17 0 11 -19 -17 -23 -31 -5 -9 11 -13 13 -9 7 4 -8 0 -13 -9 -13 -9 0 -16 2
-16 4 0 2 -3 12 -7 21 -5 14 -2 16 15 11 24 -8 39 9 16 18 -8 3 -27 -1 -42 -9
-15 -8 -21 -14 -14 -15 10 0 10 -3 0 -14 -9 -10 -17 -11 -26 -4 -10 8 -11 6
-6 -8 7 -18 6 -18 -16 1 l-23 20 17 -26 c13 -22 14 -26 1 -26 -8 0 -12 4 -10
8 3 3 -3 13 -12 20 -14 13 -16 11 -11 -13 3 -18 1 -28 -7 -28 -7 0 -24 -9 -38
-20 -31 -24 -44 -26 -26 -3 12 15 12 16 -5 10 -16 -6 -17 -5 -6 8 7 8 15 13
19 11 4 -3 13 -1 20 3 10 7 11 13 3 27 -10 18 -11 18 -17 2 -4 -10 -13 -18
-21 -18 -8 0 -23 -9 -34 -20 -12 -12 -26 -18 -32 -14 -7 5 -8 3 -3 -6 6 -10 3
-12 -14 -7 -19 5 -20 3 -9 -11 8 -9 8 -13 1 -9 -13 8 -87 -59 -78 -72 2 -5 -1
-11 -9 -14 -9 -4 -13 -15 -10 -29 2 -13 2 -18 -2 -11 -4 10 -8 10 -19 0 -7 -7
-10 -16 -7 -22 3 -5 2 -7 -3 -3 -4 4 -16 -3 -26 -15 -19 -22 -19 -22 -3 11 8
17 20 32 26 32 5 0 8 6 5 14 -3 8 3 22 13 31 11 10 17 22 14 26 -3 5 0 9 6 9
6 0 9 4 6 9 -3 5 1 12 10 15 9 4 14 9 11 13 -4 3 1 11 10 18 9 7 17 20 19 29
2 14 0 14 -19 1 -12 -8 -27 -25 -34 -37 -11 -20 -12 -21 -13 -4 0 16 -3 15
-21 -8 -20 -25 -44 -36 -37 -17 6 17 159 139 196 157 21 9 53 28 72 41 19 12
43 23 52 23 10 0 18 5 18 11 0 5 5 7 10 4 6 -3 10 -1 10 5 0 6 4 9 9 5 12 -7
102 14 115 26 6 5 28 10 50 10 23 1 55 4 71 8 23 6 9 9 -60 16 -49 5 -97 8
-105 7 -8 -1 -42 -3 -75 -4 -55 -1 -107 -17 -106 -32 1 -3 -2 -6 -6 -7 -5 -1
-25 -10 -45 -20 -38 -20 -46 -33 -28 -44 13 -8 62 30 52 40 -4 5 1 5 12 1 10
-3 26 -1 35 6 14 11 14 11 4 -3 -7 -9 -9 -20 -5 -24 4 -5 1 -5 -5 -1 -7 4 -13
2 -13 -3 0 -6 -9 -11 -19 -11 -10 0 -21 -7 -25 -15 -3 -8 -11 -15 -19 -15 -7
0 -22 -8 -33 -17 -11 -10 -27 -22 -36 -28 -9 -5 -30 -20 -47 -33 -20 -15 -29
-18 -25 -8 3 8 13 17 22 21 13 5 14 8 3 14 -10 6 -9 10 4 14 9 4 13 3 10 -3
-3 -6 -2 -10 3 -10 6 0 13 7 16 16 3 8 10 12 16 9 14 -9 12 8 -3 24 -10 10 -9
12 3 11 31 -5 40 1 37 22 -1 16 10 30 41 51 35 24 42 33 36 50 -9 27 -30 44
-67 52 -17 4 -25 11 -20 18 4 8 1 7 -9 -1 -13 -10 -18 -10 -24 -1 -5 8 -3 9 6
4 9 -6 11 -4 5 4 -4 8 -16 10 -29 6 -50 -14 -58 -14 -52 0 4 10 -1 15 -14 15
-11 0 -20 -6 -20 -12 0 -9 -3 -9 -8 -2 -4 5 -37 10 -75 10 -51 -1 -66 -4 -62
-14 3 -9 -2 -12 -18 -8 -12 3 -16 3 -9 0 10 -4 10 -9 2 -19 -12 -15 -40 -9
-40 7 0 6 7 4 17 -3 15 -13 15 -12 2 8 -7 12 -16 19 -19 14 -3 -5 -18 -11 -35
-14 -16 -3 -39 -8 -50 -10 -11 -3 -23 -6 -26 -6 -11 -2 -69 -61 -69 -71 0 -6
-8 -10 -17 -10 -15 0 -16 -2 -3 -10 13 -8 12 -10 -2 -10 -10 0 -18 -7 -18 -16
0 -8 5 -12 10 -9 5 3 10 -1 10 -10 0 -10 -5 -13 -13 -9 -8 6 -8 3 1 -9 8 -9
11 -21 7 -28 -4 -6 -2 -15 5 -19 7 -5 8 -10 2 -14 -5 -3 -21 5 -36 19 -14 13
-26 21 -26 18 0 -3 -7 0 -15 7 -8 6 -20 8 -26 4 -9 -5 -10 -2 -6 9 6 15 -2 17
-54 17 -101 0 -140 35 -125 113 15 82 81 98 448 112 31 1 65 8 74 16 13 10 16
10 10 1 -6 -10 -2 -11 16 -7 41 11 133 15 395 19 139 3 258 8 264 12 7 4 9 3
6 -3 -5 -7 9 -10 41 -8 26 2 47 4 47 5 0 7 67 5 71 -2 3 -5 9 -6 13 -3 5 2
111 7 237 10 126 3 272 8 324 10 84 4 220 9 575 20 55 1 233 6 395 10 162 4
296 9 298 10 2 2 68 4 148 4 l144 2 0 -100z m-2930 -105 c0 -3 -7 -3 -15 0 -8
4 -15 13 -15 21 0 12 2 12 15 -1 8 -8 15 -17 15 -20z m-233 -79 c1 -19 -2 -24
-13 -20 -12 4 -12 8 -2 20 9 11 9 17 -3 25 -12 8 -12 9 1 5 8 -2 16 -15 17
-30z m325 16 c-6 -2 -10 -9 -6 -14 3 -5 1 -9 -5 -9 -5 0 -12 4 -15 9 -6 9 10
19 29 19 6 0 4 -2 -3 -5z m-282 -17 c0 -2 -7 -6 -15 -10 -8 -3 -15 -1 -15 4 0
6 7 10 15 10 8 0 15 -2 15 -4z m295 -54 c-3 -3 -11 0 -18 7 -9 10 -8 11 6 5
10 -3 15 -9 12 -12z m-477 -32 c35 -21 42 -35 15 -26 -10 3 -46 6 -80 7 -34 1
-60 6 -57 11 3 5 -7 6 -23 4 -17 -4 -13 0 12 8 57 20 95 19 133 -4z m137 -47
c5 -14 3 -15 -6 -6 -6 6 -19 9 -28 6 -14 -4 -14 -3 -1 6 21 15 27 14 35 -6z
m-395 -7 c0 -2 -8 -10 -17 -17 -16 -13 -17 -12 -4 4 13 16 21 21 21 13z m397
-31 c0 -8 -4 -12 -9 -9 -5 3 -6 10 -3 15 9 13 12 11 12 -6z m-487 -52 c-28
-32 -67 -88 -85 -124 l-34 -66 27 -13 c26 -12 26 -13 6 -20 -31 -12 -124 -18
-124 -8 0 4 6 8 14 8 8 0 16 6 19 14 7 18 -48 4 -113 -29 -67 -34 -160 -142
-160 -185 0 -15 39 -28 101 -34 57 -6 77 -15 36 -17 -57 -3 -66 -4 -73 -11 -3
-4 3 -6 15 -3 24 5 28 -7 6 -25 -8 -7 -12 -17 -8 -24 3 -6 0 -6 -8 2 -7 6 -21
12 -32 12 -10 0 -16 4 -13 9 5 8 -40 26 -56 23 -5 -1 -8 5 -8 14 0 8 -4 13 -9
9 -5 -3 -12 -1 -16 4 -8 14 -36 2 -29 -13 3 -6 -1 -3 -8 6 -12 14 -30 17 -55
9 -2 -1 -5 -1 -8 -1 -3 1 -18 -6 -33 -13 -15 -8 -45 -22 -66 -32 -36 -15 -143
-81 -156 -95 -3 -3 -17 -13 -33 -23 l-27 -17 0 99 c0 80 3 101 17 112 14 12
16 12 8 0 -6 -11 -4 -13 11 -6 10 4 38 9 61 9 23 1 45 5 49 9 12 12 26 8 18
-5 -5 -7 5 -3 20 10 18 14 33 19 40 13 10 -8 21 -8 56 0 8 2 14 -2 12 -9 -1
-8 2 -11 8 -7 6 3 8 10 6 13 -2 4 12 7 32 7 21 -1 47 3 60 7 13 4 21 4 18 0
-3 -5 1 -9 9 -9 8 0 12 4 9 9 -4 5 0 9 7 7 29 -3 37 3 78 57 l42 56 -83 -5
c-46 -4 -172 -9 -281 -13 l-198 -7 3 104 3 104 105 3 c58 2 186 7 285 12 99 4
245 10 326 13 l145 4 53 57 c70 73 77 72 11 -1z m524 1 c3 -8 2 -12 -4 -9 -6
3 -10 10 -10 16 0 14 7 11 14 -7z m47 -1 c13 -16 12 -17 -3 -4 -10 7 -18 15
-18 17 0 8 8 3 21 -13z m469 10 c0 -5 -4 -14 -9 -21 -7 -11 -9 -11 -14 1 -3 8
-3 18 0 21 9 8 23 7 23 -1z m1545 -22 c-6 -5 -25 10 -25 20 0 5 6 4 14 -3 8
-7 12 -15 11 -17z m-1529 4 c-1 -8 -8 -21 -16 -28 -10 -10 -11 -9 -4 3 5 8 9
18 10 23 3 14 4 17 8 17 2 0 3 -7 2 -15z m-22 -47 c8 -5 7 -8 -1 -8 -22 0 -28
4 -25 18 2 8 -1 11 -7 8 -5 -4 -13 -1 -17 5 -4 8 -3 9 4 5 7 -4 12 -1 12 6 0
7 6 4 12 -7 6 -11 16 -23 22 -27z m-403 -8 c13 -10 18 -19 12 -20 -7 0 -13 4
-13 10 0 5 -7 6 -17 3 -10 -4 -14 -2 -10 4 4 6 1 14 -5 16 -8 4 -9 6 -2 6 7 1
22 -8 35 -19z m175 -2 c4 -7 3 -10 -1 -5 -5 4 -20 -3 -34 -15 l-26 -23 24 28
c28 31 28 31 37 15z m964 2 c-12 -8 -12 -10 -1 -10 8 0 12 -3 8 -6 -9 -9 -28
6 -22 17 4 5 12 9 18 9 7 0 6 -4 -3 -10z m15 -80 c-3 -5 -12 -10 -18 -10 -7 0
-6 4 3 10 19 12 23 12 15 0z m1079 -52 c22 -39 11 -29 -29 27 -17 23 -21 33
-9 23 10 -9 28 -32 38 -50z m103 -135 c52 -7 132 -46 173 -84 25 -23 37 -36
28 -29 -14 10 -21 10 -32 0 -12 -9 -24 -6 -60 15 -45 26 -88 31 -113 12 -9 -6
-22 1 -43 23 -33 36 -37 52 -16 73 12 12 12 18 -3 41 -10 14 -21 23 -25 19 -4
-4 -4 0 -1 10 6 13 13 7 38 -30 19 -27 41 -48 54 -50z m-1020 35 c-3 -8 -6 -5
-6 6 -1 11 2 17 5 13 3 -3 4 -12 1 -19z m1233 -266 c16 -10 27 -22 24 -25 -4
-4 4 -4 17 -2 44 9 126 -15 160 -46 29 -27 42 -33 61 -30 5 0 7 -4 5 -10 -1
-6 6 -16 15 -22 13 -9 21 -7 36 6 15 14 19 14 19 2 0 -8 -4 -12 -8 -9 -18 11
-17 -16 1 -37 19 -23 19 -23 14 -2 -5 16 -2 21 12 19 9 -1 18 -11 20 -20 1
-10 0 -15 -3 -12 -4 3 -14 -1 -24 -10 -11 -10 -19 -12 -24 -4 -3 5 -11 8 -16
5 -5 -4 -9 -1 -9 5 0 6 -4 9 -9 5 -5 -3 -12 -1 -16 4 -3 5 -14 8 -25 6 -22 -4
-26 5 -10 21 8 8 6 15 -5 24 -8 7 -15 9 -15 6 0 -4 -10 0 -22 8 -16 11 -25 13
-35 4 -10 -8 -13 -7 -13 3 0 9 -3 10 -11 2 -7 -7 -23 -8 -45 -3 -21 5 -37 4
-41 -3 -4 -6 -1 -7 7 -2 9 5 11 4 6 -4 -6 -9 -11 -9 -22 0 -10 8 -14 8 -14 0
0 -6 -14 -11 -31 -11 -16 0 -28 4 -24 9 3 5 0 13 -6 17 -8 5 -9 3 -4 -6 6 -10
2 -12 -16 -7 -13 4 -28 7 -33 7 -5 0 -2 7 5 16 12 15 11 16 -10 9 -13 -4 -26
-3 -30 2 -3 5 -17 13 -31 19 -25 11 -25 12 15 23 22 6 64 11 93 11 28 0 52 5
52 10 0 6 -4 10 -8 10 -10 0 -49 29 -40 30 4 0 21 -8 38 -18z m467 -107 c0 -8
-4 -12 -9 -9 -5 3 -6 10 -3 15 9 13 12 11 12 -6z m-76 -12 c12 -16 12 -17 -2
-6 -9 7 -20 9 -24 5 -5 -4 -5 -1 -1 6 9 16 11 15 27 -5z m-171 -18 c5 3 11 1
15 -5 3 -6 0 -13 -9 -16 -17 -6 -56 12 -56 27 0 6 7 6 20 -1 11 -6 25 -8 30
-5z m225 -33 c-3 -3 2 -16 10 -28 11 -17 12 -25 3 -30 -7 -4 -8 -3 -4 4 4 7 5
12 2 12 -2 0 -11 3 -20 6 -9 3 -16 1 -16 -6 0 -6 5 -8 10 -5 6 3 10 1 10 -5 0
-7 -7 -10 -17 -6 -16 5 -16 4 0 -8 11 -8 25 -12 32 -9 9 3 13 -2 12 -15 -1
-20 -27 -20 -27 0 0 5 -4 7 -9 3 -13 -8 -29 24 -24 46 3 11 12 19 20 19 12 0
13 3 4 13 -8 10 -7 14 4 14 8 0 13 -3 10 -5z m-45 -26 c0 -8 -7 -16 -15 -20
-12 -4 -13 -2 -2 14 14 24 17 25 17 6z m-3190 -46 l21 -29 -50 -55 c-27 -30
-52 -65 -56 -78 -4 -12 -22 -39 -39 -59 -17 -19 -42 -48 -54 -63 -20 -24 -29
-27 -55 -21 -18 3 -36 7 -42 9 -5 1 -16 6 -24 10 -10 7 -12 6 -6 -4 6 -9 4
-11 -6 -4 -16 10 -94 8 -112 -3 -6 -4 -18 -8 -27 -9 -35 -6 -49 -11 -64 -23
-8 -7 -21 -9 -28 -5 -7 4 -10 4 -6 -1 4 -4 -3 -17 -16 -29 -27 -24 -122 -161
-104 -150 7 5 8 3 2 -7 -8 -14 -14 -34 -16 -56 -1 -7 -5 -10 -9 -7 -4 2 -11
-5 -14 -16 -5 -16 -10 -18 -20 -10 -16 13 -30 -3 -20 -22 4 -7 -1 -4 -9 6 -9
11 -16 23 -16 28 0 4 -8 8 -17 9 -11 0 -13 3 -6 6 15 6 -8 33 -29 34 -10 0
-10 2 0 6 10 4 10 8 1 19 -6 8 -16 11 -23 7 -6 -3 -8 -3 -4 1 8 10 -32 57 -44
50 -17 -11 -7 15 17 44 14 16 37 33 52 37 44 10 106 50 149 95 38 38 45 41
105 46 56 4 85 15 234 89 115 58 191 103 234 140 35 30 68 52 72 49 4 -2 17
-18 29 -34z m2075 -120 c15 -16 64 -52 109 -80 45 -28 103 -67 129 -86 69 -50
129 -82 167 -89 53 -9 89 -33 126 -85 36 -50 97 -95 124 -92 16 3 80 -53 80
-70 0 -5 4 -7 9 -3 5 3 12 1 15 -4 16 -26 161 -87 191 -81 6 2 26 2 45 1 32
-1 33 -3 17 -15 -14 -11 -15 -15 -4 -19 7 -3 19 4 26 15 11 18 15 19 27 6 29
-29 -11 -61 -44 -35 -9 7 -16 7 -24 -1 -9 -9 -8 -12 6 -12 9 0 15 -4 12 -8 -8
-13 28 -11 36 2 5 7 8 6 8 -3 0 -11 4 -10 16 5 8 10 13 13 9 7 -3 -7 0 -13 7
-13 8 -1 6 -6 -6 -15 -24 -18 -14 -20 13 -3 15 9 23 9 35 -1 9 -7 13 -17 10
-22 -3 -5 6 -13 20 -19 30 -11 34 -41 10 -61 -13 -11 -13 -15 -2 -23 14 -12
21 -59 7 -50 -5 3 -9 1 -9 -5 0 -5 4 -12 9 -15 5 -4 9 -60 8 -125 -1 -66 -5
-117 -9 -115 -4 3 -8 -2 -8 -10 0 -9 -5 -16 -11 -16 -7 0 -5 10 5 25 17 27 10
33 -14 13 -8 -7 -6 -3 4 10 11 12 16 22 11 22 -4 0 -1 8 6 18 12 15 12 16 -2
4 -13 -10 -18 -10 -28 1 -6 8 -9 17 -6 20 3 4 2 5 -2 2 -11 -8 -13 -36 -2 -29
14 8 11 -2 -4 -14 -11 -9 -13 -5 -12 21 0 18 5 38 9 46 6 9 5 12 -2 7 -6 -4
-28 4 -49 17 -21 13 -42 25 -48 26 -5 2 -16 8 -24 14 -16 13 -43 19 -36 7 10
-17 -13 -19 -26 -3 -12 14 -12 16 1 8 8 -4 12 -5 8 -1 -3 4 -9 7 -13 6 -3 -1
-18 6 -32 15 -14 9 -23 13 -20 7 4 -5 -4 -7 -18 -4 -14 2 -22 8 -19 13 3 5 10
7 15 4 15 -10 10 2 -8 16 -11 10 -14 10 -9 2 4 -8 1 -13 -8 -13 -10 0 -15 8
-13 23 1 13 -3 21 -11 19 -7 -1 -17 9 -22 23 -5 14 -16 28 -25 31 -8 3 -12 10
-9 15 9 15 -3 10 -17 -8 -12 -14 -12 -16 0 -8 10 5 12 4 7 -4 -4 -6 -4 -11 1
-10 21 4 33 -2 33 -17 0 -13 -5 -12 -29 5 -21 15 -28 27 -24 41 5 19 -4 25
-34 21 -7 -1 -13 4 -13 11 0 10 -3 9 -9 -1 -6 -10 -4 -25 5 -43 13 -25 13 -28
-2 -28 -40 0 2 -15 44 -16 33 -1 46 -5 44 -14 -2 -11 0 -11 11 -2 11 10 17 9
27 -2 13 -17 6 -36 -13 -35 -9 0 -8 2 1 6 6 2 10 9 7 13 -8 13 -36 0 -29 -14
3 -6 -3 -1 -13 10 -10 12 -28 21 -40 19 -13 -1 -23 2 -23 7 0 5 -4 7 -10 3 -5
-3 -6 -13 -3 -23 3 -9 3 -14 -1 -10 -4 3 -9 14 -11 25 -2 10 -4 18 -5 18 -1 0
-3 8 -5 18 -2 9 1 15 6 11 5 -3 9 0 9 5 0 6 -5 11 -11 11 -5 0 -7 5 -4 10 3 6
1 10 -6 10 -10 0 -10 3 -1 12 21 21 13 31 -18 24 -19 -3 -29 -2 -25 4 3 6 1
10 -4 10 -6 0 -11 -5 -11 -11 0 -5 -4 -8 -8 -5 -5 3 -19 -6 -30 -19 -12 -14
-26 -26 -32 -26 -5 -1 -15 -2 -21 -3 -6 0 -16 -11 -22 -23 -15 -27 -44 -15
-33 13 5 16 4 17 -6 4 -7 -8 -22 -16 -33 -17 -19 -1 -19 -1 2 17 24 19 21 32
-5 22 -14 -5 -15 -3 -6 9 8 9 8 21 3 34 -9 18 -9 18 -5 -3 2 -13 0 -20 -6 -16
-5 4 -8 17 -5 30 2 14 -1 24 -7 24 -6 0 -3 5 6 11 15 8 15 13 5 23 -6 8 -15
12 -19 9 -5 -2 -8 3 -8 11 0 8 6 14 13 12 6 -1 9 -1 5 1 -4 2 -6 10 -4 16 1 7
1 9 -1 5 -3 -5 -14 -8 -26 -7 -12 0 -16 3 -9 6 7 2 17 14 23 26 9 18 9 20 -1
10 -10 -9 -16 -8 -28 3 -8 9 -18 12 -21 7 -3 -4 -13 -9 -21 -11 -11 -2 -9 2 4
13 10 8 23 12 29 8 6 -3 7 -1 3 5 -3 6 -1 14 5 18 8 4 7 9 -2 16 -11 7 -11 11
-1 15 17 7 15 26 -2 20 -7 -3 -20 0 -27 6 -11 10 -11 9 0 -5 14 -19 5 -23 -18
-9 -18 11 -4 34 18 28 13 -3 17 3 18 27 0 22 -1 24 -4 8 -3 -14 -10 -22 -18
-19 -7 3 -16 2 -21 -3 -5 -5 -9 8 -10 31 0 40 0 40 14 14 7 -15 16 -24 19 -21
3 3 1 12 -5 19 -8 10 -8 17 -1 24 8 8 7 13 -2 18 -8 5 -10 4 -5 -3 4 -7 2 -12
-3 -12 -6 0 -11 6 -11 13 0 9 -3 8 -9 -2 -5 -7 -14 -10 -20 -7 -15 10 -14 29
2 20 6 -4 4 1 -5 12 -14 15 -20 16 -30 5 -11 -10 -10 -11 2 -8 8 2 12 2 7 0
-4 -3 -5 -8 -2 -13 3 -5 -3 -7 -12 -5 -19 3 -19 21 0 43 6 8 12 21 13 29 2 11
-1 12 -12 2 -7 -6 -11 -16 -8 -23 3 -6 -4 -1 -15 12 -11 13 -25 21 -31 17 -6
-3 -7 0 -4 10 4 11 2 14 -9 9 -8 -3 -18 -1 -21 4 -3 5 2 9 11 8 9 0 18 5 20
12 4 10 -15 17 -39 13 -8 -1 -12 15 -9 33 1 5 -4 4 -13 -3 -11 -9 -16 -9 -22
0 -4 8 -3 9 4 5 7 -4 12 -2 12 3 0 6 -10 11 -22 12 -20 0 -21 1 -5 8 16 6 15
9 -10 21 -29 16 -79 58 -53 46 8 -4 6 -1 -4 8 -10 8 -22 14 -25 11 -4 -2 -12
4 -18 14 -8 13 -7 26 3 49 16 39 23 40 59 2z m-158 -202 c-3 -8 -6 -5 -6 6 -1
11 2 17 5 13 3 -3 4 -12 1 -19z m-2252 -68 c-3 -5 -2 -10 3 -10 5 0 12 -22 16
-48 3 -26 13 -58 22 -71 12 -17 13 -26 5 -34 -6 -6 -11 -8 -11 -4 0 4 -9 3
-19 -3 -14 -7 -22 -7 -26 1 -4 6 -14 8 -23 4 -8 -3 -18 -1 -22 5 -4 6 -16 12
-27 13 -15 1 -19 6 -15 21 4 14 1 18 -10 13 -14 -5 -14 -2 -1 33 9 22 20 37
24 34 5 -3 9 2 9 11 0 11 5 15 15 11 8 -3 15 -1 15 5 0 6 4 8 9 5 5 -3 14 1
21 9 14 17 24 20 15 5z m-651 -148 c-1 -12 1 -20 4 -17 10 10 41 -27 35 -43
-4 -14 -3 -15 5 -2 8 10 7 19 -1 29 -10 11 -9 13 3 9 9 -3 15 -18 15 -40 0
-28 -4 -35 -17 -33 -11 3 -16 -3 -15 -15 1 -10 4 -18 7 -18 3 1 18 -4 34 -11
16 -6 37 -13 47 -14 10 -2 21 -6 24 -9 3 -3 22 -2 42 3 20 4 40 6 44 3 4 -2
10 0 14 6 4 7 13 7 26 0 11 -6 24 -8 29 -5 6 4 13 -1 16 -9 3 -9 10 -14 14
-11 5 3 20 1 35 -5 17 -7 24 -7 20 0 -3 6 1 10 10 10 9 0 14 -3 12 -7 -3 -5 5
-8 18 -8 13 0 21 3 19 7 -2 3 39 5 91 4 59 -1 95 2 95 9 0 5 7 2 14 -8 10 -13
15 -15 19 -5 4 11 8 11 27 0 12 -8 20 -10 17 -5 -6 10 83 14 98 5 5 -3 16 -7
24 -9 17 -2 33 -25 23 -33 -4 -3 -7 -21 -8 -40 0 -29 -4 -35 -22 -36 -12 -1
-25 2 -28 7 -2 4 5 6 16 4 12 -2 18 0 14 6 -3 6 -18 8 -33 4 -14 -4 -38 -8
-52 -10 -15 -1 -31 -5 -37 -9 -6 -3 -16 0 -24 7 -18 18 -138 22 -138 5 0 -9
-2 -10 -8 -2 -8 14 -103 14 -95 0 3 -4 -2 -4 -12 1 -12 7 -27 5 -53 -8 -26
-14 -39 -16 -49 -8 -9 9 -13 8 -13 0 0 -9 -5 -9 -21 0 -12 6 -19 7 -16 2 3 -5
-7 -7 -24 -5 -16 2 -29 9 -29 14 0 5 5 6 12 2 7 -5 8 -3 4 5 -6 9 -13 8 -29
-6 -19 -17 -20 -17 -14 0 4 9 2 17 -3 17 -6 0 -10 -4 -10 -9 0 -5 -9 -7 -20
-4 -11 3 -17 10 -14 15 5 7 0 7 -12 0 -13 -7 -26 -6 -47 5 -20 10 -27 11 -22
2 6 -8 4 -10 -5 -4 -18 11 -51 13 -77 3 -13 -4 -25 -3 -29 3 -3 6 -12 8 -20 5
-8 -3 -14 -1 -14 4 0 6 -5 10 -11 10 -5 0 -7 -6 -3 -12 4 -7 4 -10 -1 -6 -4 4
-15 2 -23 -5 -9 -6 -13 -7 -10 -2 3 6 -9 18 -28 27 -22 11 -31 13 -28 5 3 -9
-7 -13 -30 -13 -19 0 -32 4 -30 8 3 5 10 5 16 2 7 -4 8 -2 4 5 -4 6 -12 9 -17
5 -5 -3 -17 0 -25 7 -12 10 -13 9 -8 -5 3 -9 1 -16 -5 -16 -6 0 -11 4 -11 9 0
5 -8 8 -17 7 -14 -1 -19 8 -21 38 -3 37 -2 39 14 25 11 -9 15 -9 10 -1 -5 8
-1 11 16 8 13 -2 29 2 37 8 12 9 13 8 8 -7 -5 -13 -3 -16 6 -10 6 4 24 8 39 9
14 0 35 7 45 15 17 13 17 13 4 -4 -13 -16 -12 -17 12 -8 18 7 27 7 31 -2 2 -7
5 -1 5 13 1 19 3 22 10 10 6 -8 7 -19 4 -25 -4 -5 3 -2 14 8 14 12 22 14 25 6
2 -6 9 0 15 13 10 23 9 25 -13 22 -13 -1 -24 3 -24 9 0 7 -5 5 -10 -3 -8 -12
-10 -11 -10 7 0 27 -19 40 -32 22 -7 -12 -9 -11 -7 1 3 30 -1 39 -15 34 -8 -3
-16 -1 -20 4 -3 5 5 8 17 7 12 -1 28 5 35 14 11 13 12 13 6 1 -4 -8 4 -3 18
12 19 19 34 26 59 25 29 -2 34 -6 33 -25z m-104 14 c0 -2 -7 -7 -16 -10 -8 -3
-12 -2 -9 4 6 10 25 14 25 6z m135 -17 c11 -17 -1 -21 -15 -4 -8 9 -8 15 -2
15 6 0 14 -5 17 -11z m3345 -88 c0 -4 -12 -13 -27 -20 -26 -10 -27 -10 -9 4
11 8 16 15 12 15 -4 0 -4 5 -1 10 7 11 25 4 25 -9z m-164 -90 c-3 -5 1 -14 9
-21 8 -7 15 -22 14 -34 0 -11 -3 -15 -6 -8 -4 10 -8 9 -18 -5 -10 -13 -13 -14
-12 -3 2 8 7 22 12 30 7 12 6 13 -7 3 -8 -7 -18 -10 -21 -6 -4 3 1 12 11 19
14 11 14 13 2 14 -13 0 -13 1 0 10 19 12 23 12 16 1z m34 -17 c0 -8 -5 -12
-10 -9 -6 4 -8 11 -5 16 9 14 15 11 15 -7z m60 0 c0 -8 -19 -13 -24 -6 -3 5 1
9 9 9 8 0 15 -2 15 -3z m-129 -41 c13 -16 12 -17 -3 -4 -17 13 -22 21 -14 21
2 0 10 -8 17 -17z m89 13 c0 -3 -4 -8 -10 -11 -5 -3 -10 -1 -10 4 0 6 5 11 10
11 6 0 10 -2 10 -4z m387 -102 c0 -7 -7 -10 -15 -6 -11 4 -13 1 -7 -8 5 -8 4
-11 -3 -6 -6 4 -9 12 -6 20 6 16 31 17 31 0z m40 9 c-9 -2 -15 -8 -12 -13 3
-5 1 -11 -4 -14 -7 -5 -8 11 -2 32 1 1 9 1 19 1 16 -1 16 -2 -1 -6z m80 -28
c5 -4 2 -5 -4 -1 -17 10 -16 -5 1 -30 13 -18 12 -20 -4 -21 -13 -1 -18 4 -15
18 2 10 0 19 -5 19 -4 0 -10 6 -13 13 -6 15 27 17 40 2z m-206 -32 c13 -16 12
-17 -3 -4 -10 7 -18 15 -18 17 0 8 8 3 21 -13z m123 -44 c-3 -5 -10 -7 -15 -3
-5 3 -7 10 -3 15 3 5 10 7 15 3 5 -3 7 -10 3 -15z m-3340 -10 c-3 -5 -10 -6
-16 -3 -7 4 -8 2 -4 -4 5 -9 13 -9 28 -1 11 6 18 7 14 1 -3 -5 2 -16 11 -23 9
-8 14 -9 10 -3 -3 6 1 11 9 11 8 0 13 -6 10 -13 -3 -8 0 -16 6 -20 6 -4 9 -3
5 2 -3 5 6 14 19 21 13 6 22 8 19 3 -3 -4 2 -11 11 -14 8 -3 12 -2 9 4 -3 6 3
10 14 10 11 0 23 -5 26 -10 4 -6 11 -8 16 -5 8 6 13 -9 10 -28 -1 -5 8 -6 19
-2 19 6 26 -7 21 -38 -1 -5 3 -6 9 -2 15 10 12 -6 -6 -26 -14 -16 -14 -17 3
-14 10 1 17 8 15 15 -1 6 3 10 10 7 7 -2 12 -13 10 -23 -2 -18 -2 -18 9 0 9
15 13 16 20 5 5 -8 9 -9 9 -4 0 6 -5 17 -10 25 -7 11 -10 11 -10 2 0 -7 -5
-10 -10 -7 -16 10 8 35 26 28 8 -3 21 0 29 7 14 12 18 9 13 -7 -2 -5 -7 -7
-11 -5 -5 1 -6 -2 -2 -8 3 -6 0 -7 -10 -4 -11 5 -14 2 -9 -10 6 -15 8 -15 24
-1 9 8 20 12 25 8 4 -5 5 -3 1 4 -3 6 -2 14 4 18 5 3 10 1 10 -6 0 -7 2 -10 5
-7 3 3 1 17 -5 32 -9 25 -8 26 10 16 22 -12 23 -7 -10 -145 -12 -49 -30 -127
-41 -172 -10 -45 -19 -110 -19 -143 0 -52 -2 -60 -17 -58 -12 2 -17 -3 -15
-12 1 -9 -7 -4 -19 10 -11 14 -18 20 -15 13 4 -7 -3 -17 -15 -23 -15 -8 -19
-8 -15 -1 4 6 2 9 -6 6 -8 -3 -15 -15 -15 -28 -1 -12 -7 -23 -13 -25 -13 -5
-13 -32 1 -32 5 0 7 -5 4 -10 -4 -6 -11 -7 -17 -4 -7 4 -8 2 -4 -5 4 -6 12 -9
17 -6 5 4 9 1 9 -5 0 -6 4 -8 10 -5 6 3 7 -1 4 -9 -3 -9 -1 -16 6 -16 6 0 8
-4 5 -10 -4 -6 1 -7 11 -3 11 4 15 2 11 -4 -4 -6 5 -9 23 -7 27 3 30 1 30 -24
0 -15 -5 -56 -11 -92 -7 -36 -12 -72 -13 -81 0 -9 -6 -16 -13 -16 -7 0 -10 5
-6 10 3 5 -4 4 -16 -2 -12 -7 -25 -9 -30 -6 -13 7 -8 -20 7 -37 9 -12 9 -15
-3 -15 -8 0 -15 4 -15 9 0 5 -7 3 -15 -6 -8 -8 -15 -19 -15 -25 0 -6 -6 -8
-14 -5 -8 3 -28 -2 -45 -10 -16 -9 -32 -12 -35 -7 -3 5 -14 11 -25 14 -14 3
-18 1 -14 -10 5 -12 2 -13 -13 -5 -10 5 -28 6 -39 2 -11 -4 -26 -3 -34 4 -12
9 -13 8 -6 -4 7 -12 6 -13 -7 -3 -8 7 -18 9 -22 5 -14 -14 -66 -8 -66 8 0 10
-3 11 -8 4 -4 -6 -24 -11 -46 -12 -21 -1 -45 -7 -54 -14 -12 -10 -14 -10 -8 0
9 15 1 15 -24 2 -13 -7 -21 -7 -25 0 -4 6 -14 1 -25 -12 -11 -13 -19 -18 -20
-11 0 6 6 14 13 17 6 3 3 4 -8 3 -11 -2 -19 -9 -17 -18 2 -8 0 -11 -4 -7 -4 4
-14 2 -23 -5 -14 -11 -14 -10 -2 6 15 19 12 21 -22 8 -13 -5 -30 -5 -37 -1 -8
5 -22 4 -32 -1 -14 -7 -16 -6 -12 6 3 8 10 12 15 9 10 -6 12 9 3 19 -10 9 -34
-4 -27 -16 4 -6 1 -7 -7 -2 -10 6 -12 4 -6 -11 6 -15 5 -16 -5 -7 -9 10 -10
15 0 27 14 16 -2 32 -20 20 -6 -3 -4 5 6 19 18 27 3 49 -18 28 -9 -9 -7 -11 8
-6 16 5 17 5 5 -3 -9 -7 -19 -7 -26 -2 -6 6 -13 7 -16 5 -3 -3 -5 5 -4 17 1
17 7 23 24 22 20 -1 21 1 9 14 -11 10 -13 22 -7 43 5 18 5 27 -1 24 -5 -4 -16
-2 -25 3 -15 8 -15 10 0 15 11 5 15 3 10 -5 -4 -7 -3 -8 5 -4 19 12 3 24 -28
21 -17 -1 -30 0 -29 4 2 19 -3 32 -11 27 -5 -3 -7 -19 -6 -35 1 -18 -2 -29 -9
-28 -6 1 -9 -7 -8 -18 2 -11 1 -17 -3 -13 -12 12 -17 71 -6 63 6 -3 8 -11 5
-17 -4 -6 -2 -8 4 -5 5 4 8 16 5 27 -3 11 -9 17 -14 14 -5 -3 -6 2 -3 10 3 9
12 12 22 8 15 -5 15 -4 3 11 -13 16 -12 16 15 2 15 -8 30 -12 32 -10 7 6 -9
26 -17 21 -4 -3 -8 2 -8 10 0 11 5 10 21 -5 19 -17 23 -18 40 -5 11 8 16 14
11 14 -5 0 -4 5 3 12 17 17 15 28 -5 22 -10 -3 -7 1 7 9 14 9 29 13 34 10 5
-4 6 -1 2 6 -4 6 -12 9 -17 6 -5 -4 -9 -2 -9 4 0 5 5 13 10 16 13 8 13 65 0
85 -5 9 -5 19 1 27 8 9 6 11 -9 8 -14 -2 -22 3 -26 18 -4 17 -8 19 -18 9 -15
-15 -32 -16 -22 0 5 7 3 8 -6 3 -8 -5 -26 -9 -41 -10 l-28 -2 0 189 c1 115 4
188 10 188 6 0 7 -6 3 -12 -5 -10 -3 -9 7 0 12 11 11 15 -3 23 -10 6 -18 17
-18 25 0 8 5 12 10 9 6 -4 7 -11 4 -17 -4 -6 2 -8 17 -3 19 5 21 4 9 -4 -8 -6
-13 -11 -10 -12 48 -8 83 -8 70 1 -13 9 -13 10 0 11 8 1 18 1 23 0 4 0 7 4 7
11 0 6 3 8 6 5 4 -4 1 -14 -7 -23 -17 -20 -20 -44 -7 -44 6 0 6 -6 -2 -14 -6
-8 -17 -13 -25 -10 -17 7 -29 -12 -14 -22 8 -4 9 -3 5 4 -4 7 -2 12 3 12 6 0
11 -6 12 -12 0 -10 2 -10 6 0 9 24 21 12 17 -18 -5 -28 2 -36 30 -31 4 1 16
-4 25 -11 14 -11 14 -11 3 4 -9 11 -10 18 -2 23 5 3 10 1 10 -6 0 -7 3 -10 6
-7 3 4 -2 18 -11 32 -11 16 -13 26 -6 26 6 0 11 5 11 12 0 6 -7 4 -18 -5 -21
-19 -37 -23 -27 -7 4 6 1 17 -5 25 -13 16 -6 35 13 35 7 0 6 -4 -3 -10 -8 -5
-10 -10 -4 -10 17 0 25 12 15 24 -9 12 -21 56 -15 56 2 0 10 -12 18 -27 12
-21 15 -23 13 -8 -1 11 -7 26 -11 34 -7 11 -6 12 5 5 8 -5 21 -9 29 -10 21 -1
68 -23 53 -23 -7 -1 -13 -5 -13 -10 0 -5 9 -7 20 -4 24 6 25 0 4 -32 -13 -20
-14 -28 -4 -40 10 -11 9 -18 -4 -30 -9 -9 -17 -13 -17 -8 -1 4 -2 14 -3 22 -1
18 -33 23 -33 5 0 -8 5 -14 10 -14 5 0 7 -6 4 -12 -3 -8 5 -14 19 -14 13 -1
24 2 24 7 0 14 22 10 44 -8 12 -10 15 -11 9 -3 -16 17 -17 34 -3 25 6 -4 18
-4 27 -1 14 6 14 8 -1 25 -9 9 -13 21 -9 26 5 4 2 5 -5 1 -7 -4 -9 -12 -6 -18
5 -7 1 -9 -9 -5 -12 4 -14 2 -10 -11 5 -13 1 -13 -17 4 -19 18 -20 25 -10 43
10 19 14 20 28 9 9 -7 14 -8 10 -4 -4 5 -2 16 4 24 10 11 9 17 -5 27 -9 6 -14
15 -10 18 3 4 14 -3 25 -15 14 -17 21 -19 30 -10 16 16 31 15 22 0 -4 -7 -3
-10 1 -5 5 4 10 17 12 30 2 12 9 26 15 32 8 7 9 6 5 -1 -4 -7 0 -14 8 -17 10
-4 12 -1 8 10 -4 10 -2 14 4 10 6 -4 16 0 23 8 7 8 17 12 23 8 6 -4 7 -1 3 6
-6 9 -12 9 -25 -3 -12 -11 -20 -12 -31 -5 -13 9 -12 10 2 6 19 -7 42 15 30 29
-4 4 1 2 11 -5 9 -7 17 -10 17 -5 0 4 7 -1 15 -12 14 -18 15 -17 5 8 -6 19 -6
29 2 34 7 4 8 3 4 -4 -4 -7 -2 -12 3 -12 6 0 11 6 11 13 0 8 11 12 30 11 17
-1 28 3 27 10 -1 6 6 10 16 8 9 -2 17 1 17 6 0 5 11 8 25 7 14 -2 27 1 31 6 3
5 10 7 15 3 5 -3 7 -10 3 -15z m3693 -101 c-3 -8 -6 -5 -6 6 -1 11 2 17 5 13
3 -3 4 -12 1 -19z m59 -18 c11 -8 24 -22 29 -30 4 -8 -3 -5 -17 8 -13 12 -27
20 -30 17 -3 -3 -11 1 -17 9 -16 19 6 17 35 -4z m-887 -45 c5 2 17 -5 27 -18
11 -12 13 -17 4 -11 -8 6 -21 10 -27 10 -15 -1 -18 -21 -4 -21 5 0 13 -3 17
-7 4 -5 3 -8 -2 -8 -5 0 -10 -9 -10 -19 0 -16 3 -18 15 -8 12 10 13 9 3 -10
-14 -26 -15 -36 -3 -28 5 3 13 0 17 -6 4 -8 3 -9 -4 -5 -7 4 -12 1 -12 -9 0
-12 -4 -13 -18 -6 -14 7 -19 6 -19 -3 0 -8 12 -12 30 -11 26 2 28 0 14 -10
-27 -20 -19 -29 9 -10 25 16 25 16 15 -4 -8 -14 -8 -22 1 -27 7 -4 8 -3 4 4
-4 7 -2 12 3 12 6 0 11 -4 11 -10 0 -5 10 -14 21 -21 17 -9 20 -8 14 2 -6 9
-3 10 11 5 10 -4 26 -9 34 -11 8 -2 16 -4 18 -5 1 -2 5 -3 10 -4 4 -1 12 -5
19 -9 7 -4 22 3 37 18 15 15 26 20 26 13 0 -9 3 -9 10 2 6 9 5 17 -3 23 -7 4
-1 5 14 2 14 -4 34 -7 45 -9 10 -2 20 -8 20 -14 1 -7 2 -16 3 -22 0 -5 5 -10
10 -10 6 0 8 9 6 20 -2 11 0 20 6 20 5 0 9 -6 10 -12 0 -10 2 -10 6 0 2 6 9
10 14 6 5 -3 10 0 10 5 3 26 4 30 11 36 4 4 5 -5 2 -20 -4 -25 -3 -27 11 -15
11 10 15 10 15 0 0 -7 7 -10 15 -6 21 8 45 -3 45 -21 0 -13 -3 -13 -17 -2 -14
11 -14 8 2 -11 11 -14 22 -27 24 -30 2 -3 1 2 -1 10 -7 20 10 52 24 44 7 -4 7
-9 -1 -14 -9 -5 -7 -10 4 -20 13 -11 15 -10 9 4 -3 9 -1 16 5 16 6 0 11 5 11
11 0 5 -4 8 -9 4 -17 -10 -21 13 -4 26 9 8 18 13 20 12 9 -7 23 -2 18 7 -8 13
47 -11 58 -25 4 -5 5 6 2 25 l-5 35 15 -27 c10 -17 21 -25 30 -22 8 4 13 9 10
13 -2 4 2 8 9 8 8 0 12 -11 11 -31 -4 -42 -4 -43 -15 -26 -8 13 -10 12 -10 -3
0 -12 6 -17 18 -15 12 2 17 -3 16 -19 -1 -14 3 -20 10 -15 6 3 14 7 19 8 4 1
10 2 13 3 4 0 1 7 -5 14 -6 8 -8 17 -4 21 4 4 14 -8 23 -25 8 -18 25 -36 38
-40 18 -7 22 -5 23 14 1 12 1 25 0 30 -2 11 17 9 24 -3 3 -5 11 -10 17 -10 17
0 -10 27 -32 33 -11 3 -17 1 -14 -4 3 -6 -5 -8 -20 -5 -23 4 -24 3 -13 -14 8
-14 13 -16 19 -7 5 8 8 7 8 -5 0 -21 -13 -23 -28 -5 -16 19 -18 41 -4 43 6 1
15 2 19 3 3 0 -2 11 -13 23 l-19 21 27 -17 c15 -10 33 -14 39 -10 8 4 9 3 5
-4 -10 -16 7 -15 23 1 11 10 13 9 7 -1 -4 -7 0 -15 9 -18 13 -6 14 -8 3 -15
-17 -12 42 -6 62 6 12 6 13 5 3 -5 -12 -13 -48 -22 -90 -22 -17 0 -22 -5 -19
-22 2 -11 7 -19 12 -16 5 3 8 8 7 12 -2 4 6 5 17 3 11 -2 20 2 20 8 0 7 5 4
11 -6 6 -9 14 -15 19 -12 5 3 11 1 15 -5 4 -6 10 -8 14 -6 4 3 7 -12 6 -32 0
-26 6 -41 20 -50 19 -12 19 -13 -2 -7 -14 4 -23 2 -23 -4 0 -10 13 -15 31 -13
4 1 4 -9 1 -21 -5 -17 -7 -18 -10 -6 -2 14 -11 16 -43 12 -27 -4 -39 -2 -39 7
0 8 8 10 24 6 30 -7 29 6 -4 59 -14 22 -28 47 -32 55 -5 11 -7 9 -7 -7 -1 -13
4 -23 10 -23 5 0 7 -5 3 -12 -4 -7 -3 -8 4 -4 7 4 12 2 12 -3 0 -6 -9 -11 -20
-11 -14 0 -18 5 -13 17 4 11 3 14 -5 9 -7 -4 -10 -2 -6 7 3 8 -1 14 -10 14
-11 0 -13 -5 -5 -18 14 -27 11 -30 -18 -27 -22 2 -28 -1 -29 -17 0 -11 4 -26
10 -33 7 -9 5 -12 -5 -10 -8 2 -13 -3 -11 -10 1 -8 -2 -11 -8 -7 -6 4 -17 2
-24 -4 -10 -9 -13 -6 -12 11 1 13 -2 26 -7 29 -15 11 2 28 22 22 13 -3 17 -11
15 -26 -4 -21 -4 -21 5 -2 7 15 4 24 -13 38 -11 10 -15 16 -8 12 6 -3 12 -2
12 4 0 6 8 8 18 5 14 -5 15 -4 2 5 -11 8 -12 11 -2 11 7 0 11 4 8 9 -4 5 -1
11 6 13 7 3 2 7 -10 10 -14 4 -22 2 -21 -5 3 -26 -2 -37 -15 -37 -7 0 -17 -10
-20 -22 -6 -22 -7 -22 -21 -4 -13 17 -15 18 -21 2 -6 -15 -7 -15 -18 -1 -10
15 -12 14 -12 -3 0 -16 6 -19 28 -15 15 2 28 1 29 -4 0 -4 2 -16 4 -25 2 -10
-1 -18 -6 -18 -9 0 -13 16 -10 34 1 5 -4 4 -12 -2 -8 -7 -18 -8 -22 -4 -5 4
-5 1 -1 -6 4 -7 12 -10 17 -7 5 4 9 1 9 -4 0 -10 -14 -15 -24 -8 -2 1 -13 -6
-23 -16 -11 -9 -23 -14 -27 -10 -12 12 -40 12 -55 0 -10 -8 -13 -8 -8 -1 4 7
-2 12 -18 12 -14 0 -25 -5 -25 -11 0 -7 -4 -7 -12 1 -16 16 -31 15 -23 0 4 -7
0 -5 -8 5 -13 16 -15 16 -21 2 -4 -11 -2 -14 7 -9 6 4 8 3 4 -1 -10 -11 -39
-16 -32 -5 3 4 -2 13 -10 20 -13 11 -14 10 -9 -3 4 -12 1 -15 -15 -12 -12 2
-26 7 -31 10 -6 3 -16 3 -22 -1 -20 -12 -52 -12 -60 0 -5 7 -11 8 -15 1 -11
-14 -65 -16 -56 -2 4 6 1 7 -8 1 -21 -13 -47 -15 -54 -4 -4 6 -12 7 -18 3 -18
-12 -87 -10 -87 2 0 5 -4 4 -9 -4 -5 -7 -13 -11 -18 -8 -5 3 -15 2 -23 -3 -7
-4 -23 -4 -36 0 -12 5 -25 6 -28 2 -8 -8 -76 -9 -71 -2 2 3 -5 6 -15 6 -10 0
-16 -4 -14 -8 7 -11 -18 -10 -36 2 -11 7 -11 10 -2 10 7 0 11 4 8 9 -3 5 1 23
10 40 15 31 15 44 -2 85 -5 15 -4 17 6 11 9 -5 11 -4 6 4 -4 6 -11 9 -16 6 -4
-3 -16 7 -25 21 -9 15 -12 23 -6 20 14 -9 14 17 0 68 -13 47 2 68 18 26 8 -21
8 -28 1 -24 -7 5 -8 2 -4 -5 5 -7 14 -10 20 -8 7 3 13 -1 13 -9 0 -8 -5 -14
-11 -15 -6 0 -2 -4 9 -8 11 -5 25 -4 32 1 9 7 11 4 8 -10 -2 -11 3 -23 10 -26
9 -3 12 0 8 10 -3 7 0 14 6 14 6 0 10 -3 10 -7 -5 -30 4 -51 22 -56 16 -4 20
-11 16 -26 -3 -12 -1 -19 3 -16 5 3 11 1 15 -5 11 -19 33 -10 37 15 3 14 1 25
-5 25 -18 0 -45 41 -43 65 2 17 -1 22 -12 17 -10 -3 -13 -1 -8 7 4 6 2 20 -5
29 -12 15 -11 15 7 -1 20 -17 21 -17 21 25 1 24 3 53 6 65 5 17 2 21 -11 16
-15 -6 -15 -4 1 15 20 22 14 47 -9 38 -17 -7 -18 2 -2 36 10 21 15 24 21 12 5
-8 12 -12 16 -9z m-3244 -4 c3 -5 1 -12 -5 -16 -5 -3 -10 1 -10 9 0 18 6 21
15 7z m3067 -53 c-4 -17 -6 -18 -13 -5 -11 19 0 55 11 37 4 -7 5 -21 2 -32z
m158 2 c0 -5 -8 -10 -17 -10 -15 0 -16 2 -3 10 19 12 20 12 20 0z m1014 1 c3
-5 -1 -11 -9 -14 -9 -4 -12 -1 -8 9 6 16 10 17 17 5z m-1134 -31 c0 -5 -5 -10
-11 -10 -5 0 -7 5 -4 10 3 6 8 10 11 10 2 0 4 -4 4 -10z m-3076 -8 c3 -5 -1
-9 -9 -9 -8 0 -12 4 -9 9 3 4 7 8 9 8 2 0 6 -4 9 -8z m-160 -21 c7 -11 -14
-20 -32 -13 -11 4 -11 6 0 13 17 11 26 11 32 0z m3709 -17 c-4 -12 -8 -13 -14
-3 -9 15 -2 32 11 24 5 -3 6 -13 3 -21z m143 -6 c4 -7 3 -8 -4 -4 -7 4 -12 2
-12 -5 0 -7 -3 -10 -6 -6 -6 5 3 27 11 27 2 0 7 -5 11 -12z m-95 -48 c5 0 9
-4 9 -8 0 -4 -9 -8 -19 -8 -11 0 -18 3 -15 7 2 4 -3 9 -11 13 -8 3 -15 1 -15
-3 0 -5 -9 -7 -20 -4 -11 3 -20 10 -20 15 0 5 5 6 10 3 6 -3 10 0 11 7 0 10 2
11 6 0 4 -10 8 -10 21 0 13 11 15 11 9 -2 -4 -8 -2 -7 5 3 12 17 13 17 16 -3
2 -11 8 -20 13 -20z m639 26 c-15 -15 -44 -17 -31 -2 6 7 18 13 26 13 11 0 12
-4 5 -11z m-615 -6 c-3 -5 -12 -10 -18 -10 -7 0 -6 4 3 10 19 12 23 12 15 0z
m127 -10 c15 -12 16 -16 4 -28 -11 -11 -18 -11 -35 -3 -12 7 -25 10 -30 7 -11
-7 -10 28 2 35 14 10 40 5 59 -11z m48 5 c0 -8 -2 -15 -4 -15 -2 0 -6 7 -10
15 -3 8 -1 15 4 15 6 0 10 -7 10 -15z m214 -46 c-3 -5 -9 -7 -14 -4 -9 6 -32
-19 -24 -27 3 -3 1 -8 -3 -11 -5 -3 -9 9 -9 27 0 29 3 32 28 28 15 -2 25 -8
22 -13z m145 7 c9 -11 9 -16 -1 -22 -7 -4 -10 -4 -6 1 4 4 3 14 -3 22 -6 7 -9
13 -6 13 2 0 10 -6 16 -14z m55 -12 c3 -8 2 -12 -4 -9 -6 3 -10 10 -10 16 0
14 7 11 14 -7z m-774 -5 c0 -4 -11 -6 -24 -5 -13 0 -22 4 -20 8 6 9 44 6 44
-3z m778 -41 c-14 -20 -28 -27 -28 -13 0 3 3 4 6 3 3 -2 10 5 15 15 6 9 13 17
16 17 3 0 -1 -10 -9 -22z m29 -43 c0 -8 -4 -12 -9 -9 -5 4 -8 -1 -6 -9 2 -9
-1 -16 -7 -15 -5 0 -8 5 -6 12 2 6 4 18 5 27 0 20 23 14 23 -6z m-1212 -29
c15 -22 15 -27 1 -53 -9 -16 -16 -22 -16 -13 -3 42 -5 90 -3 90 2 0 10 -11 18
-24z m1046 -45 c6 10 9 10 9 2 0 -7 5 -13 11 -13 5 0 8 4 5 8 -3 5 1 9 9 9 8
0 15 -5 15 -11 0 -6 5 -4 10 4 9 13 11 13 20 0 7 -12 4 -16 -15 -18 -14 -2
-23 -7 -21 -11 3 -4 1 -13 -5 -21 -6 -11 -9 -12 -9 -2 0 7 -5 10 -10 7 -6 -4
-10 -3 -9 2 4 22 -2 32 -16 27 -11 -5 -15 0 -14 17 1 20 2 20 6 5 4 -15 7 -16
14 -5z m-2257 -216 c-3 -11 -2 -16 3 -10 4 6 17 12 28 13 11 2 24 9 28 15 6 8
7 6 4 -4 -3 -9 -1 -22 3 -30 5 -8 4 -19 -3 -28 -7 -8 -7 -12 -1 -8 6 4 14 -16
20 -53 7 -40 7 -57 -1 -53 -5 3 -4 0 3 -8 13 -14 17 -61 5 -72 -3 -4 -12 -2
-19 4 -8 7 -14 7 -19 -1 -4 -6 -3 -10 2 -9 4 1 11 0 16 -1 8 -3 23 -7 33 -9 4
0 2 -7 -4 -13 -6 -7 -11 -17 -12 -23 -1 -5 -10 -9 -20 -8 -11 2 -24 -6 -30
-17 -6 -12 -16 -17 -22 -14 -7 5 -8 2 -3 -6 6 -10 12 -8 26 9 10 12 20 17 23
12 3 -5 -1 -12 -10 -15 -8 -3 -13 -9 -10 -14 2 -4 -4 -9 -15 -9 -18 -2 -23 7
-20 34 1 7 -4 10 -12 7 -8 -3 -20 2 -27 11 -7 8 -9 15 -5 15 4 0 2 7 -5 15 -7
8 -10 15 -6 15 4 0 -1 11 -9 24 -15 23 -15 25 2 30 23 7 39 6 36 -3 -4 -16 27
-7 32 10 8 23 -5 70 -16 63 -5 -3 -9 0 -9 6 0 6 -6 8 -12 5 -7 -4 -6 0 3 7 15
12 15 17 3 40 -20 37 -14 94 8 94 13 0 16 -6 12 -21z m-2044 -29 c0 -3 -4 -8
-10 -11 -5 -3 -10 -1 -10 4 0 6 5 11 10 11 6 0 10 -2 10 -4z m1990 -97 c0 -5
-7 -9 -15 -9 -9 0 -12 6 -9 15 6 15 24 11 24 -6z m1969 13 c15 11 15 10 0 -5
-16 -19 -64 -33 -54 -16 4 5 11 6 17 3 8 -5 9 -1 4 12 -6 15 -5 16 5 7 10 -10
16 -10 28 -1z m21 -55 c0 -5 -4 -6 -9 -2 -5 3 -12 1 -16 -4 -3 -5 3 -14 12
-20 11 -6 13 -11 5 -11 -7 0 -10 -5 -6 -12 4 -7 3 -8 -5 -4 -6 4 -9 12 -6 17
4 5 2 9 -4 9 -5 0 -9 9 -8 19 0 11 5 17 9 15 4 -3 8 3 8 13 0 15 2 16 10 3 5
-8 10 -19 10 -23z m-3987 12 c-6 -6 -10 -17 -9 -23 2 -6 1 -8 -1 -3 -3 4 -9 4
-15 1 -5 -3 -4 3 4 15 7 12 17 21 22 21 6 0 5 -5 -1 -11z m-58 -15 c-11 -8
-20 -19 -20 -24 0 -4 -3 -11 -7 -15 -3 -4 -5 1 -4 10 2 16 32 45 45 45 3 0 -3
-7 -14 -16z m2105 5 c0 -5 -4 -8 -9 -4 -5 3 -12 1 -16 -5 -3 -5 -12 -10 -18
-10 -7 0 -3 7 7 15 23 18 36 19 36 4z m-2118 -86 c-6 -3 -9 -10 -6 -15 4 -7 2
-8 -5 -4 -9 6 -9 11 0 22 6 8 15 12 18 8 3 -4 0 -9 -7 -11z m43 -2 c3 -5 1
-12 -5 -16 -5 -3 -10 1 -10 9 0 18 6 21 15 7z m40 -21 c3 -5 1 -10 -4 -10 -6
0 -11 5 -11 10 0 6 2 10 4 10 3 0 8 -4 11 -10z m3115 -43 c0 -5 -4 -5 -10 -2
-5 3 -10 14 -10 23 0 15 2 15 10 2 5 -8 10 -19 10 -23z m70 18 c0 -2 -9 -9
-20 -15 -12 -6 -20 -7 -20 -1 0 5 8 12 18 14 9 3 18 5 20 6 1 0 2 -1 2 -4z
m-1195 -34 c3 -5 2 -12 -3 -15 -5 -3 -9 1 -9 9 0 17 3 19 12 6z m-80 -21 c3
-5 1 -10 -4 -10 -6 0 -11 5 -11 10 0 6 2 10 4 10 3 0 8 -4 11 -10z m106 -17
c13 -16 12 -17 -3 -4 -17 13 -22 21 -14 21 2 0 10 -8 17 -17z m-2061 -27 c0
-2 -7 -7 -16 -10 -8 -3 -12 -2 -9 4 6 10 25 14 25 6z m3077 -761 c0 -8 -4 -12
-9 -9 -5 3 -6 10 -3 15 9 13 12 11 12 -6z"/>
<path d="M1950 4421 c0 -3 -35 -5 -77 -5 -43 1 -71 -1 -63 -4 8 -3 17 -9 20
-13 10 -15 143 -35 192 -29 84 10 297 -39 323 -74 15 -20 69 -23 91 -6 10 9
15 10 10 3 -5 -9 -2 -11 8 -7 18 7 28 32 19 46 -3 7 -1 8 5 4 7 -4 12 -3 12 3
0 5 7 16 15 24 13 13 10 15 -20 19 -23 3 -32 0 -27 -7 4 -6 -1 -3 -10 8 -13
13 -29 18 -57 16 -22 -2 -43 -1 -46 3 -3 3 -19 4 -35 2 -17 -2 -30 0 -30 5 0
4 -7 8 -15 8 -8 0 -11 -5 -8 -10 4 -7 -1 -7 -13 -2 -10 4 -46 9 -79 11 -33 2
-60 4 -60 5 0 0 -35 2 -77 3 -43 1 -78 0 -78 -3z m495 -69 c-3 -3 -11 0 -18 7
-9 10 -8 11 6 5 10 -3 15 -9 12 -12z"/>
<path d="M2120 4340 c0 -3 9 -11 21 -18 15 -10 19 -10 14 -1 -6 9 -1 11 18 7
15 -3 24 -2 22 2 -6 9 -75 19 -75 10z"/>
<path d="M2509 4320 c-27 -21 -16 -30 29 -23 59 8 65 11 51 25 -16 18 -55 16
-80 -2z"/>
<path d="M2260 4195 c-10 -12 -8 -16 16 -26 71 -26 102 -22 72 10 -10 11 -10
13 0 7 6 -4 12 -2 12 3 0 14 -13 14 -27 0 -8 -8 -18 -6 -36 5 -21 15 -26 15
-37 1z"/>
<path d="M2375 4181 c-19 -8 -19 -8 2 -19 15 -8 24 -9 28 -2 4 6 11 8 16 5 5
-4 9 -1 9 5 0 7 -8 9 -21 5 -15 -5 -19 -4 -15 4 8 12 8 12 -19 2z"/>
<path d="M1338 4163 c6 -2 9 -10 6 -15 -4 -7 -2 -8 4 -4 18 11 14 26 -5 25
-11 0 -13 -3 -5 -6z"/>
<path d="M2276 4121 c-3 -5 1 -11 9 -15 8 -3 15 -1 15 4 0 13 -18 22 -24 11z"/>
<path d="M2450 4091 c13 -11 28 -17 32 -15 4 3 13 -4 20 -16 15 -24 30 -27 21
-3 -5 12 -3 14 8 8 8 -4 11 -5 7 0 -4 4 -3 13 2 20 7 8 5 12 -5 12 -8 0 -12
-4 -9 -8 8 -14 -17 -21 -31 -9 -8 7 -15 9 -15 4 0 -5 -5 -1 -11 9 -5 9 -18 17
-27 17 -13 0 -12 -4 8 -19z"/>
<path d="M2060 4086 c0 -9 5 -16 10 -16 6 0 10 4 10 9 0 6 -4 13 -10 16 -5 3
-10 -1 -10 -9z"/>
<path d="M2580 4070 c0 -6 6 -13 14 -16 8 -3 12 -12 9 -20 -4 -10 0 -12 11 -8
20 8 21 6 -9 32 -14 12 -25 17 -25 12z"/>
<path d="M2572 4032 c4 -12 2 -25 -3 -28 -5 -3 -8 0 -7 7 2 6 -3 14 -9 16 -22
8 -14 -12 15 -40 27 -26 79 -47 67 -27 -3 5 -1 11 5 15 13 8 13 25 -1 25 -5 0
-7 -6 -4 -12 4 -7 -10 5 -31 26 -29 30 -36 34 -32 18z"/>
<path d="M3675 3920 c3 -5 11 -10 16 -10 6 0 7 5 4 10 -3 6 -11 10 -16 10 -6
0 -7 -4 -4 -10z"/>
<path d="M3563 2845 c0 -8 4 -12 9 -9 5 3 6 10 3 15 -9 13 -12 11 -12 -6z"/>
<path d="M3580 2815 c0 -8 2 -15 4 -15 2 0 6 7 10 15 3 8 1 15 -4 15 -6 0 -10
-7 -10 -15z"/>
<path d="M3630 2796 c0 -2 8 -10 18 -17 15 -13 16 -12 3 4 -13 16 -21 21 -21
13z"/>
<path d="M3870 2666 c0 -2 8 -10 18 -17 15 -13 16 -12 3 4 -13 16 -21 21 -21
13z"/>
<path d="M3744 2652 c3 -5 0 -13 -6 -15 -9 -4 -10 -6 -1 -6 17 -1 25 16 12 25
-7 4 -9 3 -5 -4z"/>
<path d="M3805 2579 c-4 -6 -5 -12 -2 -15 2 -3 7 2 10 11 7 17 1 20 -8 4z"/>
<path d="M3876 2481 c-4 -5 -2 -12 3 -15 5 -4 12 -2 15 3 4 5 2 12 -3 15 -5 4
-12 2 -15 -3z"/>
<path d="M4140 2476 c0 -2 8 -10 18 -17 15 -13 16 -12 3 4 -13 16 -21 21 -21
13z"/>
<path d="M4444 2469 c-4 -7 -3 -9 4 -5 5 3 13 0 15 -6 4 -9 6 -10 6 -1 1 17
-16 25 -25 12z"/>
<path d="M4351 2436 c-15 -18 5 -34 22 -17 9 9 7 10 -8 5 -18 -7 -18 -6 -6 9
7 9 11 17 8 17 -2 0 -10 -6 -16 -14z"/>
<path d="M3815 2430 c-3 -5 -1 -10 4 -10 6 0 11 5 11 10 0 6 -2 10 -4 10 -3 0
-8 -4 -11 -10z"/>
<path d="M3883 2425 c0 -8 4 -12 9 -9 5 3 6 10 3 15 -9 13 -12 11 -12 -6z"/>
<path d="M4263 2415 c0 -8 4 -12 9 -9 5 3 6 10 3 15 -9 13 -12 11 -12 -6z"/>
<path d="M3800 2401 c0 -6 4 -13 10 -16 6 -3 7 1 4 9 -7 18 -14 21 -14 7z"/>
<path d="M4275 2391 c-3 -5 0 -13 6 -17 8 -4 9 -3 5 4 -9 15 -1 15 27 1 21
-10 21 -10 3 5 -23 18 -32 20 -41 7z"/>
<path d="M4432 2382 c-10 -15 -12 -15 -21 -2 -8 12 -10 11 -9 -6 2 -17 8 -20
32 -17 37 4 37 4 22 25 -11 15 -13 15 -24 0z"/>
<path d="M4339 2368 c-6 -13 -8 -20 -4 -16 5 4 14 3 21 -3 18 -15 25 3 9 24
-13 18 -14 17 -26 -5z"/>
<path d="M3820 2370 c-9 -6 -10 -10 -3 -10 6 0 15 5 18 10 8 12 4 12 -15 0z"/>
<path d="M4156 2368 c3 -5 10 -6 15 -3 13 9 11 12 -6 12 -8 0 -12 -4 -9 -9z"/>
<path d="M4485 2370 c3 -5 8 -10 11 -10 2 0 4 5 4 10 0 6 -5 10 -11 10 -5 0
-7 -4 -4 -10z"/>
<path d="M4521 2357 c-1 -13 -7 -16 -26 -11 -16 4 -25 2 -25 -6 0 -7 7 -10 16
-6 8 3 12 2 9 -3 -3 -5 -1 -12 4 -16 12 -7 34 32 27 48 -2 7 -5 4 -5 -6z"/>
<path d="M4441 2337 c-8 -10 -7 -14 2 -14 8 0 14 6 14 14 0 7 -1 13 -2 13 -2
0 -8 -6 -14 -13z"/>
<path d="M4563 2323 c-15 -5 -17 -23 -4 -23 5 0 11 7 15 15 3 8 4 15 3 14 -1
0 -8 -3 -14 -6z"/>
<path d="M4413 2293 c0 -9 4 -10 14 -2 7 6 13 12 13 14 0 1 -6 2 -13 2 -8 0
-14 -6 -14 -14z"/>
<path d="M4455 2301 c-3 -6 1 -11 9 -11 9 0 16 -6 16 -14 0 -8 6 -18 13 -22 6
-4 9 -4 5 1 -5 5 1 14 12 22 11 8 20 20 19 26 0 9 -2 8 -6 -1 -2 -6 -10 -9
-15 -6 -7 4 -8 2 -4 -4 10 -17 -4 -15 -25 4 -11 10 -19 12 -24 5z"/>
<path d="M4425 2249 c-4 -6 -5 -12 -2 -15 2 -3 7 2 10 11 7 17 1 20 -8 4z"/>
<path d="M4543 2235 c0 -8 4 -15 9 -15 4 0 8 4 8 9 0 6 -4 12 -8 15 -5 3 -9
-1 -9 -9z"/>
<path d="M4444 2229 c-8 -14 14 -19 25 -6 8 10 7 14 -5 14 -8 0 -17 -4 -20 -8z"/>
<path d="M4479 2213 c-13 -16 -12 -17 4 -4 16 13 21 21 13 21 -2 0 -10 -8 -17
-17z"/>
<path d="M4557 2123 c-3 -5 -2 -15 3 -23 4 -7 6 -19 3 -26 -2 -6 -1 -14 4 -17
5 -3 8 10 8 29 -1 35 -9 51 -18 37z"/>
<path d="M30 2460 c-6 -11 -8 -20 -6 -20 3 0 10 9 16 20 6 11 8 20 6 20 -3 0
-10 -9 -16 -20z"/>
<path d="M215 2431 c-3 -5 0 -13 6 -17 7 -4 9 -3 5 4 -3 5 0 13 6 15 9 4 10 6
1 6 -6 1 -14 -3 -18 -8z"/>
<path d="M1044 2388 l-19 -23 23 19 c12 11 22 21 22 23 0 8 -8 2 -26 -19z"/>
<path d="M642 2217 c-8 -10 -6 -13 11 -14 12 0 16 1 9 4 -6 3 -10 9 -6 14 8
14 -2 11 -14 -4z"/>
<path d="M695 2200 c-3 -5 -1 -10 4 -10 6 0 11 5 11 10 0 6 -2 10 -4 10 -3 0
-8 -4 -11 -10z"/>
<path d="M207 2079 c7 -7 15 -10 18 -7 3 3 -2 9 -12 12 -14 6 -15 5 -6 -5z"/>
<path d="M40 2020 c-15 -13 -18 -20 -9 -20 10 0 11 -3 2 -8 -6 -4 -10 -19 -10
-33 2 -22 5 -24 19 -16 9 6 15 14 12 18 -2 4 2 10 8 13 7 3 2 3 -12 -1 -22 -5
-23 -4 -11 11 7 9 19 16 25 15 32 -4 53 3 53 16 0 9 -6 14 -13 11 -8 -3 -16
-1 -19 4 -9 15 -19 12 -45 -10z m38 -15 c-3 -3 -9 2 -12 12 -6 14 -5 15 5 6 7
-7 10 -15 7 -18z"/>
<path d="M712 1981 c-11 -7 -11 -9 2 -14 9 -4 16 -12 16 -19 0 -9 -3 -9 -12 0
-16 16 -25 15 -32 -4 -3 -8 -2 -12 3 -9 5 3 12 2 15 -3 2 -4 17 -7 33 -6 15 0
31 -4 35 -10 5 -7 8 -7 8 2 0 7 4 11 8 8 4 -2 8 6 8 19 0 14 -4 21 -10 17 -19
-12 -39 -11 -52 2 -7 8 -10 16 -7 20 9 9 0 7 -15 -3z m73 -40 c-9 -8 -36 -10
-30 -2 2 4 11 8 20 8 8 0 13 -3 10 -6z"/>
<path d="M920 1986 c0 -2 8 -10 18 -17 15 -13 16 -12 3 4 -13 16 -21 21 -21
13z"/>
<path d="M382 1964 c9 -9 21 -15 27 -13 6 2 -2 10 -17 17 -25 11 -25 11 -10
-4z"/>
<path d="M433 1965 c0 -8 4 -15 9 -15 4 0 8 4 8 9 0 6 -4 12 -8 15 -5 3 -9 -1
-9 -9z"/>
<path d="M506 1951 c-11 -12 -14 -21 -7 -26 6 -3 12 -4 12 -1 1 3 2 9 3 14 1
4 5 13 9 20 12 18 2 15 -17 -7z"/>
<path d="M572 1953 c-13 -5 -7 -23 9 -23 6 0 7 5 4 10 -9 14 8 12 25 -2 12
-11 12 -10 1 5 -14 18 -18 19 -39 10z"/>
<path d="M810 1950 c0 -5 5 -10 11 -10 5 0 7 5 4 10 -3 6 -8 10 -11 10 -2 0
-4 -4 -4 -10z"/>
<path d="M840 1941 c0 -6 4 -13 10 -16 6 -3 7 1 4 9 -7 18 -14 21 -14 7z"/>
<path d="M96 1928 c3 -5 10 -6 15 -3 13 9 11 12 -6 12 -8 0 -12 -4 -9 -9z"/>
<path d="M455 1931 c-3 -5 -2 -12 3 -15 5 -3 9 1 9 9 0 17 -3 19 -12 6z"/>
<path d="M115 1400 c-4 -6 -11 -8 -16 -5 -5 4 -9 0 -9 -7 0 -10 -3 -9 -11 2
-7 10 -9 11 -7 2 2 -8 7 -13 11 -13 4 1 13 1 21 1 8 0 16 7 20 15 6 17 0 20
-9 5z"/>
<path d="M958 1353 c10 -4 10 -8 0 -21 -12 -15 -11 -16 4 -3 19 14 15 32 -5
30 -8 0 -8 -2 1 -6z"/>
<path d="M110 1241 c0 -5 5 -13 10 -16 6 -3 10 -2 10 4 0 5 -4 13 -10 16 -5 3
-10 2 -10 -4z"/>
<path d="M233 1155 c0 -8 4 -12 9 -9 5 3 6 10 3 15 -9 13 -12 11 -12 -6z"/>
<path d="M3530 2050 c-9 -6 -10 -10 -3 -10 6 0 15 5 18 10 8 12 4 12 -15 0z"/>
<path d="M4149 1863 c-11 -15 -11 -16 1 -5 23 20 35 14 15 -8 -10 -11 -15 -23
-12 -27 4 -3 7 -1 7 6 0 7 5 9 10 6 6 -4 9 -1 8 7 -2 7 3 12 10 11 18 -4 15
14 -4 21 -21 8 -20 8 -35 -11z"/>
<path d="M4265 1870 c-3 -5 -1 -10 4 -10 6 0 11 5 11 10 0 6 -2 10 -4 10 -3 0
-8 -4 -11 -10z"/>
<path d="M3838 1842 c-4 -15 -1 -18 13 -15 24 7 33 20 19 28 -5 3 -10 0 -10
-7 0 -11 -2 -10 -9 0 -6 11 -9 9 -13 -6z"/>
<path d="M4229 1859 c-6 -29 -3 -46 7 -46 8 0 12 8 11 18 -3 17 -16 38 -18 28z"/>
<path d="M4195 1829 c-4 -6 -5 -12 -2 -15 2 -3 7 2 10 11 7 17 1 20 -8 4z"/>
<path d="M3940 1825 c0 -2 8 -9 18 -14 14 -7 19 -6 19 3 0 6 -9 13 -19 13 -10
1 -18 0 -18 -2z"/>
<path d="M3435 1809 c-4 -6 -5 -12 -2 -15 2 -3 7 2 10 11 7 17 1 20 -8 4z"/>
<path d="M3856 1812 c-3 -5 1 -9 9 -9 8 0 15 4 15 9 0 4 -4 8 -9 8 -6 0 -12
-4 -15 -8z"/>
<path d="M3891 1804 c0 -11 3 -14 6 -6 3 7 2 16 -1 19 -3 4 -6 -2 -5 -13z"/>
<path d="M4210 1791 c0 -10 19 -25 25 -20 1 2 -3 10 -11 17 -8 7 -14 8 -14 3z"/>
<path d="M4319 1773 c-1 -5 -2 -12 -3 -18 0 -5 -5 -11 -11 -12 -5 -1 -9 6 -7
15 2 13 1 14 -6 3 -8 -11 -10 -11 -15 0 -4 9 -6 10 -6 2 -1 -7 -8 -10 -18 -6
-10 3 -15 3 -11 -1 3 -4 13 -8 21 -10 8 -1 21 -7 29 -14 12 -9 20 -6 43 18 16
17 23 30 17 30 -7 0 -12 -4 -12 -10 0 -5 -5 -10 -11 -10 -5 0 -7 5 -4 10 3 6
4 10 1 10 -3 0 -7 -3 -7 -7z"/>
<path d="M4480 1760 c0 -5 5 -10 11 -10 5 0 7 5 4 10 -3 6 -8 10 -11 10 -2 0
-4 -4 -4 -10z"/>
<path d="M4399 1739 c-8 -17 -8 -20 2 -17 7 2 13 12 15 21 3 23 -3 21 -17 -4z"/>
<path d="M4514 1752 c4 -7 2 -12 -3 -12 -6 0 -11 -4 -11 -9 0 -13 31 -43 38
-36 3 3 1 10 -5 16 -6 6 -9 17 -7 24 3 7 0 16 -7 21 -8 4 -10 3 -5 -4z"/>
<path d="M4033 1888 c-3 -7 -1 -8 5 -4 7 4 12 3 12 -2 0 -6 6 -12 13 -15 8 -3
14 1 14 8 0 17 -35 27 -44 13z"/>
<path d="M2220 1196 c0 -2 8 -10 18 -17 15 -13 16 -12 3 4 -13 16 -21 21 -21
13z"/>
</g>
</svg>
