<?xml version="1.0" standalone="no"?>
<!DOCTYPE svg PUBLIC "-//W3C//DTD SVG 20010904//EN"
 "http://www.w3.org/TR/2001/REC-SVG-20010904/DTD/svg10.dtd">
<svg version="1.0" xmlns="http://www.w3.org/2000/svg"
 width="460.000000pt" height="460.000000pt" viewBox="0 0 460.000000 460.000000"
 preserveAspectRatio="xMidYMid meet">

<g transform="translate(0.000000,460.000000) scale(0.100000,-0.100000)"
fill="#000000" stroke="none">
<path d="M0 2300 l0 -2300 2300 0 2300 0 0 2300 0 2300 -2300 0 -2300 0 0
-2300z m2300 2258 c20 -34 28 -22 10 13 -11 19 5 19 1135 19 l1145 0 0 -1915
c0 -1053 -1 -1915 -3 -1915 -2 0 -65 -13 -140 -30 -76 -16 -143 -30 -149 -30
-8 0 -9 37 -3 128 4 70 5 215 3 322 -1 107 -3 324 -3 482 l0 286 -35 6 c-89
14 -262 27 -280 21 -11 -3 -20 -14 -20 -23 -1 -27 -28 -239 -45 -345 -8 -55
-34 -165 -56 -245 -81 -288 -90 -328 -96 -425 -3 -54 -10 -97 -16 -97 -17 0
-307 276 -447 426 -36 38 -75 78 -88 89 -12 11 -43 44 -69 73 -70 80 -80 82
-75 19 3 -47 0 -57 -34 -108 -46 -68 -112 -115 -223 -158 -110 -43 -188 -58
-343 -66 l-128 -7 -11 26 c-14 30 -27 33 -36 9 -14 -38 -33 -38 -198 -1 -59
13 -124 37 -189 70 -126 63 -152 83 -183 136 -25 42 -25 46 -13 98 7 30 10 57
7 60 -3 4 -9 -7 -13 -22 -4 -16 -10 -34 -15 -39 -25 -33 -80 -268 -77 -328 1
-11 -10 -42 -25 -70 -32 -64 -41 -87 -41 -110 -1 -14 -21 -26 -81 -47 -44 -15
-171 -71 -282 -123 -112 -52 -203 -91 -203 -86 0 5 20 42 44 82 24 39 65 114
91 166 26 52 74 141 107 199 92 159 190 397 233 563 9 35 39 117 67 184 28 66
65 161 83 211 l32 92 -39 79 c-38 77 -58 158 -58 238 0 22 -6 47 -13 56 -10
13 -12 -18 -12 -150 0 -91 4 -176 8 -188 13 -37 -12 -209 -44 -302 -17 -47
-41 -122 -55 -166 -69 -223 -88 -272 -125 -326 -22 -31 -42 -71 -45 -90 -3
-19 -16 -53 -27 -75 -35 -67 -113 -224 -142 -289 -16 -33 -47 -82 -71 -110
-24 -27 -44 -54 -44 -59 0 -5 -10 -23 -23 -40 -12 -17 -31 -50 -42 -74 -22
-50 -47 -70 -130 -102 -33 -13 -135 -61 -227 -108 -254 -128 -307 -188 -308
-349 l0 -83 -115 0 -115 0 0 2290 0 2290 1135 0 1135 0 20 -32z m1987 -4080
c-3 -8 -6 -5 -6 6 -1 11 2 17 5 13 3 -3 4 -12 1 -19z m-1793 -137 c3 -5 -12
-11 -33 -13 -31 -3 -37 -1 -29 9 12 15 54 17 62 4z m-1681 -115 l32 -14 -44
-1 c-42 -1 -43 -2 -25 -16 18 -14 17 -14 -16 -15 -19 -1 -52 -7 -73 -14 -33
-12 -39 -12 -44 1 -3 8 2 31 11 50 l17 36 55 -7 c30 -3 69 -13 87 -20z m1444
-62 c3 3 15 -2 26 -11 11 -10 17 -13 14 -6 -4 6 -4 14 1 17 4 2 8 -11 8 -29 0
-18 -4 -31 -9 -28 -5 3 -8 0 -5 -8 11 -33 -137 -74 -224 -63 -26 4 -48 10 -48
14 0 11 62 35 82 32 9 -2 24 8 34 22 9 15 23 26 30 26 8 0 17 6 20 14 3 8 13
12 25 9 11 -3 19 0 19 6 0 7 -5 9 -12 5 -7 -4 -8 -3 -4 5 6 9 11 9 22 0 8 -6
17 -9 21 -5z m863 -4 c0 -5 -5 -10 -11 -10 -5 0 -7 5 -4 10 3 6 8 10 11 10 2
0 4 -4 4 -10z m-1880 -4 c0 -3 -4 -8 -10 -11 -5 -3 -10 -1 -10 4 0 6 5 11 10
11 6 0 10 -2 10 -4z m-515 -13 c-10 -3 -29 -12 -40 -19 -20 -13 -35 -10 -35 7
0 9 32 16 70 16 19 1 20 0 5 -4z m2085 -23 c17 -12 44 -41 60 -66 l31 -44
-187 0 -187 0 48 43 c109 97 169 114 235 67z m-1979 -33 c-7 -17 -18 -27 -31
-27 -32 0 -110 21 -110 30 0 4 21 13 48 20 26 6 58 15 72 19 29 9 35 -3 21
-42z m1294 13 c-3 -5 -12 -10 -18 -10 -7 0 -6 4 3 10 19 12 23 12 15 0z m-442
-35 c-3 -9 -8 -14 -10 -11 -3 3 -2 9 2 15 9 16 15 13 8 -4z"/>
<path d="M1774 4309 l-19 -22 43 6 c50 6 62 14 42 27 -24 15 -46 11 -66 -11z"/>
<path d="M2039 4308 c-8 -7 -22 -24 -31 -38 -13 -21 -13 -27 -2 -38 17 -16 24
-15 24 3 0 8 5 15 10 15 6 0 10 -4 10 -10 0 -16 26 -11 43 8 22 24 21 28 -5
37 -14 4 -18 8 -11 11 7 3 27 -1 45 -10 l33 -16 -24 20 c-13 11 -29 20 -36 20
-7 0 -19 2 -27 5 -7 3 -21 0 -29 -7z"/>
<path d="M1822 4275 c-39 -21 -45 -32 -38 -68 5 -29 10 -34 27 -30 11 3 26 17
32 30 6 14 16 22 24 19 22 -9 27 23 8 44 -20 23 -21 23 -53 5z"/>
<path d="M2600 4228 c0 -18 18 -34 28 -24 3 4 -2 14 -11 23 -16 16 -17 16 -17
1z"/>
<path d="M2397 4130 c3 -30 9 -68 13 -85 7 -27 8 -26 8 15 0 25 -5 63 -13 85
l-13 40 5 -55z"/>
<path d="M2620 4150 c0 -5 5 -10 11 -10 5 0 7 5 4 10 -3 6 -8 10 -11 10 -2 0
-4 -4 -4 -10z"/>
<path d="M1896 4056 c21 -15 30 -14 19 3 -3 6 -14 11 -23 11 -13 0 -13 -2 4
-14z"/>
<path d="M1840 4040 c0 -5 5 -10 11 -10 5 0 7 5 4 10 -3 6 -8 10 -11 10 -2 0
-4 -4 -4 -10z"/>
<path d="M2667 4043 c-4 -7 -23 -109 -31 -170 -2 -13 0 -23 4 -23 10 0 20 26
20 51 0 12 5 17 10 14 7 -5 10 17 8 64 -2 71 -3 77 -11 64z"/>
<path d="M2422 3945 c0 -16 2 -22 5 -12 2 9 2 23 0 30 -3 6 -5 -1 -5 -18z"/>
<path d="M2611 3944 c0 -11 3 -14 6 -6 3 7 2 16 -1 19 -3 4 -6 -2 -5 -13z"/>
<path d="M1842 3928 c-14 -14 -16 -68 -3 -68 11 0 29 22 30 35 0 12 34 23 74
24 30 1 37 -15 10 -22 -10 -3 3 -5 29 -6 26 0 50 4 53 9 3 6 -2 10 -12 10 -10
0 -36 7 -58 15 -49 17 -107 19 -123 3z"/>
<path d="M2385 3910 c-10 -16 -36 -162 -30 -169 11 -11 23 16 34 76 15 75 13
119 -4 93z"/>
<path d="M2799 3870 c-7 -35 -4 -48 7 -38 3 4 4 21 2 40 l-3 33 -6 -35z"/>
<path d="M2821 3799 c0 -14 -9 -43 -20 -65 -10 -21 -22 -50 -26 -64 -7 -22 -6
-23 9 -11 20 17 49 113 43 143 -4 21 -4 21 -6 -3z"/>
<path d="M2225 3737 c-17 -18 -38 -36 -47 -42 -9 -5 -19 -21 -22 -35 -3 -14
-3 -19 0 -11 5 11 8 11 15 0 6 -11 15 -7 38 15 27 26 59 91 49 101 -2 2 -17
-10 -33 -28z"/>
<path d="M1880 3650 c0 -5 5 -10 10 -10 6 0 10 5 10 10 0 6 -4 10 -10 10 -5 0
-10 -4 -10 -10z"/>
<path d="M1920 3628 c0 -13 4 -40 9 -60 6 -26 6 -36 -2 -31 -6 4 -7 -4 -2 -23
27 -105 43 -205 38 -245 -3 -26 -1 -55 5 -65 10 -18 11 -18 18 1 4 11 14 26
21 34 11 11 13 46 7 175 -3 88 -9 177 -13 196 -6 32 -10 35 -44 38 -33 3 -37
1 -37 -20z"/>
<path d="M1878 3589 c-3 -18 0 -49 6 -69 l11 -35 3 52 c4 64 -12 105 -20 52z"/>
<path d="M2456 3545 c-15 -38 -28 -78 -29 -90 0 -11 -5 -26 -10 -33 -6 -7 -7
-15 -3 -19 10 -11 36 30 32 50 -3 10 7 43 21 73 13 29 23 62 21 72 -2 10 -15
-13 -32 -53z"/>
<path d="M2757 3590 c-3 -8 -8 -30 -11 -47 -4 -25 -2 -33 10 -33 20 0 25 18
15 60 -5 22 -10 29 -14 20z"/>
<path d="M1920 3468 c-9 -59 -9 -78 -1 -98 8 -21 10 -14 10 38 1 34 -1 62 -4
62 -3 0 -5 -1 -5 -2z"/>
<path d="M2414 3375 c-4 -8 -7 -27 -7 -42 -1 -16 -6 -31 -12 -35 -6 -5 -6 -11
1 -18 8 -8 17 -6 32 7 18 15 20 25 15 61 -6 42 -19 55 -29 27z"/>
<path d="M1891 3314 c0 -11 3 -14 6 -6 3 7 2 16 -1 19 -3 4 -6 -2 -5 -13z"/>
<path d="M2476 3215 l-16 -25 57 0 c100 0 112 -2 117 -19 3 -9 12 -51 21 -93
9 -43 19 -78 22 -78 3 0 3 45 0 100 -3 58 -1 100 4 100 5 0 19 -20 31 -45 12
-24 26 -41 31 -38 8 5 4 52 -9 96 -7 21 -45 22 -83 2 -26 -13 -33 -12 -69 5
-56 27 -86 26 -106 -5z"/>
<path d="M1911 3198 c0 -9 -11 -25 -24 -35 -13 -10 -26 -25 -29 -33 -3 -8 -28
-53 -56 -100 -28 -46 -49 -86 -47 -89 6 -5 1 -12 60 73 47 67 72 78 41 18 -18
-34 -56 -133 -56 -145 0 -21 25 11 46 60 13 29 40 87 59 127 19 41 35 85 35
98 0 17 -3 20 -9 9 -7 -11 -10 -9 -14 10 -2 13 -5 16 -6 7z"/>
<path d="M2750 3045 c0 -15 18 -40 24 -34 3 3 -1 14 -9 25 -8 10 -14 15 -15 9z"/>
<path d="M1726 2915 c-3 -8 -1 -15 4 -15 6 0 10 7 10 15 0 8 -2 15 -4 15 -2 0
-6 -7 -10 -15z"/>
<path d="M1750 2873 c0 -13 29 -38 35 -31 3 3 -4 13 -15 23 -11 10 -20 13 -20
8z"/>
<path d="M1680 2855 c-7 -9 -8 -15 -2 -15 5 0 12 7 16 15 3 8 4 15 2 15 -2 0
-9 -7 -16 -15z"/>
<path d="M3166 2845 c-4 -12 3 -15 29 -15 39 0 47 15 13 24 -33 8 -35 8 -42
-9z"/>
<path d="M4295 2810 c3 -5 14 -10 23 -10 15 0 15 2 2 10 -20 13 -33 13 -25 0z"/>
<path d="M1612 2748 c-29 -47 -62 -135 -61 -161 1 -15 5 -9 14 18 7 22 27 70
44 108 33 73 34 85 3 35z"/>
<path d="M2536 2771 c-10 -16 -109 -77 -226 -140 -99 -53 -118 -60 -142 -52
-17 6 -28 6 -30 0 -2 -6 -29 -1 -63 10 -33 10 -51 20 -40 21 11 1 -2 9 -32 20
-29 10 -63 26 -75 34 -27 19 -42 21 -32 4 4 -8 3 -10 -2 -5 -5 5 -9 12 -9 15
-1 4 -15 22 -32 40 -20 21 -33 28 -36 20 -16 -49 137 -134 341 -188 41 -11 47
-9 121 29 43 22 105 58 137 79 70 47 154 121 137 122 -6 0 -14 -4 -17 -9z
m-686 -66 c13 -14 21 -25 18 -25 -2 0 -15 11 -28 25 -13 14 -21 25 -18 25 2 0
15 -11 28 -25z m155 -85 l20 -9 -20 0 c-11 0 -27 4 -35 9 -13 9 -13 10 0 9 8
0 24 -4 35 -9z"/>
<path d="M2985 2744 c60 -92 85 -168 85 -256 0 -37 4 -57 10 -53 43 26 -40
307 -96 329 -15 6 -14 3 1 -20z"/>
<path d="M3635 2626 c32 -28 129 -76 151 -76 8 0 43 -14 77 -31 56 -28 59 -29
36 -8 -33 31 -113 69 -144 69 -13 0 -30 6 -37 13 -11 10 -75 45 -103 55 -5 2
4 -8 20 -22z"/>
<path d="M2068 2603 c7 -3 16 -2 19 1 4 3 -2 6 -13 5 -11 0 -14 -3 -6 -6z"/>
<path d="M3935 2480 c3 -5 14 -10 23 -10 15 0 15 2 2 10 -20 13 -33 13 -25 0z"/>
<path d="M4240 2391 c0 -5 11 -16 25 -25 14 -9 25 -12 25 -7 0 5 -11 16 -25
25 -14 9 -25 12 -25 7z"/>
<path d="M2076 2380 c6 -6 21 -6 39 -1 30 9 30 9 -9 10 -26 1 -37 -2 -30 -9z"/>
<path d="M1822 2369 c8 -24 35 -34 52 -20 9 8 16 18 16 23 0 6 -7 5 -16 -3
-13 -10 -19 -10 -36 0 -16 10 -19 10 -16 0z"/>
<path d="M2230 2339 c-18 -5 -9 -7 32 -8 31 -1 60 3 63 9 7 11 -55 11 -95 -1z"/>
<path d="M2138 2333 c7 -3 16 -2 19 1 4 3 -2 6 -13 5 -11 0 -14 -3 -6 -6z"/>
<path d="M4347 2333 c-23 -4 -26 -7 -17 -19 7 -7 10 -21 6 -29 -8 -23 -46 -1
-46 28 -1 16 -8 9 -26 -27 -22 -42 -24 -52 -14 -77 14 -34 44 -54 85 -57 38
-3 45 2 75 63 14 27 35 58 48 69 16 15 19 22 10 28 -7 4 -21 5 -31 2 -9 -3
-24 2 -33 10 -8 9 -18 15 -22 15 -4 -1 -20 -4 -35 -6z"/>
<path d="M1957 2318 c-6 -4 -8 -10 -4 -14 4 -4 12 -3 19 4 8 8 17 8 30 1 10
-5 35 -7 56 -3 69 12 64 21 -13 20 -42 0 -81 -4 -88 -8z"/>
<path d="M2189 2326 c0 0 -2 -13 -3 -28 -2 -32 -52 -88 -78 -88 -10 0 -18 -4
-18 -10 0 -5 7 -7 16 -3 14 5 14 3 3 -15 -16 -25 -30 -32 -81 -38 -23 -3 -38
-1 -38 6 0 5 7 10 16 10 9 0 14 6 11 13 -2 6 -9 11 -13 10 -5 -1 -38 -5 -73
-9 -62 -7 -63 -6 -52 14 15 29 -17 48 -45 27 -24 -17 -9 -33 16 -17 28 17 32
15 18 -8 -12 -19 -18 -20 -112 -21 -24 0 -46 -8 -59 -20 -11 -10 -24 -19 -29
-19 -4 0 -8 -7 -8 -16 0 -11 5 -14 16 -10 8 3 40 3 70 0 40 -5 58 -12 65 -26
13 -24 8 -30 -28 -32 -15 -1 -33 -5 -39 -9 -14 -8 -36 15 -32 34 2 8 -7 14
-20 15 -22 1 -22 0 -6 -24 12 -19 13 -26 4 -32 -7 -4 -9 -13 -5 -19 5 -9 10
-9 20 -1 16 13 39 4 30 -11 -4 -5 -15 -9 -26 -9 -10 0 -19 -4 -19 -10 0 -6 9
-6 23 -1 12 5 45 12 73 16 46 6 51 9 47 28 -4 20 -3 21 10 5 8 -10 21 -18 29
-18 29 0 78 22 78 35 0 7 3 15 8 18 4 2 1 2 -6 0 -8 -1 -23 4 -35 12 -21 14
-21 15 -2 16 11 0 34 2 50 2 17 1 37 6 45 12 8 5 26 11 40 12 62 5 131 20 142
31 15 15 48 16 48 2 0 -5 7 -10 15 -10 8 0 15 -4 15 -8 0 -4 12 -9 27 -10 25
-2 26 -1 8 18 -17 19 -17 19 16 10 36 -11 52 -4 29 10 -8 6 -35 7 -59 5 -32
-4 -49 -1 -62 11 -11 10 -19 14 -19 9 0 -4 -7 -2 -15 5 -8 7 -12 16 -9 21 3 5
1 9 -5 9 -6 0 -8 7 -5 15 7 17 34 21 34 5 0 -5 8 -10 18 -10 14 1 13 4 -7 20
-35 30 -21 50 35 50 26 0 45 2 43 4 -4 4 -108 25 -110 22z m-29 -156 c0 -5 -5
-10 -11 -10 -5 0 -7 5 -4 10 3 6 8 10 11 10 2 0 4 -4 4 -10z m-185 -40 c-3 -5
-11 -10 -16 -10 -6 0 -7 5 -4 10 3 6 11 10 16 10 6 0 7 -4 4 -10z m-95 -92 c0
-13 -30 4 -40 22 -15 27 2 34 22 8 10 -13 18 -26 18 -30z m40 2 c0 -5 -4 -10
-10 -10 -5 0 -10 5 -10 10 0 6 5 10 10 10 6 0 10 -4 10 -10z m-135 -30 c-3 -5
-10 -10 -16 -10 -5 0 -9 5 -9 10 0 6 7 10 16 10 8 0 12 -4 9 -10z"/>
<path d="M2140 2300 c-8 -5 -10 -10 -5 -10 6 0 17 5 25 10 8 5 11 10 5 10 -5
0 -17 -5 -25 -10z"/>
<path d="M2425 2191 c-3 -6 11 -15 32 -20 25 -7 39 -7 41 -1 2 6 8 10 14 10 6
0 5 -6 -2 -15 -10 -12 -26 -14 -78 -9 -48 5 -63 4 -58 -4 4 -7 17 -12 30 -12
23 0 43 -13 64 -41 11 -14 8 -16 -20 -13 -18 2 -49 8 -67 13 -22 7 -37 7 -41
1 -3 -5 -42 -8 -87 -7 -64 2 -79 5 -71 15 8 9 5 12 -11 12 -11 0 -21 -6 -21
-14 0 -8 -12 -19 -27 -24 -20 -6 42 -10 207 -14 131 -2 238 0 241 5 3 5 13 1
22 -7 8 -9 26 -16 39 -15 21 0 21 1 4 8 -11 4 -21 17 -23 30 -2 17 4 25 28 35
17 7 27 16 21 20 -12 7 -70 1 -79 -8 -4 -3 -21 8 -39 25 -26 26 -36 30 -47 20
-11 -9 -17 -8 -27 4 -14 17 -36 20 -45 6z m160 -78 c19 -13 19 -13 0 -14 -11
-1 -35 -2 -52 -4 -27 -2 -33 1 -33 16 0 15 7 19 33 17 17 -1 41 -8 52 -15z"/>
<path d="M3840 2185 c0 -8 34 -50 75 -94 41 -44 75 -86 75 -93 0 -7 4 -19 9
-26 7 -12 13 -11 37 2 18 9 23 15 13 16 -11 0 -15 7 -12 23 4 20 -21 54 -69
93 -7 6 -28 30 -47 53 -35 42 -81 57 -81 26z"/>
<path d="M2700 2065 c0 -8 4 -15 10 -15 5 0 7 7 4 15 -4 8 -8 15 -10 15 -2 0
-4 -7 -4 -15z"/>
<path d="M1909 1397 c0 -6 -2 -20 -4 -29 -2 -10 0 -18 3 -19 4 0 15 -2 25 -4
9 -2 15 1 11 6 -3 5 -1 9 4 9 18 0 8 29 -15 39 -17 8 -23 8 -24 -2z"/>
<path d="M2275 1270 c-4 -6 -2 -16 3 -23 5 -7 9 -24 8 -38 -2 -31 21 -34 27
-3 3 17 0 21 -11 16 -10 -3 -13 -1 -8 6 3 6 2 13 -4 17 -5 3 -10 11 -10 17 0
6 10 3 23 -8 l22 -19 -19 23 c-22 25 -23 26 -31 12z"/>
<path d="M2270 107 c0 -11 1 -18 3 -16 1 2 8 11 15 20 9 13 9 16 -3 16 -8 0
-15 -9 -15 -20z"/>
</g>
</svg>
